%FSLAX46Y46*%
G04 Gerber Fmt 4.6, Leading zero omitted, Abs format (unit mm)*
G04 Created by KiCad (PCBNEW (2014-09-02 BZR 5112)-product) date 2015-01-28 2:30:08 PM*
%MOMM*%
G01*
G04 APERTURE LIST*
%ADD10C,0.150000*%
%ADD11C,0.152400*%
%ADD12C,0.250000*%
%ADD13C,0.190500*%
%ADD14C,0.127000*%
%ADD15C,0.200000*%
%ADD16C,0.254000*%
%ADD17R,0.701040X1.000760*%
%ADD18R,1.300480X0.299720*%
%ADD19R,1.270000X0.381000*%
%ADD20R,1.143000X0.812800*%
%ADD21R,0.812800X1.143000*%
%ADD22R,1.000000X1.250000*%
%ADD23R,1.200000X1.250000*%
%ADD24R,1.350000X3.500000*%
G04 APERTURE END LIST*
D10*
D11*
X106304895Y-90274095D02*
X107117695Y-90003162D01*
X106304895Y-89732229D01*
X106808057Y-89461295D02*
X106808057Y-88842019D01*
X101054895Y-90274095D02*
X101867695Y-90003162D01*
X101054895Y-89732229D01*
X101558057Y-89461295D02*
X101558057Y-88842019D01*
X101867695Y-89151657D02*
X101248419Y-89151657D01*
X113640400Y-89666171D02*
X113756514Y-89666171D01*
X113814572Y-89695200D01*
X113872629Y-89753257D01*
X113901657Y-89869371D01*
X113901657Y-90072571D01*
X113872629Y-90188686D01*
X113814572Y-90246743D01*
X113756514Y-90275771D01*
X113640400Y-90275771D01*
X113582343Y-90246743D01*
X113524286Y-90188686D01*
X113495257Y-90072571D01*
X113495257Y-89869371D01*
X113524286Y-89753257D01*
X113582343Y-89695200D01*
X113640400Y-89666171D01*
X114162915Y-89666171D02*
X114162915Y-90159657D01*
X114191943Y-90217714D01*
X114220972Y-90246743D01*
X114279029Y-90275771D01*
X114395143Y-90275771D01*
X114453201Y-90246743D01*
X114482229Y-90217714D01*
X114511258Y-90159657D01*
X114511258Y-89666171D01*
X114714458Y-89666171D02*
X115062801Y-89666171D01*
X114888630Y-90275771D02*
X114888630Y-89666171D01*
X118587658Y-77325829D02*
X118781182Y-77867695D01*
X118974706Y-77325829D01*
X119245639Y-77132305D02*
X119284344Y-77093600D01*
X119361753Y-77054895D01*
X119555277Y-77054895D01*
X119632687Y-77093600D01*
X119671391Y-77132305D01*
X119710096Y-77209714D01*
X119710096Y-77287124D01*
X119671391Y-77403238D01*
X119206934Y-77867695D01*
X119710096Y-77867695D01*
X120058439Y-77790286D02*
X120097144Y-77828990D01*
X120058439Y-77867695D01*
X120019734Y-77828990D01*
X120058439Y-77790286D01*
X120058439Y-77867695D01*
X120871239Y-77867695D02*
X120406782Y-77867695D01*
X120639011Y-77867695D02*
X120639011Y-77054895D01*
X120561601Y-77171010D01*
X120484192Y-77248419D01*
X120406782Y-77287124D01*
X122612953Y-77054895D02*
X122690362Y-77054895D01*
X122767772Y-77093600D01*
X122806477Y-77132305D01*
X122845181Y-77209714D01*
X122883886Y-77364533D01*
X122883886Y-77558057D01*
X122845181Y-77712876D01*
X122806477Y-77790286D01*
X122767772Y-77828990D01*
X122690362Y-77867695D01*
X122612953Y-77867695D01*
X122535543Y-77828990D01*
X122496839Y-77790286D01*
X122458134Y-77712876D01*
X122419429Y-77558057D01*
X122419429Y-77364533D01*
X122458134Y-77209714D01*
X122496839Y-77132305D01*
X122535543Y-77093600D01*
X122612953Y-77054895D01*
X123657981Y-77867695D02*
X123193524Y-77867695D01*
X123425753Y-77867695D02*
X123425753Y-77054895D01*
X123348343Y-77171010D01*
X123270934Y-77248419D01*
X123193524Y-77287124D01*
X124586895Y-77132305D02*
X124625600Y-77093600D01*
X124703009Y-77054895D01*
X124896533Y-77054895D01*
X124973943Y-77093600D01*
X125012647Y-77132305D01*
X125051352Y-77209714D01*
X125051352Y-77287124D01*
X125012647Y-77403238D01*
X124548190Y-77867695D01*
X125051352Y-77867695D01*
X125554514Y-77054895D02*
X125631923Y-77054895D01*
X125709333Y-77093600D01*
X125748038Y-77132305D01*
X125786742Y-77209714D01*
X125825447Y-77364533D01*
X125825447Y-77558057D01*
X125786742Y-77712876D01*
X125748038Y-77790286D01*
X125709333Y-77828990D01*
X125631923Y-77867695D01*
X125554514Y-77867695D01*
X125477104Y-77828990D01*
X125438400Y-77790286D01*
X125399695Y-77712876D01*
X125360990Y-77558057D01*
X125360990Y-77364533D01*
X125399695Y-77209714D01*
X125438400Y-77132305D01*
X125477104Y-77093600D01*
X125554514Y-77054895D01*
X126599542Y-77867695D02*
X126135085Y-77867695D01*
X126367314Y-77867695D02*
X126367314Y-77054895D01*
X126289904Y-77171010D01*
X126212495Y-77248419D01*
X126135085Y-77287124D01*
X127334932Y-77054895D02*
X126947885Y-77054895D01*
X126909180Y-77441943D01*
X126947885Y-77403238D01*
X127025294Y-77364533D01*
X127218818Y-77364533D01*
X127296228Y-77403238D01*
X127334932Y-77441943D01*
X127373637Y-77519352D01*
X127373637Y-77712876D01*
X127334932Y-77790286D01*
X127296228Y-77828990D01*
X127218818Y-77867695D01*
X127025294Y-77867695D01*
X126947885Y-77828990D01*
X126909180Y-77790286D01*
D12*
X101630952Y-77678571D02*
X101964285Y-79178571D01*
X102297619Y-77678571D01*
X103202381Y-79035714D02*
X103154762Y-79107143D01*
X103011905Y-79178571D01*
X102916667Y-79178571D01*
X102773809Y-79107143D01*
X102678571Y-78964286D01*
X102630952Y-78821429D01*
X102583333Y-78535714D01*
X102583333Y-78321429D01*
X102630952Y-78035714D01*
X102678571Y-77892857D01*
X102773809Y-77750000D01*
X102916667Y-77678571D01*
X103011905Y-77678571D01*
X103154762Y-77750000D01*
X103202381Y-77821429D01*
X104345238Y-78750000D02*
X104821429Y-78750000D01*
X104250000Y-79178571D02*
X104583333Y-77678571D01*
X104916667Y-79178571D01*
X105250000Y-79178571D02*
X105250000Y-77678571D01*
X105488095Y-77678571D01*
X105630953Y-77750000D01*
X105726191Y-77892857D01*
X105773810Y-78035714D01*
X105821429Y-78321429D01*
X105821429Y-78535714D01*
X105773810Y-78821429D01*
X105726191Y-78964286D01*
X105630953Y-79107143D01*
X105488095Y-79178571D01*
X105250000Y-79178571D01*
X106202381Y-79107143D02*
X106345238Y-79178571D01*
X106583334Y-79178571D01*
X106678572Y-79107143D01*
X106726191Y-79035714D01*
X106773810Y-78892857D01*
X106773810Y-78750000D01*
X106726191Y-78607143D01*
X106678572Y-78535714D01*
X106583334Y-78464286D01*
X106392857Y-78392857D01*
X106297619Y-78321429D01*
X106250000Y-78250000D01*
X106202381Y-78107143D01*
X106202381Y-77964286D01*
X106250000Y-77821429D01*
X106297619Y-77750000D01*
X106392857Y-77678571D01*
X106630953Y-77678571D01*
X106773810Y-77750000D01*
X107773810Y-79178571D02*
X107440476Y-78464286D01*
X107202381Y-79178571D02*
X107202381Y-77678571D01*
X107583334Y-77678571D01*
X107678572Y-77750000D01*
X107726191Y-77821429D01*
X107773810Y-77964286D01*
X107773810Y-78178571D01*
X107726191Y-78321429D01*
X107678572Y-78392857D01*
X107583334Y-78464286D01*
X107202381Y-78464286D01*
D11*
X103390400Y-89695200D02*
X103332343Y-89666171D01*
X103245257Y-89666171D01*
X103158172Y-89695200D01*
X103100114Y-89753257D01*
X103071086Y-89811314D01*
X103042057Y-89927429D01*
X103042057Y-90014514D01*
X103071086Y-90130629D01*
X103100114Y-90188686D01*
X103158172Y-90246743D01*
X103245257Y-90275771D01*
X103303314Y-90275771D01*
X103390400Y-90246743D01*
X103419429Y-90217714D01*
X103419429Y-90014514D01*
X103303314Y-90014514D01*
X103651657Y-90101600D02*
X103941943Y-90101600D01*
X103593600Y-90275771D02*
X103796800Y-89666171D01*
X104000000Y-90275771D01*
X104116114Y-89666171D02*
X104464457Y-89666171D01*
X104290286Y-90275771D02*
X104290286Y-89666171D01*
X104667657Y-89956457D02*
X104870857Y-89956457D01*
X104957943Y-90275771D02*
X104667657Y-90275771D01*
X104667657Y-89666171D01*
X104957943Y-89666171D01*
X111169429Y-90275771D02*
X111169429Y-89666171D01*
X111459715Y-90275771D02*
X111459715Y-89666171D01*
X111808058Y-90275771D01*
X111808058Y-89666171D01*
X112011258Y-89666171D02*
X112214458Y-90275771D01*
X112417658Y-89666171D01*
D13*
X121540381Y-89733905D02*
X122556381Y-89733905D01*
X122556381Y-89975810D01*
X122508000Y-90120952D01*
X122411238Y-90217714D01*
X122314476Y-90266095D01*
X122120952Y-90314476D01*
X121975810Y-90314476D01*
X121782286Y-90266095D01*
X121685524Y-90217714D01*
X121588762Y-90120952D01*
X121540381Y-89975810D01*
X121540381Y-89733905D01*
X116338762Y-89709715D02*
X116290381Y-89854858D01*
X116290381Y-90096762D01*
X116338762Y-90193524D01*
X116387143Y-90241905D01*
X116483905Y-90290286D01*
X116580667Y-90290286D01*
X116677429Y-90241905D01*
X116725810Y-90193524D01*
X116774190Y-90096762D01*
X116822571Y-89903239D01*
X116870952Y-89806477D01*
X116919333Y-89758096D01*
X117016095Y-89709715D01*
X117112857Y-89709715D01*
X117209619Y-89758096D01*
X117258000Y-89806477D01*
X117306381Y-89903239D01*
X117306381Y-90145143D01*
X117258000Y-90290286D01*
X119040381Y-90314476D02*
X119524190Y-89975810D01*
X119040381Y-89733905D02*
X120056381Y-89733905D01*
X120056381Y-90120952D01*
X120008000Y-90217714D01*
X119959619Y-90266095D01*
X119862857Y-90314476D01*
X119717714Y-90314476D01*
X119620952Y-90266095D01*
X119572571Y-90217714D01*
X119524190Y-90120952D01*
X119524190Y-89733905D01*
X124080667Y-89758096D02*
X124080667Y-90241905D01*
X123790381Y-89661334D02*
X124806381Y-90000001D01*
X123790381Y-90338667D01*
D14*
X107770000Y-87262000D02*
X105166500Y-87262000D01*
X105166500Y-87262000D02*
X105166500Y-85738000D01*
X105166500Y-85738000D02*
X107770000Y-85738000D01*
X107770000Y-85738000D02*
X107770000Y-87262000D01*
D15*
X104100000Y-83430000D02*
X104100000Y-80570000D01*
X104100000Y-80570000D02*
X107700000Y-80570000D01*
X107700000Y-80570000D02*
X107700000Y-83430000D01*
X107678000Y-83438000D02*
X104122000Y-83438000D01*
X107424000Y-82803000D02*
G75*
G03X107424000Y-82803000I-381000J0D01*
G74*
G01*
D16*
X115095000Y-86294000D02*
X115095000Y-80960000D01*
X115095000Y-80960000D02*
X118778000Y-80960000D01*
X118778000Y-80960000D02*
X118778000Y-86294000D01*
X118778000Y-86294000D02*
X115095000Y-86294000D01*
X118483519Y-85702180D02*
G75*
G03X118483519Y-85702180I-325279J0D01*
G74*
G01*
X103100000Y-85600000D02*
X103100000Y-88400000D01*
X103100000Y-88400000D02*
X104900000Y-88400000D01*
X104900000Y-88400000D02*
X104900000Y-85600000D01*
X104900000Y-85600000D02*
X103100000Y-85600000D01*
X114400000Y-78350000D02*
X111600000Y-78350000D01*
X111600000Y-78350000D02*
X111600000Y-80150000D01*
X111600000Y-80150000D02*
X114400000Y-80150000D01*
X114400000Y-80150000D02*
X114400000Y-78350000D01*
X108600000Y-80150000D02*
X111400000Y-80150000D01*
X111400000Y-80150000D02*
X111400000Y-78350000D01*
X111400000Y-78350000D02*
X108600000Y-78350000D01*
X108600000Y-78350000D02*
X108600000Y-80150000D01*
X99100000Y-78100000D02*
X99100000Y-80900000D01*
X99100000Y-80900000D02*
X100900000Y-80900000D01*
X100900000Y-80900000D02*
X100900000Y-78100000D01*
X100900000Y-78100000D02*
X99100000Y-78100000D01*
X99100000Y-81100000D02*
X99100000Y-83900000D01*
X99100000Y-83900000D02*
X100900000Y-83900000D01*
X100900000Y-83900000D02*
X100900000Y-81100000D01*
X100900000Y-81100000D02*
X99100000Y-81100000D01*
X127400000Y-93900000D02*
X127400000Y-91100000D01*
X127400000Y-91100000D02*
X125600000Y-91100000D01*
X125600000Y-91100000D02*
X125600000Y-93900000D01*
X125600000Y-93900000D02*
X127400000Y-93900000D01*
X121600000Y-85600000D02*
X121600000Y-88400000D01*
X121600000Y-88400000D02*
X123400000Y-88400000D01*
X123400000Y-88400000D02*
X123400000Y-85600000D01*
X123400000Y-85600000D02*
X121600000Y-85600000D01*
X100900000Y-88400000D02*
X100900000Y-85600000D01*
X100900000Y-85600000D02*
X99100000Y-85600000D01*
X99100000Y-85600000D02*
X99100000Y-88400000D01*
X99100000Y-88400000D02*
X100900000Y-88400000D01*
X101100000Y-85600000D02*
X101100000Y-88400000D01*
X101100000Y-88400000D02*
X102900000Y-88400000D01*
X102900000Y-88400000D02*
X102900000Y-85600000D01*
X102900000Y-85600000D02*
X101100000Y-85600000D01*
X108600000Y-85600000D02*
X108600000Y-88400000D01*
X108600000Y-88400000D02*
X110400000Y-88400000D01*
X110400000Y-88400000D02*
X110400000Y-85600000D01*
X110400000Y-85600000D02*
X108600000Y-85600000D01*
X123400000Y-82400000D02*
X123400000Y-79600000D01*
X123400000Y-79600000D02*
X121600000Y-79600000D01*
X121600000Y-79600000D02*
X121600000Y-82400000D01*
X121600000Y-82400000D02*
X123400000Y-82400000D01*
X112400000Y-88400000D02*
X112400000Y-85600000D01*
X112400000Y-85600000D02*
X110600000Y-85600000D01*
X110600000Y-85600000D02*
X110600000Y-88400000D01*
X110600000Y-88400000D02*
X112400000Y-88400000D01*
D10*
X127300000Y-87000000D02*
X127300000Y-85300000D01*
X127300000Y-85300000D02*
X123700000Y-85300000D01*
X123700000Y-85300000D02*
X123700000Y-88700000D01*
X123700000Y-88700000D02*
X127300000Y-88700000D01*
X127300000Y-88700000D02*
X127300000Y-87000000D01*
X123700000Y-81000000D02*
X123700000Y-82700000D01*
X123700000Y-82700000D02*
X127300000Y-82700000D01*
X127300000Y-82700000D02*
X127300000Y-79300000D01*
X127300000Y-79300000D02*
X123700000Y-79300000D01*
X123700000Y-79300000D02*
X123700000Y-81000000D01*
D11*
X107691943Y-85333829D02*
X107633886Y-85304800D01*
X107575829Y-85246743D01*
X107488743Y-85159657D01*
X107430686Y-85130629D01*
X107372629Y-85130629D01*
X107401657Y-85275771D02*
X107343600Y-85246743D01*
X107285543Y-85188686D01*
X107256514Y-85072571D01*
X107256514Y-84869371D01*
X107285543Y-84753257D01*
X107343600Y-84695200D01*
X107401657Y-84666171D01*
X107517771Y-84666171D01*
X107575829Y-84695200D01*
X107633886Y-84753257D01*
X107662914Y-84869371D01*
X107662914Y-85072571D01*
X107633886Y-85188686D01*
X107575829Y-85246743D01*
X107517771Y-85275771D01*
X107401657Y-85275771D01*
X108243486Y-85275771D02*
X107895143Y-85275771D01*
X108069315Y-85275771D02*
X108069315Y-84666171D01*
X108011258Y-84753257D01*
X107953200Y-84811314D01*
X107895143Y-84840343D01*
D13*
X104630724Y-81054895D02*
X104630724Y-81712876D01*
X104669429Y-81790286D01*
X104708133Y-81828990D01*
X104785543Y-81867695D01*
X104940362Y-81867695D01*
X105017771Y-81828990D01*
X105056476Y-81790286D01*
X105095181Y-81712876D01*
X105095181Y-81054895D01*
X105443524Y-81132305D02*
X105482229Y-81093600D01*
X105559638Y-81054895D01*
X105753162Y-81054895D01*
X105830572Y-81093600D01*
X105869276Y-81132305D01*
X105907981Y-81209714D01*
X105907981Y-81287124D01*
X105869276Y-81403238D01*
X105404819Y-81867695D01*
X105907981Y-81867695D01*
X115380724Y-81304895D02*
X115380724Y-81962876D01*
X115419429Y-82040286D01*
X115458133Y-82078990D01*
X115535543Y-82117695D01*
X115690362Y-82117695D01*
X115767771Y-82078990D01*
X115806476Y-82040286D01*
X115845181Y-81962876D01*
X115845181Y-81304895D01*
X116657981Y-82117695D02*
X116193524Y-82117695D01*
X116425753Y-82117695D02*
X116425753Y-81304895D01*
X116348343Y-81421010D01*
X116270934Y-81498419D01*
X116193524Y-81537124D01*
D11*
X103898401Y-85275771D02*
X103695201Y-84985486D01*
X103550058Y-85275771D02*
X103550058Y-84666171D01*
X103782286Y-84666171D01*
X103840344Y-84695200D01*
X103869372Y-84724229D01*
X103898401Y-84782286D01*
X103898401Y-84869371D01*
X103869372Y-84927429D01*
X103840344Y-84956457D01*
X103782286Y-84985486D01*
X103550058Y-84985486D01*
X104420915Y-84869371D02*
X104420915Y-85275771D01*
X104275772Y-84637143D02*
X104130629Y-85072571D01*
X104508001Y-85072571D01*
X113648401Y-77967714D02*
X113619372Y-77996743D01*
X113532286Y-78025771D01*
X113474229Y-78025771D01*
X113387144Y-77996743D01*
X113329086Y-77938686D01*
X113300058Y-77880629D01*
X113271029Y-77764514D01*
X113271029Y-77677429D01*
X113300058Y-77561314D01*
X113329086Y-77503257D01*
X113387144Y-77445200D01*
X113474229Y-77416171D01*
X113532286Y-77416171D01*
X113619372Y-77445200D01*
X113648401Y-77474229D01*
X114228972Y-78025771D02*
X113880629Y-78025771D01*
X114054801Y-78025771D02*
X114054801Y-77416171D01*
X113996744Y-77503257D01*
X113938686Y-77561314D01*
X113880629Y-77590343D01*
X108898401Y-78025771D02*
X108695201Y-77735486D01*
X108550058Y-78025771D02*
X108550058Y-77416171D01*
X108782286Y-77416171D01*
X108840344Y-77445200D01*
X108869372Y-77474229D01*
X108898401Y-77532286D01*
X108898401Y-77619371D01*
X108869372Y-77677429D01*
X108840344Y-77706457D01*
X108782286Y-77735486D01*
X108550058Y-77735486D01*
X109420915Y-77416171D02*
X109304801Y-77416171D01*
X109246744Y-77445200D01*
X109217715Y-77474229D01*
X109159658Y-77561314D01*
X109130629Y-77677429D01*
X109130629Y-77909657D01*
X109159658Y-77967714D01*
X109188686Y-77996743D01*
X109246744Y-78025771D01*
X109362858Y-78025771D01*
X109420915Y-77996743D01*
X109449944Y-77967714D01*
X109478972Y-77909657D01*
X109478972Y-77764514D01*
X109449944Y-77706457D01*
X109420915Y-77677429D01*
X109362858Y-77648400D01*
X109246744Y-77648400D01*
X109188686Y-77677429D01*
X109159658Y-77706457D01*
X109130629Y-77764514D01*
X99608115Y-77775771D02*
X99404915Y-77485486D01*
X99259772Y-77775771D02*
X99259772Y-77166171D01*
X99492000Y-77166171D01*
X99550058Y-77195200D01*
X99579086Y-77224229D01*
X99608115Y-77282286D01*
X99608115Y-77369371D01*
X99579086Y-77427429D01*
X99550058Y-77456457D01*
X99492000Y-77485486D01*
X99259772Y-77485486D01*
X100188686Y-77775771D02*
X99840343Y-77775771D01*
X100014515Y-77775771D02*
X100014515Y-77166171D01*
X99956458Y-77253257D01*
X99898400Y-77311314D01*
X99840343Y-77340343D01*
X100711200Y-77369371D02*
X100711200Y-77775771D01*
X100566057Y-77137143D02*
X100420914Y-77572571D01*
X100798286Y-77572571D01*
X99898401Y-84717714D02*
X99869372Y-84746743D01*
X99782286Y-84775771D01*
X99724229Y-84775771D01*
X99637144Y-84746743D01*
X99579086Y-84688686D01*
X99550058Y-84630629D01*
X99521029Y-84514514D01*
X99521029Y-84427429D01*
X99550058Y-84311314D01*
X99579086Y-84253257D01*
X99637144Y-84195200D01*
X99724229Y-84166171D01*
X99782286Y-84166171D01*
X99869372Y-84195200D01*
X99898401Y-84224229D01*
X100101601Y-84166171D02*
X100478972Y-84166171D01*
X100275772Y-84398400D01*
X100362858Y-84398400D01*
X100420915Y-84427429D01*
X100449944Y-84456457D01*
X100478972Y-84514514D01*
X100478972Y-84659657D01*
X100449944Y-84717714D01*
X100420915Y-84746743D01*
X100362858Y-84775771D01*
X100188686Y-84775771D01*
X100130629Y-84746743D01*
X100101601Y-84717714D01*
X126398401Y-90775771D02*
X126195201Y-90485486D01*
X126050058Y-90775771D02*
X126050058Y-90166171D01*
X126282286Y-90166171D01*
X126340344Y-90195200D01*
X126369372Y-90224229D01*
X126398401Y-90282286D01*
X126398401Y-90369371D01*
X126369372Y-90427429D01*
X126340344Y-90456457D01*
X126282286Y-90485486D01*
X126050058Y-90485486D01*
X126601601Y-90166171D02*
X127008001Y-90166171D01*
X126746744Y-90775771D01*
X122358115Y-85275771D02*
X122154915Y-84985486D01*
X122009772Y-85275771D02*
X122009772Y-84666171D01*
X122242000Y-84666171D01*
X122300058Y-84695200D01*
X122329086Y-84724229D01*
X122358115Y-84782286D01*
X122358115Y-84869371D01*
X122329086Y-84927429D01*
X122300058Y-84956457D01*
X122242000Y-84985486D01*
X122009772Y-84985486D01*
X122938686Y-85275771D02*
X122590343Y-85275771D01*
X122764515Y-85275771D02*
X122764515Y-84666171D01*
X122706458Y-84753257D01*
X122648400Y-84811314D01*
X122590343Y-84840343D01*
X123519257Y-85275771D02*
X123170914Y-85275771D01*
X123345086Y-85275771D02*
X123345086Y-84666171D01*
X123287029Y-84753257D01*
X123228971Y-84811314D01*
X123170914Y-84840343D01*
X99898401Y-89275771D02*
X99695201Y-88985486D01*
X99550058Y-89275771D02*
X99550058Y-88666171D01*
X99782286Y-88666171D01*
X99840344Y-88695200D01*
X99869372Y-88724229D01*
X99898401Y-88782286D01*
X99898401Y-88869371D01*
X99869372Y-88927429D01*
X99840344Y-88956457D01*
X99782286Y-88985486D01*
X99550058Y-88985486D01*
X100130629Y-88724229D02*
X100159658Y-88695200D01*
X100217715Y-88666171D01*
X100362858Y-88666171D01*
X100420915Y-88695200D01*
X100449944Y-88724229D01*
X100478972Y-88782286D01*
X100478972Y-88840343D01*
X100449944Y-88927429D01*
X100101601Y-89275771D01*
X100478972Y-89275771D01*
X101898401Y-85275771D02*
X101695201Y-84985486D01*
X101550058Y-85275771D02*
X101550058Y-84666171D01*
X101782286Y-84666171D01*
X101840344Y-84695200D01*
X101869372Y-84724229D01*
X101898401Y-84782286D01*
X101898401Y-84869371D01*
X101869372Y-84927429D01*
X101840344Y-84956457D01*
X101782286Y-84985486D01*
X101550058Y-84985486D01*
X102101601Y-84666171D02*
X102478972Y-84666171D01*
X102275772Y-84898400D01*
X102362858Y-84898400D01*
X102420915Y-84927429D01*
X102449944Y-84956457D01*
X102478972Y-85014514D01*
X102478972Y-85159657D01*
X102449944Y-85217714D01*
X102420915Y-85246743D01*
X102362858Y-85275771D01*
X102188686Y-85275771D01*
X102130629Y-85246743D01*
X102101601Y-85217714D01*
X109398401Y-85275771D02*
X109195201Y-84985486D01*
X109050058Y-85275771D02*
X109050058Y-84666171D01*
X109282286Y-84666171D01*
X109340344Y-84695200D01*
X109369372Y-84724229D01*
X109398401Y-84782286D01*
X109398401Y-84869371D01*
X109369372Y-84927429D01*
X109340344Y-84956457D01*
X109282286Y-84985486D01*
X109050058Y-84985486D01*
X109949944Y-84666171D02*
X109659658Y-84666171D01*
X109630629Y-84956457D01*
X109659658Y-84927429D01*
X109717715Y-84898400D01*
X109862858Y-84898400D01*
X109920915Y-84927429D01*
X109949944Y-84956457D01*
X109978972Y-85014514D01*
X109978972Y-85159657D01*
X109949944Y-85217714D01*
X109920915Y-85246743D01*
X109862858Y-85275771D01*
X109717715Y-85275771D01*
X109659658Y-85246743D01*
X109630629Y-85217714D01*
X122398401Y-79275771D02*
X122195201Y-78985486D01*
X122050058Y-79275771D02*
X122050058Y-78666171D01*
X122282286Y-78666171D01*
X122340344Y-78695200D01*
X122369372Y-78724229D01*
X122398401Y-78782286D01*
X122398401Y-78869371D01*
X122369372Y-78927429D01*
X122340344Y-78956457D01*
X122282286Y-78985486D01*
X122050058Y-78985486D01*
X122746744Y-78927429D02*
X122688686Y-78898400D01*
X122659658Y-78869371D01*
X122630629Y-78811314D01*
X122630629Y-78782286D01*
X122659658Y-78724229D01*
X122688686Y-78695200D01*
X122746744Y-78666171D01*
X122862858Y-78666171D01*
X122920915Y-78695200D01*
X122949944Y-78724229D01*
X122978972Y-78782286D01*
X122978972Y-78811314D01*
X122949944Y-78869371D01*
X122920915Y-78898400D01*
X122862858Y-78927429D01*
X122746744Y-78927429D01*
X122688686Y-78956457D01*
X122659658Y-78985486D01*
X122630629Y-79043543D01*
X122630629Y-79159657D01*
X122659658Y-79217714D01*
X122688686Y-79246743D01*
X122746744Y-79275771D01*
X122862858Y-79275771D01*
X122920915Y-79246743D01*
X122949944Y-79217714D01*
X122978972Y-79159657D01*
X122978972Y-79043543D01*
X122949944Y-78985486D01*
X122920915Y-78956457D01*
X122862858Y-78927429D01*
X111398401Y-85275771D02*
X111195201Y-84985486D01*
X111050058Y-85275771D02*
X111050058Y-84666171D01*
X111282286Y-84666171D01*
X111340344Y-84695200D01*
X111369372Y-84724229D01*
X111398401Y-84782286D01*
X111398401Y-84869371D01*
X111369372Y-84927429D01*
X111340344Y-84956457D01*
X111282286Y-84985486D01*
X111050058Y-84985486D01*
X111978972Y-85275771D02*
X111630629Y-85275771D01*
X111804801Y-85275771D02*
X111804801Y-84666171D01*
X111746744Y-84753257D01*
X111688686Y-84811314D01*
X111630629Y-84840343D01*
D10*
X124738095Y-86452381D02*
X125309524Y-86452381D01*
X125023809Y-87452381D02*
X125023809Y-86452381D01*
X126166667Y-87452381D02*
X125595238Y-87452381D01*
X125880952Y-87452381D02*
X125880952Y-86452381D01*
X125785714Y-86595238D01*
X125690476Y-86690476D01*
X125595238Y-86738095D01*
X124738095Y-80452381D02*
X125309524Y-80452381D01*
X125023809Y-81452381D02*
X125023809Y-80452381D01*
X125595238Y-80547619D02*
X125642857Y-80500000D01*
X125738095Y-80452381D01*
X125976191Y-80452381D01*
X126071429Y-80500000D01*
X126119048Y-80547619D01*
X126166667Y-80642857D01*
X126166667Y-80738095D01*
X126119048Y-80880952D01*
X125547619Y-81452381D01*
X126166667Y-81452381D01*
%LPC*%
D17*
X106500000Y-85230000D03*
X107452500Y-87770000D03*
X105547500Y-87770000D03*
D18*
X108694000Y-82955400D03*
X108694000Y-82320400D03*
X108694000Y-81660000D03*
X108694000Y-81025000D03*
X103106000Y-81025000D03*
X103106000Y-81672700D03*
X103106000Y-82320400D03*
X103106000Y-82968100D03*
D19*
X119799080Y-85775840D03*
X119799080Y-85125600D03*
X119799080Y-84475360D03*
X119799080Y-83825120D03*
X119799080Y-83174880D03*
X119799080Y-82524640D03*
X119799080Y-81874400D03*
X119799080Y-81224160D03*
X114200920Y-81224160D03*
X114200920Y-81874400D03*
X114200920Y-82524640D03*
X114200920Y-83174880D03*
X114200920Y-83825120D03*
X114200920Y-84475360D03*
X114200920Y-85125600D03*
X114200920Y-85775840D03*
D20*
X104000000Y-86149100D03*
X104000000Y-87850900D03*
D21*
X113850900Y-79250000D03*
X112149100Y-79250000D03*
X109149100Y-79250000D03*
X110850900Y-79250000D03*
D20*
X100000000Y-78649100D03*
X100000000Y-80350900D03*
X100000000Y-81649100D03*
X100000000Y-83350900D03*
X126500000Y-93350900D03*
X126500000Y-91649100D03*
X122500000Y-86149100D03*
X122500000Y-87850900D03*
X100000000Y-87850900D03*
X100000000Y-86149100D03*
X102000000Y-86149100D03*
X102000000Y-87850900D03*
X109500000Y-86149100D03*
X109500000Y-87850900D03*
X122500000Y-81850900D03*
X122500000Y-80149100D03*
X111500000Y-87850900D03*
X111500000Y-86149100D03*
D22*
X126650000Y-88850000D03*
X124350000Y-88850000D03*
D23*
X125500000Y-85150000D03*
D22*
X124350000Y-79150000D03*
X126650000Y-79150000D03*
D23*
X125500000Y-82850000D03*
D24*
X101570000Y-92500000D03*
X104110000Y-92500000D03*
X106650000Y-92500000D03*
X109190000Y-92500000D03*
X111730000Y-92500000D03*
X114270000Y-92500000D03*
X116810000Y-92500000D03*
X119350000Y-92500000D03*
X121890000Y-92500000D03*
X124430000Y-92500000D03*
M02*
