%FSLAX46Y46*%
G04 Gerber Fmt 4.6, Leading zero omitted, Abs format (unit mm)*
G04 Created by KiCad (PCBNEW (2014-09-02 BZR 5112)-product) date 2015-01-28 2:30:08 PM*
%MOMM*%
G01*
G04 APERTURE LIST*
%ADD10C,0.150000*%
%ADD11R,1.300480X0.299720*%
%ADD12R,0.797560X0.398780*%
%ADD13R,0.812800X1.143000*%
%ADD14R,1.143000X0.812800*%
%ADD15R,1.350000X3.500000*%
%ADD16C,0.889000*%
%ADD17C,0.304800*%
%ADD18C,0.254000*%
G04 APERTURE END LIST*
D10*
D11*
X110706000Y-84430400D03*
X110706000Y-83795400D03*
X110706000Y-83135000D03*
X110706000Y-82500000D03*
X110706000Y-81839600D03*
X110706000Y-81191900D03*
X110706000Y-80544200D03*
X116294000Y-80544200D03*
X116294000Y-81191900D03*
X116294000Y-81839600D03*
X116294000Y-82500000D03*
X116294000Y-83147700D03*
X116294000Y-83795400D03*
X116294000Y-84443100D03*
D12*
X122297560Y-84352300D03*
X122297560Y-85000000D03*
X122297560Y-85647700D03*
X120702440Y-85647700D03*
X120702440Y-85000000D03*
X120702440Y-84352300D03*
X122297560Y-80852300D03*
X122297560Y-81500000D03*
X122297560Y-82147700D03*
X120702440Y-82147700D03*
X120702440Y-81500000D03*
X120702440Y-80852300D03*
D13*
X125850900Y-88000000D03*
X124149100Y-88000000D03*
X114350900Y-86500000D03*
X112649100Y-86500000D03*
X125850900Y-85000000D03*
X124149100Y-85000000D03*
X125850900Y-79000000D03*
X124149100Y-79000000D03*
X114350900Y-88500000D03*
X112649100Y-88500000D03*
X115649100Y-88500000D03*
X117350900Y-88500000D03*
X118149100Y-79000000D03*
X119850900Y-79000000D03*
X107850900Y-79000000D03*
X106149100Y-79000000D03*
X103149100Y-82000000D03*
X104850900Y-82000000D03*
X104850900Y-84000000D03*
X103149100Y-84000000D03*
X104850900Y-79000000D03*
X103149100Y-79000000D03*
X112850900Y-79000000D03*
X111149100Y-79000000D03*
X115850900Y-79000000D03*
X114149100Y-79000000D03*
D14*
X99500000Y-93350900D03*
X99500000Y-91649100D03*
D13*
X103149100Y-88000000D03*
X104850900Y-88000000D03*
X111350900Y-86500000D03*
X109649100Y-86500000D03*
X103149100Y-86000000D03*
X104850900Y-86000000D03*
X107850900Y-86000000D03*
X106149100Y-86000000D03*
X109649100Y-88500000D03*
X111350900Y-88500000D03*
D15*
X101570000Y-92500000D03*
X104110000Y-92500000D03*
X106650000Y-92500000D03*
X109190000Y-92500000D03*
X111730000Y-92500000D03*
X114270000Y-92500000D03*
X116810000Y-92500000D03*
X119350000Y-92500000D03*
X121890000Y-92500000D03*
X124430000Y-92500000D03*
D16*
X108230000Y-86500000D03*
X118950000Y-80300000D03*
X121750000Y-77950000D03*
X102500019Y-89828821D03*
X100798179Y-89443963D03*
X117629871Y-80260839D03*
X123693190Y-83087220D03*
X115336926Y-90063074D03*
X105759831Y-89500000D03*
X107829852Y-90202066D03*
X117796572Y-83394489D03*
X112600000Y-84400000D03*
X100807434Y-85357434D03*
X105838470Y-82958986D03*
X107489472Y-82895330D03*
X100807434Y-85357434D03*
X112612600Y-82995400D03*
X124313900Y-86652500D03*
X124742200Y-81132500D03*
X103150000Y-80050000D03*
X116628800Y-85837900D03*
D17*
X101649099Y-90366101D02*
X101570000Y-90445200D01*
X102012765Y-88977901D02*
X101649099Y-89341567D01*
X103880621Y-88977901D02*
X102012765Y-88977901D01*
X103961901Y-88896621D02*
X103880621Y-88977901D01*
X103961901Y-87288699D02*
X103961901Y-88896621D01*
X101649099Y-89341567D02*
X101649099Y-90366101D01*
X104228800Y-87021800D02*
X103961901Y-87288699D01*
X101570000Y-90445200D02*
X101570000Y-92500000D01*
X109137427Y-82500000D02*
X107895005Y-83742422D01*
X104269200Y-84978300D02*
X104037700Y-85209800D01*
X104037700Y-85209800D02*
X104037700Y-86830700D01*
X104037700Y-86830700D02*
X104228800Y-87021800D01*
X106600482Y-84978300D02*
X104269200Y-84978300D01*
X107895005Y-83742422D02*
X107836360Y-83742422D01*
X110706000Y-82500000D02*
X109137427Y-82500000D01*
X107836360Y-83742422D02*
X106600482Y-84978300D01*
X99500000Y-93350900D02*
X100719100Y-93350900D01*
X100719100Y-93350900D02*
X101570000Y-92500000D01*
X107851000Y-86000000D02*
X107851000Y-86060400D01*
X107850900Y-86060300D02*
X107850900Y-86000000D01*
X107851000Y-86060400D02*
X107850900Y-86060300D01*
X107851000Y-86060400D02*
X107851000Y-86120900D01*
X107851000Y-86120900D02*
X108230000Y-86500000D01*
X106950100Y-87021800D02*
X107851000Y-86120900D01*
X104228800Y-87021800D02*
X106950100Y-87021800D01*
X117249040Y-82500000D02*
X118950000Y-80799040D01*
X116294000Y-82500000D02*
X117249040Y-82500000D01*
X118950000Y-80799040D02*
X118950000Y-80300000D01*
X104850900Y-88000000D02*
X105664000Y-88000000D01*
X106650000Y-89504500D02*
X106650000Y-88986000D01*
X106650000Y-88986000D02*
X105664000Y-88000000D01*
X115338960Y-82500000D02*
X116294000Y-82500000D01*
X113462200Y-84376760D02*
X115338960Y-82500000D01*
X113462200Y-87306800D02*
X113462200Y-84376760D01*
X110462300Y-89251600D02*
X110462300Y-87832500D01*
X113247300Y-87521700D02*
X113462200Y-87306800D01*
X110773100Y-87521700D02*
X113247300Y-87521700D01*
X108563834Y-89504500D02*
X110209400Y-89504500D01*
X110462300Y-87832500D02*
X110773100Y-87521700D01*
X108410499Y-89351165D02*
X108563834Y-89504500D01*
X110209400Y-89504500D02*
X110462300Y-89251600D01*
X106803335Y-89351165D02*
X108410499Y-89351165D01*
X106650000Y-89504500D02*
X106803335Y-89351165D01*
X122378617Y-77950000D02*
X121750000Y-77950000D01*
X125850900Y-78834900D02*
X124966000Y-77950000D01*
X125850900Y-79000000D02*
X125850900Y-78834900D01*
X124966000Y-77950000D02*
X122378617Y-77950000D01*
X125850900Y-85000000D02*
X125850900Y-79000000D01*
X106650000Y-92500000D02*
X106650000Y-89504500D01*
D18*
X113436800Y-89535500D02*
X113436800Y-88500000D01*
X114270000Y-90368700D02*
X113436800Y-89535500D01*
X112649100Y-88500000D02*
X113436800Y-88500000D01*
X114270000Y-92500000D02*
X114270000Y-90368700D01*
X105121179Y-89828821D02*
X103128636Y-89828821D01*
X105450000Y-89500000D02*
X105121179Y-89828821D01*
X103128636Y-89828821D02*
X102500019Y-89828821D01*
X117629871Y-81341931D02*
X117629871Y-80889456D01*
X117629871Y-80889456D02*
X117629871Y-80260839D01*
X116294000Y-81839600D02*
X117132202Y-81839600D01*
X117132202Y-81839600D02*
X117629871Y-81341931D01*
X123693190Y-83087220D02*
X123077341Y-82471371D01*
X122950340Y-81500000D02*
X122297560Y-81500000D01*
X123077341Y-81627001D02*
X122950340Y-81500000D01*
X123077341Y-82471371D02*
X123077341Y-81627001D01*
X109190000Y-92500000D02*
X107900000Y-92500000D01*
X107900000Y-92500000D02*
X107829852Y-92429852D01*
X107829852Y-92429852D02*
X107829852Y-90202066D01*
X116294000Y-83147700D02*
X117549783Y-83147700D01*
X117549783Y-83147700D02*
X117796572Y-83394489D01*
X105879484Y-83000000D02*
X105838470Y-82958986D01*
X107000000Y-83000000D02*
X105879484Y-83000000D01*
X111350900Y-89989600D02*
X111350900Y-88500000D01*
X111730000Y-90368700D02*
X111350900Y-89989600D01*
X111730000Y-92500000D02*
X111730000Y-90368700D01*
X109801760Y-83135000D02*
X110706000Y-83135000D01*
X106149100Y-86000000D02*
X106333700Y-86000000D01*
X108115950Y-84275832D02*
X109256782Y-83135000D01*
X109256782Y-83135000D02*
X109801760Y-83135000D01*
X106333700Y-86000000D02*
X108057868Y-84275832D01*
X108057868Y-84275832D02*
X108115950Y-84275832D01*
X106149100Y-86000000D02*
X104850900Y-86000000D01*
X105799000Y-81839600D02*
X110706000Y-81839600D01*
X105638600Y-82000000D02*
X105799000Y-81839600D01*
X104850900Y-82000000D02*
X105638600Y-82000000D01*
X104850900Y-84000000D02*
X104850900Y-82000000D01*
X115850900Y-79000000D02*
X115850900Y-79952800D01*
X118149100Y-79000000D02*
X117361400Y-79000000D01*
X117361400Y-79000000D02*
X116129800Y-80231600D01*
X115850900Y-79952800D02*
X116129800Y-80231600D01*
X116294000Y-80395900D02*
X116294000Y-80544200D01*
X116129800Y-80231600D02*
X116294000Y-80395900D01*
X109674500Y-80035900D02*
X109674500Y-80544200D01*
X108638600Y-79000000D02*
X109674500Y-80035900D01*
X107850900Y-79000000D02*
X108638600Y-79000000D01*
X110706000Y-80544200D02*
X109674500Y-80544200D01*
X110706000Y-80395900D02*
X110706000Y-80544200D01*
X111149100Y-79952800D02*
X110706000Y-80395900D01*
X111149100Y-79000000D02*
X111149100Y-79952800D01*
X112168101Y-82550901D02*
X112612600Y-82995400D01*
X104075501Y-79703759D02*
X104063499Y-79691757D01*
X111936900Y-78241800D02*
X111936900Y-82319700D01*
X111728800Y-78033700D02*
X111936900Y-78241800D01*
X104063499Y-78245702D02*
X104275501Y-78033700D01*
X104063499Y-79691757D02*
X104063499Y-78245702D01*
X104075501Y-80908499D02*
X104075501Y-79703759D01*
X103149100Y-81834900D02*
X104075501Y-80908499D01*
X103149100Y-82000000D02*
X103149100Y-81834900D01*
X111936900Y-82319700D02*
X112168101Y-82550901D01*
X104275501Y-78033700D02*
X111728800Y-78033700D01*
X104850900Y-79000000D02*
X106149100Y-79000000D01*
X108525600Y-81191900D02*
X110706000Y-81191900D01*
X106936800Y-79603100D02*
X108525600Y-81191900D01*
X106936800Y-79000000D02*
X106936800Y-79603100D01*
X106149100Y-79000000D02*
X106936800Y-79000000D01*
X111737241Y-83922401D02*
X111610240Y-83795400D01*
X111737500Y-86500000D02*
X111737241Y-86499741D01*
X111737241Y-86499741D02*
X111737241Y-83922401D01*
X111610240Y-83795400D02*
X110706000Y-83795400D01*
X111350900Y-86500000D02*
X111737500Y-86500000D01*
X111737500Y-86500000D02*
X112649100Y-86500000D01*
X109649100Y-88500000D02*
X109649100Y-86500000D01*
X109649100Y-84455800D02*
X109674500Y-84430400D01*
X109649100Y-86500000D02*
X109649100Y-84455800D01*
X110706000Y-84430400D02*
X109674500Y-84430400D01*
X116294000Y-83795400D02*
X117023658Y-83795400D01*
X119507658Y-86279400D02*
X119639000Y-86279400D01*
X117023658Y-83795400D02*
X119507658Y-86279400D01*
X122298000Y-82147700D02*
X122298000Y-82374400D01*
X122297600Y-82374000D02*
X122297600Y-82147700D01*
X122298000Y-82374400D02*
X122297600Y-82374000D01*
X122297600Y-85647700D02*
X122298000Y-85647700D01*
X121645000Y-85647700D02*
X121971300Y-85647700D01*
X121518000Y-85520700D02*
X121645000Y-85647700D01*
X121518000Y-83380900D02*
X121518000Y-85520700D01*
X122298000Y-82601100D02*
X121518000Y-83380900D01*
X122298000Y-82374400D02*
X122298000Y-82601100D01*
X121971300Y-85647700D02*
X122297600Y-85647700D01*
X121339600Y-86279400D02*
X119639000Y-86279400D01*
X121971300Y-85647700D02*
X121339600Y-86279400D01*
X118138600Y-87779800D02*
X119639000Y-86279400D01*
X118138600Y-88500000D02*
X118138600Y-87779800D01*
X117350900Y-88500000D02*
X118138600Y-88500000D01*
X120702000Y-85323800D02*
X120702000Y-85647700D01*
X120702400Y-85324200D02*
X120702400Y-85647700D01*
X120702000Y-85323800D02*
X120702400Y-85324200D01*
X119850900Y-81143400D02*
X119850900Y-79000000D01*
X120482700Y-81775200D02*
X119850900Y-81143400D01*
X120702000Y-81775200D02*
X120482700Y-81775200D01*
X120702000Y-81500000D02*
X120702000Y-81637600D01*
X120702000Y-81637600D02*
X120702000Y-81775200D01*
X120702400Y-81637200D02*
X120702400Y-81500000D01*
X120702000Y-81637600D02*
X120702400Y-81637200D01*
X120376000Y-85000000D02*
X120702400Y-85000000D01*
X120702000Y-85000000D02*
X120702000Y-85323800D01*
X120376000Y-85000000D02*
X120702000Y-85000000D01*
X120702000Y-81775200D02*
X120702000Y-82188100D01*
X120050000Y-85000000D02*
X120376000Y-85000000D01*
X119923000Y-84873000D02*
X120050000Y-85000000D01*
X119923000Y-83380900D02*
X119923000Y-84873000D01*
X120702000Y-82601100D02*
X119923000Y-83380900D01*
X120702000Y-82188100D02*
X120702000Y-82601100D01*
X120702400Y-82187700D02*
X120702400Y-82147700D01*
X120702000Y-82188100D02*
X120702400Y-82187700D01*
X124149000Y-85000000D02*
X124149100Y-85000000D01*
X122298000Y-85000000D02*
X122297600Y-85000000D01*
X124149000Y-85000000D02*
X123486300Y-85000000D01*
X123486300Y-85000000D02*
X122298000Y-85000000D01*
X124149100Y-88000000D02*
X124149100Y-87047200D01*
X124149100Y-86817300D02*
X124149100Y-87047200D01*
X124313900Y-86652500D02*
X124149100Y-86817300D01*
X123486300Y-85824900D02*
X124313900Y-86652500D01*
X123486300Y-85000000D02*
X123486300Y-85824900D01*
X124742200Y-80545900D02*
X124149100Y-79952800D01*
X124742200Y-81132500D02*
X124742200Y-80545900D01*
X124149100Y-79000000D02*
X124149100Y-79476400D01*
X124149100Y-79476400D02*
X124149100Y-79952800D01*
X123077700Y-80547800D02*
X123077700Y-80852300D01*
X124149100Y-79476400D02*
X123077700Y-80547800D01*
X122297600Y-80852300D02*
X123077700Y-80852300D01*
X114149100Y-79000000D02*
X114149100Y-79951240D01*
X114149100Y-79951240D02*
X115389760Y-81191900D01*
X115389760Y-81191900D02*
X116294000Y-81191900D01*
X120702440Y-80852300D02*
X120702440Y-78187838D01*
X114276101Y-78047499D02*
X114149100Y-78174500D01*
X120702440Y-78187838D02*
X120562101Y-78047499D01*
X120562101Y-78047499D02*
X114276101Y-78047499D01*
X114149100Y-78174500D02*
X114149100Y-79000000D01*
X120702400Y-80852300D02*
X120702000Y-80852300D01*
X120702000Y-84352300D02*
X120702000Y-83892000D01*
X120702400Y-83892400D02*
X120702400Y-84352300D01*
X120702000Y-83892000D02*
X120702400Y-83892400D01*
X112850900Y-79000000D02*
X113638600Y-79000000D01*
X114149100Y-79000000D02*
X113638600Y-79000000D01*
X121355000Y-80852300D02*
X121028700Y-80852300D01*
X121482000Y-80979300D02*
X121355000Y-80852300D01*
X121482000Y-82651900D02*
X121482000Y-80979300D01*
X120702000Y-83431700D02*
X121482000Y-82651900D01*
X120702000Y-83892000D02*
X120702000Y-83431700D01*
X121028700Y-80852300D02*
X120702400Y-80852300D01*
X103149100Y-80049100D02*
X103150000Y-80050000D01*
X103149100Y-79000000D02*
X103149100Y-80049100D01*
X114350900Y-86500000D02*
X114350900Y-86976400D01*
X114350900Y-86976400D02*
X114350900Y-87547200D01*
X114350900Y-88500000D02*
X114350900Y-88023600D01*
X114350900Y-88023600D02*
X114350900Y-87547200D01*
X114385000Y-88023600D02*
X114861400Y-88500000D01*
X114350900Y-88023600D02*
X114385000Y-88023600D01*
X115649100Y-88500000D02*
X114861400Y-88500000D01*
X114350900Y-86500000D02*
X115138600Y-86500000D01*
X116294000Y-84443100D02*
X115262500Y-84443100D01*
X115262500Y-85299700D02*
X115262500Y-84443100D01*
X115800700Y-85837900D02*
X115262500Y-85299700D01*
X116628800Y-85837900D02*
X115800700Y-85837900D01*
X115800700Y-85837900D02*
X115138600Y-86500000D01*
G36*
X106116600Y-90361536D02*
X105975000Y-90361536D01*
X105829726Y-90389722D01*
X105702044Y-90473596D01*
X105616574Y-90600216D01*
X105586536Y-90750000D01*
X105586536Y-94119800D01*
X105173464Y-94119800D01*
X105173464Y-90750000D01*
X105145278Y-90604726D01*
X105061404Y-90477044D01*
X104934784Y-90391574D01*
X104785000Y-90361536D01*
X103435000Y-90361536D01*
X103289726Y-90389722D01*
X103162044Y-90473596D01*
X103076574Y-90600216D01*
X103046536Y-90750000D01*
X103046536Y-94119800D01*
X102633464Y-94119800D01*
X102633464Y-90750000D01*
X102605278Y-90604726D01*
X102521404Y-90477044D01*
X102394784Y-90391574D01*
X102245000Y-90361536D01*
X102182499Y-90361536D01*
X102182499Y-89562508D01*
X102233706Y-89511301D01*
X103880621Y-89511301D01*
X104084744Y-89470698D01*
X104257792Y-89355072D01*
X104339072Y-89273792D01*
X104454698Y-89100745D01*
X104454698Y-89100744D01*
X104482701Y-88959964D01*
X105257300Y-88959964D01*
X105402574Y-88931778D01*
X105530256Y-88847904D01*
X105615726Y-88721284D01*
X105618267Y-88708609D01*
X106116600Y-89206941D01*
X106116600Y-89504500D01*
X106116600Y-90361536D01*
X106116600Y-90361536D01*
G37*
X106116600Y-90361536D02*
X105975000Y-90361536D01*
X105829726Y-90389722D01*
X105702044Y-90473596D01*
X105616574Y-90600216D01*
X105586536Y-90750000D01*
X105586536Y-94119800D01*
X105173464Y-94119800D01*
X105173464Y-90750000D01*
X105145278Y-90604726D01*
X105061404Y-90477044D01*
X104934784Y-90391574D01*
X104785000Y-90361536D01*
X103435000Y-90361536D01*
X103289726Y-90389722D01*
X103162044Y-90473596D01*
X103076574Y-90600216D01*
X103046536Y-90750000D01*
X103046536Y-94119800D01*
X102633464Y-94119800D01*
X102633464Y-90750000D01*
X102605278Y-90604726D01*
X102521404Y-90477044D01*
X102394784Y-90391574D01*
X102245000Y-90361536D01*
X102182499Y-90361536D01*
X102182499Y-89562508D01*
X102233706Y-89511301D01*
X103880621Y-89511301D01*
X104084744Y-89470698D01*
X104257792Y-89355072D01*
X104339072Y-89273792D01*
X104454698Y-89100745D01*
X104454698Y-89100744D01*
X104482701Y-88959964D01*
X105257300Y-88959964D01*
X105402574Y-88931778D01*
X105530256Y-88847904D01*
X105615726Y-88721284D01*
X105618267Y-88708609D01*
X106116600Y-89206941D01*
X106116600Y-89504500D01*
X106116600Y-90361536D01*
G36*
X108535485Y-82347600D02*
X107633763Y-83249321D01*
X107632236Y-83249625D01*
X107562923Y-83295938D01*
X107459189Y-83365251D01*
X107459186Y-83365254D01*
X106379540Y-84444900D01*
X105645764Y-84444900D01*
X105645764Y-83428500D01*
X105617578Y-83283226D01*
X105533704Y-83155544D01*
X105407084Y-83070074D01*
X105358900Y-83060411D01*
X105358900Y-82940251D01*
X105402574Y-82931778D01*
X105530256Y-82847904D01*
X105615726Y-82721284D01*
X105645764Y-82571500D01*
X105645764Y-82506574D01*
X105833003Y-82469331D01*
X105997810Y-82359210D01*
X106009420Y-82347600D01*
X108535485Y-82347600D01*
X108535485Y-82347600D01*
G37*
X108535485Y-82347600D02*
X107633763Y-83249321D01*
X107632236Y-83249625D01*
X107562923Y-83295938D01*
X107459189Y-83365251D01*
X107459186Y-83365254D01*
X106379540Y-84444900D01*
X105645764Y-84444900D01*
X105645764Y-83428500D01*
X105617578Y-83283226D01*
X105533704Y-83155544D01*
X105407084Y-83070074D01*
X105358900Y-83060411D01*
X105358900Y-82940251D01*
X105402574Y-82931778D01*
X105530256Y-82847904D01*
X105615726Y-82721284D01*
X105645764Y-82571500D01*
X105645764Y-82506574D01*
X105833003Y-82469331D01*
X105997810Y-82359210D01*
X106009420Y-82347600D01*
X108535485Y-82347600D01*
G36*
X111012635Y-90369755D02*
X110909726Y-90389722D01*
X110782044Y-90473596D01*
X110696574Y-90600216D01*
X110666536Y-90750000D01*
X110666536Y-94119800D01*
X110500000Y-94119800D01*
X110500000Y-92785750D01*
X110500000Y-92214250D01*
X110500000Y-90876309D01*
X110500000Y-90623690D01*
X110403327Y-90390301D01*
X110224698Y-90211673D01*
X109991309Y-90115000D01*
X109475750Y-90115000D01*
X109317000Y-90273750D01*
X109317000Y-92373000D01*
X110341250Y-92373000D01*
X110500000Y-92214250D01*
X110500000Y-92785750D01*
X110341250Y-92627000D01*
X109317000Y-92627000D01*
X109317000Y-92647000D01*
X109063000Y-92647000D01*
X109063000Y-92627000D01*
X109063000Y-92373000D01*
X109063000Y-90273750D01*
X108904250Y-90115000D01*
X108388691Y-90115000D01*
X108155302Y-90211673D01*
X107976673Y-90390301D01*
X107880000Y-90623690D01*
X107880000Y-90876309D01*
X107880000Y-92214250D01*
X108038750Y-92373000D01*
X109063000Y-92373000D01*
X109063000Y-92627000D01*
X108038750Y-92627000D01*
X107880000Y-92785750D01*
X107880000Y-94119800D01*
X107713464Y-94119800D01*
X107713464Y-90750000D01*
X107685278Y-90604726D01*
X107601404Y-90477044D01*
X107474784Y-90391574D01*
X107325000Y-90361536D01*
X107183400Y-90361536D01*
X107183400Y-89884565D01*
X108190994Y-89884565D01*
X108190995Y-89884565D01*
X108290397Y-89950983D01*
X108359710Y-89997297D01*
X108359711Y-89997297D01*
X108563834Y-90037900D01*
X110209400Y-90037900D01*
X110413523Y-89997297D01*
X110586571Y-89881671D01*
X110839467Y-89628773D01*
X110839471Y-89628771D01*
X110839471Y-89628770D01*
X110842900Y-89623639D01*
X110842900Y-89989600D01*
X110881569Y-90184003D01*
X110991690Y-90348810D01*
X111012635Y-90369755D01*
X111012635Y-90369755D01*
G37*
X111012635Y-90369755D02*
X110909726Y-90389722D01*
X110782044Y-90473596D01*
X110696574Y-90600216D01*
X110666536Y-90750000D01*
X110666536Y-94119800D01*
X110500000Y-94119800D01*
X110500000Y-92785750D01*
X110500000Y-92214250D01*
X110500000Y-90876309D01*
X110500000Y-90623690D01*
X110403327Y-90390301D01*
X110224698Y-90211673D01*
X109991309Y-90115000D01*
X109475750Y-90115000D01*
X109317000Y-90273750D01*
X109317000Y-92373000D01*
X110341250Y-92373000D01*
X110500000Y-92214250D01*
X110500000Y-92785750D01*
X110341250Y-92627000D01*
X109317000Y-92627000D01*
X109317000Y-92647000D01*
X109063000Y-92647000D01*
X109063000Y-92627000D01*
X109063000Y-92373000D01*
X109063000Y-90273750D01*
X108904250Y-90115000D01*
X108388691Y-90115000D01*
X108155302Y-90211673D01*
X107976673Y-90390301D01*
X107880000Y-90623690D01*
X107880000Y-90876309D01*
X107880000Y-92214250D01*
X108038750Y-92373000D01*
X109063000Y-92373000D01*
X109063000Y-92627000D01*
X108038750Y-92627000D01*
X107880000Y-92785750D01*
X107880000Y-94119800D01*
X107713464Y-94119800D01*
X107713464Y-90750000D01*
X107685278Y-90604726D01*
X107601404Y-90477044D01*
X107474784Y-90391574D01*
X107325000Y-90361536D01*
X107183400Y-90361536D01*
X107183400Y-89884565D01*
X108190994Y-89884565D01*
X108190995Y-89884565D01*
X108290397Y-89950983D01*
X108359710Y-89997297D01*
X108359711Y-89997297D01*
X108563834Y-90037900D01*
X110209400Y-90037900D01*
X110413523Y-89997297D01*
X110586571Y-89881671D01*
X110839467Y-89628773D01*
X110839471Y-89628771D01*
X110839471Y-89628770D01*
X110842900Y-89623639D01*
X110842900Y-89989600D01*
X110881569Y-90184003D01*
X110991690Y-90348810D01*
X111012635Y-90369755D01*
G36*
X116441000Y-81914530D02*
X116421000Y-81914530D01*
X116421000Y-81961676D01*
X116167000Y-81961676D01*
X116167000Y-81914530D01*
X115167510Y-81914530D01*
X115008760Y-82073280D01*
X115008760Y-82091444D01*
X114961789Y-82122829D01*
X114961786Y-82122832D01*
X113085029Y-83999589D01*
X112969403Y-84172637D01*
X112928800Y-84376760D01*
X112928800Y-85540036D01*
X112245241Y-85540036D01*
X112245241Y-83922401D01*
X112206572Y-83727998D01*
X112199768Y-83717816D01*
X112447677Y-83820757D01*
X112776082Y-83821043D01*
X113079598Y-83695633D01*
X113312017Y-83463619D01*
X113437957Y-83160323D01*
X113438243Y-82831918D01*
X113312833Y-82528402D01*
X113080819Y-82295983D01*
X112777523Y-82170043D01*
X112505426Y-82169806D01*
X112444900Y-82109279D01*
X112444900Y-79959964D01*
X113257300Y-79959964D01*
X113402574Y-79931778D01*
X113500429Y-79867496D01*
X113592916Y-79929926D01*
X113641100Y-79939588D01*
X113641100Y-79951240D01*
X113679769Y-80145643D01*
X113789890Y-80310450D01*
X115018750Y-81539310D01*
X115008760Y-81563431D01*
X115008760Y-81605920D01*
X115167510Y-81764670D01*
X116167000Y-81764670D01*
X116167000Y-81730224D01*
X116421000Y-81730224D01*
X116421000Y-81764670D01*
X116441000Y-81764670D01*
X116441000Y-81914530D01*
X116441000Y-81914530D01*
G37*
X116441000Y-81914530D02*
X116421000Y-81914530D01*
X116421000Y-81961676D01*
X116167000Y-81961676D01*
X116167000Y-81914530D01*
X115167510Y-81914530D01*
X115008760Y-82073280D01*
X115008760Y-82091444D01*
X114961789Y-82122829D01*
X114961786Y-82122832D01*
X113085029Y-83999589D01*
X112969403Y-84172637D01*
X112928800Y-84376760D01*
X112928800Y-85540036D01*
X112245241Y-85540036D01*
X112245241Y-83922401D01*
X112206572Y-83727998D01*
X112199768Y-83717816D01*
X112447677Y-83820757D01*
X112776082Y-83821043D01*
X113079598Y-83695633D01*
X113312017Y-83463619D01*
X113437957Y-83160323D01*
X113438243Y-82831918D01*
X113312833Y-82528402D01*
X113080819Y-82295983D01*
X112777523Y-82170043D01*
X112505426Y-82169806D01*
X112444900Y-82109279D01*
X112444900Y-79959964D01*
X113257300Y-79959964D01*
X113402574Y-79931778D01*
X113500429Y-79867496D01*
X113592916Y-79929926D01*
X113641100Y-79939588D01*
X113641100Y-79951240D01*
X113679769Y-80145643D01*
X113789890Y-80310450D01*
X115018750Y-81539310D01*
X115008760Y-81563431D01*
X115008760Y-81605920D01*
X115167510Y-81764670D01*
X116167000Y-81764670D01*
X116167000Y-81730224D01*
X116421000Y-81730224D01*
X116421000Y-81764670D01*
X116441000Y-81764670D01*
X116441000Y-81914530D01*
G36*
X118243315Y-80751382D02*
X117535899Y-81458798D01*
X117482567Y-81330042D01*
X117332704Y-81180178D01*
X117332704Y-81042040D01*
X117304518Y-80896766D01*
X117285986Y-80868554D01*
X117302666Y-80843844D01*
X117332704Y-80694060D01*
X117332704Y-80394340D01*
X117304518Y-80249066D01*
X117220644Y-80121384D01*
X117094024Y-80035914D01*
X117052278Y-80027542D01*
X117379273Y-79700547D01*
X117382422Y-79716774D01*
X117466296Y-79844456D01*
X117592916Y-79929926D01*
X117742700Y-79959964D01*
X118197356Y-79959964D01*
X118124643Y-80135077D01*
X118124357Y-80463482D01*
X118243315Y-80751382D01*
X118243315Y-80751382D01*
G37*
X118243315Y-80751382D02*
X117535899Y-81458798D01*
X117482567Y-81330042D01*
X117332704Y-81180178D01*
X117332704Y-81042040D01*
X117304518Y-80896766D01*
X117285986Y-80868554D01*
X117302666Y-80843844D01*
X117332704Y-80694060D01*
X117332704Y-80394340D01*
X117304518Y-80249066D01*
X117220644Y-80121384D01*
X117094024Y-80035914D01*
X117052278Y-80027542D01*
X117379273Y-79700547D01*
X117382422Y-79716774D01*
X117466296Y-79844456D01*
X117592916Y-79929926D01*
X117742700Y-79959964D01*
X118197356Y-79959964D01*
X118124643Y-80135077D01*
X118124357Y-80463482D01*
X118243315Y-80751382D01*
G36*
X120002566Y-82582461D02*
X119563605Y-83021874D01*
X119507827Y-83105444D01*
X119453669Y-83186497D01*
X119453643Y-83186625D01*
X119453569Y-83186737D01*
X119434220Y-83284271D01*
X119415000Y-83380900D01*
X119415000Y-83381161D01*
X119415000Y-84873000D01*
X119453669Y-85067403D01*
X119563790Y-85232210D01*
X119690790Y-85359210D01*
X119855596Y-85469331D01*
X119855597Y-85469331D01*
X119915196Y-85481186D01*
X119915196Y-85771400D01*
X119718078Y-85771400D01*
X117518115Y-83571437D01*
X117579240Y-83423869D01*
X117579240Y-83381380D01*
X117420490Y-83222630D01*
X116421000Y-83222630D01*
X116421000Y-83257076D01*
X116167000Y-83257076D01*
X116167000Y-83222630D01*
X116147000Y-83222630D01*
X116147000Y-83072770D01*
X116167000Y-83072770D01*
X116167000Y-83038324D01*
X116421000Y-83038324D01*
X116421000Y-83072770D01*
X117420490Y-83072770D01*
X117579240Y-82914020D01*
X117579240Y-82908555D01*
X117626211Y-82877171D01*
X119327171Y-81176211D01*
X119344321Y-81150543D01*
X119381569Y-81337803D01*
X119491690Y-81502610D01*
X119918903Y-81929823D01*
X119915196Y-81948310D01*
X119915196Y-82347090D01*
X119943382Y-82492364D01*
X120002566Y-82582461D01*
X120002566Y-82582461D01*
G37*
X120002566Y-82582461D02*
X119563605Y-83021874D01*
X119507827Y-83105444D01*
X119453669Y-83186497D01*
X119453643Y-83186625D01*
X119453569Y-83186737D01*
X119434220Y-83284271D01*
X119415000Y-83380900D01*
X119415000Y-83381161D01*
X119415000Y-84873000D01*
X119453669Y-85067403D01*
X119563790Y-85232210D01*
X119690790Y-85359210D01*
X119855596Y-85469331D01*
X119855597Y-85469331D01*
X119915196Y-85481186D01*
X119915196Y-85771400D01*
X119718078Y-85771400D01*
X117518115Y-83571437D01*
X117579240Y-83423869D01*
X117579240Y-83381380D01*
X117420490Y-83222630D01*
X116421000Y-83222630D01*
X116421000Y-83257076D01*
X116167000Y-83257076D01*
X116167000Y-83222630D01*
X116147000Y-83222630D01*
X116147000Y-83072770D01*
X116167000Y-83072770D01*
X116167000Y-83038324D01*
X116421000Y-83038324D01*
X116421000Y-83072770D01*
X117420490Y-83072770D01*
X117579240Y-82914020D01*
X117579240Y-82908555D01*
X117626211Y-82877171D01*
X119327171Y-81176211D01*
X119344321Y-81150543D01*
X119381569Y-81337803D01*
X119491690Y-81502610D01*
X119918903Y-81929823D01*
X119915196Y-81948310D01*
X119915196Y-82347090D01*
X119943382Y-82492364D01*
X120002566Y-82582461D01*
G36*
X127619800Y-94119800D02*
X126892300Y-94119800D01*
X126892300Y-88697810D01*
X126892300Y-88445191D01*
X126892300Y-88285750D01*
X126892300Y-87714250D01*
X126892300Y-87554809D01*
X126892300Y-87302190D01*
X126795627Y-87068801D01*
X126616998Y-86890173D01*
X126383609Y-86793500D01*
X126136650Y-86793500D01*
X125977900Y-86952250D01*
X125977900Y-87873000D01*
X126733550Y-87873000D01*
X126892300Y-87714250D01*
X126892300Y-88285750D01*
X126733550Y-88127000D01*
X125977900Y-88127000D01*
X125977900Y-89047750D01*
X126136650Y-89206500D01*
X126383609Y-89206500D01*
X126616998Y-89109827D01*
X126795627Y-88931199D01*
X126892300Y-88697810D01*
X126892300Y-94119800D01*
X125493464Y-94119800D01*
X125493464Y-90750000D01*
X125465278Y-90604726D01*
X125381404Y-90477044D01*
X125254784Y-90391574D01*
X125105000Y-90361536D01*
X123755000Y-90361536D01*
X123609726Y-90389722D01*
X123482044Y-90473596D01*
X123396574Y-90600216D01*
X123366536Y-90750000D01*
X123366536Y-94119800D01*
X122953464Y-94119800D01*
X122953464Y-90750000D01*
X122925278Y-90604726D01*
X122841404Y-90477044D01*
X122714784Y-90391574D01*
X122565000Y-90361536D01*
X121215000Y-90361536D01*
X121069726Y-90389722D01*
X120942044Y-90473596D01*
X120856574Y-90600216D01*
X120826536Y-90750000D01*
X120826536Y-94119800D01*
X120413464Y-94119800D01*
X120413464Y-90750000D01*
X120385278Y-90604726D01*
X120301404Y-90477044D01*
X120174784Y-90391574D01*
X120025000Y-90361536D01*
X118675000Y-90361536D01*
X118529726Y-90389722D01*
X118402044Y-90473596D01*
X118316574Y-90600216D01*
X118286536Y-90750000D01*
X118286536Y-94119800D01*
X117873464Y-94119800D01*
X117873464Y-90750000D01*
X117845278Y-90604726D01*
X117761404Y-90477044D01*
X117634784Y-90391574D01*
X117485000Y-90361536D01*
X116135000Y-90361536D01*
X115989726Y-90389722D01*
X115862044Y-90473596D01*
X115776574Y-90600216D01*
X115746536Y-90750000D01*
X115746536Y-94119800D01*
X115333464Y-94119800D01*
X115333464Y-90750000D01*
X115305278Y-90604726D01*
X115221404Y-90477044D01*
X115094784Y-90391574D01*
X114945000Y-90361536D01*
X114776574Y-90361536D01*
X114739331Y-90174297D01*
X114629210Y-90009490D01*
X114079684Y-89459964D01*
X114757300Y-89459964D01*
X114902574Y-89431778D01*
X115000429Y-89367496D01*
X115092916Y-89429926D01*
X115242700Y-89459964D01*
X116055500Y-89459964D01*
X116200774Y-89431778D01*
X116328456Y-89347904D01*
X116413926Y-89221284D01*
X116443964Y-89071500D01*
X116443964Y-87928500D01*
X116415778Y-87783226D01*
X116331904Y-87655544D01*
X116205284Y-87570074D01*
X116055500Y-87540036D01*
X115242700Y-87540036D01*
X115097426Y-87568222D01*
X114999570Y-87632503D01*
X114907084Y-87570074D01*
X114858900Y-87560411D01*
X114858900Y-87547200D01*
X114858900Y-87440251D01*
X114902574Y-87431778D01*
X115030256Y-87347904D01*
X115115726Y-87221284D01*
X115145764Y-87071500D01*
X115145764Y-87006574D01*
X115333003Y-86969331D01*
X115497810Y-86859210D01*
X115990290Y-86366729D01*
X116160581Y-86537317D01*
X116463877Y-86663257D01*
X116792282Y-86663543D01*
X117095798Y-86538133D01*
X117328217Y-86306119D01*
X117454157Y-86002823D01*
X117454443Y-85674418D01*
X117329033Y-85370902D01*
X117097019Y-85138483D01*
X116793723Y-85012543D01*
X116465318Y-85012257D01*
X116161802Y-85137667D01*
X115990194Y-85308974D01*
X115770500Y-85089280D01*
X115770500Y-84981424D01*
X116944240Y-84981424D01*
X117089514Y-84953238D01*
X117217196Y-84869364D01*
X117282482Y-84772644D01*
X118854908Y-86345071D01*
X117779390Y-87420590D01*
X117699578Y-87540036D01*
X116944500Y-87540036D01*
X116799226Y-87568222D01*
X116671544Y-87652096D01*
X116586074Y-87778716D01*
X116556036Y-87928500D01*
X116556036Y-89071500D01*
X116584222Y-89216774D01*
X116668096Y-89344456D01*
X116794716Y-89429926D01*
X116944500Y-89459964D01*
X117757300Y-89459964D01*
X117902574Y-89431778D01*
X118030256Y-89347904D01*
X118115726Y-89221284D01*
X118145764Y-89071500D01*
X118145764Y-89006574D01*
X118333003Y-88969331D01*
X118497810Y-88859210D01*
X118607931Y-88694403D01*
X118646600Y-88500000D01*
X118646600Y-87990220D01*
X119849420Y-86787400D01*
X121339600Y-86787400D01*
X121534003Y-86748731D01*
X121698810Y-86638610D01*
X122101866Y-86235554D01*
X122696340Y-86235554D01*
X122841614Y-86207368D01*
X122969296Y-86123494D01*
X123028239Y-86036171D01*
X123127090Y-86184110D01*
X123488492Y-86545512D01*
X123488257Y-86815982D01*
X123593536Y-87070777D01*
X123469744Y-87152096D01*
X123384274Y-87278716D01*
X123354236Y-87428500D01*
X123354236Y-88571500D01*
X123382422Y-88716774D01*
X123466296Y-88844456D01*
X123592916Y-88929926D01*
X123742700Y-88959964D01*
X124555500Y-88959964D01*
X124700774Y-88931778D01*
X124828456Y-88847904D01*
X124855237Y-88808228D01*
X124906173Y-88931199D01*
X125084802Y-89109827D01*
X125318191Y-89206500D01*
X125565150Y-89206500D01*
X125723900Y-89047750D01*
X125723900Y-88127000D01*
X125703900Y-88127000D01*
X125703900Y-87873000D01*
X125723900Y-87873000D01*
X125723900Y-86952250D01*
X125565150Y-86793500D01*
X125318191Y-86793500D01*
X125114085Y-86878043D01*
X125139257Y-86817423D01*
X125139543Y-86489018D01*
X125014133Y-86185502D01*
X124782119Y-85953083D01*
X124712407Y-85924136D01*
X124828456Y-85847904D01*
X124913926Y-85721284D01*
X124943964Y-85571500D01*
X124943964Y-84428500D01*
X124915778Y-84283226D01*
X124831904Y-84155544D01*
X124705284Y-84070074D01*
X124555500Y-84040036D01*
X123742700Y-84040036D01*
X123597426Y-84068222D01*
X123469744Y-84152096D01*
X123384274Y-84278716D01*
X123354236Y-84428500D01*
X123354236Y-84492000D01*
X123331340Y-84492000D01*
X123331340Y-84093855D01*
X123331340Y-84026601D01*
X123234667Y-83793212D01*
X123056039Y-83614583D01*
X122822650Y-83517910D01*
X122583310Y-83517910D01*
X122424560Y-83676660D01*
X122424560Y-84252605D01*
X123172590Y-84252605D01*
X123331340Y-84093855D01*
X123331340Y-84492000D01*
X123212595Y-84492000D01*
X123172590Y-84451995D01*
X122860658Y-84451995D01*
X122846124Y-84442184D01*
X122696340Y-84412146D01*
X122150560Y-84412146D01*
X122150560Y-84252605D01*
X122170560Y-84252605D01*
X122170560Y-83676660D01*
X122055632Y-83561732D01*
X122657164Y-82960356D01*
X122657182Y-82960328D01*
X122657210Y-82960310D01*
X122711355Y-82879275D01*
X122767306Y-82795564D01*
X122767312Y-82795530D01*
X122767331Y-82795503D01*
X122782583Y-82718820D01*
X122841614Y-82707368D01*
X122969296Y-82623494D01*
X123054766Y-82496874D01*
X123084804Y-82347090D01*
X123084804Y-82208951D01*
X123234667Y-82059088D01*
X123331340Y-81825699D01*
X123331340Y-81758445D01*
X123172590Y-81599695D01*
X122860658Y-81599695D01*
X122846124Y-81589884D01*
X122696340Y-81559846D01*
X122150560Y-81559846D01*
X122150560Y-81440154D01*
X122696340Y-81440154D01*
X122841614Y-81411968D01*
X122859368Y-81400305D01*
X123172590Y-81400305D01*
X123246089Y-81326805D01*
X123272103Y-81321631D01*
X123436910Y-81211510D01*
X123547031Y-81046703D01*
X123585700Y-80852300D01*
X123585700Y-80758220D01*
X123910900Y-80433020D01*
X124092515Y-80614635D01*
X124042783Y-80664281D01*
X123916843Y-80967577D01*
X123916557Y-81295982D01*
X124041967Y-81599498D01*
X124273981Y-81831917D01*
X124577277Y-81957857D01*
X124905682Y-81958143D01*
X125209198Y-81832733D01*
X125317500Y-81724619D01*
X125317500Y-84064676D01*
X125299226Y-84068222D01*
X125171544Y-84152096D01*
X125086074Y-84278716D01*
X125056036Y-84428500D01*
X125056036Y-85571500D01*
X125084222Y-85716774D01*
X125168096Y-85844456D01*
X125294716Y-85929926D01*
X125444500Y-85959964D01*
X126257300Y-85959964D01*
X126402574Y-85931778D01*
X126530256Y-85847904D01*
X126615726Y-85721284D01*
X126645764Y-85571500D01*
X126645764Y-84428500D01*
X126617578Y-84283226D01*
X126533704Y-84155544D01*
X126407084Y-84070074D01*
X126384300Y-84065504D01*
X126384300Y-79935323D01*
X126402574Y-79931778D01*
X126530256Y-79847904D01*
X126615726Y-79721284D01*
X126645764Y-79571500D01*
X126645764Y-78428500D01*
X126617578Y-78283226D01*
X126533704Y-78155544D01*
X126407084Y-78070074D01*
X126257300Y-78040036D01*
X125810377Y-78040036D01*
X125343171Y-77572829D01*
X125170123Y-77457203D01*
X124966000Y-77416600D01*
X122383946Y-77416600D01*
X122218219Y-77250583D01*
X121914923Y-77124643D01*
X121586518Y-77124357D01*
X121283002Y-77249767D01*
X121050583Y-77481781D01*
X120952063Y-77719041D01*
X120921311Y-77688289D01*
X120756504Y-77578168D01*
X120562101Y-77539499D01*
X114276101Y-77539499D01*
X114081698Y-77578168D01*
X113916891Y-77688288D01*
X113789890Y-77815290D01*
X113679769Y-77980097D01*
X113664841Y-78055142D01*
X113597426Y-78068222D01*
X113499570Y-78132503D01*
X113407084Y-78070074D01*
X113257300Y-78040036D01*
X112444500Y-78040036D01*
X112406243Y-78047458D01*
X112406231Y-78047397D01*
X112296110Y-77882590D01*
X112088010Y-77674490D01*
X111923203Y-77564369D01*
X111728800Y-77525700D01*
X104275501Y-77525700D01*
X104081097Y-77564369D01*
X103916291Y-77674490D01*
X103704289Y-77886492D01*
X103596235Y-78048205D01*
X103555500Y-78040036D01*
X102742700Y-78040036D01*
X102597426Y-78068222D01*
X102469744Y-78152096D01*
X102384274Y-78278716D01*
X102354236Y-78428500D01*
X102354236Y-79571500D01*
X102382422Y-79716774D01*
X102389839Y-79728066D01*
X102324643Y-79885077D01*
X102324357Y-80213482D01*
X102449767Y-80516998D01*
X102681781Y-80749417D01*
X102985077Y-80875357D01*
X103313482Y-80875643D01*
X103443771Y-80821808D01*
X103225544Y-81040036D01*
X102742700Y-81040036D01*
X102597426Y-81068222D01*
X102469744Y-81152096D01*
X102384274Y-81278716D01*
X102354236Y-81428500D01*
X102354236Y-82571500D01*
X102382422Y-82716774D01*
X102466296Y-82844456D01*
X102476592Y-82851406D01*
X102383002Y-82890173D01*
X102204373Y-83068801D01*
X102107700Y-83302190D01*
X102107700Y-83554809D01*
X102107700Y-83714250D01*
X102266450Y-83873000D01*
X103022100Y-83873000D01*
X103022100Y-83853000D01*
X103276100Y-83853000D01*
X103276100Y-83873000D01*
X103296100Y-83873000D01*
X103296100Y-84127000D01*
X103276100Y-84127000D01*
X103276100Y-84952250D01*
X103276100Y-85047750D01*
X103276100Y-85873000D01*
X103296100Y-85873000D01*
X103296100Y-86127000D01*
X103276100Y-86127000D01*
X103276100Y-86952250D01*
X103276100Y-87047750D01*
X103276100Y-87873000D01*
X103296100Y-87873000D01*
X103296100Y-88127000D01*
X103276100Y-88127000D01*
X103276100Y-88147000D01*
X103022100Y-88147000D01*
X103022100Y-88127000D01*
X103022100Y-87873000D01*
X103022100Y-87047750D01*
X103022100Y-86952250D01*
X103022100Y-86127000D01*
X103022100Y-85873000D01*
X103022100Y-85047750D01*
X103022100Y-84952250D01*
X103022100Y-84127000D01*
X102266450Y-84127000D01*
X102107700Y-84285750D01*
X102107700Y-84445191D01*
X102107700Y-84697810D01*
X102204373Y-84931199D01*
X102273174Y-85000000D01*
X102204373Y-85068801D01*
X102107700Y-85302190D01*
X102107700Y-85554809D01*
X102107700Y-85714250D01*
X102266450Y-85873000D01*
X103022100Y-85873000D01*
X103022100Y-86127000D01*
X102266450Y-86127000D01*
X102107700Y-86285750D01*
X102107700Y-86445191D01*
X102107700Y-86697810D01*
X102204373Y-86931199D01*
X102273174Y-87000000D01*
X102204373Y-87068801D01*
X102107700Y-87302190D01*
X102107700Y-87554809D01*
X102107700Y-87714250D01*
X102266450Y-87873000D01*
X103022100Y-87873000D01*
X103022100Y-88127000D01*
X102266450Y-88127000D01*
X102107700Y-88285750D01*
X102107700Y-88444501D01*
X102012765Y-88444501D01*
X101808641Y-88485104D01*
X101739328Y-88531417D01*
X101635594Y-88600730D01*
X101635591Y-88600733D01*
X101271928Y-88964396D01*
X101156302Y-89137444D01*
X101115699Y-89341567D01*
X101115699Y-90183463D01*
X101077203Y-90241077D01*
X101053241Y-90361536D01*
X100895000Y-90361536D01*
X100749726Y-90389722D01*
X100622044Y-90473596D01*
X100536574Y-90600216D01*
X100506536Y-90750000D01*
X100506536Y-90779710D01*
X100431199Y-90704373D01*
X100197810Y-90607700D01*
X99945191Y-90607700D01*
X99785750Y-90607700D01*
X99627000Y-90766450D01*
X99627000Y-91522100D01*
X99647000Y-91522100D01*
X99647000Y-91776100D01*
X99627000Y-91776100D01*
X99627000Y-91796100D01*
X99373000Y-91796100D01*
X99373000Y-91776100D01*
X99353000Y-91776100D01*
X99353000Y-91522100D01*
X99373000Y-91522100D01*
X99373000Y-90766450D01*
X99214250Y-90607700D01*
X99054809Y-90607700D01*
X98802190Y-90607700D01*
X98568801Y-90704373D01*
X98390173Y-90883002D01*
X98380200Y-90907078D01*
X98380200Y-76880200D01*
X127619800Y-76880200D01*
X127619800Y-94119800D01*
X127619800Y-94119800D01*
G37*
X127619800Y-94119800D02*
X126892300Y-94119800D01*
X126892300Y-88697810D01*
X126892300Y-88445191D01*
X126892300Y-88285750D01*
X126892300Y-87714250D01*
X126892300Y-87554809D01*
X126892300Y-87302190D01*
X126795627Y-87068801D01*
X126616998Y-86890173D01*
X126383609Y-86793500D01*
X126136650Y-86793500D01*
X125977900Y-86952250D01*
X125977900Y-87873000D01*
X126733550Y-87873000D01*
X126892300Y-87714250D01*
X126892300Y-88285750D01*
X126733550Y-88127000D01*
X125977900Y-88127000D01*
X125977900Y-89047750D01*
X126136650Y-89206500D01*
X126383609Y-89206500D01*
X126616998Y-89109827D01*
X126795627Y-88931199D01*
X126892300Y-88697810D01*
X126892300Y-94119800D01*
X125493464Y-94119800D01*
X125493464Y-90750000D01*
X125465278Y-90604726D01*
X125381404Y-90477044D01*
X125254784Y-90391574D01*
X125105000Y-90361536D01*
X123755000Y-90361536D01*
X123609726Y-90389722D01*
X123482044Y-90473596D01*
X123396574Y-90600216D01*
X123366536Y-90750000D01*
X123366536Y-94119800D01*
X122953464Y-94119800D01*
X122953464Y-90750000D01*
X122925278Y-90604726D01*
X122841404Y-90477044D01*
X122714784Y-90391574D01*
X122565000Y-90361536D01*
X121215000Y-90361536D01*
X121069726Y-90389722D01*
X120942044Y-90473596D01*
X120856574Y-90600216D01*
X120826536Y-90750000D01*
X120826536Y-94119800D01*
X120413464Y-94119800D01*
X120413464Y-90750000D01*
X120385278Y-90604726D01*
X120301404Y-90477044D01*
X120174784Y-90391574D01*
X120025000Y-90361536D01*
X118675000Y-90361536D01*
X118529726Y-90389722D01*
X118402044Y-90473596D01*
X118316574Y-90600216D01*
X118286536Y-90750000D01*
X118286536Y-94119800D01*
X117873464Y-94119800D01*
X117873464Y-90750000D01*
X117845278Y-90604726D01*
X117761404Y-90477044D01*
X117634784Y-90391574D01*
X117485000Y-90361536D01*
X116135000Y-90361536D01*
X115989726Y-90389722D01*
X115862044Y-90473596D01*
X115776574Y-90600216D01*
X115746536Y-90750000D01*
X115746536Y-94119800D01*
X115333464Y-94119800D01*
X115333464Y-90750000D01*
X115305278Y-90604726D01*
X115221404Y-90477044D01*
X115094784Y-90391574D01*
X114945000Y-90361536D01*
X114776574Y-90361536D01*
X114739331Y-90174297D01*
X114629210Y-90009490D01*
X114079684Y-89459964D01*
X114757300Y-89459964D01*
X114902574Y-89431778D01*
X115000429Y-89367496D01*
X115092916Y-89429926D01*
X115242700Y-89459964D01*
X116055500Y-89459964D01*
X116200774Y-89431778D01*
X116328456Y-89347904D01*
X116413926Y-89221284D01*
X116443964Y-89071500D01*
X116443964Y-87928500D01*
X116415778Y-87783226D01*
X116331904Y-87655544D01*
X116205284Y-87570074D01*
X116055500Y-87540036D01*
X115242700Y-87540036D01*
X115097426Y-87568222D01*
X114999570Y-87632503D01*
X114907084Y-87570074D01*
X114858900Y-87560411D01*
X114858900Y-87547200D01*
X114858900Y-87440251D01*
X114902574Y-87431778D01*
X115030256Y-87347904D01*
X115115726Y-87221284D01*
X115145764Y-87071500D01*
X115145764Y-87006574D01*
X115333003Y-86969331D01*
X115497810Y-86859210D01*
X115990290Y-86366729D01*
X116160581Y-86537317D01*
X116463877Y-86663257D01*
X116792282Y-86663543D01*
X117095798Y-86538133D01*
X117328217Y-86306119D01*
X117454157Y-86002823D01*
X117454443Y-85674418D01*
X117329033Y-85370902D01*
X117097019Y-85138483D01*
X116793723Y-85012543D01*
X116465318Y-85012257D01*
X116161802Y-85137667D01*
X115990194Y-85308974D01*
X115770500Y-85089280D01*
X115770500Y-84981424D01*
X116944240Y-84981424D01*
X117089514Y-84953238D01*
X117217196Y-84869364D01*
X117282482Y-84772644D01*
X118854908Y-86345071D01*
X117779390Y-87420590D01*
X117699578Y-87540036D01*
X116944500Y-87540036D01*
X116799226Y-87568222D01*
X116671544Y-87652096D01*
X116586074Y-87778716D01*
X116556036Y-87928500D01*
X116556036Y-89071500D01*
X116584222Y-89216774D01*
X116668096Y-89344456D01*
X116794716Y-89429926D01*
X116944500Y-89459964D01*
X117757300Y-89459964D01*
X117902574Y-89431778D01*
X118030256Y-89347904D01*
X118115726Y-89221284D01*
X118145764Y-89071500D01*
X118145764Y-89006574D01*
X118333003Y-88969331D01*
X118497810Y-88859210D01*
X118607931Y-88694403D01*
X118646600Y-88500000D01*
X118646600Y-87990220D01*
X119849420Y-86787400D01*
X121339600Y-86787400D01*
X121534003Y-86748731D01*
X121698810Y-86638610D01*
X122101866Y-86235554D01*
X122696340Y-86235554D01*
X122841614Y-86207368D01*
X122969296Y-86123494D01*
X123028239Y-86036171D01*
X123127090Y-86184110D01*
X123488492Y-86545512D01*
X123488257Y-86815982D01*
X123593536Y-87070777D01*
X123469744Y-87152096D01*
X123384274Y-87278716D01*
X123354236Y-87428500D01*
X123354236Y-88571500D01*
X123382422Y-88716774D01*
X123466296Y-88844456D01*
X123592916Y-88929926D01*
X123742700Y-88959964D01*
X124555500Y-88959964D01*
X124700774Y-88931778D01*
X124828456Y-88847904D01*
X124855237Y-88808228D01*
X124906173Y-88931199D01*
X125084802Y-89109827D01*
X125318191Y-89206500D01*
X125565150Y-89206500D01*
X125723900Y-89047750D01*
X125723900Y-88127000D01*
X125703900Y-88127000D01*
X125703900Y-87873000D01*
X125723900Y-87873000D01*
X125723900Y-86952250D01*
X125565150Y-86793500D01*
X125318191Y-86793500D01*
X125114085Y-86878043D01*
X125139257Y-86817423D01*
X125139543Y-86489018D01*
X125014133Y-86185502D01*
X124782119Y-85953083D01*
X124712407Y-85924136D01*
X124828456Y-85847904D01*
X124913926Y-85721284D01*
X124943964Y-85571500D01*
X124943964Y-84428500D01*
X124915778Y-84283226D01*
X124831904Y-84155544D01*
X124705284Y-84070074D01*
X124555500Y-84040036D01*
X123742700Y-84040036D01*
X123597426Y-84068222D01*
X123469744Y-84152096D01*
X123384274Y-84278716D01*
X123354236Y-84428500D01*
X123354236Y-84492000D01*
X123331340Y-84492000D01*
X123331340Y-84093855D01*
X123331340Y-84026601D01*
X123234667Y-83793212D01*
X123056039Y-83614583D01*
X122822650Y-83517910D01*
X122583310Y-83517910D01*
X122424560Y-83676660D01*
X122424560Y-84252605D01*
X123172590Y-84252605D01*
X123331340Y-84093855D01*
X123331340Y-84492000D01*
X123212595Y-84492000D01*
X123172590Y-84451995D01*
X122860658Y-84451995D01*
X122846124Y-84442184D01*
X122696340Y-84412146D01*
X122150560Y-84412146D01*
X122150560Y-84252605D01*
X122170560Y-84252605D01*
X122170560Y-83676660D01*
X122055632Y-83561732D01*
X122657164Y-82960356D01*
X122657182Y-82960328D01*
X122657210Y-82960310D01*
X122711355Y-82879275D01*
X122767306Y-82795564D01*
X122767312Y-82795530D01*
X122767331Y-82795503D01*
X122782583Y-82718820D01*
X122841614Y-82707368D01*
X122969296Y-82623494D01*
X123054766Y-82496874D01*
X123084804Y-82347090D01*
X123084804Y-82208951D01*
X123234667Y-82059088D01*
X123331340Y-81825699D01*
X123331340Y-81758445D01*
X123172590Y-81599695D01*
X122860658Y-81599695D01*
X122846124Y-81589884D01*
X122696340Y-81559846D01*
X122150560Y-81559846D01*
X122150560Y-81440154D01*
X122696340Y-81440154D01*
X122841614Y-81411968D01*
X122859368Y-81400305D01*
X123172590Y-81400305D01*
X123246089Y-81326805D01*
X123272103Y-81321631D01*
X123436910Y-81211510D01*
X123547031Y-81046703D01*
X123585700Y-80852300D01*
X123585700Y-80758220D01*
X123910900Y-80433020D01*
X124092515Y-80614635D01*
X124042783Y-80664281D01*
X123916843Y-80967577D01*
X123916557Y-81295982D01*
X124041967Y-81599498D01*
X124273981Y-81831917D01*
X124577277Y-81957857D01*
X124905682Y-81958143D01*
X125209198Y-81832733D01*
X125317500Y-81724619D01*
X125317500Y-84064676D01*
X125299226Y-84068222D01*
X125171544Y-84152096D01*
X125086074Y-84278716D01*
X125056036Y-84428500D01*
X125056036Y-85571500D01*
X125084222Y-85716774D01*
X125168096Y-85844456D01*
X125294716Y-85929926D01*
X125444500Y-85959964D01*
X126257300Y-85959964D01*
X126402574Y-85931778D01*
X126530256Y-85847904D01*
X126615726Y-85721284D01*
X126645764Y-85571500D01*
X126645764Y-84428500D01*
X126617578Y-84283226D01*
X126533704Y-84155544D01*
X126407084Y-84070074D01*
X126384300Y-84065504D01*
X126384300Y-79935323D01*
X126402574Y-79931778D01*
X126530256Y-79847904D01*
X126615726Y-79721284D01*
X126645764Y-79571500D01*
X126645764Y-78428500D01*
X126617578Y-78283226D01*
X126533704Y-78155544D01*
X126407084Y-78070074D01*
X126257300Y-78040036D01*
X125810377Y-78040036D01*
X125343171Y-77572829D01*
X125170123Y-77457203D01*
X124966000Y-77416600D01*
X122383946Y-77416600D01*
X122218219Y-77250583D01*
X121914923Y-77124643D01*
X121586518Y-77124357D01*
X121283002Y-77249767D01*
X121050583Y-77481781D01*
X120952063Y-77719041D01*
X120921311Y-77688289D01*
X120756504Y-77578168D01*
X120562101Y-77539499D01*
X114276101Y-77539499D01*
X114081698Y-77578168D01*
X113916891Y-77688288D01*
X113789890Y-77815290D01*
X113679769Y-77980097D01*
X113664841Y-78055142D01*
X113597426Y-78068222D01*
X113499570Y-78132503D01*
X113407084Y-78070074D01*
X113257300Y-78040036D01*
X112444500Y-78040036D01*
X112406243Y-78047458D01*
X112406231Y-78047397D01*
X112296110Y-77882590D01*
X112088010Y-77674490D01*
X111923203Y-77564369D01*
X111728800Y-77525700D01*
X104275501Y-77525700D01*
X104081097Y-77564369D01*
X103916291Y-77674490D01*
X103704289Y-77886492D01*
X103596235Y-78048205D01*
X103555500Y-78040036D01*
X102742700Y-78040036D01*
X102597426Y-78068222D01*
X102469744Y-78152096D01*
X102384274Y-78278716D01*
X102354236Y-78428500D01*
X102354236Y-79571500D01*
X102382422Y-79716774D01*
X102389839Y-79728066D01*
X102324643Y-79885077D01*
X102324357Y-80213482D01*
X102449767Y-80516998D01*
X102681781Y-80749417D01*
X102985077Y-80875357D01*
X103313482Y-80875643D01*
X103443771Y-80821808D01*
X103225544Y-81040036D01*
X102742700Y-81040036D01*
X102597426Y-81068222D01*
X102469744Y-81152096D01*
X102384274Y-81278716D01*
X102354236Y-81428500D01*
X102354236Y-82571500D01*
X102382422Y-82716774D01*
X102466296Y-82844456D01*
X102476592Y-82851406D01*
X102383002Y-82890173D01*
X102204373Y-83068801D01*
X102107700Y-83302190D01*
X102107700Y-83554809D01*
X102107700Y-83714250D01*
X102266450Y-83873000D01*
X103022100Y-83873000D01*
X103022100Y-83853000D01*
X103276100Y-83853000D01*
X103276100Y-83873000D01*
X103296100Y-83873000D01*
X103296100Y-84127000D01*
X103276100Y-84127000D01*
X103276100Y-84952250D01*
X103276100Y-85047750D01*
X103276100Y-85873000D01*
X103296100Y-85873000D01*
X103296100Y-86127000D01*
X103276100Y-86127000D01*
X103276100Y-86952250D01*
X103276100Y-87047750D01*
X103276100Y-87873000D01*
X103296100Y-87873000D01*
X103296100Y-88127000D01*
X103276100Y-88127000D01*
X103276100Y-88147000D01*
X103022100Y-88147000D01*
X103022100Y-88127000D01*
X103022100Y-87873000D01*
X103022100Y-87047750D01*
X103022100Y-86952250D01*
X103022100Y-86127000D01*
X103022100Y-85873000D01*
X103022100Y-85047750D01*
X103022100Y-84952250D01*
X103022100Y-84127000D01*
X102266450Y-84127000D01*
X102107700Y-84285750D01*
X102107700Y-84445191D01*
X102107700Y-84697810D01*
X102204373Y-84931199D01*
X102273174Y-85000000D01*
X102204373Y-85068801D01*
X102107700Y-85302190D01*
X102107700Y-85554809D01*
X102107700Y-85714250D01*
X102266450Y-85873000D01*
X103022100Y-85873000D01*
X103022100Y-86127000D01*
X102266450Y-86127000D01*
X102107700Y-86285750D01*
X102107700Y-86445191D01*
X102107700Y-86697810D01*
X102204373Y-86931199D01*
X102273174Y-87000000D01*
X102204373Y-87068801D01*
X102107700Y-87302190D01*
X102107700Y-87554809D01*
X102107700Y-87714250D01*
X102266450Y-87873000D01*
X103022100Y-87873000D01*
X103022100Y-88127000D01*
X102266450Y-88127000D01*
X102107700Y-88285750D01*
X102107700Y-88444501D01*
X102012765Y-88444501D01*
X101808641Y-88485104D01*
X101739328Y-88531417D01*
X101635594Y-88600730D01*
X101635591Y-88600733D01*
X101271928Y-88964396D01*
X101156302Y-89137444D01*
X101115699Y-89341567D01*
X101115699Y-90183463D01*
X101077203Y-90241077D01*
X101053241Y-90361536D01*
X100895000Y-90361536D01*
X100749726Y-90389722D01*
X100622044Y-90473596D01*
X100536574Y-90600216D01*
X100506536Y-90750000D01*
X100506536Y-90779710D01*
X100431199Y-90704373D01*
X100197810Y-90607700D01*
X99945191Y-90607700D01*
X99785750Y-90607700D01*
X99627000Y-90766450D01*
X99627000Y-91522100D01*
X99647000Y-91522100D01*
X99647000Y-91776100D01*
X99627000Y-91776100D01*
X99627000Y-91796100D01*
X99373000Y-91796100D01*
X99373000Y-91776100D01*
X99353000Y-91776100D01*
X99353000Y-91522100D01*
X99373000Y-91522100D01*
X99373000Y-90766450D01*
X99214250Y-90607700D01*
X99054809Y-90607700D01*
X98802190Y-90607700D01*
X98568801Y-90704373D01*
X98390173Y-90883002D01*
X98380200Y-90907078D01*
X98380200Y-76880200D01*
X127619800Y-76880200D01*
X127619800Y-94119800D01*
M02*
