%FSLAX46Y46*%
G04 Gerber Fmt 4.6, Leading zero omitted, Abs format (unit mm)*
G04 Created by KiCad (PCBNEW (2014-09-02 BZR 5112)-product) date 2015-01-28 2:30:08 PM*
%MOMM*%
G01*
G04 APERTURE LIST*
%ADD10C,0.150000*%
%ADD11R,0.701040X1.000760*%
%ADD12R,1.300480X0.299720*%
%ADD13R,1.270000X0.381000*%
%ADD14R,1.143000X0.812800*%
%ADD15R,0.812800X1.143000*%
%ADD16R,1.000000X1.250000*%
%ADD17R,1.200000X1.250000*%
%ADD18R,1.350000X3.500000*%
%ADD19C,0.889000*%
%ADD20C,0.304800*%
%ADD21C,0.254000*%
G04 APERTURE END LIST*
D10*
D11*
X106500000Y-85230000D03*
X107452500Y-87770000D03*
X105547500Y-87770000D03*
D12*
X108694000Y-82955400D03*
X108694000Y-82320400D03*
X108694000Y-81660000D03*
X108694000Y-81025000D03*
X103106000Y-81025000D03*
X103106000Y-81672700D03*
X103106000Y-82320400D03*
X103106000Y-82968100D03*
D13*
X119799080Y-85775840D03*
X119799080Y-85125600D03*
X119799080Y-84475360D03*
X119799080Y-83825120D03*
X119799080Y-83174880D03*
X119799080Y-82524640D03*
X119799080Y-81874400D03*
X119799080Y-81224160D03*
X114200920Y-81224160D03*
X114200920Y-81874400D03*
X114200920Y-82524640D03*
X114200920Y-83174880D03*
X114200920Y-83825120D03*
X114200920Y-84475360D03*
X114200920Y-85125600D03*
X114200920Y-85775840D03*
D14*
X104000000Y-86149100D03*
X104000000Y-87850900D03*
D15*
X113850900Y-79250000D03*
X112149100Y-79250000D03*
X109149100Y-79250000D03*
X110850900Y-79250000D03*
D14*
X100000000Y-78649100D03*
X100000000Y-80350900D03*
X100000000Y-81649100D03*
X100000000Y-83350900D03*
X126500000Y-93350900D03*
X126500000Y-91649100D03*
X122500000Y-86149100D03*
X122500000Y-87850900D03*
X100000000Y-87850900D03*
X100000000Y-86149100D03*
X102000000Y-86149100D03*
X102000000Y-87850900D03*
X109500000Y-86149100D03*
X109500000Y-87850900D03*
X122500000Y-81850900D03*
X122500000Y-80149100D03*
X111500000Y-87850900D03*
X111500000Y-86149100D03*
D16*
X126650000Y-88850000D03*
X124350000Y-88850000D03*
D17*
X125500000Y-85150000D03*
D16*
X124350000Y-79150000D03*
X126650000Y-79150000D03*
D17*
X125500000Y-82850000D03*
D18*
X101570000Y-92500000D03*
X104110000Y-92500000D03*
X106650000Y-92500000D03*
X109190000Y-92500000D03*
X111730000Y-92500000D03*
X114270000Y-92500000D03*
X116810000Y-92500000D03*
X119350000Y-92500000D03*
X121890000Y-92500000D03*
X124430000Y-92500000D03*
D19*
X108230000Y-86500000D03*
X118950000Y-80300000D03*
X121750000Y-77950000D03*
X102500019Y-89828821D03*
X100798179Y-89443963D03*
X117629871Y-80260839D03*
X123693190Y-83087220D03*
X115336926Y-90063074D03*
X105759831Y-89500000D03*
X107829852Y-90202066D03*
X117796572Y-83394489D03*
X112600000Y-84400000D03*
X100807434Y-85357434D03*
X105838470Y-82958986D03*
X107489472Y-82895330D03*
X100807434Y-85357434D03*
X112612600Y-82995400D03*
X124313900Y-86652500D03*
X124742200Y-81132500D03*
X103150000Y-80050000D03*
X116628800Y-85837900D03*
D20*
X109149100Y-79250000D02*
X109149100Y-80569900D01*
X109149100Y-80569900D02*
X108694000Y-81025000D01*
X99231300Y-85335900D02*
X99021700Y-85545500D01*
X101993400Y-82968100D02*
X99625600Y-85335900D01*
X99021700Y-85545500D02*
X99021700Y-88876700D01*
X101570000Y-91425000D02*
X101570000Y-92500000D01*
X99021700Y-88876700D02*
X101570000Y-91425000D01*
X99625600Y-85335900D02*
X99231300Y-85335900D01*
X102049100Y-82968100D02*
X101993400Y-82968100D01*
X103837547Y-82968100D02*
X103106000Y-82968100D01*
X108694000Y-81025000D02*
X105780647Y-81025000D01*
X105780647Y-81025000D02*
X103837547Y-82968100D01*
X108230000Y-86580900D02*
X109500000Y-87850900D01*
X108230000Y-86500000D02*
X108230000Y-86580900D01*
X109500000Y-87850900D02*
X111500000Y-87850900D01*
X112478200Y-86456800D02*
X113159200Y-85775800D01*
X112478200Y-87850900D02*
X112478200Y-86456800D01*
X111500000Y-87850900D02*
X112478200Y-87850900D01*
X114200900Y-85775800D02*
X113159200Y-85775800D01*
X103106000Y-82968100D02*
X102049100Y-82968100D01*
X100000000Y-80350900D02*
X100000000Y-81649100D01*
X100978200Y-81897200D02*
X102049100Y-82968100D01*
X100978200Y-81649100D02*
X100978200Y-81897200D01*
X100000000Y-81649100D02*
X100978200Y-81649100D01*
X119394499Y-79855501D02*
X118950000Y-80300000D01*
X120855501Y-78394499D02*
X119394499Y-79855501D01*
X121305501Y-78394499D02*
X120855501Y-78394499D01*
X121750000Y-77950000D02*
X121305501Y-78394499D01*
X105135866Y-90445200D02*
X104908911Y-90218245D01*
X104165100Y-87850900D02*
X104000000Y-87850900D01*
X106650000Y-91425000D02*
X105670200Y-90445200D01*
X105670200Y-90445200D02*
X105135866Y-90445200D01*
X104908911Y-88594711D02*
X104165100Y-87850900D01*
X106650000Y-92500000D02*
X106650000Y-91425000D01*
X104908911Y-90218245D02*
X104908911Y-88594711D01*
D21*
X126436800Y-92500000D02*
X126500000Y-92563200D01*
X124430000Y-92500000D02*
X126436800Y-92500000D01*
X126500000Y-93350900D02*
X126500000Y-92563200D01*
X121890000Y-92500000D02*
X121890000Y-90496000D01*
X121890000Y-90496000D02*
X119799080Y-88405080D01*
X119799080Y-86220340D02*
X119799080Y-85775840D01*
X119799080Y-88405080D02*
X119799080Y-86220340D01*
X102165100Y-87850900D02*
X102000000Y-87850900D01*
X102825500Y-88511300D02*
X102165100Y-87850900D01*
X104375501Y-90230499D02*
X104375501Y-89803759D01*
X104110000Y-90496000D02*
X104375501Y-90230499D01*
X103083042Y-88511300D02*
X102825500Y-88511300D01*
X104110000Y-92500000D02*
X104110000Y-90496000D01*
X104375501Y-89803759D02*
X103083042Y-88511300D01*
X100000000Y-87850900D02*
X102000000Y-87850900D01*
X100798179Y-89443963D02*
X102115161Y-89443963D01*
X102115161Y-89443963D02*
X102500019Y-89828821D01*
X119799080Y-82524640D02*
X118666421Y-82524640D01*
X118666421Y-82524640D02*
X117796572Y-83394489D01*
X119799080Y-81224160D02*
X118593192Y-81224160D01*
X118593192Y-81224160D02*
X117629871Y-80260839D01*
X118325600Y-81874400D02*
X117796572Y-82403428D01*
X117796572Y-82403428D02*
X117796572Y-83394489D01*
X119799080Y-81874400D02*
X118325600Y-81874400D01*
X119799080Y-81224160D02*
X119799080Y-80779660D01*
X119799080Y-80779660D02*
X119850000Y-80728740D01*
X119850000Y-80728740D02*
X119850000Y-80415000D01*
X110600000Y-92019000D02*
X110600000Y-90519198D01*
X111056124Y-90063074D02*
X115336926Y-90063074D01*
X110600000Y-90519198D02*
X111056124Y-90063074D01*
X110119000Y-92500000D02*
X110600000Y-92019000D01*
X106204330Y-89944499D02*
X105759831Y-89500000D01*
X106461897Y-90202066D02*
X106204330Y-89944499D01*
X107829852Y-90202066D02*
X106461897Y-90202066D01*
X109190000Y-92500000D02*
X110119000Y-92500000D01*
X110119000Y-92500000D02*
X110169000Y-92450000D01*
X120712720Y-82500000D02*
X121000000Y-82500000D01*
X119799080Y-82524640D02*
X120688080Y-82524640D01*
X120688080Y-82524640D02*
X120712720Y-82500000D01*
X120712480Y-81850000D02*
X120950000Y-81850000D01*
X119799080Y-81874400D02*
X120688080Y-81874400D01*
X120688080Y-81874400D02*
X120712480Y-81850000D01*
X119799080Y-81224160D02*
X120688080Y-81224160D01*
X120688080Y-81224160D02*
X120712240Y-81200000D01*
X119799080Y-82524640D02*
X119799080Y-81874400D01*
X112675360Y-84475360D02*
X112600000Y-84400000D01*
X114200920Y-84475360D02*
X112675360Y-84475360D01*
X105838470Y-82958986D02*
X105393971Y-83403485D01*
X105393971Y-83403485D02*
X104156517Y-83403485D01*
X104156517Y-83403485D02*
X102202568Y-85357434D01*
X102202568Y-85357434D02*
X101436051Y-85357434D01*
X101436051Y-85357434D02*
X100807434Y-85357434D01*
X108694000Y-82955400D02*
X107549542Y-82955400D01*
X107549542Y-82955400D02*
X107489472Y-82895330D01*
X109190000Y-92500000D02*
X109190000Y-91425000D01*
X100000000Y-86149100D02*
X100015768Y-86149100D01*
X100015768Y-86149100D02*
X100807434Y-85357434D01*
X104000000Y-86149100D02*
X102000000Y-86149100D01*
X105548000Y-87770000D02*
X105548000Y-87919900D01*
X104050900Y-86200000D02*
X104000000Y-86149100D01*
X105130000Y-86200000D02*
X104050900Y-86200000D01*
X105547500Y-86617500D02*
X105130000Y-86200000D01*
X105547500Y-87770000D02*
X105547500Y-86617500D01*
X113057099Y-83439899D02*
X112612600Y-82995400D01*
X113442300Y-83825100D02*
X113057099Y-83439899D01*
X114200900Y-83825100D02*
X113442300Y-83825100D01*
X123257300Y-79361400D02*
X122500000Y-79361400D01*
X123468700Y-79150000D02*
X123257300Y-79361400D01*
X124350000Y-79150000D02*
X123468700Y-79150000D01*
X122500000Y-80149100D02*
X122500000Y-79361400D01*
X126500000Y-90006300D02*
X126500000Y-91649100D01*
X126650000Y-89856300D02*
X126500000Y-90006300D01*
X126650000Y-88850000D02*
X126650000Y-89856300D01*
X120815400Y-84323200D02*
X120815400Y-84475400D01*
X122500000Y-82638600D02*
X120815400Y-84323200D01*
X119799100Y-84475400D02*
X120815400Y-84475400D01*
X122500000Y-81850900D02*
X122500000Y-82638600D01*
X126481300Y-80325000D02*
X126650000Y-80156300D01*
X126481300Y-82850000D02*
X126481300Y-80325000D01*
X126650000Y-79150000D02*
X126650000Y-80156300D01*
X125500000Y-82850000D02*
X125990700Y-82850000D01*
X125990700Y-82850000D02*
X126481300Y-82850000D01*
X125776400Y-86652500D02*
X124313900Y-86652500D01*
X126481400Y-85947500D02*
X125776400Y-86652500D01*
X126481400Y-83340700D02*
X126481400Y-85947500D01*
X125990700Y-82850000D02*
X126481400Y-83340700D01*
X122500000Y-87850900D02*
X122500000Y-87063200D01*
X123257300Y-88638600D02*
X122500000Y-88638600D01*
X123468700Y-88850000D02*
X123257300Y-88638600D01*
X124350000Y-88850000D02*
X123468700Y-88850000D01*
X122500000Y-87850900D02*
X122500000Y-88638600D01*
X125500000Y-85150000D02*
X124645800Y-85150000D01*
X124645800Y-85150000D02*
X124518700Y-85150000D01*
X124518700Y-81356000D02*
X124742200Y-81132500D01*
X124518700Y-85150000D02*
X124518700Y-81356000D01*
X123117100Y-87063200D02*
X122500000Y-87063200D01*
X123488100Y-86692200D02*
X123117100Y-87063200D01*
X123488100Y-86180600D02*
X123488100Y-86692200D01*
X124518700Y-85150000D02*
X123488100Y-86180600D01*
X103150000Y-80050000D02*
X104137500Y-79062500D01*
X104137500Y-79062500D02*
X106387500Y-79062500D01*
X115701400Y-78250000D02*
X116628800Y-79177400D01*
X106387500Y-79062500D02*
X107200000Y-78250000D01*
X107200000Y-78250000D02*
X115701400Y-78250000D01*
X116628800Y-79177400D02*
X116628800Y-85837900D01*
X104137500Y-81672700D02*
X104137500Y-80408883D01*
X104137500Y-80408883D02*
X103778617Y-80050000D01*
X103778617Y-80050000D02*
X103150000Y-80050000D01*
X103106000Y-81672700D02*
X104137500Y-81672700D01*
X107789760Y-81660000D02*
X108694000Y-81660000D01*
X107118258Y-81660000D02*
X107789760Y-81660000D01*
X106663971Y-82114287D02*
X107118258Y-81660000D01*
X107134245Y-83825501D02*
X106663971Y-83355227D01*
X109163199Y-83825501D02*
X107134245Y-83825501D01*
X111764500Y-81224200D02*
X109163199Y-83825501D01*
X114200900Y-81224200D02*
X111764500Y-81224200D01*
X106663971Y-83355227D02*
X106663971Y-82114287D01*
X113850900Y-79250000D02*
X114511300Y-79250000D01*
X114511300Y-79250000D02*
X115216921Y-79955621D01*
X115216921Y-79955621D02*
X115216921Y-81747399D01*
X115216921Y-81747399D02*
X115089920Y-81874400D01*
X115089920Y-81874400D02*
X114200920Y-81874400D01*
X109500000Y-86149100D02*
X109500000Y-85361400D01*
X106500000Y-85230000D02*
X109368600Y-85230000D01*
X109368600Y-85230000D02*
X109500000Y-85361400D01*
X112461800Y-81874400D02*
X114200900Y-81874400D01*
X109368600Y-84967600D02*
X112461800Y-81874400D01*
X109368600Y-85230000D02*
X109368600Y-84967600D01*
X100952800Y-79903300D02*
X102074500Y-81025000D01*
X100952800Y-78649100D02*
X100952800Y-79903300D01*
X100000000Y-78649100D02*
X100952800Y-78649100D01*
X103106000Y-81025000D02*
X102074500Y-81025000D01*
X110850900Y-79250000D02*
X110850900Y-81067740D01*
X110850900Y-81067740D02*
X109598240Y-82320400D01*
X109598240Y-82320400D02*
X108694000Y-82320400D01*
X110850900Y-79250000D02*
X112149100Y-79250000D01*
X112581551Y-85232649D02*
X112959002Y-85232649D01*
X113066051Y-85125600D02*
X114200900Y-85125600D01*
X111665100Y-86149100D02*
X112581551Y-85232649D01*
X112959002Y-85232649D02*
X113066051Y-85125600D01*
X111500000Y-86149100D02*
X111665100Y-86149100D01*
X119799080Y-83174880D02*
X119799080Y-83825120D01*
X119350000Y-92500000D02*
X119350000Y-90368700D01*
X118782700Y-84069000D02*
X119026600Y-83825100D01*
X118782700Y-89801400D02*
X118782700Y-84069000D01*
X119350000Y-90368700D02*
X118782700Y-89801400D01*
X119026600Y-83825100D02*
X119799100Y-83825100D01*
X115217200Y-88775900D02*
X115217200Y-83174900D01*
X116810000Y-90368700D02*
X115217200Y-88775900D01*
X116810000Y-92500000D02*
X116810000Y-90368700D01*
X114200900Y-83174900D02*
X115217200Y-83174900D01*
G36*
X100147000Y-86276100D02*
X100127000Y-86276100D01*
X100127000Y-86296100D01*
X99873000Y-86296100D01*
X99873000Y-86276100D01*
X99853000Y-86276100D01*
X99853000Y-86022100D01*
X99873000Y-86022100D01*
X99873000Y-86002100D01*
X100127000Y-86002100D01*
X100127000Y-86022100D01*
X100147000Y-86022100D01*
X100147000Y-86276100D01*
X100147000Y-86276100D01*
G37*
X100147000Y-86276100D02*
X100127000Y-86276100D01*
X100127000Y-86296100D01*
X99873000Y-86296100D01*
X99873000Y-86276100D01*
X99853000Y-86276100D01*
X99853000Y-86022100D01*
X99873000Y-86022100D01*
X99873000Y-86002100D01*
X100127000Y-86002100D01*
X100127000Y-86022100D01*
X100147000Y-86022100D01*
X100147000Y-86276100D01*
G36*
X103867501Y-90020079D02*
X103750790Y-90136790D01*
X103640669Y-90301597D01*
X103628746Y-90361536D01*
X103435000Y-90361536D01*
X103289726Y-90389722D01*
X103162044Y-90473596D01*
X103076574Y-90600216D01*
X103046536Y-90750000D01*
X103046536Y-94119800D01*
X102633464Y-94119800D01*
X102633464Y-90750000D01*
X102605278Y-90604726D01*
X102521404Y-90477044D01*
X102394784Y-90391574D01*
X102245000Y-90361536D01*
X101260877Y-90361536D01*
X99555100Y-88655758D01*
X99555100Y-88645764D01*
X100571500Y-88645764D01*
X100716774Y-88617578D01*
X100844456Y-88533704D01*
X100929926Y-88407084D01*
X100939588Y-88358900D01*
X101059748Y-88358900D01*
X101068222Y-88402574D01*
X101152096Y-88530256D01*
X101278716Y-88615726D01*
X101428500Y-88645764D01*
X102241543Y-88645764D01*
X102466290Y-88870511D01*
X102631097Y-88980631D01*
X102825500Y-89019300D01*
X102872622Y-89019300D01*
X103867501Y-90014179D01*
X103867501Y-90020079D01*
X103867501Y-90020079D01*
G37*
X103867501Y-90020079D02*
X103750790Y-90136790D01*
X103640669Y-90301597D01*
X103628746Y-90361536D01*
X103435000Y-90361536D01*
X103289726Y-90389722D01*
X103162044Y-90473596D01*
X103076574Y-90600216D01*
X103046536Y-90750000D01*
X103046536Y-94119800D01*
X102633464Y-94119800D01*
X102633464Y-90750000D01*
X102605278Y-90604726D01*
X102521404Y-90477044D01*
X102394784Y-90391574D01*
X102245000Y-90361536D01*
X101260877Y-90361536D01*
X99555100Y-88655758D01*
X99555100Y-88645764D01*
X100571500Y-88645764D01*
X100716774Y-88617578D01*
X100844456Y-88533704D01*
X100929926Y-88407084D01*
X100939588Y-88358900D01*
X101059748Y-88358900D01*
X101068222Y-88402574D01*
X101152096Y-88530256D01*
X101278716Y-88615726D01*
X101428500Y-88645764D01*
X102241543Y-88645764D01*
X102466290Y-88870511D01*
X102631097Y-88980631D01*
X102825500Y-89019300D01*
X102872622Y-89019300D01*
X103867501Y-90014179D01*
X103867501Y-90020079D01*
G36*
X108841000Y-83030330D02*
X108821000Y-83030330D01*
X108821000Y-83102400D01*
X108567000Y-83102400D01*
X108567000Y-83030330D01*
X107567510Y-83030330D01*
X107408760Y-83189080D01*
X107408760Y-83231569D01*
X107444354Y-83317501D01*
X107344664Y-83317501D01*
X107171971Y-83144807D01*
X107171971Y-82324707D01*
X107328678Y-82168000D01*
X107655805Y-82168000D01*
X107655296Y-82170540D01*
X107655296Y-82295978D01*
X107505433Y-82445842D01*
X107408760Y-82679231D01*
X107408760Y-82721720D01*
X107567510Y-82880470D01*
X108567000Y-82880470D01*
X108567000Y-82858724D01*
X108821000Y-82858724D01*
X108821000Y-82880470D01*
X108841000Y-82880470D01*
X108841000Y-83030330D01*
X108841000Y-83030330D01*
G37*
X108841000Y-83030330D02*
X108821000Y-83030330D01*
X108821000Y-83102400D01*
X108567000Y-83102400D01*
X108567000Y-83030330D01*
X107567510Y-83030330D01*
X107408760Y-83189080D01*
X107408760Y-83231569D01*
X107444354Y-83317501D01*
X107344664Y-83317501D01*
X107171971Y-83144807D01*
X107171971Y-82324707D01*
X107328678Y-82168000D01*
X107655805Y-82168000D01*
X107655296Y-82170540D01*
X107655296Y-82295978D01*
X107505433Y-82445842D01*
X107408760Y-82679231D01*
X107408760Y-82721720D01*
X107567510Y-82880470D01*
X108567000Y-82880470D01*
X108567000Y-82858724D01*
X108821000Y-82858724D01*
X108821000Y-82880470D01*
X108841000Y-82880470D01*
X108841000Y-83030330D01*
G36*
X114347920Y-84546636D02*
X113565920Y-84546636D01*
X113442355Y-84570610D01*
X113089670Y-84570610D01*
X113036876Y-84623403D01*
X112871647Y-84656269D01*
X112769310Y-84724649D01*
X112581551Y-84724649D01*
X112419400Y-84756902D01*
X112387147Y-84763318D01*
X112222340Y-84873439D01*
X111741543Y-85354236D01*
X110928500Y-85354236D01*
X110783226Y-85382422D01*
X110655544Y-85466296D01*
X110570074Y-85592916D01*
X110540036Y-85742700D01*
X110540036Y-86555500D01*
X110568222Y-86700774D01*
X110652096Y-86828456D01*
X110778716Y-86913926D01*
X110928500Y-86943964D01*
X111944800Y-86943964D01*
X111944800Y-87056036D01*
X110928500Y-87056036D01*
X110783226Y-87084222D01*
X110655544Y-87168096D01*
X110570074Y-87294716D01*
X110565504Y-87317500D01*
X110435323Y-87317500D01*
X110431778Y-87299226D01*
X110347904Y-87171544D01*
X110221284Y-87086074D01*
X110071500Y-87056036D01*
X109459478Y-87056036D01*
X109347406Y-86943964D01*
X110071500Y-86943964D01*
X110216774Y-86915778D01*
X110344456Y-86831904D01*
X110429926Y-86705284D01*
X110459964Y-86555500D01*
X110459964Y-85742700D01*
X110431778Y-85597426D01*
X110347904Y-85469744D01*
X110221284Y-85384274D01*
X110071500Y-85354236D01*
X110006574Y-85354236D01*
X109969331Y-85166997D01*
X109936603Y-85118016D01*
X111818762Y-83235857D01*
X111912367Y-83462398D01*
X112144381Y-83694817D01*
X112447677Y-83820757D01*
X112719773Y-83820993D01*
X112967944Y-84069165D01*
X112930920Y-84158551D01*
X112930920Y-84221360D01*
X113089670Y-84380110D01*
X113446374Y-84380110D01*
X113565920Y-84404084D01*
X114347920Y-84404084D01*
X114347920Y-84546636D01*
X114347920Y-84546636D01*
G37*
X114347920Y-84546636D02*
X113565920Y-84546636D01*
X113442355Y-84570610D01*
X113089670Y-84570610D01*
X113036876Y-84623403D01*
X112871647Y-84656269D01*
X112769310Y-84724649D01*
X112581551Y-84724649D01*
X112419400Y-84756902D01*
X112387147Y-84763318D01*
X112222340Y-84873439D01*
X111741543Y-85354236D01*
X110928500Y-85354236D01*
X110783226Y-85382422D01*
X110655544Y-85466296D01*
X110570074Y-85592916D01*
X110540036Y-85742700D01*
X110540036Y-86555500D01*
X110568222Y-86700774D01*
X110652096Y-86828456D01*
X110778716Y-86913926D01*
X110928500Y-86943964D01*
X111944800Y-86943964D01*
X111944800Y-87056036D01*
X110928500Y-87056036D01*
X110783226Y-87084222D01*
X110655544Y-87168096D01*
X110570074Y-87294716D01*
X110565504Y-87317500D01*
X110435323Y-87317500D01*
X110431778Y-87299226D01*
X110347904Y-87171544D01*
X110221284Y-87086074D01*
X110071500Y-87056036D01*
X109459478Y-87056036D01*
X109347406Y-86943964D01*
X110071500Y-86943964D01*
X110216774Y-86915778D01*
X110344456Y-86831904D01*
X110429926Y-86705284D01*
X110459964Y-86555500D01*
X110459964Y-85742700D01*
X110431778Y-85597426D01*
X110347904Y-85469744D01*
X110221284Y-85384274D01*
X110071500Y-85354236D01*
X110006574Y-85354236D01*
X109969331Y-85166997D01*
X109936603Y-85118016D01*
X111818762Y-83235857D01*
X111912367Y-83462398D01*
X112144381Y-83694817D01*
X112447677Y-83820757D01*
X112719773Y-83820993D01*
X112967944Y-84069165D01*
X112930920Y-84158551D01*
X112930920Y-84221360D01*
X113089670Y-84380110D01*
X113446374Y-84380110D01*
X113565920Y-84404084D01*
X114347920Y-84404084D01*
X114347920Y-84546636D01*
G36*
X116092634Y-90369755D02*
X115989726Y-90389722D01*
X115862044Y-90473596D01*
X115776574Y-90600216D01*
X115746536Y-90750000D01*
X115746536Y-94119800D01*
X115333464Y-94119800D01*
X115333464Y-90750000D01*
X115305278Y-90604726D01*
X115221404Y-90477044D01*
X115094784Y-90391574D01*
X114945000Y-90361536D01*
X113595000Y-90361536D01*
X113449726Y-90389722D01*
X113322044Y-90473596D01*
X113236574Y-90600216D01*
X113206536Y-90750000D01*
X113206536Y-94119800D01*
X112793464Y-94119800D01*
X112793464Y-90750000D01*
X112765278Y-90604726D01*
X112681404Y-90477044D01*
X112554784Y-90391574D01*
X112405000Y-90361536D01*
X111055000Y-90361536D01*
X110909726Y-90389722D01*
X110782044Y-90473596D01*
X110696574Y-90600216D01*
X110666536Y-90750000D01*
X110666536Y-94119800D01*
X110500000Y-94119800D01*
X110500000Y-92785750D01*
X110500000Y-92214250D01*
X110500000Y-90876309D01*
X110500000Y-90623690D01*
X110403327Y-90390301D01*
X110224698Y-90211673D01*
X109991309Y-90115000D01*
X109475750Y-90115000D01*
X109317000Y-90273750D01*
X109317000Y-92373000D01*
X110341250Y-92373000D01*
X110500000Y-92214250D01*
X110500000Y-92785750D01*
X110341250Y-92627000D01*
X109317000Y-92627000D01*
X109317000Y-92647000D01*
X109063000Y-92647000D01*
X109063000Y-92627000D01*
X109063000Y-92373000D01*
X109063000Y-90273750D01*
X108904250Y-90115000D01*
X108438020Y-90115000D01*
X108438020Y-88396690D01*
X108438020Y-88144071D01*
X108438020Y-88055750D01*
X108279270Y-87897000D01*
X107579500Y-87897000D01*
X107579500Y-88746630D01*
X107738250Y-88905380D01*
X107929329Y-88905380D01*
X108162718Y-88808707D01*
X108341347Y-88630079D01*
X108438020Y-88396690D01*
X108438020Y-90115000D01*
X108388691Y-90115000D01*
X108155302Y-90211673D01*
X107976673Y-90390301D01*
X107880000Y-90623690D01*
X107880000Y-90876309D01*
X107880000Y-92214250D01*
X108038750Y-92373000D01*
X109063000Y-92373000D01*
X109063000Y-92627000D01*
X108038750Y-92627000D01*
X107880000Y-92785750D01*
X107880000Y-94119800D01*
X107713464Y-94119800D01*
X107713464Y-90750000D01*
X107685278Y-90604726D01*
X107601404Y-90477044D01*
X107474784Y-90391574D01*
X107325500Y-90361636D01*
X107325500Y-88746630D01*
X107325500Y-87897000D01*
X106625730Y-87897000D01*
X106466980Y-88055750D01*
X106466980Y-88144071D01*
X106466980Y-88396690D01*
X106563653Y-88630079D01*
X106742282Y-88808707D01*
X106975671Y-88905380D01*
X107166750Y-88905380D01*
X107325500Y-88746630D01*
X107325500Y-90361636D01*
X107325000Y-90361536D01*
X106340877Y-90361536D01*
X106047371Y-90068029D01*
X105874323Y-89952403D01*
X105670200Y-89911800D01*
X105442311Y-89911800D01*
X105442311Y-88658844D01*
X105898020Y-88658844D01*
X106043294Y-88630658D01*
X106170976Y-88546784D01*
X106256446Y-88420164D01*
X106286484Y-88270380D01*
X106286484Y-87269620D01*
X106258298Y-87124346D01*
X106174424Y-86996664D01*
X106055500Y-86916388D01*
X106055500Y-86617500D01*
X106016831Y-86423097D01*
X106016831Y-86423096D01*
X105906710Y-86258290D01*
X105489210Y-85840790D01*
X105324403Y-85730669D01*
X105130000Y-85692000D01*
X104950127Y-85692000D01*
X104931778Y-85597426D01*
X104847904Y-85469744D01*
X104721284Y-85384274D01*
X104571500Y-85354236D01*
X103428500Y-85354236D01*
X103283226Y-85382422D01*
X103155544Y-85466296D01*
X103070074Y-85592916D01*
X103060411Y-85641100D01*
X102940251Y-85641100D01*
X102931778Y-85597426D01*
X102847904Y-85469744D01*
X102721284Y-85384274D01*
X102571500Y-85354236D01*
X101428500Y-85354236D01*
X101283226Y-85382422D01*
X101155544Y-85466296D01*
X101148593Y-85476592D01*
X101109827Y-85383002D01*
X100931199Y-85204373D01*
X100697810Y-85107700D01*
X100608142Y-85107700D01*
X102214342Y-83501500D01*
X102431206Y-83501500D01*
X102455760Y-83506424D01*
X103756240Y-83506424D01*
X103781618Y-83501500D01*
X103837547Y-83501500D01*
X104041670Y-83460897D01*
X104214718Y-83345271D01*
X106001588Y-81558400D01*
X106501438Y-81558400D01*
X106304761Y-81755077D01*
X106194640Y-81919884D01*
X106155971Y-82114287D01*
X106155971Y-83355227D01*
X106194640Y-83549630D01*
X106304761Y-83714437D01*
X106775035Y-84184711D01*
X106939842Y-84294832D01*
X107134245Y-84333501D01*
X109163199Y-84333501D01*
X109314343Y-84303436D01*
X109009390Y-84608390D01*
X108933477Y-84722000D01*
X107237505Y-84722000D01*
X107210798Y-84584346D01*
X107126924Y-84456664D01*
X107000304Y-84371194D01*
X106850520Y-84341156D01*
X106149480Y-84341156D01*
X106004206Y-84369342D01*
X105876524Y-84453216D01*
X105791054Y-84579836D01*
X105761016Y-84729620D01*
X105761016Y-85730380D01*
X105789202Y-85875654D01*
X105873076Y-86003336D01*
X105999696Y-86088806D01*
X106149480Y-86118844D01*
X106850520Y-86118844D01*
X106995794Y-86090658D01*
X107123476Y-86006784D01*
X107208946Y-85880164D01*
X107237455Y-85738000D01*
X107912489Y-85738000D01*
X107763002Y-85799767D01*
X107530583Y-86031781D01*
X107404643Y-86335077D01*
X107404382Y-86634620D01*
X107325498Y-86634620D01*
X107325498Y-86793368D01*
X107166750Y-86634620D01*
X106975671Y-86634620D01*
X106742282Y-86731293D01*
X106563653Y-86909921D01*
X106466980Y-87143310D01*
X106466980Y-87395929D01*
X106466980Y-87484250D01*
X106625730Y-87643000D01*
X107325500Y-87643000D01*
X107325500Y-87623000D01*
X107579500Y-87623000D01*
X107579500Y-87643000D01*
X108279270Y-87643000D01*
X108408514Y-87513756D01*
X108540036Y-87645278D01*
X108540036Y-88257300D01*
X108568222Y-88402574D01*
X108652096Y-88530256D01*
X108778716Y-88615726D01*
X108928500Y-88645764D01*
X110071500Y-88645764D01*
X110216774Y-88617578D01*
X110344456Y-88533704D01*
X110429926Y-88407084D01*
X110434495Y-88384300D01*
X110564676Y-88384300D01*
X110568222Y-88402574D01*
X110652096Y-88530256D01*
X110778716Y-88615726D01*
X110928500Y-88645764D01*
X112071500Y-88645764D01*
X112216774Y-88617578D01*
X112344456Y-88533704D01*
X112429926Y-88407084D01*
X112434495Y-88384300D01*
X112478200Y-88384300D01*
X112682323Y-88343697D01*
X112855371Y-88228071D01*
X112970997Y-88055023D01*
X113011600Y-87850900D01*
X113011600Y-86677741D01*
X113380141Y-86309200D01*
X113393075Y-86309200D01*
X113416136Y-86324766D01*
X113565920Y-86354804D01*
X114709200Y-86354804D01*
X114709200Y-88775900D01*
X114747869Y-88970303D01*
X114857990Y-89135110D01*
X116092634Y-90369755D01*
X116092634Y-90369755D01*
G37*
X116092634Y-90369755D02*
X115989726Y-90389722D01*
X115862044Y-90473596D01*
X115776574Y-90600216D01*
X115746536Y-90750000D01*
X115746536Y-94119800D01*
X115333464Y-94119800D01*
X115333464Y-90750000D01*
X115305278Y-90604726D01*
X115221404Y-90477044D01*
X115094784Y-90391574D01*
X114945000Y-90361536D01*
X113595000Y-90361536D01*
X113449726Y-90389722D01*
X113322044Y-90473596D01*
X113236574Y-90600216D01*
X113206536Y-90750000D01*
X113206536Y-94119800D01*
X112793464Y-94119800D01*
X112793464Y-90750000D01*
X112765278Y-90604726D01*
X112681404Y-90477044D01*
X112554784Y-90391574D01*
X112405000Y-90361536D01*
X111055000Y-90361536D01*
X110909726Y-90389722D01*
X110782044Y-90473596D01*
X110696574Y-90600216D01*
X110666536Y-90750000D01*
X110666536Y-94119800D01*
X110500000Y-94119800D01*
X110500000Y-92785750D01*
X110500000Y-92214250D01*
X110500000Y-90876309D01*
X110500000Y-90623690D01*
X110403327Y-90390301D01*
X110224698Y-90211673D01*
X109991309Y-90115000D01*
X109475750Y-90115000D01*
X109317000Y-90273750D01*
X109317000Y-92373000D01*
X110341250Y-92373000D01*
X110500000Y-92214250D01*
X110500000Y-92785750D01*
X110341250Y-92627000D01*
X109317000Y-92627000D01*
X109317000Y-92647000D01*
X109063000Y-92647000D01*
X109063000Y-92627000D01*
X109063000Y-92373000D01*
X109063000Y-90273750D01*
X108904250Y-90115000D01*
X108438020Y-90115000D01*
X108438020Y-88396690D01*
X108438020Y-88144071D01*
X108438020Y-88055750D01*
X108279270Y-87897000D01*
X107579500Y-87897000D01*
X107579500Y-88746630D01*
X107738250Y-88905380D01*
X107929329Y-88905380D01*
X108162718Y-88808707D01*
X108341347Y-88630079D01*
X108438020Y-88396690D01*
X108438020Y-90115000D01*
X108388691Y-90115000D01*
X108155302Y-90211673D01*
X107976673Y-90390301D01*
X107880000Y-90623690D01*
X107880000Y-90876309D01*
X107880000Y-92214250D01*
X108038750Y-92373000D01*
X109063000Y-92373000D01*
X109063000Y-92627000D01*
X108038750Y-92627000D01*
X107880000Y-92785750D01*
X107880000Y-94119800D01*
X107713464Y-94119800D01*
X107713464Y-90750000D01*
X107685278Y-90604726D01*
X107601404Y-90477044D01*
X107474784Y-90391574D01*
X107325500Y-90361636D01*
X107325500Y-88746630D01*
X107325500Y-87897000D01*
X106625730Y-87897000D01*
X106466980Y-88055750D01*
X106466980Y-88144071D01*
X106466980Y-88396690D01*
X106563653Y-88630079D01*
X106742282Y-88808707D01*
X106975671Y-88905380D01*
X107166750Y-88905380D01*
X107325500Y-88746630D01*
X107325500Y-90361636D01*
X107325000Y-90361536D01*
X106340877Y-90361536D01*
X106047371Y-90068029D01*
X105874323Y-89952403D01*
X105670200Y-89911800D01*
X105442311Y-89911800D01*
X105442311Y-88658844D01*
X105898020Y-88658844D01*
X106043294Y-88630658D01*
X106170976Y-88546784D01*
X106256446Y-88420164D01*
X106286484Y-88270380D01*
X106286484Y-87269620D01*
X106258298Y-87124346D01*
X106174424Y-86996664D01*
X106055500Y-86916388D01*
X106055500Y-86617500D01*
X106016831Y-86423097D01*
X106016831Y-86423096D01*
X105906710Y-86258290D01*
X105489210Y-85840790D01*
X105324403Y-85730669D01*
X105130000Y-85692000D01*
X104950127Y-85692000D01*
X104931778Y-85597426D01*
X104847904Y-85469744D01*
X104721284Y-85384274D01*
X104571500Y-85354236D01*
X103428500Y-85354236D01*
X103283226Y-85382422D01*
X103155544Y-85466296D01*
X103070074Y-85592916D01*
X103060411Y-85641100D01*
X102940251Y-85641100D01*
X102931778Y-85597426D01*
X102847904Y-85469744D01*
X102721284Y-85384274D01*
X102571500Y-85354236D01*
X101428500Y-85354236D01*
X101283226Y-85382422D01*
X101155544Y-85466296D01*
X101148593Y-85476592D01*
X101109827Y-85383002D01*
X100931199Y-85204373D01*
X100697810Y-85107700D01*
X100608142Y-85107700D01*
X102214342Y-83501500D01*
X102431206Y-83501500D01*
X102455760Y-83506424D01*
X103756240Y-83506424D01*
X103781618Y-83501500D01*
X103837547Y-83501500D01*
X104041670Y-83460897D01*
X104214718Y-83345271D01*
X106001588Y-81558400D01*
X106501438Y-81558400D01*
X106304761Y-81755077D01*
X106194640Y-81919884D01*
X106155971Y-82114287D01*
X106155971Y-83355227D01*
X106194640Y-83549630D01*
X106304761Y-83714437D01*
X106775035Y-84184711D01*
X106939842Y-84294832D01*
X107134245Y-84333501D01*
X109163199Y-84333501D01*
X109314343Y-84303436D01*
X109009390Y-84608390D01*
X108933477Y-84722000D01*
X107237505Y-84722000D01*
X107210798Y-84584346D01*
X107126924Y-84456664D01*
X107000304Y-84371194D01*
X106850520Y-84341156D01*
X106149480Y-84341156D01*
X106004206Y-84369342D01*
X105876524Y-84453216D01*
X105791054Y-84579836D01*
X105761016Y-84729620D01*
X105761016Y-85730380D01*
X105789202Y-85875654D01*
X105873076Y-86003336D01*
X105999696Y-86088806D01*
X106149480Y-86118844D01*
X106850520Y-86118844D01*
X106995794Y-86090658D01*
X107123476Y-86006784D01*
X107208946Y-85880164D01*
X107237455Y-85738000D01*
X107912489Y-85738000D01*
X107763002Y-85799767D01*
X107530583Y-86031781D01*
X107404643Y-86335077D01*
X107404382Y-86634620D01*
X107325498Y-86634620D01*
X107325498Y-86793368D01*
X107166750Y-86634620D01*
X106975671Y-86634620D01*
X106742282Y-86731293D01*
X106563653Y-86909921D01*
X106466980Y-87143310D01*
X106466980Y-87395929D01*
X106466980Y-87484250D01*
X106625730Y-87643000D01*
X107325500Y-87643000D01*
X107325500Y-87623000D01*
X107579500Y-87623000D01*
X107579500Y-87643000D01*
X108279270Y-87643000D01*
X108408514Y-87513756D01*
X108540036Y-87645278D01*
X108540036Y-88257300D01*
X108568222Y-88402574D01*
X108652096Y-88530256D01*
X108778716Y-88615726D01*
X108928500Y-88645764D01*
X110071500Y-88645764D01*
X110216774Y-88617578D01*
X110344456Y-88533704D01*
X110429926Y-88407084D01*
X110434495Y-88384300D01*
X110564676Y-88384300D01*
X110568222Y-88402574D01*
X110652096Y-88530256D01*
X110778716Y-88615726D01*
X110928500Y-88645764D01*
X112071500Y-88645764D01*
X112216774Y-88617578D01*
X112344456Y-88533704D01*
X112429926Y-88407084D01*
X112434495Y-88384300D01*
X112478200Y-88384300D01*
X112682323Y-88343697D01*
X112855371Y-88228071D01*
X112970997Y-88055023D01*
X113011600Y-87850900D01*
X113011600Y-86677741D01*
X113380141Y-86309200D01*
X113393075Y-86309200D01*
X113416136Y-86324766D01*
X113565920Y-86354804D01*
X114709200Y-86354804D01*
X114709200Y-88775900D01*
X114747869Y-88970303D01*
X114857990Y-89135110D01*
X116092634Y-90369755D01*
G36*
X127619800Y-94119800D02*
X127205321Y-94119800D01*
X127216774Y-94117578D01*
X127344456Y-94033704D01*
X127429926Y-93907084D01*
X127459964Y-93757300D01*
X127459964Y-92944500D01*
X127431778Y-92799226D01*
X127347904Y-92671544D01*
X127221284Y-92586074D01*
X127071500Y-92556036D01*
X127006574Y-92556036D01*
X126984282Y-92443964D01*
X127071500Y-92443964D01*
X127216774Y-92415778D01*
X127344456Y-92331904D01*
X127429926Y-92205284D01*
X127459964Y-92055500D01*
X127459964Y-91242700D01*
X127431778Y-91097426D01*
X127347904Y-90969744D01*
X127221284Y-90884274D01*
X127071500Y-90854236D01*
X127008000Y-90854236D01*
X127008000Y-90216720D01*
X127009210Y-90215510D01*
X127119331Y-90050703D01*
X127156838Y-89862137D01*
X127295274Y-89835278D01*
X127422956Y-89751404D01*
X127508426Y-89624784D01*
X127538464Y-89475000D01*
X127538464Y-88225000D01*
X127538464Y-79775000D01*
X127538464Y-78525000D01*
X127510278Y-78379726D01*
X127426404Y-78252044D01*
X127299784Y-78166574D01*
X127150000Y-78136536D01*
X126150000Y-78136536D01*
X126004726Y-78164722D01*
X125877044Y-78248596D01*
X125791574Y-78375216D01*
X125761536Y-78525000D01*
X125761536Y-79775000D01*
X125789722Y-79920274D01*
X125873596Y-80047956D01*
X126000216Y-80133426D01*
X126010977Y-80135584D01*
X125973300Y-80325000D01*
X125973300Y-81836536D01*
X125199994Y-81836536D01*
X125209198Y-81832733D01*
X125441617Y-81600719D01*
X125567557Y-81297423D01*
X125567843Y-80969018D01*
X125442433Y-80665502D01*
X125238464Y-80461176D01*
X125238464Y-79775000D01*
X125238464Y-78525000D01*
X125210278Y-78379726D01*
X125126404Y-78252044D01*
X124999784Y-78166574D01*
X124850000Y-78136536D01*
X123850000Y-78136536D01*
X123704726Y-78164722D01*
X123577044Y-78248596D01*
X123491574Y-78375216D01*
X123461536Y-78525000D01*
X123461536Y-78643425D01*
X123274297Y-78680669D01*
X123109490Y-78790790D01*
X123046880Y-78853400D01*
X122500000Y-78853400D01*
X122305597Y-78892069D01*
X122140790Y-79002190D01*
X122030669Y-79166997D01*
X121993425Y-79354236D01*
X121928500Y-79354236D01*
X121783226Y-79382422D01*
X121655544Y-79466296D01*
X121570074Y-79592916D01*
X121540036Y-79742700D01*
X121540036Y-80555500D01*
X121568222Y-80700774D01*
X121652096Y-80828456D01*
X121778716Y-80913926D01*
X121928500Y-80943964D01*
X123071500Y-80943964D01*
X123216774Y-80915778D01*
X123344456Y-80831904D01*
X123429926Y-80705284D01*
X123459964Y-80555500D01*
X123459964Y-79825211D01*
X123469979Y-79818518D01*
X123489722Y-79920274D01*
X123573596Y-80047956D01*
X123700216Y-80133426D01*
X123850000Y-80163464D01*
X124850000Y-80163464D01*
X124995274Y-80135278D01*
X125122956Y-80051404D01*
X125208426Y-79924784D01*
X125238464Y-79775000D01*
X125238464Y-80461176D01*
X125210419Y-80433083D01*
X124907123Y-80307143D01*
X124578718Y-80306857D01*
X124275202Y-80432267D01*
X124042783Y-80664281D01*
X123916843Y-80967577D01*
X123916557Y-81295982D01*
X124010700Y-81523825D01*
X124010700Y-84939579D01*
X123588552Y-85361727D01*
X123431199Y-85204373D01*
X123197810Y-85107700D01*
X122945191Y-85107700D01*
X122785750Y-85107700D01*
X122627000Y-85266450D01*
X122627000Y-86022100D01*
X122647000Y-86022100D01*
X122647000Y-86276100D01*
X122627000Y-86276100D01*
X122627000Y-86296100D01*
X122373000Y-86296100D01*
X122373000Y-86276100D01*
X122373000Y-86022100D01*
X122373000Y-85266450D01*
X122214250Y-85107700D01*
X122054809Y-85107700D01*
X121802190Y-85107700D01*
X121568801Y-85204373D01*
X121390173Y-85383002D01*
X121293500Y-85616391D01*
X121293500Y-85863350D01*
X121452250Y-86022100D01*
X122373000Y-86022100D01*
X122373000Y-86276100D01*
X121452250Y-86276100D01*
X121293500Y-86434850D01*
X121293500Y-86681809D01*
X121390173Y-86915198D01*
X121568801Y-87093827D01*
X121691337Y-87144583D01*
X121655544Y-87168096D01*
X121570074Y-87294716D01*
X121540036Y-87444500D01*
X121540036Y-88257300D01*
X121568222Y-88402574D01*
X121652096Y-88530256D01*
X121778716Y-88615726D01*
X121928500Y-88645764D01*
X121993425Y-88645764D01*
X122030669Y-88833003D01*
X122140790Y-88997810D01*
X122305597Y-89107931D01*
X122500000Y-89146600D01*
X123046880Y-89146600D01*
X123109490Y-89209210D01*
X123274297Y-89319331D01*
X123461536Y-89356574D01*
X123461536Y-89475000D01*
X123489722Y-89620274D01*
X123573596Y-89747956D01*
X123700216Y-89833426D01*
X123850000Y-89863464D01*
X124850000Y-89863464D01*
X124995274Y-89835278D01*
X125122956Y-89751404D01*
X125208426Y-89624784D01*
X125238464Y-89475000D01*
X125238464Y-88225000D01*
X125210278Y-88079726D01*
X125126404Y-87952044D01*
X124999784Y-87866574D01*
X124850000Y-87836536D01*
X123850000Y-87836536D01*
X123704726Y-87864722D01*
X123577044Y-87948596D01*
X123491574Y-88075216D01*
X123470229Y-88181648D01*
X123459964Y-88174788D01*
X123459964Y-87444500D01*
X123458045Y-87434613D01*
X123476310Y-87422410D01*
X123696372Y-87202347D01*
X123845681Y-87351917D01*
X124148977Y-87477857D01*
X124477382Y-87478143D01*
X124780898Y-87352733D01*
X124973466Y-87160500D01*
X125776400Y-87160500D01*
X125970803Y-87121831D01*
X126135610Y-87011710D01*
X126840610Y-86306710D01*
X126840611Y-86306710D01*
X126950731Y-86141903D01*
X126989400Y-85947500D01*
X126989400Y-83340700D01*
X126950731Y-83146297D01*
X126916639Y-83095275D01*
X126916639Y-83095274D01*
X126950631Y-83044403D01*
X126989300Y-82850000D01*
X126989300Y-80535420D01*
X127009210Y-80515510D01*
X127119331Y-80350703D01*
X127156838Y-80162137D01*
X127295274Y-80135278D01*
X127422956Y-80051404D01*
X127508426Y-79924784D01*
X127538464Y-79775000D01*
X127538464Y-88225000D01*
X127510278Y-88079726D01*
X127426404Y-87952044D01*
X127299784Y-87866574D01*
X127150000Y-87836536D01*
X126150000Y-87836536D01*
X126004726Y-87864722D01*
X125877044Y-87948596D01*
X125791574Y-88075216D01*
X125761536Y-88225000D01*
X125761536Y-89475000D01*
X125789722Y-89620274D01*
X125873596Y-89747956D01*
X126000216Y-89833426D01*
X126025382Y-89838472D01*
X125992000Y-90006300D01*
X125992000Y-90854236D01*
X125928500Y-90854236D01*
X125783226Y-90882422D01*
X125655544Y-90966296D01*
X125570074Y-91092916D01*
X125540036Y-91242700D01*
X125540036Y-91992000D01*
X125493464Y-91992000D01*
X125493464Y-90750000D01*
X125465278Y-90604726D01*
X125381404Y-90477044D01*
X125254784Y-90391574D01*
X125105000Y-90361536D01*
X123755000Y-90361536D01*
X123609726Y-90389722D01*
X123482044Y-90473596D01*
X123396574Y-90600216D01*
X123366536Y-90750000D01*
X123366536Y-94119800D01*
X122953464Y-94119800D01*
X122953464Y-90750000D01*
X122925278Y-90604726D01*
X122841404Y-90477044D01*
X122714784Y-90391574D01*
X122565000Y-90361536D01*
X122371253Y-90361536D01*
X122365746Y-90333849D01*
X122359331Y-90301597D01*
X122359331Y-90301596D01*
X122249210Y-90136790D01*
X122249210Y-90136789D01*
X120307080Y-88194659D01*
X120307080Y-86354804D01*
X120434080Y-86354804D01*
X120579354Y-86326618D01*
X120707036Y-86242744D01*
X120792506Y-86116124D01*
X120822544Y-85966340D01*
X120822544Y-85825661D01*
X120972407Y-85675798D01*
X121069080Y-85442409D01*
X121069080Y-85379600D01*
X120910330Y-85220850D01*
X120553625Y-85220850D01*
X120434080Y-85196876D01*
X119652080Y-85196876D01*
X119652080Y-85054324D01*
X120434080Y-85054324D01*
X120557644Y-85030350D01*
X120910330Y-85030350D01*
X120992509Y-84948170D01*
X121009803Y-84944731D01*
X121174610Y-84834610D01*
X121284731Y-84669803D01*
X121308943Y-84548076D01*
X122859210Y-82997810D01*
X122969331Y-82833004D01*
X122969331Y-82833003D01*
X123006574Y-82645764D01*
X123006575Y-82645764D01*
X123071500Y-82645764D01*
X123216774Y-82617578D01*
X123344456Y-82533704D01*
X123429926Y-82407084D01*
X123459964Y-82257300D01*
X123459964Y-81444500D01*
X123431778Y-81299226D01*
X123347904Y-81171544D01*
X123221284Y-81086074D01*
X123071500Y-81056036D01*
X121928500Y-81056036D01*
X121783226Y-81084222D01*
X121655544Y-81168096D01*
X121570074Y-81294716D01*
X121540036Y-81444500D01*
X121540036Y-82257300D01*
X121568222Y-82402574D01*
X121652096Y-82530256D01*
X121778716Y-82615726D01*
X121800154Y-82620025D01*
X120816534Y-83603645D01*
X120795993Y-83497774D01*
X120822544Y-83365380D01*
X120822544Y-83224701D01*
X120972407Y-83074838D01*
X121069080Y-82841449D01*
X121069080Y-82778640D01*
X120910330Y-82619890D01*
X120753551Y-82619890D01*
X120793779Y-82603227D01*
X120972407Y-82424598D01*
X121012913Y-82326806D01*
X121069080Y-82270640D01*
X121069080Y-82207831D01*
X121065637Y-82199520D01*
X121069080Y-82191209D01*
X121069080Y-82128400D01*
X121012913Y-82072233D01*
X120972407Y-81974442D01*
X120872365Y-81874400D01*
X120972407Y-81774358D01*
X121012913Y-81676566D01*
X121069080Y-81620400D01*
X121069080Y-81557591D01*
X121065637Y-81549280D01*
X121069080Y-81540969D01*
X121069080Y-81478160D01*
X121012913Y-81421993D01*
X120972407Y-81324202D01*
X120793779Y-81145573D01*
X120753551Y-81128910D01*
X120910330Y-81128910D01*
X121069080Y-80970160D01*
X121069080Y-80907351D01*
X120972407Y-80673962D01*
X120793779Y-80495333D01*
X120560390Y-80398660D01*
X120307771Y-80398660D01*
X120084830Y-80398660D01*
X119926080Y-80557410D01*
X119926080Y-81128910D01*
X120004820Y-81128910D01*
X119926080Y-81207650D01*
X119926080Y-81319410D01*
X119926080Y-81779150D01*
X119926080Y-81857890D01*
X119926080Y-81890910D01*
X119926080Y-81969650D01*
X119926080Y-82021400D01*
X119672080Y-82021400D01*
X119672080Y-81969650D01*
X119672080Y-81890910D01*
X119672080Y-81857890D01*
X119672080Y-81779150D01*
X119672080Y-81319410D01*
X119672080Y-81207650D01*
X119593340Y-81128910D01*
X119672080Y-81128910D01*
X119672080Y-80713640D01*
X119775357Y-80464923D01*
X119775562Y-80228779D01*
X121076443Y-78927899D01*
X121305501Y-78927899D01*
X121509624Y-78887296D01*
X121677034Y-78775437D01*
X121913482Y-78775643D01*
X122216998Y-78650233D01*
X122449417Y-78418219D01*
X122575357Y-78114923D01*
X122575643Y-77786518D01*
X122450233Y-77483002D01*
X122218219Y-77250583D01*
X121914923Y-77124643D01*
X121586518Y-77124357D01*
X121283002Y-77249767D01*
X121050583Y-77481781D01*
X120924643Y-77785077D01*
X120924576Y-77861099D01*
X120855501Y-77861099D01*
X120651378Y-77901702D01*
X120478330Y-78017328D01*
X119021096Y-79474561D01*
X118786518Y-79474357D01*
X118483002Y-79599767D01*
X118250583Y-79831781D01*
X118124643Y-80135077D01*
X118124357Y-80463482D01*
X118249767Y-80766998D01*
X118481781Y-80999417D01*
X118612699Y-81053779D01*
X118687830Y-81128910D01*
X118844608Y-81128910D01*
X118804381Y-81145573D01*
X118625753Y-81324202D01*
X118585246Y-81421993D01*
X118529080Y-81478160D01*
X118529080Y-81540969D01*
X118532522Y-81549280D01*
X118529080Y-81557591D01*
X118529080Y-81620400D01*
X118585246Y-81676566D01*
X118625753Y-81774358D01*
X118725794Y-81874400D01*
X118625753Y-81974442D01*
X118585246Y-82072233D01*
X118529080Y-82128400D01*
X118529080Y-82191209D01*
X118532522Y-82199520D01*
X118529080Y-82207831D01*
X118529080Y-82270640D01*
X118585246Y-82326806D01*
X118625753Y-82424598D01*
X118804381Y-82603227D01*
X118844608Y-82619890D01*
X118687830Y-82619890D01*
X118529080Y-82778640D01*
X118529080Y-82841449D01*
X118625753Y-83074838D01*
X118775616Y-83224701D01*
X118775616Y-83365380D01*
X118780458Y-83390339D01*
X118667390Y-83465890D01*
X118423490Y-83709790D01*
X118313369Y-83874597D01*
X118274700Y-84069000D01*
X118274700Y-89801400D01*
X118313369Y-89995803D01*
X118423490Y-90160610D01*
X118632635Y-90369755D01*
X118529726Y-90389722D01*
X118402044Y-90473596D01*
X118316574Y-90600216D01*
X118286536Y-90750000D01*
X118286536Y-94119800D01*
X117873464Y-94119800D01*
X117873464Y-90750000D01*
X117845278Y-90604726D01*
X117761404Y-90477044D01*
X117634784Y-90391574D01*
X117485000Y-90361536D01*
X117316574Y-90361536D01*
X117285746Y-90206549D01*
X117279331Y-90174297D01*
X117279331Y-90174296D01*
X117169210Y-90009490D01*
X117169210Y-90009489D01*
X115725200Y-88565479D01*
X115725200Y-83174900D01*
X115686531Y-82980497D01*
X115576410Y-82815690D01*
X115411603Y-82705569D01*
X115394433Y-82702153D01*
X115312170Y-82619890D01*
X114955465Y-82619890D01*
X114835920Y-82595916D01*
X114053920Y-82595916D01*
X114053920Y-82453364D01*
X114835920Y-82453364D01*
X114959484Y-82429390D01*
X115312170Y-82429390D01*
X115470920Y-82270640D01*
X115470920Y-82211820D01*
X115576131Y-82106609D01*
X115576132Y-82106609D01*
X115686252Y-81941802D01*
X115724921Y-81747399D01*
X115724921Y-79955621D01*
X115686252Y-79761218D01*
X115576131Y-79596411D01*
X114870510Y-78890790D01*
X114705703Y-78780669D01*
X114645764Y-78768746D01*
X114645764Y-78758000D01*
X115490980Y-78758000D01*
X116120800Y-79387820D01*
X116120800Y-85178597D01*
X115929383Y-85369681D01*
X115803443Y-85672977D01*
X115803157Y-86001382D01*
X115928567Y-86304898D01*
X116160581Y-86537317D01*
X116463877Y-86663257D01*
X116792282Y-86663543D01*
X117095798Y-86538133D01*
X117328217Y-86306119D01*
X117454157Y-86002823D01*
X117454443Y-85674418D01*
X117329033Y-85370902D01*
X117136800Y-85178333D01*
X117136800Y-79177400D01*
X117098131Y-78982997D01*
X116988010Y-78818190D01*
X116060610Y-77890790D01*
X115895803Y-77780669D01*
X115701400Y-77742000D01*
X107200000Y-77742000D01*
X107005597Y-77780669D01*
X106840790Y-77890789D01*
X106177079Y-78554500D01*
X104137500Y-78554500D01*
X103943097Y-78593169D01*
X103778290Y-78703290D01*
X103256987Y-79224592D01*
X102986518Y-79224357D01*
X102683002Y-79349767D01*
X102450583Y-79581781D01*
X102324643Y-79885077D01*
X102324357Y-80213482D01*
X102438612Y-80490002D01*
X102310486Y-80514862D01*
X102307231Y-80517000D01*
X102284920Y-80517000D01*
X101460800Y-79692880D01*
X101460800Y-78649100D01*
X101422131Y-78454697D01*
X101312010Y-78289890D01*
X101147203Y-78179769D01*
X100952800Y-78141100D01*
X100940251Y-78141100D01*
X100931778Y-78097426D01*
X100847904Y-77969744D01*
X100721284Y-77884274D01*
X100571500Y-77854236D01*
X99428500Y-77854236D01*
X99283226Y-77882422D01*
X99155544Y-77966296D01*
X99070074Y-78092916D01*
X99040036Y-78242700D01*
X99040036Y-79055500D01*
X99068222Y-79200774D01*
X99152096Y-79328456D01*
X99278716Y-79413926D01*
X99428500Y-79443964D01*
X100444800Y-79443964D01*
X100444800Y-79556036D01*
X99428500Y-79556036D01*
X99283226Y-79584222D01*
X99155544Y-79668096D01*
X99070074Y-79794716D01*
X99040036Y-79944500D01*
X99040036Y-80757300D01*
X99068222Y-80902574D01*
X99132503Y-81000429D01*
X99070074Y-81092916D01*
X99040036Y-81242700D01*
X99040036Y-82055500D01*
X99068222Y-82200774D01*
X99152096Y-82328456D01*
X99191771Y-82355237D01*
X99068801Y-82406173D01*
X98890173Y-82584802D01*
X98793500Y-82818191D01*
X98793500Y-83065150D01*
X98952250Y-83223900D01*
X99873000Y-83223900D01*
X99873000Y-83203900D01*
X100127000Y-83203900D01*
X100127000Y-83223900D01*
X100147000Y-83223900D01*
X100147000Y-83477900D01*
X100127000Y-83477900D01*
X100127000Y-83497900D01*
X99873000Y-83497900D01*
X99873000Y-83477900D01*
X98952250Y-83477900D01*
X98793500Y-83636650D01*
X98793500Y-83883609D01*
X98890173Y-84116998D01*
X99068801Y-84295627D01*
X99302190Y-84392300D01*
X99554809Y-84392300D01*
X99714250Y-84392300D01*
X99872998Y-84233552D01*
X99872998Y-84334160D01*
X99404658Y-84802500D01*
X99231300Y-84802500D01*
X99027177Y-84843103D01*
X98854129Y-84958729D01*
X98644529Y-85168329D01*
X98528903Y-85341377D01*
X98488300Y-85545500D01*
X98488300Y-88876700D01*
X98528903Y-89080823D01*
X98644529Y-89253871D01*
X100506536Y-91115877D01*
X100506536Y-94119800D01*
X98380200Y-94119800D01*
X98380200Y-76880200D01*
X127619800Y-76880200D01*
X127619800Y-94119800D01*
X127619800Y-94119800D01*
G37*
X127619800Y-94119800D02*
X127205321Y-94119800D01*
X127216774Y-94117578D01*
X127344456Y-94033704D01*
X127429926Y-93907084D01*
X127459964Y-93757300D01*
X127459964Y-92944500D01*
X127431778Y-92799226D01*
X127347904Y-92671544D01*
X127221284Y-92586074D01*
X127071500Y-92556036D01*
X127006574Y-92556036D01*
X126984282Y-92443964D01*
X127071500Y-92443964D01*
X127216774Y-92415778D01*
X127344456Y-92331904D01*
X127429926Y-92205284D01*
X127459964Y-92055500D01*
X127459964Y-91242700D01*
X127431778Y-91097426D01*
X127347904Y-90969744D01*
X127221284Y-90884274D01*
X127071500Y-90854236D01*
X127008000Y-90854236D01*
X127008000Y-90216720D01*
X127009210Y-90215510D01*
X127119331Y-90050703D01*
X127156838Y-89862137D01*
X127295274Y-89835278D01*
X127422956Y-89751404D01*
X127508426Y-89624784D01*
X127538464Y-89475000D01*
X127538464Y-88225000D01*
X127538464Y-79775000D01*
X127538464Y-78525000D01*
X127510278Y-78379726D01*
X127426404Y-78252044D01*
X127299784Y-78166574D01*
X127150000Y-78136536D01*
X126150000Y-78136536D01*
X126004726Y-78164722D01*
X125877044Y-78248596D01*
X125791574Y-78375216D01*
X125761536Y-78525000D01*
X125761536Y-79775000D01*
X125789722Y-79920274D01*
X125873596Y-80047956D01*
X126000216Y-80133426D01*
X126010977Y-80135584D01*
X125973300Y-80325000D01*
X125973300Y-81836536D01*
X125199994Y-81836536D01*
X125209198Y-81832733D01*
X125441617Y-81600719D01*
X125567557Y-81297423D01*
X125567843Y-80969018D01*
X125442433Y-80665502D01*
X125238464Y-80461176D01*
X125238464Y-79775000D01*
X125238464Y-78525000D01*
X125210278Y-78379726D01*
X125126404Y-78252044D01*
X124999784Y-78166574D01*
X124850000Y-78136536D01*
X123850000Y-78136536D01*
X123704726Y-78164722D01*
X123577044Y-78248596D01*
X123491574Y-78375216D01*
X123461536Y-78525000D01*
X123461536Y-78643425D01*
X123274297Y-78680669D01*
X123109490Y-78790790D01*
X123046880Y-78853400D01*
X122500000Y-78853400D01*
X122305597Y-78892069D01*
X122140790Y-79002190D01*
X122030669Y-79166997D01*
X121993425Y-79354236D01*
X121928500Y-79354236D01*
X121783226Y-79382422D01*
X121655544Y-79466296D01*
X121570074Y-79592916D01*
X121540036Y-79742700D01*
X121540036Y-80555500D01*
X121568222Y-80700774D01*
X121652096Y-80828456D01*
X121778716Y-80913926D01*
X121928500Y-80943964D01*
X123071500Y-80943964D01*
X123216774Y-80915778D01*
X123344456Y-80831904D01*
X123429926Y-80705284D01*
X123459964Y-80555500D01*
X123459964Y-79825211D01*
X123469979Y-79818518D01*
X123489722Y-79920274D01*
X123573596Y-80047956D01*
X123700216Y-80133426D01*
X123850000Y-80163464D01*
X124850000Y-80163464D01*
X124995274Y-80135278D01*
X125122956Y-80051404D01*
X125208426Y-79924784D01*
X125238464Y-79775000D01*
X125238464Y-80461176D01*
X125210419Y-80433083D01*
X124907123Y-80307143D01*
X124578718Y-80306857D01*
X124275202Y-80432267D01*
X124042783Y-80664281D01*
X123916843Y-80967577D01*
X123916557Y-81295982D01*
X124010700Y-81523825D01*
X124010700Y-84939579D01*
X123588552Y-85361727D01*
X123431199Y-85204373D01*
X123197810Y-85107700D01*
X122945191Y-85107700D01*
X122785750Y-85107700D01*
X122627000Y-85266450D01*
X122627000Y-86022100D01*
X122647000Y-86022100D01*
X122647000Y-86276100D01*
X122627000Y-86276100D01*
X122627000Y-86296100D01*
X122373000Y-86296100D01*
X122373000Y-86276100D01*
X122373000Y-86022100D01*
X122373000Y-85266450D01*
X122214250Y-85107700D01*
X122054809Y-85107700D01*
X121802190Y-85107700D01*
X121568801Y-85204373D01*
X121390173Y-85383002D01*
X121293500Y-85616391D01*
X121293500Y-85863350D01*
X121452250Y-86022100D01*
X122373000Y-86022100D01*
X122373000Y-86276100D01*
X121452250Y-86276100D01*
X121293500Y-86434850D01*
X121293500Y-86681809D01*
X121390173Y-86915198D01*
X121568801Y-87093827D01*
X121691337Y-87144583D01*
X121655544Y-87168096D01*
X121570074Y-87294716D01*
X121540036Y-87444500D01*
X121540036Y-88257300D01*
X121568222Y-88402574D01*
X121652096Y-88530256D01*
X121778716Y-88615726D01*
X121928500Y-88645764D01*
X121993425Y-88645764D01*
X122030669Y-88833003D01*
X122140790Y-88997810D01*
X122305597Y-89107931D01*
X122500000Y-89146600D01*
X123046880Y-89146600D01*
X123109490Y-89209210D01*
X123274297Y-89319331D01*
X123461536Y-89356574D01*
X123461536Y-89475000D01*
X123489722Y-89620274D01*
X123573596Y-89747956D01*
X123700216Y-89833426D01*
X123850000Y-89863464D01*
X124850000Y-89863464D01*
X124995274Y-89835278D01*
X125122956Y-89751404D01*
X125208426Y-89624784D01*
X125238464Y-89475000D01*
X125238464Y-88225000D01*
X125210278Y-88079726D01*
X125126404Y-87952044D01*
X124999784Y-87866574D01*
X124850000Y-87836536D01*
X123850000Y-87836536D01*
X123704726Y-87864722D01*
X123577044Y-87948596D01*
X123491574Y-88075216D01*
X123470229Y-88181648D01*
X123459964Y-88174788D01*
X123459964Y-87444500D01*
X123458045Y-87434613D01*
X123476310Y-87422410D01*
X123696372Y-87202347D01*
X123845681Y-87351917D01*
X124148977Y-87477857D01*
X124477382Y-87478143D01*
X124780898Y-87352733D01*
X124973466Y-87160500D01*
X125776400Y-87160500D01*
X125970803Y-87121831D01*
X126135610Y-87011710D01*
X126840610Y-86306710D01*
X126840611Y-86306710D01*
X126950731Y-86141903D01*
X126989400Y-85947500D01*
X126989400Y-83340700D01*
X126950731Y-83146297D01*
X126916639Y-83095275D01*
X126916639Y-83095274D01*
X126950631Y-83044403D01*
X126989300Y-82850000D01*
X126989300Y-80535420D01*
X127009210Y-80515510D01*
X127119331Y-80350703D01*
X127156838Y-80162137D01*
X127295274Y-80135278D01*
X127422956Y-80051404D01*
X127508426Y-79924784D01*
X127538464Y-79775000D01*
X127538464Y-88225000D01*
X127510278Y-88079726D01*
X127426404Y-87952044D01*
X127299784Y-87866574D01*
X127150000Y-87836536D01*
X126150000Y-87836536D01*
X126004726Y-87864722D01*
X125877044Y-87948596D01*
X125791574Y-88075216D01*
X125761536Y-88225000D01*
X125761536Y-89475000D01*
X125789722Y-89620274D01*
X125873596Y-89747956D01*
X126000216Y-89833426D01*
X126025382Y-89838472D01*
X125992000Y-90006300D01*
X125992000Y-90854236D01*
X125928500Y-90854236D01*
X125783226Y-90882422D01*
X125655544Y-90966296D01*
X125570074Y-91092916D01*
X125540036Y-91242700D01*
X125540036Y-91992000D01*
X125493464Y-91992000D01*
X125493464Y-90750000D01*
X125465278Y-90604726D01*
X125381404Y-90477044D01*
X125254784Y-90391574D01*
X125105000Y-90361536D01*
X123755000Y-90361536D01*
X123609726Y-90389722D01*
X123482044Y-90473596D01*
X123396574Y-90600216D01*
X123366536Y-90750000D01*
X123366536Y-94119800D01*
X122953464Y-94119800D01*
X122953464Y-90750000D01*
X122925278Y-90604726D01*
X122841404Y-90477044D01*
X122714784Y-90391574D01*
X122565000Y-90361536D01*
X122371253Y-90361536D01*
X122365746Y-90333849D01*
X122359331Y-90301597D01*
X122359331Y-90301596D01*
X122249210Y-90136790D01*
X122249210Y-90136789D01*
X120307080Y-88194659D01*
X120307080Y-86354804D01*
X120434080Y-86354804D01*
X120579354Y-86326618D01*
X120707036Y-86242744D01*
X120792506Y-86116124D01*
X120822544Y-85966340D01*
X120822544Y-85825661D01*
X120972407Y-85675798D01*
X121069080Y-85442409D01*
X121069080Y-85379600D01*
X120910330Y-85220850D01*
X120553625Y-85220850D01*
X120434080Y-85196876D01*
X119652080Y-85196876D01*
X119652080Y-85054324D01*
X120434080Y-85054324D01*
X120557644Y-85030350D01*
X120910330Y-85030350D01*
X120992509Y-84948170D01*
X121009803Y-84944731D01*
X121174610Y-84834610D01*
X121284731Y-84669803D01*
X121308943Y-84548076D01*
X122859210Y-82997810D01*
X122969331Y-82833004D01*
X122969331Y-82833003D01*
X123006574Y-82645764D01*
X123006575Y-82645764D01*
X123071500Y-82645764D01*
X123216774Y-82617578D01*
X123344456Y-82533704D01*
X123429926Y-82407084D01*
X123459964Y-82257300D01*
X123459964Y-81444500D01*
X123431778Y-81299226D01*
X123347904Y-81171544D01*
X123221284Y-81086074D01*
X123071500Y-81056036D01*
X121928500Y-81056036D01*
X121783226Y-81084222D01*
X121655544Y-81168096D01*
X121570074Y-81294716D01*
X121540036Y-81444500D01*
X121540036Y-82257300D01*
X121568222Y-82402574D01*
X121652096Y-82530256D01*
X121778716Y-82615726D01*
X121800154Y-82620025D01*
X120816534Y-83603645D01*
X120795993Y-83497774D01*
X120822544Y-83365380D01*
X120822544Y-83224701D01*
X120972407Y-83074838D01*
X121069080Y-82841449D01*
X121069080Y-82778640D01*
X120910330Y-82619890D01*
X120753551Y-82619890D01*
X120793779Y-82603227D01*
X120972407Y-82424598D01*
X121012913Y-82326806D01*
X121069080Y-82270640D01*
X121069080Y-82207831D01*
X121065637Y-82199520D01*
X121069080Y-82191209D01*
X121069080Y-82128400D01*
X121012913Y-82072233D01*
X120972407Y-81974442D01*
X120872365Y-81874400D01*
X120972407Y-81774358D01*
X121012913Y-81676566D01*
X121069080Y-81620400D01*
X121069080Y-81557591D01*
X121065637Y-81549280D01*
X121069080Y-81540969D01*
X121069080Y-81478160D01*
X121012913Y-81421993D01*
X120972407Y-81324202D01*
X120793779Y-81145573D01*
X120753551Y-81128910D01*
X120910330Y-81128910D01*
X121069080Y-80970160D01*
X121069080Y-80907351D01*
X120972407Y-80673962D01*
X120793779Y-80495333D01*
X120560390Y-80398660D01*
X120307771Y-80398660D01*
X120084830Y-80398660D01*
X119926080Y-80557410D01*
X119926080Y-81128910D01*
X120004820Y-81128910D01*
X119926080Y-81207650D01*
X119926080Y-81319410D01*
X119926080Y-81779150D01*
X119926080Y-81857890D01*
X119926080Y-81890910D01*
X119926080Y-81969650D01*
X119926080Y-82021400D01*
X119672080Y-82021400D01*
X119672080Y-81969650D01*
X119672080Y-81890910D01*
X119672080Y-81857890D01*
X119672080Y-81779150D01*
X119672080Y-81319410D01*
X119672080Y-81207650D01*
X119593340Y-81128910D01*
X119672080Y-81128910D01*
X119672080Y-80713640D01*
X119775357Y-80464923D01*
X119775562Y-80228779D01*
X121076443Y-78927899D01*
X121305501Y-78927899D01*
X121509624Y-78887296D01*
X121677034Y-78775437D01*
X121913482Y-78775643D01*
X122216998Y-78650233D01*
X122449417Y-78418219D01*
X122575357Y-78114923D01*
X122575643Y-77786518D01*
X122450233Y-77483002D01*
X122218219Y-77250583D01*
X121914923Y-77124643D01*
X121586518Y-77124357D01*
X121283002Y-77249767D01*
X121050583Y-77481781D01*
X120924643Y-77785077D01*
X120924576Y-77861099D01*
X120855501Y-77861099D01*
X120651378Y-77901702D01*
X120478330Y-78017328D01*
X119021096Y-79474561D01*
X118786518Y-79474357D01*
X118483002Y-79599767D01*
X118250583Y-79831781D01*
X118124643Y-80135077D01*
X118124357Y-80463482D01*
X118249767Y-80766998D01*
X118481781Y-80999417D01*
X118612699Y-81053779D01*
X118687830Y-81128910D01*
X118844608Y-81128910D01*
X118804381Y-81145573D01*
X118625753Y-81324202D01*
X118585246Y-81421993D01*
X118529080Y-81478160D01*
X118529080Y-81540969D01*
X118532522Y-81549280D01*
X118529080Y-81557591D01*
X118529080Y-81620400D01*
X118585246Y-81676566D01*
X118625753Y-81774358D01*
X118725794Y-81874400D01*
X118625753Y-81974442D01*
X118585246Y-82072233D01*
X118529080Y-82128400D01*
X118529080Y-82191209D01*
X118532522Y-82199520D01*
X118529080Y-82207831D01*
X118529080Y-82270640D01*
X118585246Y-82326806D01*
X118625753Y-82424598D01*
X118804381Y-82603227D01*
X118844608Y-82619890D01*
X118687830Y-82619890D01*
X118529080Y-82778640D01*
X118529080Y-82841449D01*
X118625753Y-83074838D01*
X118775616Y-83224701D01*
X118775616Y-83365380D01*
X118780458Y-83390339D01*
X118667390Y-83465890D01*
X118423490Y-83709790D01*
X118313369Y-83874597D01*
X118274700Y-84069000D01*
X118274700Y-89801400D01*
X118313369Y-89995803D01*
X118423490Y-90160610D01*
X118632635Y-90369755D01*
X118529726Y-90389722D01*
X118402044Y-90473596D01*
X118316574Y-90600216D01*
X118286536Y-90750000D01*
X118286536Y-94119800D01*
X117873464Y-94119800D01*
X117873464Y-90750000D01*
X117845278Y-90604726D01*
X117761404Y-90477044D01*
X117634784Y-90391574D01*
X117485000Y-90361536D01*
X117316574Y-90361536D01*
X117285746Y-90206549D01*
X117279331Y-90174297D01*
X117279331Y-90174296D01*
X117169210Y-90009490D01*
X117169210Y-90009489D01*
X115725200Y-88565479D01*
X115725200Y-83174900D01*
X115686531Y-82980497D01*
X115576410Y-82815690D01*
X115411603Y-82705569D01*
X115394433Y-82702153D01*
X115312170Y-82619890D01*
X114955465Y-82619890D01*
X114835920Y-82595916D01*
X114053920Y-82595916D01*
X114053920Y-82453364D01*
X114835920Y-82453364D01*
X114959484Y-82429390D01*
X115312170Y-82429390D01*
X115470920Y-82270640D01*
X115470920Y-82211820D01*
X115576131Y-82106609D01*
X115576132Y-82106609D01*
X115686252Y-81941802D01*
X115724921Y-81747399D01*
X115724921Y-79955621D01*
X115686252Y-79761218D01*
X115576131Y-79596411D01*
X114870510Y-78890790D01*
X114705703Y-78780669D01*
X114645764Y-78768746D01*
X114645764Y-78758000D01*
X115490980Y-78758000D01*
X116120800Y-79387820D01*
X116120800Y-85178597D01*
X115929383Y-85369681D01*
X115803443Y-85672977D01*
X115803157Y-86001382D01*
X115928567Y-86304898D01*
X116160581Y-86537317D01*
X116463877Y-86663257D01*
X116792282Y-86663543D01*
X117095798Y-86538133D01*
X117328217Y-86306119D01*
X117454157Y-86002823D01*
X117454443Y-85674418D01*
X117329033Y-85370902D01*
X117136800Y-85178333D01*
X117136800Y-79177400D01*
X117098131Y-78982997D01*
X116988010Y-78818190D01*
X116060610Y-77890790D01*
X115895803Y-77780669D01*
X115701400Y-77742000D01*
X107200000Y-77742000D01*
X107005597Y-77780669D01*
X106840790Y-77890789D01*
X106177079Y-78554500D01*
X104137500Y-78554500D01*
X103943097Y-78593169D01*
X103778290Y-78703290D01*
X103256987Y-79224592D01*
X102986518Y-79224357D01*
X102683002Y-79349767D01*
X102450583Y-79581781D01*
X102324643Y-79885077D01*
X102324357Y-80213482D01*
X102438612Y-80490002D01*
X102310486Y-80514862D01*
X102307231Y-80517000D01*
X102284920Y-80517000D01*
X101460800Y-79692880D01*
X101460800Y-78649100D01*
X101422131Y-78454697D01*
X101312010Y-78289890D01*
X101147203Y-78179769D01*
X100952800Y-78141100D01*
X100940251Y-78141100D01*
X100931778Y-78097426D01*
X100847904Y-77969744D01*
X100721284Y-77884274D01*
X100571500Y-77854236D01*
X99428500Y-77854236D01*
X99283226Y-77882422D01*
X99155544Y-77966296D01*
X99070074Y-78092916D01*
X99040036Y-78242700D01*
X99040036Y-79055500D01*
X99068222Y-79200774D01*
X99152096Y-79328456D01*
X99278716Y-79413926D01*
X99428500Y-79443964D01*
X100444800Y-79443964D01*
X100444800Y-79556036D01*
X99428500Y-79556036D01*
X99283226Y-79584222D01*
X99155544Y-79668096D01*
X99070074Y-79794716D01*
X99040036Y-79944500D01*
X99040036Y-80757300D01*
X99068222Y-80902574D01*
X99132503Y-81000429D01*
X99070074Y-81092916D01*
X99040036Y-81242700D01*
X99040036Y-82055500D01*
X99068222Y-82200774D01*
X99152096Y-82328456D01*
X99191771Y-82355237D01*
X99068801Y-82406173D01*
X98890173Y-82584802D01*
X98793500Y-82818191D01*
X98793500Y-83065150D01*
X98952250Y-83223900D01*
X99873000Y-83223900D01*
X99873000Y-83203900D01*
X100127000Y-83203900D01*
X100127000Y-83223900D01*
X100147000Y-83223900D01*
X100147000Y-83477900D01*
X100127000Y-83477900D01*
X100127000Y-83497900D01*
X99873000Y-83497900D01*
X99873000Y-83477900D01*
X98952250Y-83477900D01*
X98793500Y-83636650D01*
X98793500Y-83883609D01*
X98890173Y-84116998D01*
X99068801Y-84295627D01*
X99302190Y-84392300D01*
X99554809Y-84392300D01*
X99714250Y-84392300D01*
X99872998Y-84233552D01*
X99872998Y-84334160D01*
X99404658Y-84802500D01*
X99231300Y-84802500D01*
X99027177Y-84843103D01*
X98854129Y-84958729D01*
X98644529Y-85168329D01*
X98528903Y-85341377D01*
X98488300Y-85545500D01*
X98488300Y-88876700D01*
X98528903Y-89080823D01*
X98644529Y-89253871D01*
X100506536Y-91115877D01*
X100506536Y-94119800D01*
X98380200Y-94119800D01*
X98380200Y-76880200D01*
X127619800Y-76880200D01*
X127619800Y-94119800D01*
M02*
