%FSLAX46Y46*%
G04 Gerber Fmt 4.6, Leading zero omitted, Abs format (unit mm)*
G04 Created by KiCad (PCBNEW (2014-09-02 BZR 5112)-product) date 2014-12-10 10:34:42 AM*
%MOMM*%
G01*
G04 APERTURE LIST*
%ADD10C,0.150000*%
%ADD11C,0.152400*%
%ADD12C,0.200000*%
%ADD13C,0.203200*%
%ADD14C,0.190500*%
%ADD15C,0.066040*%
%ADD16C,0.254000*%
%ADD17C,0.158750*%
%ADD18C,0.160020*%
%ADD19R,1.300480X0.299720*%
%ADD20R,0.797560X0.398780*%
%ADD21R,0.812800X1.143000*%
%ADD22R,1.143000X0.812800*%
%ADD23R,1.350000X3.500000*%
G04 APERTURE END LIST*
D10*
D11*
X126654819Y-93867695D02*
X127119276Y-93867695D01*
X126887047Y-93867695D02*
X126887047Y-93054895D01*
X126964457Y-93171010D01*
X127041866Y-93248419D01*
X127119276Y-93287124D01*
X126345181Y-93132305D02*
X126306476Y-93093600D01*
X126229067Y-93054895D01*
X126035543Y-93054895D01*
X125958133Y-93093600D01*
X125919429Y-93132305D01*
X125880724Y-93209714D01*
X125880724Y-93287124D01*
X125919429Y-93403238D01*
X126383886Y-93867695D01*
X125880724Y-93867695D01*
X100017771Y-89867695D02*
X100482228Y-89867695D01*
X100249999Y-89867695D02*
X100249999Y-89054895D01*
X100327409Y-89171010D01*
X100404818Y-89248419D01*
X100482228Y-89287124D01*
D12*
X109676832Y-82150000D02*
G75*
G03X109676832Y-82150000I-1876832J0D01*
G74*
G01*
D11*
X112330571Y-90275771D02*
X112330571Y-89666171D01*
X112040285Y-90275771D02*
X112040285Y-89666171D01*
X111691942Y-90275771D01*
X111691942Y-89666171D01*
X111488742Y-89666171D02*
X111285542Y-90275771D01*
X111082342Y-89666171D01*
D13*
X108930905Y-81252464D02*
X107999571Y-81252464D01*
X108598286Y-83347964D01*
X107400857Y-83347964D02*
X107134762Y-83347964D01*
X107001714Y-83248179D01*
X106935190Y-83148393D01*
X106802143Y-82849036D01*
X106735619Y-82449893D01*
X106735619Y-81651607D01*
X106802143Y-81452036D01*
X106868667Y-81352250D01*
X107001714Y-81252464D01*
X107267810Y-81252464D01*
X107400857Y-81352250D01*
X107467381Y-81452036D01*
X107533905Y-81651607D01*
X107533905Y-82150536D01*
X107467381Y-82350107D01*
X107400857Y-82449893D01*
X107267810Y-82549679D01*
X107001714Y-82549679D01*
X106868667Y-82449893D01*
X106802143Y-82350107D01*
X106735619Y-82150536D01*
D11*
X101054895Y-88725905D02*
X101867695Y-88996838D01*
X101054895Y-89267771D01*
X101558057Y-89538705D02*
X101558057Y-90157981D01*
X101867695Y-89848343D02*
X101248419Y-89848343D01*
X106304895Y-88725905D02*
X107117695Y-88996838D01*
X106304895Y-89267771D01*
X106808057Y-89538705D02*
X106808057Y-90157981D01*
X114859600Y-89666171D02*
X114743486Y-89666171D01*
X114685428Y-89695200D01*
X114627371Y-89753257D01*
X114598343Y-89869371D01*
X114598343Y-90072571D01*
X114627371Y-90188686D01*
X114685428Y-90246743D01*
X114743486Y-90275771D01*
X114859600Y-90275771D01*
X114917657Y-90246743D01*
X114975714Y-90188686D01*
X115004743Y-90072571D01*
X115004743Y-89869371D01*
X114975714Y-89753257D01*
X114917657Y-89695200D01*
X114859600Y-89666171D01*
X114337085Y-89666171D02*
X114337085Y-90159657D01*
X114308057Y-90217714D01*
X114279028Y-90246743D01*
X114220971Y-90275771D01*
X114104857Y-90275771D01*
X114046799Y-90246743D01*
X114017771Y-90217714D01*
X113988742Y-90159657D01*
X113988742Y-89666171D01*
X113785542Y-89666171D02*
X113437199Y-89666171D01*
X113611370Y-90275771D02*
X113611370Y-89666171D01*
X104859600Y-89695200D02*
X104917657Y-89666171D01*
X105004743Y-89666171D01*
X105091828Y-89695200D01*
X105149886Y-89753257D01*
X105178914Y-89811314D01*
X105207943Y-89927429D01*
X105207943Y-90014514D01*
X105178914Y-90130629D01*
X105149886Y-90188686D01*
X105091828Y-90246743D01*
X105004743Y-90275771D01*
X104946686Y-90275771D01*
X104859600Y-90246743D01*
X104830571Y-90217714D01*
X104830571Y-90014514D01*
X104946686Y-90014514D01*
X104598343Y-90101600D02*
X104308057Y-90101600D01*
X104656400Y-90275771D02*
X104453200Y-89666171D01*
X104250000Y-90275771D01*
X104133886Y-89666171D02*
X103785543Y-89666171D01*
X103959714Y-90275771D02*
X103959714Y-89666171D01*
X103582343Y-89956457D02*
X103379143Y-89956457D01*
X103292057Y-90275771D02*
X103582343Y-90275771D01*
X103582343Y-89666171D01*
X103292057Y-89666171D01*
D14*
X124080667Y-90241904D02*
X124080667Y-89758095D01*
X123790381Y-90338666D02*
X124806381Y-89999999D01*
X123790381Y-89661333D01*
X119040381Y-89685524D02*
X119524190Y-90024190D01*
X119040381Y-90266095D02*
X120056381Y-90266095D01*
X120056381Y-89879048D01*
X120008000Y-89782286D01*
X119959619Y-89733905D01*
X119862857Y-89685524D01*
X119717714Y-89685524D01*
X119620952Y-89733905D01*
X119572571Y-89782286D01*
X119524190Y-89879048D01*
X119524190Y-90266095D01*
X116338762Y-90290285D02*
X116290381Y-90145142D01*
X116290381Y-89903238D01*
X116338762Y-89806476D01*
X116387143Y-89758095D01*
X116483905Y-89709714D01*
X116580667Y-89709714D01*
X116677429Y-89758095D01*
X116725810Y-89806476D01*
X116774190Y-89903238D01*
X116822571Y-90096761D01*
X116870952Y-90193523D01*
X116919333Y-90241904D01*
X117016095Y-90290285D01*
X117112857Y-90290285D01*
X117209619Y-90241904D01*
X117258000Y-90193523D01*
X117306381Y-90096761D01*
X117306381Y-89854857D01*
X117258000Y-89709714D01*
X121540381Y-90266095D02*
X122556381Y-90266095D01*
X122556381Y-90024190D01*
X122508000Y-89879048D01*
X122411238Y-89782286D01*
X122314476Y-89733905D01*
X122120952Y-89685524D01*
X121975810Y-89685524D01*
X121782286Y-89733905D01*
X121685524Y-89782286D01*
X121588762Y-89879048D01*
X121540381Y-90024190D01*
X121540381Y-90266095D01*
D13*
X115278000Y-84913000D02*
X115278000Y-80087000D01*
X115278000Y-80087000D02*
X111722000Y-80087000D01*
X111722000Y-80087000D02*
X111722000Y-84913000D01*
X111722000Y-84913000D02*
X115278000Y-84913000D01*
X112738000Y-84278000D02*
G75*
G03X112738000Y-84278000I-381000J0D01*
G74*
G01*
D15*
X122599820Y-84202440D02*
X122599820Y-84502160D01*
X122599820Y-84502160D02*
X122099440Y-84502160D01*
X122099440Y-84202440D02*
X122099440Y-84502160D01*
X122599820Y-84202440D02*
X122099440Y-84202440D01*
X122599820Y-84850140D02*
X122599820Y-85149860D01*
X122599820Y-85149860D02*
X122099440Y-85149860D01*
X122099440Y-84850140D02*
X122099440Y-85149860D01*
X122599820Y-84850140D02*
X122099440Y-84850140D01*
X122599820Y-85497840D02*
X122599820Y-85797560D01*
X122599820Y-85797560D02*
X122099440Y-85797560D01*
X122099440Y-85497840D02*
X122099440Y-85797560D01*
X122599820Y-85497840D02*
X122099440Y-85497840D01*
X120900560Y-85497840D02*
X120900560Y-85797560D01*
X120900560Y-85797560D02*
X120400180Y-85797560D01*
X120400180Y-85497840D02*
X120400180Y-85797560D01*
X120900560Y-85497840D02*
X120400180Y-85497840D01*
X120900560Y-84850140D02*
X120900560Y-85149860D01*
X120900560Y-85149860D02*
X120400180Y-85149860D01*
X120400180Y-84850140D02*
X120400180Y-85149860D01*
X120900560Y-84850140D02*
X120400180Y-84850140D01*
X120900560Y-84202440D02*
X120900560Y-84502160D01*
X120900560Y-84502160D02*
X120400180Y-84502160D01*
X120400180Y-84202440D02*
X120400180Y-84502160D01*
X120900560Y-84202440D02*
X120400180Y-84202440D01*
D13*
X120951360Y-84001780D02*
X120951360Y-85998220D01*
X120951360Y-85998220D02*
X122048640Y-85998220D01*
X122048640Y-85998220D02*
X122048640Y-84001780D01*
X122048640Y-84001780D02*
X120951360Y-84001780D01*
D11*
X121853091Y-84301500D02*
G75*
G03X121853091Y-84301500I-104171J0D01*
G74*
G01*
D15*
X122599820Y-80702440D02*
X122599820Y-81002160D01*
X122599820Y-81002160D02*
X122099440Y-81002160D01*
X122099440Y-80702440D02*
X122099440Y-81002160D01*
X122599820Y-80702440D02*
X122099440Y-80702440D01*
X122599820Y-81350140D02*
X122599820Y-81649860D01*
X122599820Y-81649860D02*
X122099440Y-81649860D01*
X122099440Y-81350140D02*
X122099440Y-81649860D01*
X122599820Y-81350140D02*
X122099440Y-81350140D01*
X122599820Y-81997840D02*
X122599820Y-82297560D01*
X122599820Y-82297560D02*
X122099440Y-82297560D01*
X122099440Y-81997840D02*
X122099440Y-82297560D01*
X122599820Y-81997840D02*
X122099440Y-81997840D01*
X120900560Y-81997840D02*
X120900560Y-82297560D01*
X120900560Y-82297560D02*
X120400180Y-82297560D01*
X120400180Y-81997840D02*
X120400180Y-82297560D01*
X120900560Y-81997840D02*
X120400180Y-81997840D01*
X120900560Y-81350140D02*
X120900560Y-81649860D01*
X120900560Y-81649860D02*
X120400180Y-81649860D01*
X120400180Y-81350140D02*
X120400180Y-81649860D01*
X120900560Y-81350140D02*
X120400180Y-81350140D01*
X120900560Y-80702440D02*
X120900560Y-81002160D01*
X120900560Y-81002160D02*
X120400180Y-81002160D01*
X120400180Y-80702440D02*
X120400180Y-81002160D01*
X120900560Y-80702440D02*
X120400180Y-80702440D01*
D13*
X120951360Y-80501780D02*
X120951360Y-82498220D01*
X120951360Y-82498220D02*
X122048640Y-82498220D01*
X122048640Y-82498220D02*
X122048640Y-80501780D01*
X122048640Y-80501780D02*
X120951360Y-80501780D01*
D11*
X121853091Y-80801500D02*
G75*
G03X121853091Y-80801500I-104171J0D01*
G74*
G01*
D16*
X126400000Y-88900000D02*
X123600000Y-88900000D01*
X123600000Y-88900000D02*
X123600000Y-87100000D01*
X123600000Y-87100000D02*
X126400000Y-87100000D01*
X126400000Y-87100000D02*
X126400000Y-88900000D01*
X114900000Y-87400000D02*
X112100000Y-87400000D01*
X112100000Y-87400000D02*
X112100000Y-85600000D01*
X112100000Y-85600000D02*
X114900000Y-85600000D01*
X114900000Y-85600000D02*
X114900000Y-87400000D01*
X126400000Y-85900000D02*
X123600000Y-85900000D01*
X123600000Y-85900000D02*
X123600000Y-84100000D01*
X123600000Y-84100000D02*
X126400000Y-84100000D01*
X126400000Y-84100000D02*
X126400000Y-85900000D01*
X126400000Y-79900000D02*
X123600000Y-79900000D01*
X123600000Y-79900000D02*
X123600000Y-78100000D01*
X123600000Y-78100000D02*
X126400000Y-78100000D01*
X126400000Y-78100000D02*
X126400000Y-79900000D01*
X114900000Y-89400000D02*
X112100000Y-89400000D01*
X112100000Y-89400000D02*
X112100000Y-87600000D01*
X112100000Y-87600000D02*
X114900000Y-87600000D01*
X114900000Y-87600000D02*
X114900000Y-89400000D01*
X115100000Y-87600000D02*
X117900000Y-87600000D01*
X117900000Y-87600000D02*
X117900000Y-89400000D01*
X117900000Y-89400000D02*
X115100000Y-89400000D01*
X115100000Y-89400000D02*
X115100000Y-87600000D01*
X117600000Y-78100000D02*
X120400000Y-78100000D01*
X120400000Y-78100000D02*
X120400000Y-79900000D01*
X120400000Y-79900000D02*
X117600000Y-79900000D01*
X117600000Y-79900000D02*
X117600000Y-78100000D01*
X108400000Y-79900000D02*
X105600000Y-79900000D01*
X105600000Y-79900000D02*
X105600000Y-78100000D01*
X105600000Y-78100000D02*
X108400000Y-78100000D01*
X108400000Y-78100000D02*
X108400000Y-79900000D01*
X102600000Y-81100000D02*
X105400000Y-81100000D01*
X105400000Y-81100000D02*
X105400000Y-82900000D01*
X105400000Y-82900000D02*
X102600000Y-82900000D01*
X102600000Y-82900000D02*
X102600000Y-81100000D01*
X105400000Y-84900000D02*
X102600000Y-84900000D01*
X102600000Y-84900000D02*
X102600000Y-83100000D01*
X102600000Y-83100000D02*
X105400000Y-83100000D01*
X105400000Y-83100000D02*
X105400000Y-84900000D01*
X105400000Y-79900000D02*
X102600000Y-79900000D01*
X102600000Y-79900000D02*
X102600000Y-78100000D01*
X102600000Y-78100000D02*
X105400000Y-78100000D01*
X105400000Y-78100000D02*
X105400000Y-79900000D01*
X113400000Y-79900000D02*
X110600000Y-79900000D01*
X110600000Y-79900000D02*
X110600000Y-78100000D01*
X110600000Y-78100000D02*
X113400000Y-78100000D01*
X113400000Y-78100000D02*
X113400000Y-79900000D01*
X116400000Y-79900000D02*
X113600000Y-79900000D01*
X113600000Y-79900000D02*
X113600000Y-78100000D01*
X113600000Y-78100000D02*
X116400000Y-78100000D01*
X116400000Y-78100000D02*
X116400000Y-79900000D01*
X98600000Y-93900000D02*
X98600000Y-91100000D01*
X98600000Y-91100000D02*
X100400000Y-91100000D01*
X100400000Y-91100000D02*
X100400000Y-93900000D01*
X100400000Y-93900000D02*
X98600000Y-93900000D01*
X102600000Y-87100000D02*
X105400000Y-87100000D01*
X105400000Y-87100000D02*
X105400000Y-88900000D01*
X105400000Y-88900000D02*
X102600000Y-88900000D01*
X102600000Y-88900000D02*
X102600000Y-87100000D01*
X111900000Y-87400000D02*
X109100000Y-87400000D01*
X109100000Y-87400000D02*
X109100000Y-85600000D01*
X109100000Y-85600000D02*
X111900000Y-85600000D01*
X111900000Y-85600000D02*
X111900000Y-87400000D01*
X102600000Y-85100000D02*
X105400000Y-85100000D01*
X105400000Y-85100000D02*
X105400000Y-86900000D01*
X105400000Y-86900000D02*
X102600000Y-86900000D01*
X102600000Y-86900000D02*
X102600000Y-85100000D01*
X108400000Y-86900000D02*
X105600000Y-86900000D01*
X105600000Y-86900000D02*
X105600000Y-85100000D01*
X105600000Y-85100000D02*
X108400000Y-85100000D01*
X108400000Y-85100000D02*
X108400000Y-86900000D01*
X109100000Y-87600000D02*
X111900000Y-87600000D01*
X111900000Y-87600000D02*
X111900000Y-89400000D01*
X111900000Y-89400000D02*
X109100000Y-89400000D01*
X109100000Y-89400000D02*
X109100000Y-87600000D01*
D17*
X114733810Y-80582714D02*
X114733810Y-81199571D01*
X114703571Y-81272143D01*
X114673333Y-81308429D01*
X114612857Y-81344714D01*
X114491905Y-81344714D01*
X114431429Y-81308429D01*
X114401190Y-81272143D01*
X114370952Y-81199571D01*
X114370952Y-80582714D01*
X114129048Y-80582714D02*
X113735952Y-80582714D01*
X113947619Y-80873000D01*
X113856905Y-80873000D01*
X113796429Y-80909286D01*
X113766191Y-80945571D01*
X113735952Y-81018143D01*
X113735952Y-81199571D01*
X113766191Y-81272143D01*
X113796429Y-81308429D01*
X113856905Y-81344714D01*
X114038333Y-81344714D01*
X114098810Y-81308429D01*
X114129048Y-81272143D01*
D18*
D11*
X121558057Y-83833829D02*
X121616114Y-83804800D01*
X121674171Y-83746743D01*
X121761257Y-83659657D01*
X121819314Y-83630629D01*
X121877371Y-83630629D01*
X121848343Y-83775771D02*
X121906400Y-83746743D01*
X121964457Y-83688686D01*
X121993486Y-83572571D01*
X121993486Y-83369371D01*
X121964457Y-83253257D01*
X121906400Y-83195200D01*
X121848343Y-83166171D01*
X121732229Y-83166171D01*
X121674171Y-83195200D01*
X121616114Y-83253257D01*
X121587086Y-83369371D01*
X121587086Y-83572571D01*
X121616114Y-83688686D01*
X121674171Y-83746743D01*
X121732229Y-83775771D01*
X121848343Y-83775771D01*
X121383885Y-83166171D02*
X121006514Y-83166171D01*
X121209714Y-83398400D01*
X121122628Y-83398400D01*
X121064571Y-83427429D01*
X121035542Y-83456457D01*
X121006514Y-83514514D01*
X121006514Y-83659657D01*
X121035542Y-83717714D01*
X121064571Y-83746743D01*
X121122628Y-83775771D01*
X121296800Y-83775771D01*
X121354857Y-83746743D01*
X121383885Y-83717714D01*
X121558057Y-80333829D02*
X121616114Y-80304800D01*
X121674171Y-80246743D01*
X121761257Y-80159657D01*
X121819314Y-80130629D01*
X121877371Y-80130629D01*
X121848343Y-80275771D02*
X121906400Y-80246743D01*
X121964457Y-80188686D01*
X121993486Y-80072571D01*
X121993486Y-79869371D01*
X121964457Y-79753257D01*
X121906400Y-79695200D01*
X121848343Y-79666171D01*
X121732229Y-79666171D01*
X121674171Y-79695200D01*
X121616114Y-79753257D01*
X121587086Y-79869371D01*
X121587086Y-80072571D01*
X121616114Y-80188686D01*
X121674171Y-80246743D01*
X121732229Y-80275771D01*
X121848343Y-80275771D01*
X121354857Y-79724229D02*
X121325828Y-79695200D01*
X121267771Y-79666171D01*
X121122628Y-79666171D01*
X121064571Y-79695200D01*
X121035542Y-79724229D01*
X121006514Y-79782286D01*
X121006514Y-79840343D01*
X121035542Y-79927429D01*
X121383885Y-80275771D01*
X121006514Y-80275771D01*
X125101599Y-86775771D02*
X125304799Y-86485486D01*
X125449942Y-86775771D02*
X125449942Y-86166171D01*
X125217714Y-86166171D01*
X125159656Y-86195200D01*
X125130628Y-86224229D01*
X125101599Y-86282286D01*
X125101599Y-86369371D01*
X125130628Y-86427429D01*
X125159656Y-86456457D01*
X125217714Y-86485486D01*
X125449942Y-86485486D01*
X124811314Y-86775771D02*
X124695199Y-86775771D01*
X124637142Y-86746743D01*
X124608114Y-86717714D01*
X124550056Y-86630629D01*
X124521028Y-86514514D01*
X124521028Y-86282286D01*
X124550056Y-86224229D01*
X124579085Y-86195200D01*
X124637142Y-86166171D01*
X124753256Y-86166171D01*
X124811314Y-86195200D01*
X124840342Y-86224229D01*
X124869371Y-86282286D01*
X124869371Y-86427429D01*
X124840342Y-86485486D01*
X124811314Y-86514514D01*
X124753256Y-86543543D01*
X124637142Y-86543543D01*
X124579085Y-86514514D01*
X124550056Y-86485486D01*
X124521028Y-86427429D01*
X116391885Y-86775771D02*
X116595085Y-86485486D01*
X116740228Y-86775771D02*
X116740228Y-86166171D01*
X116508000Y-86166171D01*
X116449942Y-86195200D01*
X116420914Y-86224229D01*
X116391885Y-86282286D01*
X116391885Y-86369371D01*
X116420914Y-86427429D01*
X116449942Y-86456457D01*
X116508000Y-86485486D01*
X116740228Y-86485486D01*
X115811314Y-86775771D02*
X116159657Y-86775771D01*
X115985485Y-86775771D02*
X115985485Y-86166171D01*
X116043542Y-86253257D01*
X116101600Y-86311314D01*
X116159657Y-86340343D01*
X115462971Y-86427429D02*
X115521029Y-86398400D01*
X115550057Y-86369371D01*
X115579086Y-86311314D01*
X115579086Y-86282286D01*
X115550057Y-86224229D01*
X115521029Y-86195200D01*
X115462971Y-86166171D01*
X115346857Y-86166171D01*
X115288800Y-86195200D01*
X115259771Y-86224229D01*
X115230743Y-86282286D01*
X115230743Y-86311314D01*
X115259771Y-86369371D01*
X115288800Y-86398400D01*
X115346857Y-86427429D01*
X115462971Y-86427429D01*
X115521029Y-86456457D01*
X115550057Y-86485486D01*
X115579086Y-86543543D01*
X115579086Y-86659657D01*
X115550057Y-86717714D01*
X115521029Y-86746743D01*
X115462971Y-86775771D01*
X115346857Y-86775771D01*
X115288800Y-86746743D01*
X115259771Y-86717714D01*
X115230743Y-86659657D01*
X115230743Y-86543543D01*
X115259771Y-86485486D01*
X115288800Y-86456457D01*
X115346857Y-86427429D01*
X125391885Y-83775771D02*
X125595085Y-83485486D01*
X125740228Y-83775771D02*
X125740228Y-83166171D01*
X125508000Y-83166171D01*
X125449942Y-83195200D01*
X125420914Y-83224229D01*
X125391885Y-83282286D01*
X125391885Y-83369371D01*
X125420914Y-83427429D01*
X125449942Y-83456457D01*
X125508000Y-83485486D01*
X125740228Y-83485486D01*
X124811314Y-83775771D02*
X125159657Y-83775771D01*
X124985485Y-83775771D02*
X124985485Y-83166171D01*
X125043542Y-83253257D01*
X125101600Y-83311314D01*
X125159657Y-83340343D01*
X124433943Y-83166171D02*
X124375886Y-83166171D01*
X124317829Y-83195200D01*
X124288800Y-83224229D01*
X124259771Y-83282286D01*
X124230743Y-83398400D01*
X124230743Y-83543543D01*
X124259771Y-83659657D01*
X124288800Y-83717714D01*
X124317829Y-83746743D01*
X124375886Y-83775771D01*
X124433943Y-83775771D01*
X124492000Y-83746743D01*
X124521029Y-83717714D01*
X124550057Y-83659657D01*
X124579086Y-83543543D01*
X124579086Y-83398400D01*
X124550057Y-83282286D01*
X124521029Y-83224229D01*
X124492000Y-83195200D01*
X124433943Y-83166171D01*
X125391885Y-77775771D02*
X125595085Y-77485486D01*
X125740228Y-77775771D02*
X125740228Y-77166171D01*
X125508000Y-77166171D01*
X125449942Y-77195200D01*
X125420914Y-77224229D01*
X125391885Y-77282286D01*
X125391885Y-77369371D01*
X125420914Y-77427429D01*
X125449942Y-77456457D01*
X125508000Y-77485486D01*
X125740228Y-77485486D01*
X124811314Y-77775771D02*
X125159657Y-77775771D01*
X124985485Y-77775771D02*
X124985485Y-77166171D01*
X125043542Y-77253257D01*
X125101600Y-77311314D01*
X125159657Y-77340343D01*
X124579086Y-77224229D02*
X124550057Y-77195200D01*
X124492000Y-77166171D01*
X124346857Y-77166171D01*
X124288800Y-77195200D01*
X124259771Y-77224229D01*
X124230743Y-77282286D01*
X124230743Y-77340343D01*
X124259771Y-77427429D01*
X124608114Y-77775771D01*
X124230743Y-77775771D01*
X118851599Y-88717714D02*
X118880628Y-88746743D01*
X118967714Y-88775771D01*
X119025771Y-88775771D01*
X119112856Y-88746743D01*
X119170914Y-88688686D01*
X119199942Y-88630629D01*
X119228971Y-88514514D01*
X119228971Y-88427429D01*
X119199942Y-88311314D01*
X119170914Y-88253257D01*
X119112856Y-88195200D01*
X119025771Y-88166171D01*
X118967714Y-88166171D01*
X118880628Y-88195200D01*
X118851599Y-88224229D01*
X118300056Y-88166171D02*
X118590342Y-88166171D01*
X118619371Y-88456457D01*
X118590342Y-88427429D01*
X118532285Y-88398400D01*
X118387142Y-88398400D01*
X118329085Y-88427429D01*
X118300056Y-88456457D01*
X118271028Y-88514514D01*
X118271028Y-88659657D01*
X118300056Y-88717714D01*
X118329085Y-88746743D01*
X118387142Y-88775771D01*
X118532285Y-88775771D01*
X118590342Y-88746743D01*
X118619371Y-88717714D01*
X119391885Y-77775771D02*
X119595085Y-77485486D01*
X119740228Y-77775771D02*
X119740228Y-77166171D01*
X119508000Y-77166171D01*
X119449942Y-77195200D01*
X119420914Y-77224229D01*
X119391885Y-77282286D01*
X119391885Y-77369371D01*
X119420914Y-77427429D01*
X119449942Y-77456457D01*
X119508000Y-77485486D01*
X119740228Y-77485486D01*
X118811314Y-77775771D02*
X119159657Y-77775771D01*
X118985485Y-77775771D02*
X118985485Y-77166171D01*
X119043542Y-77253257D01*
X119101600Y-77311314D01*
X119159657Y-77340343D01*
X118259771Y-77166171D02*
X118550057Y-77166171D01*
X118579086Y-77456457D01*
X118550057Y-77427429D01*
X118492000Y-77398400D01*
X118346857Y-77398400D01*
X118288800Y-77427429D01*
X118259771Y-77456457D01*
X118230743Y-77514514D01*
X118230743Y-77659657D01*
X118259771Y-77717714D01*
X118288800Y-77746743D01*
X118346857Y-77775771D01*
X118492000Y-77775771D01*
X118550057Y-77746743D01*
X118579086Y-77717714D01*
X107391885Y-77775771D02*
X107595085Y-77485486D01*
X107740228Y-77775771D02*
X107740228Y-77166171D01*
X107508000Y-77166171D01*
X107449942Y-77195200D01*
X107420914Y-77224229D01*
X107391885Y-77282286D01*
X107391885Y-77369371D01*
X107420914Y-77427429D01*
X107449942Y-77456457D01*
X107508000Y-77485486D01*
X107740228Y-77485486D01*
X106811314Y-77775771D02*
X107159657Y-77775771D01*
X106985485Y-77775771D02*
X106985485Y-77166171D01*
X107043542Y-77253257D01*
X107101600Y-77311314D01*
X107159657Y-77340343D01*
X106288800Y-77166171D02*
X106404914Y-77166171D01*
X106462971Y-77195200D01*
X106492000Y-77224229D01*
X106550057Y-77311314D01*
X106579086Y-77427429D01*
X106579086Y-77659657D01*
X106550057Y-77717714D01*
X106521029Y-77746743D01*
X106462971Y-77775771D01*
X106346857Y-77775771D01*
X106288800Y-77746743D01*
X106259771Y-77717714D01*
X106230743Y-77659657D01*
X106230743Y-77514514D01*
X106259771Y-77456457D01*
X106288800Y-77427429D01*
X106346857Y-77398400D01*
X106462971Y-77398400D01*
X106521029Y-77427429D01*
X106550057Y-77456457D01*
X106579086Y-77514514D01*
X101891885Y-82275771D02*
X102095085Y-81985486D01*
X102240228Y-82275771D02*
X102240228Y-81666171D01*
X102008000Y-81666171D01*
X101949942Y-81695200D01*
X101920914Y-81724229D01*
X101891885Y-81782286D01*
X101891885Y-81869371D01*
X101920914Y-81927429D01*
X101949942Y-81956457D01*
X102008000Y-81985486D01*
X102240228Y-81985486D01*
X101311314Y-82275771D02*
X101659657Y-82275771D01*
X101485485Y-82275771D02*
X101485485Y-81666171D01*
X101543542Y-81753257D01*
X101601600Y-81811314D01*
X101659657Y-81840343D01*
X101108114Y-81666171D02*
X100701714Y-81666171D01*
X100962971Y-82275771D01*
X101891885Y-84275771D02*
X102095085Y-83985486D01*
X102240228Y-84275771D02*
X102240228Y-83666171D01*
X102008000Y-83666171D01*
X101949942Y-83695200D01*
X101920914Y-83724229D01*
X101891885Y-83782286D01*
X101891885Y-83869371D01*
X101920914Y-83927429D01*
X101949942Y-83956457D01*
X102008000Y-83985486D01*
X102240228Y-83985486D01*
X101659657Y-83724229D02*
X101630628Y-83695200D01*
X101572571Y-83666171D01*
X101427428Y-83666171D01*
X101369371Y-83695200D01*
X101340342Y-83724229D01*
X101311314Y-83782286D01*
X101311314Y-83840343D01*
X101340342Y-83927429D01*
X101688685Y-84275771D01*
X101311314Y-84275771D01*
X100933943Y-83666171D02*
X100875886Y-83666171D01*
X100817829Y-83695200D01*
X100788800Y-83724229D01*
X100759771Y-83782286D01*
X100730743Y-83898400D01*
X100730743Y-84043543D01*
X100759771Y-84159657D01*
X100788800Y-84217714D01*
X100817829Y-84246743D01*
X100875886Y-84275771D01*
X100933943Y-84275771D01*
X100992000Y-84246743D01*
X101021029Y-84217714D01*
X101050057Y-84159657D01*
X101079086Y-84043543D01*
X101079086Y-83898400D01*
X101050057Y-83782286D01*
X101021029Y-83724229D01*
X100992000Y-83695200D01*
X100933943Y-83666171D01*
X104391885Y-77775771D02*
X104595085Y-77485486D01*
X104740228Y-77775771D02*
X104740228Y-77166171D01*
X104508000Y-77166171D01*
X104449942Y-77195200D01*
X104420914Y-77224229D01*
X104391885Y-77282286D01*
X104391885Y-77369371D01*
X104420914Y-77427429D01*
X104449942Y-77456457D01*
X104508000Y-77485486D01*
X104740228Y-77485486D01*
X103811314Y-77775771D02*
X104159657Y-77775771D01*
X103985485Y-77775771D02*
X103985485Y-77166171D01*
X104043542Y-77253257D01*
X104101600Y-77311314D01*
X104159657Y-77340343D01*
X103521029Y-77775771D02*
X103404914Y-77775771D01*
X103346857Y-77746743D01*
X103317829Y-77717714D01*
X103259771Y-77630629D01*
X103230743Y-77514514D01*
X103230743Y-77282286D01*
X103259771Y-77224229D01*
X103288800Y-77195200D01*
X103346857Y-77166171D01*
X103462971Y-77166171D01*
X103521029Y-77195200D01*
X103550057Y-77224229D01*
X103579086Y-77282286D01*
X103579086Y-77427429D01*
X103550057Y-77485486D01*
X103521029Y-77514514D01*
X103462971Y-77543543D01*
X103346857Y-77543543D01*
X103288800Y-77514514D01*
X103259771Y-77485486D01*
X103230743Y-77427429D01*
X112391885Y-77775771D02*
X112595085Y-77485486D01*
X112740228Y-77775771D02*
X112740228Y-77166171D01*
X112508000Y-77166171D01*
X112449942Y-77195200D01*
X112420914Y-77224229D01*
X112391885Y-77282286D01*
X112391885Y-77369371D01*
X112420914Y-77427429D01*
X112449942Y-77456457D01*
X112508000Y-77485486D01*
X112740228Y-77485486D01*
X111811314Y-77775771D02*
X112159657Y-77775771D01*
X111985485Y-77775771D02*
X111985485Y-77166171D01*
X112043542Y-77253257D01*
X112101600Y-77311314D01*
X112159657Y-77340343D01*
X111608114Y-77166171D02*
X111230743Y-77166171D01*
X111433943Y-77398400D01*
X111346857Y-77398400D01*
X111288800Y-77427429D01*
X111259771Y-77456457D01*
X111230743Y-77514514D01*
X111230743Y-77659657D01*
X111259771Y-77717714D01*
X111288800Y-77746743D01*
X111346857Y-77775771D01*
X111521029Y-77775771D01*
X111579086Y-77746743D01*
X111608114Y-77717714D01*
X115101599Y-77717714D02*
X115130628Y-77746743D01*
X115217714Y-77775771D01*
X115275771Y-77775771D01*
X115362856Y-77746743D01*
X115420914Y-77688686D01*
X115449942Y-77630629D01*
X115478971Y-77514514D01*
X115478971Y-77427429D01*
X115449942Y-77311314D01*
X115420914Y-77253257D01*
X115362856Y-77195200D01*
X115275771Y-77166171D01*
X115217714Y-77166171D01*
X115130628Y-77195200D01*
X115101599Y-77224229D01*
X114579085Y-77369371D02*
X114579085Y-77775771D01*
X114724228Y-77137143D02*
X114869371Y-77572571D01*
X114491999Y-77572571D01*
X99601599Y-90717714D02*
X99630628Y-90746743D01*
X99717714Y-90775771D01*
X99775771Y-90775771D01*
X99862856Y-90746743D01*
X99920914Y-90688686D01*
X99949942Y-90630629D01*
X99978971Y-90514514D01*
X99978971Y-90427429D01*
X99949942Y-90311314D01*
X99920914Y-90253257D01*
X99862856Y-90195200D01*
X99775771Y-90166171D01*
X99717714Y-90166171D01*
X99630628Y-90195200D01*
X99601599Y-90224229D01*
X99079085Y-90166171D02*
X99195199Y-90166171D01*
X99253256Y-90195200D01*
X99282285Y-90224229D01*
X99340342Y-90311314D01*
X99369371Y-90427429D01*
X99369371Y-90659657D01*
X99340342Y-90717714D01*
X99311314Y-90746743D01*
X99253256Y-90775771D01*
X99137142Y-90775771D01*
X99079085Y-90746743D01*
X99050056Y-90717714D01*
X99021028Y-90659657D01*
X99021028Y-90514514D01*
X99050056Y-90456457D01*
X99079085Y-90427429D01*
X99137142Y-90398400D01*
X99253256Y-90398400D01*
X99311314Y-90427429D01*
X99340342Y-90456457D01*
X99369371Y-90514514D01*
X101851599Y-88217714D02*
X101880628Y-88246743D01*
X101967714Y-88275771D01*
X102025771Y-88275771D01*
X102112856Y-88246743D01*
X102170914Y-88188686D01*
X102199942Y-88130629D01*
X102228971Y-88014514D01*
X102228971Y-87927429D01*
X102199942Y-87811314D01*
X102170914Y-87753257D01*
X102112856Y-87695200D01*
X102025771Y-87666171D01*
X101967714Y-87666171D01*
X101880628Y-87695200D01*
X101851599Y-87724229D01*
X101648399Y-87666171D02*
X101241999Y-87666171D01*
X101503256Y-88275771D01*
X110891885Y-85275771D02*
X111095085Y-84985486D01*
X111240228Y-85275771D02*
X111240228Y-84666171D01*
X111008000Y-84666171D01*
X110949942Y-84695200D01*
X110920914Y-84724229D01*
X110891885Y-84782286D01*
X110891885Y-84869371D01*
X110920914Y-84927429D01*
X110949942Y-84956457D01*
X111008000Y-84985486D01*
X111240228Y-84985486D01*
X110659657Y-84724229D02*
X110630628Y-84695200D01*
X110572571Y-84666171D01*
X110427428Y-84666171D01*
X110369371Y-84695200D01*
X110340342Y-84724229D01*
X110311314Y-84782286D01*
X110311314Y-84840343D01*
X110340342Y-84927429D01*
X110688685Y-85275771D01*
X110311314Y-85275771D01*
X109788800Y-84869371D02*
X109788800Y-85275771D01*
X109933943Y-84637143D02*
X110079086Y-85072571D01*
X109701714Y-85072571D01*
X101891885Y-86275771D02*
X102095085Y-85985486D01*
X102240228Y-86275771D02*
X102240228Y-85666171D01*
X102008000Y-85666171D01*
X101949942Y-85695200D01*
X101920914Y-85724229D01*
X101891885Y-85782286D01*
X101891885Y-85869371D01*
X101920914Y-85927429D01*
X101949942Y-85956457D01*
X102008000Y-85985486D01*
X102240228Y-85985486D01*
X101659657Y-85724229D02*
X101630628Y-85695200D01*
X101572571Y-85666171D01*
X101427428Y-85666171D01*
X101369371Y-85695200D01*
X101340342Y-85724229D01*
X101311314Y-85782286D01*
X101311314Y-85840343D01*
X101340342Y-85927429D01*
X101688685Y-86275771D01*
X101311314Y-86275771D01*
X101108114Y-85666171D02*
X100730743Y-85666171D01*
X100933943Y-85898400D01*
X100846857Y-85898400D01*
X100788800Y-85927429D01*
X100759771Y-85956457D01*
X100730743Y-86014514D01*
X100730743Y-86159657D01*
X100759771Y-86217714D01*
X100788800Y-86246743D01*
X100846857Y-86275771D01*
X101021029Y-86275771D01*
X101079086Y-86246743D01*
X101108114Y-86217714D01*
X107391885Y-84875771D02*
X107595085Y-84585486D01*
X107740228Y-84875771D02*
X107740228Y-84266171D01*
X107508000Y-84266171D01*
X107449942Y-84295200D01*
X107420914Y-84324229D01*
X107391885Y-84382286D01*
X107391885Y-84469371D01*
X107420914Y-84527429D01*
X107449942Y-84556457D01*
X107508000Y-84585486D01*
X107740228Y-84585486D01*
X107159657Y-84324229D02*
X107130628Y-84295200D01*
X107072571Y-84266171D01*
X106927428Y-84266171D01*
X106869371Y-84295200D01*
X106840342Y-84324229D01*
X106811314Y-84382286D01*
X106811314Y-84440343D01*
X106840342Y-84527429D01*
X107188685Y-84875771D01*
X106811314Y-84875771D01*
X106579086Y-84324229D02*
X106550057Y-84295200D01*
X106492000Y-84266171D01*
X106346857Y-84266171D01*
X106288800Y-84295200D01*
X106259771Y-84324229D01*
X106230743Y-84382286D01*
X106230743Y-84440343D01*
X106259771Y-84527429D01*
X106608114Y-84875771D01*
X106230743Y-84875771D01*
X108391885Y-88775771D02*
X108595085Y-88485486D01*
X108740228Y-88775771D02*
X108740228Y-88166171D01*
X108508000Y-88166171D01*
X108449942Y-88195200D01*
X108420914Y-88224229D01*
X108391885Y-88282286D01*
X108391885Y-88369371D01*
X108420914Y-88427429D01*
X108449942Y-88456457D01*
X108508000Y-88485486D01*
X108740228Y-88485486D01*
X108159657Y-88224229D02*
X108130628Y-88195200D01*
X108072571Y-88166171D01*
X107927428Y-88166171D01*
X107869371Y-88195200D01*
X107840342Y-88224229D01*
X107811314Y-88282286D01*
X107811314Y-88340343D01*
X107840342Y-88427429D01*
X108188685Y-88775771D01*
X107811314Y-88775771D01*
X107259771Y-88166171D02*
X107550057Y-88166171D01*
X107579086Y-88456457D01*
X107550057Y-88427429D01*
X107492000Y-88398400D01*
X107346857Y-88398400D01*
X107288800Y-88427429D01*
X107259771Y-88456457D01*
X107230743Y-88514514D01*
X107230743Y-88659657D01*
X107259771Y-88717714D01*
X107288800Y-88746743D01*
X107346857Y-88775771D01*
X107492000Y-88775771D01*
X107550057Y-88746743D01*
X107579086Y-88717714D01*
%LPC*%
D19*
X110706000Y-84430400D03*
X110706000Y-83795400D03*
X110706000Y-83135000D03*
X110706000Y-82500000D03*
X110706000Y-81839600D03*
X110706000Y-81191900D03*
X110706000Y-80544200D03*
X116294000Y-80544200D03*
X116294000Y-81191900D03*
X116294000Y-81839600D03*
X116294000Y-82500000D03*
X116294000Y-83147700D03*
X116294000Y-83795400D03*
X116294000Y-84443100D03*
D20*
X122297560Y-84352300D03*
X122297560Y-85000000D03*
X122297560Y-85647700D03*
X120702440Y-85647700D03*
X120702440Y-85000000D03*
X120702440Y-84352300D03*
X122297560Y-80852300D03*
X122297560Y-81500000D03*
X122297560Y-82147700D03*
X120702440Y-82147700D03*
X120702440Y-81500000D03*
X120702440Y-80852300D03*
D21*
X125850900Y-88000000D03*
X124149100Y-88000000D03*
X114350900Y-86500000D03*
X112649100Y-86500000D03*
X125850900Y-85000000D03*
X124149100Y-85000000D03*
X125850900Y-79000000D03*
X124149100Y-79000000D03*
X114350900Y-88500000D03*
X112649100Y-88500000D03*
X115649100Y-88500000D03*
X117350900Y-88500000D03*
X118149100Y-79000000D03*
X119850900Y-79000000D03*
X107850900Y-79000000D03*
X106149100Y-79000000D03*
X103149100Y-82000000D03*
X104850900Y-82000000D03*
X104850900Y-84000000D03*
X103149100Y-84000000D03*
X104850900Y-79000000D03*
X103149100Y-79000000D03*
X112850900Y-79000000D03*
X111149100Y-79000000D03*
X115850900Y-79000000D03*
X114149100Y-79000000D03*
D22*
X99500000Y-93350900D03*
X99500000Y-91649100D03*
D21*
X103149100Y-88000000D03*
X104850900Y-88000000D03*
X111350900Y-86500000D03*
X109649100Y-86500000D03*
X103149100Y-86000000D03*
X104850900Y-86000000D03*
X107850900Y-86000000D03*
X106149100Y-86000000D03*
X109649100Y-88500000D03*
X111350900Y-88500000D03*
D23*
X101570000Y-92500000D03*
X104110000Y-92500000D03*
X106650000Y-92500000D03*
X109190000Y-92500000D03*
X111730000Y-92500000D03*
X114270000Y-92500000D03*
X116810000Y-92500000D03*
X119350000Y-92500000D03*
X121890000Y-92500000D03*
X124430000Y-92500000D03*
M02*
