%FSLAX46Y46*%
G04 Gerber Fmt 4.6, Leading zero omitted, Abs format (unit mm)*
G04 Created by KiCad (PCBNEW (2014-09-02 BZR 5112)-product) date 2014-12-10 10:34:42 AM*
%MOMM*%
G01*
G04 APERTURE LIST*
%ADD10C,0.150000*%
%ADD11R,1.300480X0.299720*%
%ADD12R,1.270000X0.381000*%
%ADD13R,1.143000X0.812800*%
%ADD14R,0.812800X1.143000*%
%ADD15R,0.701040X1.000760*%
%ADD16R,1.000000X1.250000*%
%ADD17R,1.200000X1.250000*%
%ADD18R,1.350000X3.500000*%
%ADD19C,0.889000*%
%ADD20C,0.304800*%
%ADD21C,0.254000*%
G04 APERTURE END LIST*
D10*
D11*
X108694000Y-82955400D03*
X108694000Y-82320400D03*
X108694000Y-81660000D03*
X108694000Y-81025000D03*
X103106000Y-81025000D03*
X103106000Y-81672700D03*
X103106000Y-82320400D03*
X103106000Y-82968100D03*
D12*
X119799080Y-85775840D03*
X119799080Y-85125600D03*
X119799080Y-84475360D03*
X119799080Y-83825120D03*
X119799080Y-83174880D03*
X119799080Y-82524640D03*
X119799080Y-81874400D03*
X119799080Y-81224160D03*
X114200920Y-81224160D03*
X114200920Y-81874400D03*
X114200920Y-82524640D03*
X114200920Y-83174880D03*
X114200920Y-83825120D03*
X114200920Y-84475360D03*
X114200920Y-85125600D03*
X114200920Y-85775840D03*
D13*
X104000000Y-86149100D03*
X104000000Y-87850900D03*
D14*
X113850900Y-79250000D03*
X112149100Y-79250000D03*
X109149100Y-79250000D03*
X110850900Y-79250000D03*
D13*
X100000000Y-78649100D03*
X100000000Y-80350900D03*
X100000000Y-81649100D03*
X100000000Y-83350900D03*
X126500000Y-93350900D03*
X126500000Y-91649100D03*
X122500000Y-86149100D03*
X122500000Y-87850900D03*
X100000000Y-87850900D03*
X100000000Y-86149100D03*
X102000000Y-86149100D03*
X102000000Y-87850900D03*
X109500000Y-86149100D03*
X109500000Y-87850900D03*
X122500000Y-81850900D03*
X122500000Y-80149100D03*
X111500000Y-87850900D03*
X111500000Y-86149100D03*
D15*
X106500000Y-85230000D03*
X107452500Y-87770000D03*
X105547500Y-87770000D03*
D16*
X126650000Y-88850000D03*
X124350000Y-88850000D03*
D17*
X125500000Y-85150000D03*
D16*
X124350000Y-79150000D03*
X126650000Y-79150000D03*
D17*
X125500000Y-82850000D03*
D18*
X101570000Y-92500000D03*
X104110000Y-92500000D03*
X106650000Y-92500000D03*
X109190000Y-92500000D03*
X111730000Y-92500000D03*
X114270000Y-92500000D03*
X116810000Y-92500000D03*
X119350000Y-92500000D03*
X121890000Y-92500000D03*
X124430000Y-92500000D03*
D19*
X108230000Y-86500000D03*
X118950000Y-80300000D03*
X121750000Y-77950000D03*
X102500019Y-89828821D03*
X100798179Y-89443963D03*
X117629871Y-80260839D03*
X123693190Y-83087220D03*
X115336926Y-90063074D03*
X105759831Y-89500000D03*
X107829852Y-90202066D03*
X117796572Y-83394489D03*
X112600000Y-84400000D03*
X100807434Y-85357434D03*
X105838470Y-82958986D03*
X107489472Y-82895330D03*
X100807434Y-85357434D03*
X112612600Y-82995400D03*
X124313900Y-86652500D03*
X124742200Y-81132500D03*
X103150000Y-80050000D03*
X116628800Y-85837900D03*
D20*
X109149100Y-79250000D02*
X109149100Y-80569900D01*
X109149100Y-80569900D02*
X108694000Y-81025000D01*
X99231300Y-85335900D02*
X99021700Y-85545500D01*
X101993400Y-82968100D02*
X99625600Y-85335900D01*
X99021700Y-85545500D02*
X99021700Y-88876700D01*
X101570000Y-91425000D02*
X101570000Y-92500000D01*
X99021700Y-88876700D02*
X101570000Y-91425000D01*
X99625600Y-85335900D02*
X99231300Y-85335900D01*
X102049100Y-82968100D02*
X101993400Y-82968100D01*
X103837547Y-82968100D02*
X103106000Y-82968100D01*
X108694000Y-81025000D02*
X105780647Y-81025000D01*
X105780647Y-81025000D02*
X103837547Y-82968100D01*
X108230000Y-86580900D02*
X109500000Y-87850900D01*
X108230000Y-86500000D02*
X108230000Y-86580900D01*
X109500000Y-87850900D02*
X111500000Y-87850900D01*
X112478200Y-86456800D02*
X113159200Y-85775800D01*
X112478200Y-87850900D02*
X112478200Y-86456800D01*
X111500000Y-87850900D02*
X112478200Y-87850900D01*
X114200900Y-85775800D02*
X113159200Y-85775800D01*
X103106000Y-82968100D02*
X102049100Y-82968100D01*
X100000000Y-80350900D02*
X100000000Y-81649100D01*
X100978200Y-81897200D02*
X102049100Y-82968100D01*
X100978200Y-81649100D02*
X100978200Y-81897200D01*
X100000000Y-81649100D02*
X100978200Y-81649100D01*
X119394499Y-79855501D02*
X118950000Y-80300000D01*
X120855501Y-78394499D02*
X119394499Y-79855501D01*
X121305501Y-78394499D02*
X120855501Y-78394499D01*
X121750000Y-77950000D02*
X121305501Y-78394499D01*
X105135866Y-90445200D02*
X104908911Y-90218245D01*
X104165100Y-87850900D02*
X104000000Y-87850900D01*
X106650000Y-91425000D02*
X105670200Y-90445200D01*
X105670200Y-90445200D02*
X105135866Y-90445200D01*
X104908911Y-88594711D02*
X104165100Y-87850900D01*
X106650000Y-92500000D02*
X106650000Y-91425000D01*
X104908911Y-90218245D02*
X104908911Y-88594711D01*
D21*
X126436800Y-92500000D02*
X126500000Y-92563200D01*
X124430000Y-92500000D02*
X126436800Y-92500000D01*
X126500000Y-93350900D02*
X126500000Y-92563200D01*
X121890000Y-92500000D02*
X121890000Y-90496000D01*
X121890000Y-90496000D02*
X119799080Y-88405080D01*
X119799080Y-86220340D02*
X119799080Y-85775840D01*
X119799080Y-88405080D02*
X119799080Y-86220340D01*
X102165100Y-87850900D02*
X102000000Y-87850900D01*
X102825500Y-88511300D02*
X102165100Y-87850900D01*
X104375501Y-90230499D02*
X104375501Y-89803759D01*
X104110000Y-90496000D02*
X104375501Y-90230499D01*
X103083042Y-88511300D02*
X102825500Y-88511300D01*
X104110000Y-92500000D02*
X104110000Y-90496000D01*
X104375501Y-89803759D02*
X103083042Y-88511300D01*
X100000000Y-87850900D02*
X102000000Y-87850900D01*
X100798179Y-89443963D02*
X102115161Y-89443963D01*
X102115161Y-89443963D02*
X102500019Y-89828821D01*
X119799080Y-82524640D02*
X118666421Y-82524640D01*
X118666421Y-82524640D02*
X117796572Y-83394489D01*
X119799080Y-81224160D02*
X118593192Y-81224160D01*
X118593192Y-81224160D02*
X117629871Y-80260839D01*
X118325600Y-81874400D02*
X117796572Y-82403428D01*
X117796572Y-82403428D02*
X117796572Y-83394489D01*
X119799080Y-81874400D02*
X118325600Y-81874400D01*
X119799080Y-81224160D02*
X119799080Y-80779660D01*
X119799080Y-80779660D02*
X119850000Y-80728740D01*
X119850000Y-80728740D02*
X119850000Y-80415000D01*
X110600000Y-92019000D02*
X110600000Y-90519198D01*
X111056124Y-90063074D02*
X115336926Y-90063074D01*
X110600000Y-90519198D02*
X111056124Y-90063074D01*
X110119000Y-92500000D02*
X110600000Y-92019000D01*
X106204330Y-89944499D02*
X105759831Y-89500000D01*
X106461897Y-90202066D02*
X106204330Y-89944499D01*
X107829852Y-90202066D02*
X106461897Y-90202066D01*
X109190000Y-92500000D02*
X110119000Y-92500000D01*
X110119000Y-92500000D02*
X110169000Y-92450000D01*
X120712720Y-82500000D02*
X121000000Y-82500000D01*
X119799080Y-82524640D02*
X120688080Y-82524640D01*
X120688080Y-82524640D02*
X120712720Y-82500000D01*
X120712480Y-81850000D02*
X120950000Y-81850000D01*
X119799080Y-81874400D02*
X120688080Y-81874400D01*
X120688080Y-81874400D02*
X120712480Y-81850000D01*
X119799080Y-81224160D02*
X120688080Y-81224160D01*
X120688080Y-81224160D02*
X120712240Y-81200000D01*
X119799080Y-82524640D02*
X119799080Y-81874400D01*
X112675360Y-84475360D02*
X112600000Y-84400000D01*
X114200920Y-84475360D02*
X112675360Y-84475360D01*
X105838470Y-82958986D02*
X105393971Y-83403485D01*
X105393971Y-83403485D02*
X104156517Y-83403485D01*
X104156517Y-83403485D02*
X102202568Y-85357434D01*
X102202568Y-85357434D02*
X101436051Y-85357434D01*
X101436051Y-85357434D02*
X100807434Y-85357434D01*
X108694000Y-82955400D02*
X107549542Y-82955400D01*
X107549542Y-82955400D02*
X107489472Y-82895330D01*
X109190000Y-92500000D02*
X109190000Y-91425000D01*
X100000000Y-86149100D02*
X100015768Y-86149100D01*
X100015768Y-86149100D02*
X100807434Y-85357434D01*
X105548000Y-87770000D02*
X105548000Y-87919900D01*
X107452500Y-87770000D02*
X106720700Y-87770000D01*
X105374200Y-86149100D02*
X104000000Y-86149100D01*
X106720700Y-87495600D02*
X105374200Y-86149100D01*
X106720700Y-87770000D02*
X106720700Y-87495600D01*
X104000000Y-86149100D02*
X102000000Y-86149100D01*
X113057099Y-83439899D02*
X112612600Y-82995400D01*
X113442300Y-83825100D02*
X113057099Y-83439899D01*
X114200900Y-83825100D02*
X113442300Y-83825100D01*
X123257300Y-79361400D02*
X122500000Y-79361400D01*
X123468700Y-79150000D02*
X123257300Y-79361400D01*
X124350000Y-79150000D02*
X123468700Y-79150000D01*
X122500000Y-80149100D02*
X122500000Y-79361400D01*
X126500000Y-90006300D02*
X126500000Y-91649100D01*
X126650000Y-89856300D02*
X126500000Y-90006300D01*
X126650000Y-88850000D02*
X126650000Y-89856300D01*
X120815400Y-84323200D02*
X120815400Y-84475400D01*
X122500000Y-82638600D02*
X120815400Y-84323200D01*
X119799100Y-84475400D02*
X120815400Y-84475400D01*
X122500000Y-81850900D02*
X122500000Y-82638600D01*
X126481300Y-80325000D02*
X126650000Y-80156300D01*
X126481300Y-82850000D02*
X126481300Y-80325000D01*
X126650000Y-79150000D02*
X126650000Y-80156300D01*
X125500000Y-82850000D02*
X125990700Y-82850000D01*
X125990700Y-82850000D02*
X126481300Y-82850000D01*
X125776400Y-86652500D02*
X124313900Y-86652500D01*
X126481400Y-85947500D02*
X125776400Y-86652500D01*
X126481400Y-83340700D02*
X126481400Y-85947500D01*
X125990700Y-82850000D02*
X126481400Y-83340700D01*
X122500000Y-87850900D02*
X122500000Y-87063200D01*
X123257300Y-88638600D02*
X122500000Y-88638600D01*
X123468700Y-88850000D02*
X123257300Y-88638600D01*
X124350000Y-88850000D02*
X123468700Y-88850000D01*
X122500000Y-87850900D02*
X122500000Y-88638600D01*
X125500000Y-85150000D02*
X124645800Y-85150000D01*
X124645800Y-85150000D02*
X124518700Y-85150000D01*
X124518700Y-81356000D02*
X124742200Y-81132500D01*
X124518700Y-85150000D02*
X124518700Y-81356000D01*
X123117100Y-87063200D02*
X122500000Y-87063200D01*
X123488100Y-86692200D02*
X123117100Y-87063200D01*
X123488100Y-86180600D02*
X123488100Y-86692200D01*
X124518700Y-85150000D02*
X123488100Y-86180600D01*
X103150000Y-80050000D02*
X104137500Y-79062500D01*
X104137500Y-79062500D02*
X106387500Y-79062500D01*
X115701400Y-78250000D02*
X116628800Y-79177400D01*
X106387500Y-79062500D02*
X107200000Y-78250000D01*
X107200000Y-78250000D02*
X115701400Y-78250000D01*
X116628800Y-79177400D02*
X116628800Y-85837900D01*
X104137500Y-81672700D02*
X104137500Y-80408883D01*
X104137500Y-80408883D02*
X103778617Y-80050000D01*
X103778617Y-80050000D02*
X103150000Y-80050000D01*
X103106000Y-81672700D02*
X104137500Y-81672700D01*
X107789760Y-81660000D02*
X108694000Y-81660000D01*
X107118258Y-81660000D02*
X107789760Y-81660000D01*
X106663971Y-82114287D02*
X107118258Y-81660000D01*
X107134245Y-83825501D02*
X106663971Y-83355227D01*
X109163199Y-83825501D02*
X107134245Y-83825501D01*
X111764500Y-81224200D02*
X109163199Y-83825501D01*
X114200900Y-81224200D02*
X111764500Y-81224200D01*
X106663971Y-83355227D02*
X106663971Y-82114287D01*
X113850900Y-79250000D02*
X114511300Y-79250000D01*
X114511300Y-79250000D02*
X115216921Y-79955621D01*
X115216921Y-79955621D02*
X115216921Y-81747399D01*
X115216921Y-81747399D02*
X115089920Y-81874400D01*
X115089920Y-81874400D02*
X114200920Y-81874400D01*
X109500000Y-86149100D02*
X109500000Y-85361400D01*
X106500000Y-85230000D02*
X109368600Y-85230000D01*
X109368600Y-85230000D02*
X109500000Y-85361400D01*
X112461800Y-81874400D02*
X114200900Y-81874400D01*
X109368600Y-84967600D02*
X112461800Y-81874400D01*
X109368600Y-85230000D02*
X109368600Y-84967600D01*
X100952800Y-79903300D02*
X102074500Y-81025000D01*
X100952800Y-78649100D02*
X100952800Y-79903300D01*
X100000000Y-78649100D02*
X100952800Y-78649100D01*
X103106000Y-81025000D02*
X102074500Y-81025000D01*
X110850900Y-79250000D02*
X110850900Y-81067740D01*
X110850900Y-81067740D02*
X109598240Y-82320400D01*
X109598240Y-82320400D02*
X108694000Y-82320400D01*
X110850900Y-79250000D02*
X112149100Y-79250000D01*
X112581551Y-85232649D02*
X112959002Y-85232649D01*
X113066051Y-85125600D02*
X114200900Y-85125600D01*
X111665100Y-86149100D02*
X112581551Y-85232649D01*
X112959002Y-85232649D02*
X113066051Y-85125600D01*
X111500000Y-86149100D02*
X111665100Y-86149100D01*
X119799080Y-83174880D02*
X119799080Y-83825120D01*
X119350000Y-92500000D02*
X119350000Y-90368700D01*
X118782700Y-84069000D02*
X119026600Y-83825100D01*
X118782700Y-89801400D02*
X118782700Y-84069000D01*
X119350000Y-90368700D02*
X118782700Y-89801400D01*
X119026600Y-83825100D02*
X119799100Y-83825100D01*
X115217200Y-88775900D02*
X115217200Y-83174900D01*
X116810000Y-90368700D02*
X115217200Y-88775900D01*
X116810000Y-92500000D02*
X116810000Y-90368700D01*
X114200900Y-83174900D02*
X115217200Y-83174900D01*
G36*
X100147000Y-86276100D02*
X100127000Y-86276100D01*
X100127000Y-86296100D01*
X99873000Y-86296100D01*
X99873000Y-86276100D01*
X99853000Y-86276100D01*
X99853000Y-86022100D01*
X99873000Y-86022100D01*
X99873000Y-86002100D01*
X100127000Y-86002100D01*
X100127000Y-86022100D01*
X100147000Y-86022100D01*
X100147000Y-86276100D01*
X100147000Y-86276100D01*
G37*
X100147000Y-86276100D02*
X100127000Y-86276100D01*
X100127000Y-86296100D01*
X99873000Y-86296100D01*
X99873000Y-86276100D01*
X99853000Y-86276100D01*
X99853000Y-86022100D01*
X99873000Y-86022100D01*
X99873000Y-86002100D01*
X100127000Y-86002100D01*
X100127000Y-86022100D01*
X100147000Y-86022100D01*
X100147000Y-86276100D01*
G36*
X103867501Y-90020079D02*
X103750790Y-90136790D01*
X103640669Y-90301597D01*
X103627261Y-90369000D01*
X103359214Y-90369000D01*
X103219180Y-90427004D01*
X103112004Y-90534181D01*
X103054000Y-90674215D01*
X103054000Y-90825786D01*
X103054000Y-94119800D01*
X102626000Y-94119800D01*
X102626000Y-90674214D01*
X102567996Y-90534180D01*
X102460819Y-90427004D01*
X102320785Y-90369000D01*
X102169214Y-90369000D01*
X101268341Y-90369000D01*
X99555100Y-88655758D01*
X99555100Y-88638300D01*
X100647286Y-88638300D01*
X100787320Y-88580296D01*
X100894496Y-88473119D01*
X100941807Y-88358900D01*
X101058192Y-88358900D01*
X101105504Y-88473120D01*
X101212681Y-88580296D01*
X101352715Y-88638300D01*
X101504286Y-88638300D01*
X102234079Y-88638300D01*
X102466290Y-88870511D01*
X102631097Y-88980631D01*
X102825500Y-89019300D01*
X102872622Y-89019300D01*
X103867501Y-90014179D01*
X103867501Y-90020079D01*
X103867501Y-90020079D01*
G37*
X103867501Y-90020079D02*
X103750790Y-90136790D01*
X103640669Y-90301597D01*
X103627261Y-90369000D01*
X103359214Y-90369000D01*
X103219180Y-90427004D01*
X103112004Y-90534181D01*
X103054000Y-90674215D01*
X103054000Y-90825786D01*
X103054000Y-94119800D01*
X102626000Y-94119800D01*
X102626000Y-90674214D01*
X102567996Y-90534180D01*
X102460819Y-90427004D01*
X102320785Y-90369000D01*
X102169214Y-90369000D01*
X101268341Y-90369000D01*
X99555100Y-88655758D01*
X99555100Y-88638300D01*
X100647286Y-88638300D01*
X100787320Y-88580296D01*
X100894496Y-88473119D01*
X100941807Y-88358900D01*
X101058192Y-88358900D01*
X101105504Y-88473120D01*
X101212681Y-88580296D01*
X101352715Y-88638300D01*
X101504286Y-88638300D01*
X102234079Y-88638300D01*
X102466290Y-88870511D01*
X102631097Y-88980631D01*
X102825500Y-89019300D01*
X102872622Y-89019300D01*
X103867501Y-90014179D01*
X103867501Y-90020079D01*
G36*
X108841000Y-83030330D02*
X108821000Y-83030330D01*
X108821000Y-83102400D01*
X108567000Y-83102400D01*
X108567000Y-83030330D01*
X107567510Y-83030330D01*
X107408760Y-83189080D01*
X107408760Y-83231569D01*
X107444354Y-83317501D01*
X107344664Y-83317501D01*
X107171971Y-83144807D01*
X107171971Y-82324707D01*
X107328678Y-82168000D01*
X107662760Y-82168000D01*
X107662760Y-82246326D01*
X107662760Y-82288514D01*
X107505433Y-82445842D01*
X107408760Y-82679231D01*
X107408760Y-82721720D01*
X107567510Y-82880470D01*
X108567000Y-82880470D01*
X108567000Y-82851260D01*
X108821000Y-82851260D01*
X108821000Y-82880470D01*
X108841000Y-82880470D01*
X108841000Y-83030330D01*
X108841000Y-83030330D01*
G37*
X108841000Y-83030330D02*
X108821000Y-83030330D01*
X108821000Y-83102400D01*
X108567000Y-83102400D01*
X108567000Y-83030330D01*
X107567510Y-83030330D01*
X107408760Y-83189080D01*
X107408760Y-83231569D01*
X107444354Y-83317501D01*
X107344664Y-83317501D01*
X107171971Y-83144807D01*
X107171971Y-82324707D01*
X107328678Y-82168000D01*
X107662760Y-82168000D01*
X107662760Y-82246326D01*
X107662760Y-82288514D01*
X107505433Y-82445842D01*
X107408760Y-82679231D01*
X107408760Y-82721720D01*
X107567510Y-82880470D01*
X108567000Y-82880470D01*
X108567000Y-82851260D01*
X108821000Y-82851260D01*
X108821000Y-82880470D01*
X108841000Y-82880470D01*
X108841000Y-83030330D01*
G36*
X109314343Y-84303436D02*
X109009390Y-84608390D01*
X108933477Y-84722000D01*
X107231520Y-84722000D01*
X107231520Y-84653834D01*
X107173516Y-84513800D01*
X107066339Y-84406624D01*
X106926305Y-84348620D01*
X106774734Y-84348620D01*
X106073694Y-84348620D01*
X105933660Y-84406624D01*
X105826484Y-84513801D01*
X105768480Y-84653835D01*
X105768480Y-84805406D01*
X105768480Y-85806166D01*
X105781769Y-85838249D01*
X105733410Y-85789890D01*
X105568603Y-85679769D01*
X105374200Y-85641100D01*
X104941807Y-85641100D01*
X104894496Y-85526880D01*
X104787319Y-85419704D01*
X104647285Y-85361700D01*
X104495714Y-85361700D01*
X103352714Y-85361700D01*
X103212680Y-85419704D01*
X103105504Y-85526881D01*
X103058192Y-85641100D01*
X102941807Y-85641100D01*
X102894496Y-85526880D01*
X102787319Y-85419704D01*
X102647285Y-85361700D01*
X102495714Y-85361700D01*
X101352714Y-85361700D01*
X101212680Y-85419704D01*
X101150701Y-85481682D01*
X101109827Y-85383002D01*
X100931199Y-85204373D01*
X100697810Y-85107700D01*
X100608142Y-85107700D01*
X102214342Y-83501500D01*
X103106000Y-83501500D01*
X103837547Y-83501500D01*
X104041670Y-83460897D01*
X104214718Y-83345271D01*
X106001588Y-81558400D01*
X106501438Y-81558400D01*
X106304761Y-81755077D01*
X106194640Y-81919884D01*
X106155971Y-82114287D01*
X106155971Y-83355227D01*
X106194640Y-83549630D01*
X106304761Y-83714437D01*
X106775035Y-84184711D01*
X106939842Y-84294832D01*
X107134245Y-84333501D01*
X109163199Y-84333501D01*
X109314343Y-84303436D01*
X109314343Y-84303436D01*
G37*
X109314343Y-84303436D02*
X109009390Y-84608390D01*
X108933477Y-84722000D01*
X107231520Y-84722000D01*
X107231520Y-84653834D01*
X107173516Y-84513800D01*
X107066339Y-84406624D01*
X106926305Y-84348620D01*
X106774734Y-84348620D01*
X106073694Y-84348620D01*
X105933660Y-84406624D01*
X105826484Y-84513801D01*
X105768480Y-84653835D01*
X105768480Y-84805406D01*
X105768480Y-85806166D01*
X105781769Y-85838249D01*
X105733410Y-85789890D01*
X105568603Y-85679769D01*
X105374200Y-85641100D01*
X104941807Y-85641100D01*
X104894496Y-85526880D01*
X104787319Y-85419704D01*
X104647285Y-85361700D01*
X104495714Y-85361700D01*
X103352714Y-85361700D01*
X103212680Y-85419704D01*
X103105504Y-85526881D01*
X103058192Y-85641100D01*
X102941807Y-85641100D01*
X102894496Y-85526880D01*
X102787319Y-85419704D01*
X102647285Y-85361700D01*
X102495714Y-85361700D01*
X101352714Y-85361700D01*
X101212680Y-85419704D01*
X101150701Y-85481682D01*
X101109827Y-85383002D01*
X100931199Y-85204373D01*
X100697810Y-85107700D01*
X100608142Y-85107700D01*
X102214342Y-83501500D01*
X103106000Y-83501500D01*
X103837547Y-83501500D01*
X104041670Y-83460897D01*
X104214718Y-83345271D01*
X106001588Y-81558400D01*
X106501438Y-81558400D01*
X106304761Y-81755077D01*
X106194640Y-81919884D01*
X106155971Y-82114287D01*
X106155971Y-83355227D01*
X106194640Y-83549630D01*
X106304761Y-83714437D01*
X106775035Y-84184711D01*
X106939842Y-84294832D01*
X107134245Y-84333501D01*
X109163199Y-84333501D01*
X109314343Y-84303436D01*
G36*
X114347920Y-84554100D02*
X113490134Y-84554100D01*
X113450275Y-84570610D01*
X113089670Y-84570610D01*
X113036876Y-84623403D01*
X112871647Y-84656269D01*
X112769310Y-84724649D01*
X112581551Y-84724649D01*
X112419400Y-84756902D01*
X112387147Y-84763318D01*
X112222340Y-84873439D01*
X111734079Y-85361700D01*
X110852714Y-85361700D01*
X110712680Y-85419704D01*
X110605504Y-85526881D01*
X110547500Y-85666915D01*
X110547500Y-85818486D01*
X110547500Y-86631286D01*
X110605504Y-86771320D01*
X110712681Y-86878496D01*
X110852715Y-86936500D01*
X111004286Y-86936500D01*
X111944800Y-86936500D01*
X111944800Y-87063500D01*
X110852714Y-87063500D01*
X110712680Y-87121504D01*
X110605504Y-87228681D01*
X110568713Y-87317500D01*
X110431286Y-87317500D01*
X110394496Y-87228680D01*
X110287319Y-87121504D01*
X110147285Y-87063500D01*
X109995714Y-87063500D01*
X109466942Y-87063500D01*
X109339942Y-86936500D01*
X110147286Y-86936500D01*
X110287320Y-86878496D01*
X110394496Y-86771319D01*
X110452500Y-86631285D01*
X110452500Y-86479714D01*
X110452500Y-85666914D01*
X110394496Y-85526880D01*
X110287319Y-85419704D01*
X110147285Y-85361700D01*
X110008000Y-85361700D01*
X110008000Y-85361400D01*
X109969331Y-85166997D01*
X109936603Y-85118016D01*
X111818762Y-83235857D01*
X111912367Y-83462398D01*
X112144381Y-83694817D01*
X112447677Y-83820757D01*
X112719773Y-83820993D01*
X112967944Y-84069165D01*
X112930920Y-84158551D01*
X112930920Y-84221360D01*
X113089670Y-84380110D01*
X113450276Y-84380110D01*
X113490135Y-84396620D01*
X113641706Y-84396620D01*
X114347920Y-84396620D01*
X114347920Y-84554100D01*
X114347920Y-84554100D01*
G37*
X114347920Y-84554100D02*
X113490134Y-84554100D01*
X113450275Y-84570610D01*
X113089670Y-84570610D01*
X113036876Y-84623403D01*
X112871647Y-84656269D01*
X112769310Y-84724649D01*
X112581551Y-84724649D01*
X112419400Y-84756902D01*
X112387147Y-84763318D01*
X112222340Y-84873439D01*
X111734079Y-85361700D01*
X110852714Y-85361700D01*
X110712680Y-85419704D01*
X110605504Y-85526881D01*
X110547500Y-85666915D01*
X110547500Y-85818486D01*
X110547500Y-86631286D01*
X110605504Y-86771320D01*
X110712681Y-86878496D01*
X110852715Y-86936500D01*
X111004286Y-86936500D01*
X111944800Y-86936500D01*
X111944800Y-87063500D01*
X110852714Y-87063500D01*
X110712680Y-87121504D01*
X110605504Y-87228681D01*
X110568713Y-87317500D01*
X110431286Y-87317500D01*
X110394496Y-87228680D01*
X110287319Y-87121504D01*
X110147285Y-87063500D01*
X109995714Y-87063500D01*
X109466942Y-87063500D01*
X109339942Y-86936500D01*
X110147286Y-86936500D01*
X110287320Y-86878496D01*
X110394496Y-86771319D01*
X110452500Y-86631285D01*
X110452500Y-86479714D01*
X110452500Y-85666914D01*
X110394496Y-85526880D01*
X110287319Y-85419704D01*
X110147285Y-85361700D01*
X110008000Y-85361700D01*
X110008000Y-85361400D01*
X109969331Y-85166997D01*
X109936603Y-85118016D01*
X111818762Y-83235857D01*
X111912367Y-83462398D01*
X112144381Y-83694817D01*
X112447677Y-83820757D01*
X112719773Y-83820993D01*
X112967944Y-84069165D01*
X112930920Y-84158551D01*
X112930920Y-84221360D01*
X113089670Y-84380110D01*
X113450276Y-84380110D01*
X113490135Y-84396620D01*
X113641706Y-84396620D01*
X114347920Y-84396620D01*
X114347920Y-84554100D01*
G36*
X116091879Y-90369000D02*
X116059214Y-90369000D01*
X115919180Y-90427004D01*
X115812004Y-90534181D01*
X115754000Y-90674215D01*
X115754000Y-90825786D01*
X115754000Y-94119800D01*
X115326000Y-94119800D01*
X115326000Y-90674214D01*
X115267996Y-90534180D01*
X115160819Y-90427004D01*
X115020785Y-90369000D01*
X114869214Y-90369000D01*
X113519214Y-90369000D01*
X113379180Y-90427004D01*
X113272004Y-90534181D01*
X113214000Y-90674215D01*
X113214000Y-90825786D01*
X113214000Y-94119800D01*
X112786000Y-94119800D01*
X112786000Y-90674214D01*
X112727996Y-90534180D01*
X112620819Y-90427004D01*
X112480785Y-90369000D01*
X112329214Y-90369000D01*
X110979214Y-90369000D01*
X110839180Y-90427004D01*
X110732004Y-90534181D01*
X110674000Y-90674215D01*
X110674000Y-90825786D01*
X110674000Y-94119800D01*
X110500000Y-94119800D01*
X110500000Y-92785750D01*
X110500000Y-92214250D01*
X110500000Y-90876309D01*
X110500000Y-90623690D01*
X110403327Y-90390301D01*
X110224698Y-90211673D01*
X109991309Y-90115000D01*
X109475750Y-90115000D01*
X109317000Y-90273750D01*
X109317000Y-92373000D01*
X110341250Y-92373000D01*
X110500000Y-92214250D01*
X110500000Y-92785750D01*
X110341250Y-92627000D01*
X109317000Y-92627000D01*
X109317000Y-92647000D01*
X109063000Y-92647000D01*
X109063000Y-92627000D01*
X109063000Y-92373000D01*
X109063000Y-90273750D01*
X108904250Y-90115000D01*
X108388691Y-90115000D01*
X108155302Y-90211673D01*
X107976673Y-90390301D01*
X107880000Y-90623690D01*
X107880000Y-90876309D01*
X107880000Y-92214250D01*
X108038750Y-92373000D01*
X109063000Y-92373000D01*
X109063000Y-92627000D01*
X108038750Y-92627000D01*
X107880000Y-92785750D01*
X107880000Y-94119800D01*
X107706000Y-94119800D01*
X107706000Y-90674214D01*
X107647996Y-90534180D01*
X107540819Y-90427004D01*
X107400785Y-90369000D01*
X107249214Y-90369000D01*
X106348341Y-90369000D01*
X106047371Y-90068029D01*
X105874323Y-89952403D01*
X105670200Y-89911800D01*
X105442311Y-89911800D01*
X105442311Y-88594716D01*
X105442311Y-88594711D01*
X105442312Y-88594711D01*
X105420500Y-88485060D01*
X105420500Y-88485058D01*
X105420500Y-87897000D01*
X105400500Y-87897000D01*
X105400500Y-87643000D01*
X105420500Y-87643000D01*
X105420500Y-87623000D01*
X105674500Y-87623000D01*
X105674500Y-87643000D01*
X105694500Y-87643000D01*
X105694500Y-87897000D01*
X105674500Y-87897000D01*
X105674500Y-88746630D01*
X105833250Y-88905380D01*
X106024329Y-88905380D01*
X106257718Y-88808707D01*
X106436347Y-88630079D01*
X106533020Y-88396690D01*
X106533020Y-88240668D01*
X106720700Y-88278000D01*
X106720980Y-88278000D01*
X106720980Y-88346166D01*
X106778984Y-88486200D01*
X106886161Y-88593376D01*
X107026195Y-88651380D01*
X107177766Y-88651380D01*
X107878806Y-88651380D01*
X108018840Y-88593376D01*
X108126016Y-88486199D01*
X108184020Y-88346165D01*
X108184020Y-88194594D01*
X108184020Y-87325460D01*
X108220250Y-87325492D01*
X108547500Y-87652742D01*
X108547500Y-88333086D01*
X108605504Y-88473120D01*
X108712681Y-88580296D01*
X108852715Y-88638300D01*
X109004286Y-88638300D01*
X110147286Y-88638300D01*
X110287320Y-88580296D01*
X110394496Y-88473119D01*
X110431286Y-88384300D01*
X110568713Y-88384300D01*
X110605504Y-88473120D01*
X110712681Y-88580296D01*
X110852715Y-88638300D01*
X111004286Y-88638300D01*
X112147286Y-88638300D01*
X112287320Y-88580296D01*
X112394496Y-88473119D01*
X112431286Y-88384300D01*
X112478200Y-88384300D01*
X112682323Y-88343697D01*
X112855371Y-88228071D01*
X112970997Y-88055023D01*
X113011600Y-87850900D01*
X113011600Y-86677741D01*
X113380141Y-86309200D01*
X113398056Y-86309200D01*
X113490135Y-86347340D01*
X113641706Y-86347340D01*
X114709200Y-86347340D01*
X114709200Y-88775900D01*
X114747869Y-88970303D01*
X114857990Y-89135110D01*
X116091879Y-90369000D01*
X116091879Y-90369000D01*
G37*
X116091879Y-90369000D02*
X116059214Y-90369000D01*
X115919180Y-90427004D01*
X115812004Y-90534181D01*
X115754000Y-90674215D01*
X115754000Y-90825786D01*
X115754000Y-94119800D01*
X115326000Y-94119800D01*
X115326000Y-90674214D01*
X115267996Y-90534180D01*
X115160819Y-90427004D01*
X115020785Y-90369000D01*
X114869214Y-90369000D01*
X113519214Y-90369000D01*
X113379180Y-90427004D01*
X113272004Y-90534181D01*
X113214000Y-90674215D01*
X113214000Y-90825786D01*
X113214000Y-94119800D01*
X112786000Y-94119800D01*
X112786000Y-90674214D01*
X112727996Y-90534180D01*
X112620819Y-90427004D01*
X112480785Y-90369000D01*
X112329214Y-90369000D01*
X110979214Y-90369000D01*
X110839180Y-90427004D01*
X110732004Y-90534181D01*
X110674000Y-90674215D01*
X110674000Y-90825786D01*
X110674000Y-94119800D01*
X110500000Y-94119800D01*
X110500000Y-92785750D01*
X110500000Y-92214250D01*
X110500000Y-90876309D01*
X110500000Y-90623690D01*
X110403327Y-90390301D01*
X110224698Y-90211673D01*
X109991309Y-90115000D01*
X109475750Y-90115000D01*
X109317000Y-90273750D01*
X109317000Y-92373000D01*
X110341250Y-92373000D01*
X110500000Y-92214250D01*
X110500000Y-92785750D01*
X110341250Y-92627000D01*
X109317000Y-92627000D01*
X109317000Y-92647000D01*
X109063000Y-92647000D01*
X109063000Y-92627000D01*
X109063000Y-92373000D01*
X109063000Y-90273750D01*
X108904250Y-90115000D01*
X108388691Y-90115000D01*
X108155302Y-90211673D01*
X107976673Y-90390301D01*
X107880000Y-90623690D01*
X107880000Y-90876309D01*
X107880000Y-92214250D01*
X108038750Y-92373000D01*
X109063000Y-92373000D01*
X109063000Y-92627000D01*
X108038750Y-92627000D01*
X107880000Y-92785750D01*
X107880000Y-94119800D01*
X107706000Y-94119800D01*
X107706000Y-90674214D01*
X107647996Y-90534180D01*
X107540819Y-90427004D01*
X107400785Y-90369000D01*
X107249214Y-90369000D01*
X106348341Y-90369000D01*
X106047371Y-90068029D01*
X105874323Y-89952403D01*
X105670200Y-89911800D01*
X105442311Y-89911800D01*
X105442311Y-88594716D01*
X105442311Y-88594711D01*
X105442312Y-88594711D01*
X105420500Y-88485060D01*
X105420500Y-88485058D01*
X105420500Y-87897000D01*
X105400500Y-87897000D01*
X105400500Y-87643000D01*
X105420500Y-87643000D01*
X105420500Y-87623000D01*
X105674500Y-87623000D01*
X105674500Y-87643000D01*
X105694500Y-87643000D01*
X105694500Y-87897000D01*
X105674500Y-87897000D01*
X105674500Y-88746630D01*
X105833250Y-88905380D01*
X106024329Y-88905380D01*
X106257718Y-88808707D01*
X106436347Y-88630079D01*
X106533020Y-88396690D01*
X106533020Y-88240668D01*
X106720700Y-88278000D01*
X106720980Y-88278000D01*
X106720980Y-88346166D01*
X106778984Y-88486200D01*
X106886161Y-88593376D01*
X107026195Y-88651380D01*
X107177766Y-88651380D01*
X107878806Y-88651380D01*
X108018840Y-88593376D01*
X108126016Y-88486199D01*
X108184020Y-88346165D01*
X108184020Y-88194594D01*
X108184020Y-87325460D01*
X108220250Y-87325492D01*
X108547500Y-87652742D01*
X108547500Y-88333086D01*
X108605504Y-88473120D01*
X108712681Y-88580296D01*
X108852715Y-88638300D01*
X109004286Y-88638300D01*
X110147286Y-88638300D01*
X110287320Y-88580296D01*
X110394496Y-88473119D01*
X110431286Y-88384300D01*
X110568713Y-88384300D01*
X110605504Y-88473120D01*
X110712681Y-88580296D01*
X110852715Y-88638300D01*
X111004286Y-88638300D01*
X112147286Y-88638300D01*
X112287320Y-88580296D01*
X112394496Y-88473119D01*
X112431286Y-88384300D01*
X112478200Y-88384300D01*
X112682323Y-88343697D01*
X112855371Y-88228071D01*
X112970997Y-88055023D01*
X113011600Y-87850900D01*
X113011600Y-86677741D01*
X113380141Y-86309200D01*
X113398056Y-86309200D01*
X113490135Y-86347340D01*
X113641706Y-86347340D01*
X114709200Y-86347340D01*
X114709200Y-88775900D01*
X114747869Y-88970303D01*
X114857990Y-89135110D01*
X116091879Y-90369000D01*
G36*
X127619800Y-94119800D02*
X127191948Y-94119800D01*
X127287320Y-94080296D01*
X127394496Y-93973119D01*
X127452500Y-93833085D01*
X127452500Y-93681514D01*
X127452500Y-92868714D01*
X127394496Y-92728680D01*
X127287319Y-92621504D01*
X127147285Y-92563500D01*
X127008000Y-92563500D01*
X127008000Y-92563200D01*
X126982797Y-92436500D01*
X127147286Y-92436500D01*
X127287320Y-92378496D01*
X127394496Y-92271319D01*
X127452500Y-92131285D01*
X127452500Y-91979714D01*
X127452500Y-91166914D01*
X127394496Y-91026880D01*
X127287319Y-90919704D01*
X127147285Y-90861700D01*
X127008000Y-90861700D01*
X127008000Y-90216720D01*
X127009210Y-90215510D01*
X127119331Y-90050703D01*
X127158000Y-89856300D01*
X127158000Y-89856000D01*
X127225786Y-89856000D01*
X127365820Y-89797996D01*
X127472996Y-89690819D01*
X127531000Y-89550785D01*
X127531000Y-89399214D01*
X127531000Y-88149214D01*
X127531000Y-79850785D01*
X127531000Y-79699214D01*
X127531000Y-78449214D01*
X127472996Y-78309180D01*
X127365819Y-78202004D01*
X127225785Y-78144000D01*
X127074214Y-78144000D01*
X126074214Y-78144000D01*
X125934180Y-78202004D01*
X125827004Y-78309181D01*
X125769000Y-78449215D01*
X125769000Y-78600786D01*
X125769000Y-79850786D01*
X125827004Y-79990820D01*
X125934181Y-80097996D01*
X126012167Y-80130299D01*
X126011969Y-80130597D01*
X125973300Y-80325000D01*
X125973300Y-81844000D01*
X125181929Y-81844000D01*
X125209198Y-81832733D01*
X125441617Y-81600719D01*
X125567557Y-81297423D01*
X125567843Y-80969018D01*
X125442433Y-80665502D01*
X125231000Y-80453699D01*
X125231000Y-79850785D01*
X125231000Y-79699214D01*
X125231000Y-78449214D01*
X125172996Y-78309180D01*
X125065819Y-78202004D01*
X124925785Y-78144000D01*
X124774214Y-78144000D01*
X123774214Y-78144000D01*
X123634180Y-78202004D01*
X123527004Y-78309181D01*
X123469000Y-78449215D01*
X123469000Y-78600786D01*
X123469000Y-78642000D01*
X123468700Y-78642000D01*
X123274297Y-78680669D01*
X123109490Y-78790790D01*
X123046880Y-78853400D01*
X122500000Y-78853400D01*
X122305597Y-78892069D01*
X122140790Y-79002190D01*
X122030669Y-79166997D01*
X121992000Y-79361400D01*
X121992000Y-79361700D01*
X121852714Y-79361700D01*
X121712680Y-79419704D01*
X121605504Y-79526881D01*
X121547500Y-79666915D01*
X121547500Y-79818486D01*
X121547500Y-80631286D01*
X121605504Y-80771320D01*
X121712681Y-80878496D01*
X121852715Y-80936500D01*
X122004286Y-80936500D01*
X123147286Y-80936500D01*
X123287320Y-80878496D01*
X123394496Y-80771319D01*
X123452500Y-80631285D01*
X123452500Y-80479714D01*
X123452500Y-79830198D01*
X123469000Y-79819173D01*
X123469000Y-79850786D01*
X123527004Y-79990820D01*
X123634181Y-80097996D01*
X123774215Y-80156000D01*
X123925786Y-80156000D01*
X124925786Y-80156000D01*
X125065820Y-80097996D01*
X125172996Y-79990819D01*
X125231000Y-79850785D01*
X125231000Y-80453699D01*
X125210419Y-80433083D01*
X124907123Y-80307143D01*
X124578718Y-80306857D01*
X124275202Y-80432267D01*
X124042783Y-80664281D01*
X123916843Y-80967577D01*
X123916557Y-81295982D01*
X124010700Y-81523825D01*
X124010700Y-84939579D01*
X123588552Y-85361727D01*
X123431199Y-85204373D01*
X123197810Y-85107700D01*
X122945191Y-85107700D01*
X122785750Y-85107700D01*
X122627000Y-85266450D01*
X122627000Y-86022100D01*
X122647000Y-86022100D01*
X122647000Y-86276100D01*
X122627000Y-86276100D01*
X122627000Y-86296100D01*
X122373000Y-86296100D01*
X122373000Y-86276100D01*
X122373000Y-86022100D01*
X122373000Y-85266450D01*
X122214250Y-85107700D01*
X122054809Y-85107700D01*
X121802190Y-85107700D01*
X121568801Y-85204373D01*
X121390173Y-85383002D01*
X121293500Y-85616391D01*
X121293500Y-85863350D01*
X121452250Y-86022100D01*
X122373000Y-86022100D01*
X122373000Y-86276100D01*
X121452250Y-86276100D01*
X121293500Y-86434850D01*
X121293500Y-86681809D01*
X121390173Y-86915198D01*
X121568801Y-87093827D01*
X121690109Y-87144074D01*
X121605504Y-87228681D01*
X121547500Y-87368715D01*
X121547500Y-87520286D01*
X121547500Y-88333086D01*
X121605504Y-88473120D01*
X121712681Y-88580296D01*
X121852715Y-88638300D01*
X121992000Y-88638300D01*
X121992000Y-88638600D01*
X122030669Y-88833003D01*
X122140790Y-88997810D01*
X122305597Y-89107931D01*
X122500000Y-89146600D01*
X123046880Y-89146600D01*
X123109490Y-89209210D01*
X123274297Y-89319331D01*
X123468700Y-89358000D01*
X123469000Y-89358000D01*
X123469000Y-89550786D01*
X123527004Y-89690820D01*
X123634181Y-89797996D01*
X123774215Y-89856000D01*
X123925786Y-89856000D01*
X124925786Y-89856000D01*
X125065820Y-89797996D01*
X125172996Y-89690819D01*
X125231000Y-89550785D01*
X125231000Y-89399214D01*
X125231000Y-88149214D01*
X125172996Y-88009180D01*
X125065819Y-87902004D01*
X124925785Y-87844000D01*
X124774214Y-87844000D01*
X123774214Y-87844000D01*
X123634180Y-87902004D01*
X123527004Y-88009181D01*
X123469000Y-88149215D01*
X123469000Y-88180826D01*
X123452500Y-88169801D01*
X123452500Y-87438319D01*
X123476310Y-87422410D01*
X123696372Y-87202347D01*
X123845681Y-87351917D01*
X124148977Y-87477857D01*
X124477382Y-87478143D01*
X124780898Y-87352733D01*
X124973466Y-87160500D01*
X125776400Y-87160500D01*
X125970803Y-87121831D01*
X126135610Y-87011710D01*
X126840610Y-86306710D01*
X126840611Y-86306710D01*
X126950731Y-86141903D01*
X126989400Y-85947500D01*
X126989400Y-83340700D01*
X126950731Y-83146297D01*
X126916639Y-83095275D01*
X126916639Y-83095274D01*
X126950631Y-83044403D01*
X126989300Y-82850000D01*
X126989300Y-80535420D01*
X127009210Y-80515510D01*
X127119331Y-80350703D01*
X127158000Y-80156300D01*
X127158000Y-80156000D01*
X127225786Y-80156000D01*
X127365820Y-80097996D01*
X127472996Y-79990819D01*
X127531000Y-79850785D01*
X127531000Y-88149214D01*
X127472996Y-88009180D01*
X127365819Y-87902004D01*
X127225785Y-87844000D01*
X127074214Y-87844000D01*
X126074214Y-87844000D01*
X125934180Y-87902004D01*
X125827004Y-88009181D01*
X125769000Y-88149215D01*
X125769000Y-88300786D01*
X125769000Y-89550786D01*
X125827004Y-89690820D01*
X125934181Y-89797996D01*
X126025878Y-89835978D01*
X125992000Y-90006300D01*
X125992000Y-90861700D01*
X125852714Y-90861700D01*
X125712680Y-90919704D01*
X125605504Y-91026881D01*
X125547500Y-91166915D01*
X125547500Y-91318486D01*
X125547500Y-91992000D01*
X125486000Y-91992000D01*
X125486000Y-90674214D01*
X125427996Y-90534180D01*
X125320819Y-90427004D01*
X125180785Y-90369000D01*
X125029214Y-90369000D01*
X123679214Y-90369000D01*
X123539180Y-90427004D01*
X123432004Y-90534181D01*
X123374000Y-90674215D01*
X123374000Y-90825786D01*
X123374000Y-94119800D01*
X122946000Y-94119800D01*
X122946000Y-90674214D01*
X122887996Y-90534180D01*
X122780819Y-90427004D01*
X122640785Y-90369000D01*
X122489214Y-90369000D01*
X122372738Y-90369000D01*
X122365746Y-90333849D01*
X122359331Y-90301597D01*
X122359331Y-90301596D01*
X122249210Y-90136790D01*
X122249210Y-90136789D01*
X120307080Y-88194659D01*
X120307080Y-86347340D01*
X120509866Y-86347340D01*
X120649900Y-86289336D01*
X120757076Y-86182159D01*
X120815080Y-86042125D01*
X120815080Y-85890554D01*
X120815080Y-85833125D01*
X120972407Y-85675798D01*
X121069080Y-85442409D01*
X121069080Y-85379600D01*
X120910330Y-85220850D01*
X120549723Y-85220850D01*
X120509865Y-85204340D01*
X120358294Y-85204340D01*
X119652080Y-85204340D01*
X119652080Y-85046860D01*
X120509866Y-85046860D01*
X120549724Y-85030350D01*
X120910330Y-85030350D01*
X120992509Y-84948170D01*
X121009803Y-84944731D01*
X121174610Y-84834610D01*
X121284731Y-84669803D01*
X121308943Y-84548076D01*
X122859210Y-82997810D01*
X122969331Y-82833004D01*
X122969331Y-82833003D01*
X123008000Y-82638600D01*
X123008000Y-82638300D01*
X123147286Y-82638300D01*
X123287320Y-82580296D01*
X123394496Y-82473119D01*
X123452500Y-82333085D01*
X123452500Y-82181514D01*
X123452500Y-81368714D01*
X123394496Y-81228680D01*
X123287319Y-81121504D01*
X123147285Y-81063500D01*
X122995714Y-81063500D01*
X121852714Y-81063500D01*
X121712680Y-81121504D01*
X121605504Y-81228681D01*
X121547500Y-81368715D01*
X121547500Y-81520286D01*
X121547500Y-82333086D01*
X121605504Y-82473120D01*
X121712681Y-82580296D01*
X121802627Y-82617552D01*
X120815080Y-83605100D01*
X120815080Y-83558834D01*
X120790709Y-83499999D01*
X120815080Y-83441165D01*
X120815080Y-83289594D01*
X120815080Y-83232165D01*
X120972407Y-83074838D01*
X121069080Y-82841449D01*
X121069080Y-82778640D01*
X120910330Y-82619890D01*
X120753551Y-82619890D01*
X120793779Y-82603227D01*
X120972407Y-82424598D01*
X121012913Y-82326806D01*
X121069080Y-82270640D01*
X121069080Y-82207831D01*
X121065637Y-82199520D01*
X121069080Y-82191209D01*
X121069080Y-82128400D01*
X121012913Y-82072233D01*
X120972407Y-81974442D01*
X120872365Y-81874400D01*
X120972407Y-81774358D01*
X121012913Y-81676566D01*
X121069080Y-81620400D01*
X121069080Y-81557591D01*
X121065637Y-81549280D01*
X121069080Y-81540969D01*
X121069080Y-81478160D01*
X121012913Y-81421993D01*
X120972407Y-81324202D01*
X120793779Y-81145573D01*
X120753551Y-81128910D01*
X120910330Y-81128910D01*
X121069080Y-80970160D01*
X121069080Y-80907351D01*
X120972407Y-80673962D01*
X120793779Y-80495333D01*
X120560390Y-80398660D01*
X120307771Y-80398660D01*
X120084830Y-80398660D01*
X119926080Y-80557410D01*
X119926080Y-81128910D01*
X120004820Y-81128910D01*
X119926080Y-81207650D01*
X119926080Y-81319410D01*
X119926080Y-81779150D01*
X119926080Y-81857890D01*
X119926080Y-81890910D01*
X119926080Y-81969650D01*
X119926080Y-82021400D01*
X119672080Y-82021400D01*
X119672080Y-81969650D01*
X119672080Y-81890910D01*
X119672080Y-81857890D01*
X119672080Y-81779150D01*
X119672080Y-81319410D01*
X119672080Y-81207650D01*
X119593340Y-81128910D01*
X119672080Y-81128910D01*
X119672080Y-80713640D01*
X119775357Y-80464923D01*
X119775562Y-80228779D01*
X121076443Y-78927899D01*
X121305501Y-78927899D01*
X121509624Y-78887296D01*
X121677034Y-78775437D01*
X121913482Y-78775643D01*
X122216998Y-78650233D01*
X122449417Y-78418219D01*
X122575357Y-78114923D01*
X122575643Y-77786518D01*
X122450233Y-77483002D01*
X122218219Y-77250583D01*
X121914923Y-77124643D01*
X121586518Y-77124357D01*
X121283002Y-77249767D01*
X121050583Y-77481781D01*
X120924643Y-77785077D01*
X120924576Y-77861099D01*
X120855501Y-77861099D01*
X120651378Y-77901702D01*
X120478330Y-78017328D01*
X119021096Y-79474561D01*
X118786518Y-79474357D01*
X118483002Y-79599767D01*
X118250583Y-79831781D01*
X118124643Y-80135077D01*
X118124357Y-80463482D01*
X118249767Y-80766998D01*
X118481781Y-80999417D01*
X118612699Y-81053779D01*
X118687830Y-81128910D01*
X118844608Y-81128910D01*
X118804381Y-81145573D01*
X118625753Y-81324202D01*
X118585246Y-81421993D01*
X118529080Y-81478160D01*
X118529080Y-81540969D01*
X118532522Y-81549280D01*
X118529080Y-81557591D01*
X118529080Y-81620400D01*
X118585246Y-81676566D01*
X118625753Y-81774358D01*
X118725794Y-81874400D01*
X118625753Y-81974442D01*
X118585246Y-82072233D01*
X118529080Y-82128400D01*
X118529080Y-82191209D01*
X118532522Y-82199520D01*
X118529080Y-82207831D01*
X118529080Y-82270640D01*
X118585246Y-82326806D01*
X118625753Y-82424598D01*
X118804381Y-82603227D01*
X118844608Y-82619890D01*
X118687830Y-82619890D01*
X118529080Y-82778640D01*
X118529080Y-82841449D01*
X118625753Y-83074838D01*
X118783080Y-83232165D01*
X118783080Y-83388588D01*
X118667390Y-83465890D01*
X118423490Y-83709790D01*
X118313369Y-83874597D01*
X118274700Y-84069000D01*
X118274700Y-89801400D01*
X118313369Y-89995803D01*
X118423490Y-90160610D01*
X118631880Y-90369000D01*
X118599214Y-90369000D01*
X118459180Y-90427004D01*
X118352004Y-90534181D01*
X118294000Y-90674215D01*
X118294000Y-90825786D01*
X118294000Y-94119800D01*
X117866000Y-94119800D01*
X117866000Y-90674214D01*
X117807996Y-90534180D01*
X117700819Y-90427004D01*
X117560785Y-90369000D01*
X117409214Y-90369000D01*
X117318000Y-90369000D01*
X117318000Y-90368700D01*
X117285746Y-90206549D01*
X117279331Y-90174297D01*
X117279331Y-90174296D01*
X117169210Y-90009490D01*
X117169210Y-90009489D01*
X115725200Y-88565479D01*
X115725200Y-83174900D01*
X115686531Y-82980497D01*
X115576410Y-82815690D01*
X115411603Y-82705569D01*
X115394433Y-82702153D01*
X115312170Y-82619890D01*
X114951563Y-82619890D01*
X114911705Y-82603380D01*
X114760134Y-82603380D01*
X114053920Y-82603380D01*
X114053920Y-82445900D01*
X114911706Y-82445900D01*
X114951564Y-82429390D01*
X115312170Y-82429390D01*
X115470920Y-82270640D01*
X115470920Y-82211820D01*
X115576131Y-82106609D01*
X115576132Y-82106609D01*
X115686252Y-81941802D01*
X115724921Y-81747399D01*
X115724921Y-79955621D01*
X115686252Y-79761218D01*
X115576131Y-79596411D01*
X114870510Y-78890790D01*
X114705703Y-78780669D01*
X114638300Y-78767261D01*
X114638300Y-78758000D01*
X115490980Y-78758000D01*
X116120800Y-79387820D01*
X116120800Y-85178597D01*
X115929383Y-85369681D01*
X115803443Y-85672977D01*
X115803157Y-86001382D01*
X115928567Y-86304898D01*
X116160581Y-86537317D01*
X116463877Y-86663257D01*
X116792282Y-86663543D01*
X117095798Y-86538133D01*
X117328217Y-86306119D01*
X117454157Y-86002823D01*
X117454443Y-85674418D01*
X117329033Y-85370902D01*
X117136800Y-85178333D01*
X117136800Y-79177400D01*
X117098131Y-78982997D01*
X116988010Y-78818190D01*
X116060610Y-77890790D01*
X115895803Y-77780669D01*
X115701400Y-77742000D01*
X107200000Y-77742000D01*
X107005597Y-77780669D01*
X106840790Y-77890789D01*
X106177079Y-78554500D01*
X104137500Y-78554500D01*
X103943097Y-78593169D01*
X103778290Y-78703290D01*
X103256987Y-79224592D01*
X102986518Y-79224357D01*
X102683002Y-79349767D01*
X102450583Y-79581781D01*
X102324643Y-79885077D01*
X102324357Y-80213482D01*
X102440322Y-80494140D01*
X102379974Y-80494140D01*
X102324785Y-80517000D01*
X102284920Y-80517000D01*
X101460800Y-79692880D01*
X101460800Y-78649100D01*
X101422131Y-78454697D01*
X101312010Y-78289890D01*
X101147203Y-78179769D01*
X100952800Y-78141100D01*
X100941807Y-78141100D01*
X100894496Y-78026880D01*
X100787319Y-77919704D01*
X100647285Y-77861700D01*
X100495714Y-77861700D01*
X99352714Y-77861700D01*
X99212680Y-77919704D01*
X99105504Y-78026881D01*
X99047500Y-78166915D01*
X99047500Y-78318486D01*
X99047500Y-79131286D01*
X99105504Y-79271320D01*
X99212681Y-79378496D01*
X99352715Y-79436500D01*
X99504286Y-79436500D01*
X100444800Y-79436500D01*
X100444800Y-79563500D01*
X99352714Y-79563500D01*
X99212680Y-79621504D01*
X99105504Y-79728681D01*
X99047500Y-79868715D01*
X99047500Y-80020286D01*
X99047500Y-80833086D01*
X99105504Y-80973120D01*
X99132384Y-81000000D01*
X99105504Y-81026881D01*
X99047500Y-81166915D01*
X99047500Y-81318486D01*
X99047500Y-82131286D01*
X99105504Y-82271320D01*
X99190109Y-82355925D01*
X99068801Y-82406173D01*
X98890173Y-82584802D01*
X98793500Y-82818191D01*
X98793500Y-83065150D01*
X98952250Y-83223900D01*
X99873000Y-83223900D01*
X99873000Y-83203900D01*
X100127000Y-83203900D01*
X100127000Y-83223900D01*
X100147000Y-83223900D01*
X100147000Y-83477900D01*
X100127000Y-83477900D01*
X100127000Y-83497900D01*
X99873000Y-83497900D01*
X99873000Y-83477900D01*
X98952250Y-83477900D01*
X98793500Y-83636650D01*
X98793500Y-83883609D01*
X98890173Y-84116998D01*
X99068801Y-84295627D01*
X99302190Y-84392300D01*
X99554809Y-84392300D01*
X99714250Y-84392300D01*
X99872998Y-84233552D01*
X99872998Y-84334160D01*
X99404658Y-84802500D01*
X99231300Y-84802500D01*
X99027177Y-84843103D01*
X98854129Y-84958729D01*
X98644529Y-85168329D01*
X98528903Y-85341377D01*
X98488300Y-85545500D01*
X98488300Y-88876700D01*
X98528903Y-89080823D01*
X98644529Y-89253871D01*
X100514000Y-91123341D01*
X100514000Y-94119800D01*
X98380200Y-94119800D01*
X98380200Y-76880200D01*
X127619800Y-76880200D01*
X127619800Y-94119800D01*
X127619800Y-94119800D01*
G37*
X127619800Y-94119800D02*
X127191948Y-94119800D01*
X127287320Y-94080296D01*
X127394496Y-93973119D01*
X127452500Y-93833085D01*
X127452500Y-93681514D01*
X127452500Y-92868714D01*
X127394496Y-92728680D01*
X127287319Y-92621504D01*
X127147285Y-92563500D01*
X127008000Y-92563500D01*
X127008000Y-92563200D01*
X126982797Y-92436500D01*
X127147286Y-92436500D01*
X127287320Y-92378496D01*
X127394496Y-92271319D01*
X127452500Y-92131285D01*
X127452500Y-91979714D01*
X127452500Y-91166914D01*
X127394496Y-91026880D01*
X127287319Y-90919704D01*
X127147285Y-90861700D01*
X127008000Y-90861700D01*
X127008000Y-90216720D01*
X127009210Y-90215510D01*
X127119331Y-90050703D01*
X127158000Y-89856300D01*
X127158000Y-89856000D01*
X127225786Y-89856000D01*
X127365820Y-89797996D01*
X127472996Y-89690819D01*
X127531000Y-89550785D01*
X127531000Y-89399214D01*
X127531000Y-88149214D01*
X127531000Y-79850785D01*
X127531000Y-79699214D01*
X127531000Y-78449214D01*
X127472996Y-78309180D01*
X127365819Y-78202004D01*
X127225785Y-78144000D01*
X127074214Y-78144000D01*
X126074214Y-78144000D01*
X125934180Y-78202004D01*
X125827004Y-78309181D01*
X125769000Y-78449215D01*
X125769000Y-78600786D01*
X125769000Y-79850786D01*
X125827004Y-79990820D01*
X125934181Y-80097996D01*
X126012167Y-80130299D01*
X126011969Y-80130597D01*
X125973300Y-80325000D01*
X125973300Y-81844000D01*
X125181929Y-81844000D01*
X125209198Y-81832733D01*
X125441617Y-81600719D01*
X125567557Y-81297423D01*
X125567843Y-80969018D01*
X125442433Y-80665502D01*
X125231000Y-80453699D01*
X125231000Y-79850785D01*
X125231000Y-79699214D01*
X125231000Y-78449214D01*
X125172996Y-78309180D01*
X125065819Y-78202004D01*
X124925785Y-78144000D01*
X124774214Y-78144000D01*
X123774214Y-78144000D01*
X123634180Y-78202004D01*
X123527004Y-78309181D01*
X123469000Y-78449215D01*
X123469000Y-78600786D01*
X123469000Y-78642000D01*
X123468700Y-78642000D01*
X123274297Y-78680669D01*
X123109490Y-78790790D01*
X123046880Y-78853400D01*
X122500000Y-78853400D01*
X122305597Y-78892069D01*
X122140790Y-79002190D01*
X122030669Y-79166997D01*
X121992000Y-79361400D01*
X121992000Y-79361700D01*
X121852714Y-79361700D01*
X121712680Y-79419704D01*
X121605504Y-79526881D01*
X121547500Y-79666915D01*
X121547500Y-79818486D01*
X121547500Y-80631286D01*
X121605504Y-80771320D01*
X121712681Y-80878496D01*
X121852715Y-80936500D01*
X122004286Y-80936500D01*
X123147286Y-80936500D01*
X123287320Y-80878496D01*
X123394496Y-80771319D01*
X123452500Y-80631285D01*
X123452500Y-80479714D01*
X123452500Y-79830198D01*
X123469000Y-79819173D01*
X123469000Y-79850786D01*
X123527004Y-79990820D01*
X123634181Y-80097996D01*
X123774215Y-80156000D01*
X123925786Y-80156000D01*
X124925786Y-80156000D01*
X125065820Y-80097996D01*
X125172996Y-79990819D01*
X125231000Y-79850785D01*
X125231000Y-80453699D01*
X125210419Y-80433083D01*
X124907123Y-80307143D01*
X124578718Y-80306857D01*
X124275202Y-80432267D01*
X124042783Y-80664281D01*
X123916843Y-80967577D01*
X123916557Y-81295982D01*
X124010700Y-81523825D01*
X124010700Y-84939579D01*
X123588552Y-85361727D01*
X123431199Y-85204373D01*
X123197810Y-85107700D01*
X122945191Y-85107700D01*
X122785750Y-85107700D01*
X122627000Y-85266450D01*
X122627000Y-86022100D01*
X122647000Y-86022100D01*
X122647000Y-86276100D01*
X122627000Y-86276100D01*
X122627000Y-86296100D01*
X122373000Y-86296100D01*
X122373000Y-86276100D01*
X122373000Y-86022100D01*
X122373000Y-85266450D01*
X122214250Y-85107700D01*
X122054809Y-85107700D01*
X121802190Y-85107700D01*
X121568801Y-85204373D01*
X121390173Y-85383002D01*
X121293500Y-85616391D01*
X121293500Y-85863350D01*
X121452250Y-86022100D01*
X122373000Y-86022100D01*
X122373000Y-86276100D01*
X121452250Y-86276100D01*
X121293500Y-86434850D01*
X121293500Y-86681809D01*
X121390173Y-86915198D01*
X121568801Y-87093827D01*
X121690109Y-87144074D01*
X121605504Y-87228681D01*
X121547500Y-87368715D01*
X121547500Y-87520286D01*
X121547500Y-88333086D01*
X121605504Y-88473120D01*
X121712681Y-88580296D01*
X121852715Y-88638300D01*
X121992000Y-88638300D01*
X121992000Y-88638600D01*
X122030669Y-88833003D01*
X122140790Y-88997810D01*
X122305597Y-89107931D01*
X122500000Y-89146600D01*
X123046880Y-89146600D01*
X123109490Y-89209210D01*
X123274297Y-89319331D01*
X123468700Y-89358000D01*
X123469000Y-89358000D01*
X123469000Y-89550786D01*
X123527004Y-89690820D01*
X123634181Y-89797996D01*
X123774215Y-89856000D01*
X123925786Y-89856000D01*
X124925786Y-89856000D01*
X125065820Y-89797996D01*
X125172996Y-89690819D01*
X125231000Y-89550785D01*
X125231000Y-89399214D01*
X125231000Y-88149214D01*
X125172996Y-88009180D01*
X125065819Y-87902004D01*
X124925785Y-87844000D01*
X124774214Y-87844000D01*
X123774214Y-87844000D01*
X123634180Y-87902004D01*
X123527004Y-88009181D01*
X123469000Y-88149215D01*
X123469000Y-88180826D01*
X123452500Y-88169801D01*
X123452500Y-87438319D01*
X123476310Y-87422410D01*
X123696372Y-87202347D01*
X123845681Y-87351917D01*
X124148977Y-87477857D01*
X124477382Y-87478143D01*
X124780898Y-87352733D01*
X124973466Y-87160500D01*
X125776400Y-87160500D01*
X125970803Y-87121831D01*
X126135610Y-87011710D01*
X126840610Y-86306710D01*
X126840611Y-86306710D01*
X126950731Y-86141903D01*
X126989400Y-85947500D01*
X126989400Y-83340700D01*
X126950731Y-83146297D01*
X126916639Y-83095275D01*
X126916639Y-83095274D01*
X126950631Y-83044403D01*
X126989300Y-82850000D01*
X126989300Y-80535420D01*
X127009210Y-80515510D01*
X127119331Y-80350703D01*
X127158000Y-80156300D01*
X127158000Y-80156000D01*
X127225786Y-80156000D01*
X127365820Y-80097996D01*
X127472996Y-79990819D01*
X127531000Y-79850785D01*
X127531000Y-88149214D01*
X127472996Y-88009180D01*
X127365819Y-87902004D01*
X127225785Y-87844000D01*
X127074214Y-87844000D01*
X126074214Y-87844000D01*
X125934180Y-87902004D01*
X125827004Y-88009181D01*
X125769000Y-88149215D01*
X125769000Y-88300786D01*
X125769000Y-89550786D01*
X125827004Y-89690820D01*
X125934181Y-89797996D01*
X126025878Y-89835978D01*
X125992000Y-90006300D01*
X125992000Y-90861700D01*
X125852714Y-90861700D01*
X125712680Y-90919704D01*
X125605504Y-91026881D01*
X125547500Y-91166915D01*
X125547500Y-91318486D01*
X125547500Y-91992000D01*
X125486000Y-91992000D01*
X125486000Y-90674214D01*
X125427996Y-90534180D01*
X125320819Y-90427004D01*
X125180785Y-90369000D01*
X125029214Y-90369000D01*
X123679214Y-90369000D01*
X123539180Y-90427004D01*
X123432004Y-90534181D01*
X123374000Y-90674215D01*
X123374000Y-90825786D01*
X123374000Y-94119800D01*
X122946000Y-94119800D01*
X122946000Y-90674214D01*
X122887996Y-90534180D01*
X122780819Y-90427004D01*
X122640785Y-90369000D01*
X122489214Y-90369000D01*
X122372738Y-90369000D01*
X122365746Y-90333849D01*
X122359331Y-90301597D01*
X122359331Y-90301596D01*
X122249210Y-90136790D01*
X122249210Y-90136789D01*
X120307080Y-88194659D01*
X120307080Y-86347340D01*
X120509866Y-86347340D01*
X120649900Y-86289336D01*
X120757076Y-86182159D01*
X120815080Y-86042125D01*
X120815080Y-85890554D01*
X120815080Y-85833125D01*
X120972407Y-85675798D01*
X121069080Y-85442409D01*
X121069080Y-85379600D01*
X120910330Y-85220850D01*
X120549723Y-85220850D01*
X120509865Y-85204340D01*
X120358294Y-85204340D01*
X119652080Y-85204340D01*
X119652080Y-85046860D01*
X120509866Y-85046860D01*
X120549724Y-85030350D01*
X120910330Y-85030350D01*
X120992509Y-84948170D01*
X121009803Y-84944731D01*
X121174610Y-84834610D01*
X121284731Y-84669803D01*
X121308943Y-84548076D01*
X122859210Y-82997810D01*
X122969331Y-82833004D01*
X122969331Y-82833003D01*
X123008000Y-82638600D01*
X123008000Y-82638300D01*
X123147286Y-82638300D01*
X123287320Y-82580296D01*
X123394496Y-82473119D01*
X123452500Y-82333085D01*
X123452500Y-82181514D01*
X123452500Y-81368714D01*
X123394496Y-81228680D01*
X123287319Y-81121504D01*
X123147285Y-81063500D01*
X122995714Y-81063500D01*
X121852714Y-81063500D01*
X121712680Y-81121504D01*
X121605504Y-81228681D01*
X121547500Y-81368715D01*
X121547500Y-81520286D01*
X121547500Y-82333086D01*
X121605504Y-82473120D01*
X121712681Y-82580296D01*
X121802627Y-82617552D01*
X120815080Y-83605100D01*
X120815080Y-83558834D01*
X120790709Y-83499999D01*
X120815080Y-83441165D01*
X120815080Y-83289594D01*
X120815080Y-83232165D01*
X120972407Y-83074838D01*
X121069080Y-82841449D01*
X121069080Y-82778640D01*
X120910330Y-82619890D01*
X120753551Y-82619890D01*
X120793779Y-82603227D01*
X120972407Y-82424598D01*
X121012913Y-82326806D01*
X121069080Y-82270640D01*
X121069080Y-82207831D01*
X121065637Y-82199520D01*
X121069080Y-82191209D01*
X121069080Y-82128400D01*
X121012913Y-82072233D01*
X120972407Y-81974442D01*
X120872365Y-81874400D01*
X120972407Y-81774358D01*
X121012913Y-81676566D01*
X121069080Y-81620400D01*
X121069080Y-81557591D01*
X121065637Y-81549280D01*
X121069080Y-81540969D01*
X121069080Y-81478160D01*
X121012913Y-81421993D01*
X120972407Y-81324202D01*
X120793779Y-81145573D01*
X120753551Y-81128910D01*
X120910330Y-81128910D01*
X121069080Y-80970160D01*
X121069080Y-80907351D01*
X120972407Y-80673962D01*
X120793779Y-80495333D01*
X120560390Y-80398660D01*
X120307771Y-80398660D01*
X120084830Y-80398660D01*
X119926080Y-80557410D01*
X119926080Y-81128910D01*
X120004820Y-81128910D01*
X119926080Y-81207650D01*
X119926080Y-81319410D01*
X119926080Y-81779150D01*
X119926080Y-81857890D01*
X119926080Y-81890910D01*
X119926080Y-81969650D01*
X119926080Y-82021400D01*
X119672080Y-82021400D01*
X119672080Y-81969650D01*
X119672080Y-81890910D01*
X119672080Y-81857890D01*
X119672080Y-81779150D01*
X119672080Y-81319410D01*
X119672080Y-81207650D01*
X119593340Y-81128910D01*
X119672080Y-81128910D01*
X119672080Y-80713640D01*
X119775357Y-80464923D01*
X119775562Y-80228779D01*
X121076443Y-78927899D01*
X121305501Y-78927899D01*
X121509624Y-78887296D01*
X121677034Y-78775437D01*
X121913482Y-78775643D01*
X122216998Y-78650233D01*
X122449417Y-78418219D01*
X122575357Y-78114923D01*
X122575643Y-77786518D01*
X122450233Y-77483002D01*
X122218219Y-77250583D01*
X121914923Y-77124643D01*
X121586518Y-77124357D01*
X121283002Y-77249767D01*
X121050583Y-77481781D01*
X120924643Y-77785077D01*
X120924576Y-77861099D01*
X120855501Y-77861099D01*
X120651378Y-77901702D01*
X120478330Y-78017328D01*
X119021096Y-79474561D01*
X118786518Y-79474357D01*
X118483002Y-79599767D01*
X118250583Y-79831781D01*
X118124643Y-80135077D01*
X118124357Y-80463482D01*
X118249767Y-80766998D01*
X118481781Y-80999417D01*
X118612699Y-81053779D01*
X118687830Y-81128910D01*
X118844608Y-81128910D01*
X118804381Y-81145573D01*
X118625753Y-81324202D01*
X118585246Y-81421993D01*
X118529080Y-81478160D01*
X118529080Y-81540969D01*
X118532522Y-81549280D01*
X118529080Y-81557591D01*
X118529080Y-81620400D01*
X118585246Y-81676566D01*
X118625753Y-81774358D01*
X118725794Y-81874400D01*
X118625753Y-81974442D01*
X118585246Y-82072233D01*
X118529080Y-82128400D01*
X118529080Y-82191209D01*
X118532522Y-82199520D01*
X118529080Y-82207831D01*
X118529080Y-82270640D01*
X118585246Y-82326806D01*
X118625753Y-82424598D01*
X118804381Y-82603227D01*
X118844608Y-82619890D01*
X118687830Y-82619890D01*
X118529080Y-82778640D01*
X118529080Y-82841449D01*
X118625753Y-83074838D01*
X118783080Y-83232165D01*
X118783080Y-83388588D01*
X118667390Y-83465890D01*
X118423490Y-83709790D01*
X118313369Y-83874597D01*
X118274700Y-84069000D01*
X118274700Y-89801400D01*
X118313369Y-89995803D01*
X118423490Y-90160610D01*
X118631880Y-90369000D01*
X118599214Y-90369000D01*
X118459180Y-90427004D01*
X118352004Y-90534181D01*
X118294000Y-90674215D01*
X118294000Y-90825786D01*
X118294000Y-94119800D01*
X117866000Y-94119800D01*
X117866000Y-90674214D01*
X117807996Y-90534180D01*
X117700819Y-90427004D01*
X117560785Y-90369000D01*
X117409214Y-90369000D01*
X117318000Y-90369000D01*
X117318000Y-90368700D01*
X117285746Y-90206549D01*
X117279331Y-90174297D01*
X117279331Y-90174296D01*
X117169210Y-90009490D01*
X117169210Y-90009489D01*
X115725200Y-88565479D01*
X115725200Y-83174900D01*
X115686531Y-82980497D01*
X115576410Y-82815690D01*
X115411603Y-82705569D01*
X115394433Y-82702153D01*
X115312170Y-82619890D01*
X114951563Y-82619890D01*
X114911705Y-82603380D01*
X114760134Y-82603380D01*
X114053920Y-82603380D01*
X114053920Y-82445900D01*
X114911706Y-82445900D01*
X114951564Y-82429390D01*
X115312170Y-82429390D01*
X115470920Y-82270640D01*
X115470920Y-82211820D01*
X115576131Y-82106609D01*
X115576132Y-82106609D01*
X115686252Y-81941802D01*
X115724921Y-81747399D01*
X115724921Y-79955621D01*
X115686252Y-79761218D01*
X115576131Y-79596411D01*
X114870510Y-78890790D01*
X114705703Y-78780669D01*
X114638300Y-78767261D01*
X114638300Y-78758000D01*
X115490980Y-78758000D01*
X116120800Y-79387820D01*
X116120800Y-85178597D01*
X115929383Y-85369681D01*
X115803443Y-85672977D01*
X115803157Y-86001382D01*
X115928567Y-86304898D01*
X116160581Y-86537317D01*
X116463877Y-86663257D01*
X116792282Y-86663543D01*
X117095798Y-86538133D01*
X117328217Y-86306119D01*
X117454157Y-86002823D01*
X117454443Y-85674418D01*
X117329033Y-85370902D01*
X117136800Y-85178333D01*
X117136800Y-79177400D01*
X117098131Y-78982997D01*
X116988010Y-78818190D01*
X116060610Y-77890790D01*
X115895803Y-77780669D01*
X115701400Y-77742000D01*
X107200000Y-77742000D01*
X107005597Y-77780669D01*
X106840790Y-77890789D01*
X106177079Y-78554500D01*
X104137500Y-78554500D01*
X103943097Y-78593169D01*
X103778290Y-78703290D01*
X103256987Y-79224592D01*
X102986518Y-79224357D01*
X102683002Y-79349767D01*
X102450583Y-79581781D01*
X102324643Y-79885077D01*
X102324357Y-80213482D01*
X102440322Y-80494140D01*
X102379974Y-80494140D01*
X102324785Y-80517000D01*
X102284920Y-80517000D01*
X101460800Y-79692880D01*
X101460800Y-78649100D01*
X101422131Y-78454697D01*
X101312010Y-78289890D01*
X101147203Y-78179769D01*
X100952800Y-78141100D01*
X100941807Y-78141100D01*
X100894496Y-78026880D01*
X100787319Y-77919704D01*
X100647285Y-77861700D01*
X100495714Y-77861700D01*
X99352714Y-77861700D01*
X99212680Y-77919704D01*
X99105504Y-78026881D01*
X99047500Y-78166915D01*
X99047500Y-78318486D01*
X99047500Y-79131286D01*
X99105504Y-79271320D01*
X99212681Y-79378496D01*
X99352715Y-79436500D01*
X99504286Y-79436500D01*
X100444800Y-79436500D01*
X100444800Y-79563500D01*
X99352714Y-79563500D01*
X99212680Y-79621504D01*
X99105504Y-79728681D01*
X99047500Y-79868715D01*
X99047500Y-80020286D01*
X99047500Y-80833086D01*
X99105504Y-80973120D01*
X99132384Y-81000000D01*
X99105504Y-81026881D01*
X99047500Y-81166915D01*
X99047500Y-81318486D01*
X99047500Y-82131286D01*
X99105504Y-82271320D01*
X99190109Y-82355925D01*
X99068801Y-82406173D01*
X98890173Y-82584802D01*
X98793500Y-82818191D01*
X98793500Y-83065150D01*
X98952250Y-83223900D01*
X99873000Y-83223900D01*
X99873000Y-83203900D01*
X100127000Y-83203900D01*
X100127000Y-83223900D01*
X100147000Y-83223900D01*
X100147000Y-83477900D01*
X100127000Y-83477900D01*
X100127000Y-83497900D01*
X99873000Y-83497900D01*
X99873000Y-83477900D01*
X98952250Y-83477900D01*
X98793500Y-83636650D01*
X98793500Y-83883609D01*
X98890173Y-84116998D01*
X99068801Y-84295627D01*
X99302190Y-84392300D01*
X99554809Y-84392300D01*
X99714250Y-84392300D01*
X99872998Y-84233552D01*
X99872998Y-84334160D01*
X99404658Y-84802500D01*
X99231300Y-84802500D01*
X99027177Y-84843103D01*
X98854129Y-84958729D01*
X98644529Y-85168329D01*
X98528903Y-85341377D01*
X98488300Y-85545500D01*
X98488300Y-88876700D01*
X98528903Y-89080823D01*
X98644529Y-89253871D01*
X100514000Y-91123341D01*
X100514000Y-94119800D01*
X98380200Y-94119800D01*
X98380200Y-76880200D01*
X127619800Y-76880200D01*
X127619800Y-94119800D01*
M02*
