M48
INCH,TZ
T1C0.020
%
G90
G05
T1
X056114Y-039173
X056398Y-032776
X056403Y-036534
X056516Y-034807
X057114Y-039173
X057165Y-037881
X057343Y-033129
X057598Y-035059
X057618Y-035807
X057948Y-036148
X058114Y-039173
X058415Y-032847
X058681Y-038248
X059114Y-039173
X060114Y-039173
X060157Y-034215
X060453Y-035984
X061011Y-032776
X061114Y-039173
X061207Y-036310
X061831Y-036004
X061851Y-034188
X062090Y-037808
X062114Y-039173
X062754Y-032749
X062917Y-036282
X062933Y-035492
X063048Y-037623
X063114Y-039173
X063886Y-033264
X064114Y-039173
X064523Y-035706
X064677Y-034567
X065114Y-039173
X065534Y-038153
X065622Y-034090
X065965Y-038031
X066114Y-039173
X066811Y-037008
X067114Y-039173
T0
M30
