%FSLAX46Y46*%
G04 Gerber Fmt 4.6, Leading zero omitted, Abs format (unit mm)*
G04 Created by KiCad (PCBNEW (2014-09-02 BZR 5112)-product) date 2014-09-07 2:51:26 PM*
%MOMM*%
G01*
G04 APERTURE LIST*
%ADD10C,0.150000*%
%ADD11C,0.203200*%
%ADD12C,0.200000*%
%ADD13C,0.066040*%
%ADD14C,0.152400*%
%ADD15C,0.127000*%
%ADD16C,0.406400*%
%ADD17C,0.254000*%
%ADD18R,0.299720X1.300480*%
%ADD19R,1.300480X0.299720*%
%ADD20R,0.398780X0.797560*%
%ADD21R,1.000760X0.701040*%
%ADD22R,2.199640X0.599440*%
%ADD23R,1.397000X1.143000*%
%ADD24R,1.143000X0.812800*%
%ADD25R,1.350000X3.500000*%
G04 APERTURE END LIST*
D10*
D11*
X147190362Y-97058057D02*
X147809638Y-97058057D01*
X150540286Y-96846762D02*
X150578990Y-96885467D01*
X150617695Y-97001581D01*
X150617695Y-97078991D01*
X150578990Y-97195105D01*
X150501581Y-97272514D01*
X150424171Y-97311219D01*
X150269352Y-97349924D01*
X150153238Y-97349924D01*
X149998419Y-97311219D01*
X149921010Y-97272514D01*
X149843600Y-97195105D01*
X149804895Y-97078991D01*
X149804895Y-97001581D01*
X149843600Y-96885467D01*
X149882305Y-96846762D01*
X149804895Y-96614533D02*
X150617695Y-96343600D01*
X149804895Y-96072667D01*
D12*
X163500000Y-97250000D02*
X163500000Y-96500000D01*
X162750000Y-97250000D02*
X163500000Y-97250000D01*
X162750000Y-96500000D02*
X162750000Y-97250000D01*
X162000000Y-96500000D02*
X162750000Y-96500000D01*
X162000000Y-97250000D02*
X162000000Y-96500000D01*
X161000000Y-96500000D02*
X161000000Y-97250000D01*
X160250000Y-97250000D02*
X161000000Y-96500000D01*
X160250000Y-96500000D02*
X160250000Y-97250000D01*
X159500000Y-97250000D02*
X160250000Y-96500000D01*
X157750000Y-96500000D02*
X158500000Y-97250000D01*
X157000000Y-97250000D02*
X157750000Y-96500000D01*
D11*
X170345181Y-97367695D02*
X169880724Y-97367695D01*
X170112953Y-97367695D02*
X170112953Y-96554895D01*
X170035543Y-96671010D01*
X169958134Y-96748419D01*
X169880724Y-96787124D01*
X170654819Y-96632305D02*
X170693524Y-96593600D01*
X170770933Y-96554895D01*
X170964457Y-96554895D01*
X171041867Y-96593600D01*
X171080571Y-96632305D01*
X171119276Y-96709714D01*
X171119276Y-96787124D01*
X171080571Y-96903238D01*
X170616114Y-97367695D01*
X171119276Y-97367695D01*
X144690362Y-97058057D02*
X145309638Y-97058057D01*
X145000000Y-97367695D02*
X145000000Y-96748419D01*
X142732229Y-97367695D02*
X142267772Y-97367695D01*
X142500001Y-97367695D02*
X142500001Y-96554895D01*
X142422591Y-96671010D01*
X142345182Y-96748419D01*
X142267772Y-96787124D01*
D12*
X151500000Y-89250000D02*
X151750000Y-89500000D01*
X151750000Y-89000000D02*
X151500000Y-89250000D01*
X143070000Y-86350000D02*
X145930000Y-86350000D01*
X145930000Y-86350000D02*
X145930000Y-89950000D01*
X145930000Y-89950000D02*
X143070000Y-89950000D01*
X143062000Y-89928000D02*
X143062000Y-86372000D01*
X144078000Y-89293000D02*
G75*
G03X144078000Y-89293000I-381000J0D01*
G74*
G01*
X159100000Y-85930000D02*
X159100000Y-83070000D01*
X159100000Y-83070000D02*
X162700000Y-83070000D01*
X162700000Y-83070000D02*
X162700000Y-85930000D01*
X162678000Y-85938000D02*
X159122000Y-85938000D01*
X162424000Y-85303000D02*
G75*
G03X162424000Y-85303000I-381000J0D01*
G74*
G01*
D13*
X151952440Y-90099820D02*
X152252160Y-90099820D01*
X152252160Y-90099820D02*
X152252160Y-89599440D01*
X151952440Y-89599440D02*
X152252160Y-89599440D01*
X151952440Y-90099820D02*
X151952440Y-89599440D01*
X152600140Y-90099820D02*
X152899860Y-90099820D01*
X152899860Y-90099820D02*
X152899860Y-89599440D01*
X152600140Y-89599440D02*
X152899860Y-89599440D01*
X152600140Y-90099820D02*
X152600140Y-89599440D01*
X153247840Y-90099820D02*
X153547560Y-90099820D01*
X153547560Y-90099820D02*
X153547560Y-89599440D01*
X153247840Y-89599440D02*
X153547560Y-89599440D01*
X153247840Y-90099820D02*
X153247840Y-89599440D01*
X153247840Y-88400560D02*
X153547560Y-88400560D01*
X153547560Y-88400560D02*
X153547560Y-87900180D01*
X153247840Y-87900180D02*
X153547560Y-87900180D01*
X153247840Y-88400560D02*
X153247840Y-87900180D01*
X152600140Y-88400560D02*
X152899860Y-88400560D01*
X152899860Y-88400560D02*
X152899860Y-87900180D01*
X152600140Y-87900180D02*
X152899860Y-87900180D01*
X152600140Y-88400560D02*
X152600140Y-87900180D01*
X151952440Y-88400560D02*
X152252160Y-88400560D01*
X152252160Y-88400560D02*
X152252160Y-87900180D01*
X151952440Y-87900180D02*
X152252160Y-87900180D01*
X151952440Y-88400560D02*
X151952440Y-87900180D01*
D11*
X151751780Y-88451360D02*
X153748220Y-88451360D01*
X153748220Y-88451360D02*
X153748220Y-89548640D01*
X153748220Y-89548640D02*
X151751780Y-89548640D01*
X151751780Y-89548640D02*
X151751780Y-88451360D01*
D14*
X152155671Y-89248920D02*
G75*
G03X152155671Y-89248920I-104171J0D01*
G74*
G01*
D15*
X157488000Y-90270000D02*
X157488000Y-87666500D01*
X157488000Y-87666500D02*
X159012000Y-87666500D01*
X159012000Y-87666500D02*
X159012000Y-90270000D01*
X159012000Y-90270000D02*
X157488000Y-90270000D01*
D16*
X165660605Y-95208000D02*
G75*
G03X165660605Y-95208000I-179605J0D01*
G74*
G01*
D13*
X168098800Y-95648840D02*
X168098800Y-95158620D01*
X168098800Y-95158620D02*
X166998980Y-95158620D01*
X166998980Y-95648840D02*
X166998980Y-95158620D01*
X168098800Y-95648840D02*
X166998980Y-95648840D01*
X168098800Y-94378840D02*
X168098800Y-93888620D01*
X168098800Y-93888620D02*
X166998980Y-93888620D01*
X166998980Y-94378840D02*
X166998980Y-93888620D01*
X168098800Y-94378840D02*
X166998980Y-94378840D01*
X168098800Y-93111380D02*
X168098800Y-92621160D01*
X168098800Y-92621160D02*
X166998980Y-92621160D01*
X166998980Y-93111380D02*
X166998980Y-92621160D01*
X168098800Y-93111380D02*
X166998980Y-93111380D01*
X168098800Y-91841380D02*
X168098800Y-91351160D01*
X168098800Y-91351160D02*
X166998980Y-91351160D01*
X166998980Y-91841380D02*
X166998980Y-91351160D01*
X168098800Y-91841380D02*
X166998980Y-91841380D01*
X163001020Y-91841380D02*
X163001020Y-91351160D01*
X163001020Y-91351160D02*
X161901200Y-91351160D01*
X161901200Y-91841380D02*
X161901200Y-91351160D01*
X163001020Y-91841380D02*
X161901200Y-91841380D01*
X163001020Y-93111380D02*
X163001020Y-92621160D01*
X163001020Y-92621160D02*
X161901200Y-92621160D01*
X161901200Y-93111380D02*
X161901200Y-92621160D01*
X163001020Y-93111380D02*
X161901200Y-93111380D01*
X163001020Y-94378840D02*
X163001020Y-93888620D01*
X163001020Y-93888620D02*
X161901200Y-93888620D01*
X161901200Y-94378840D02*
X161901200Y-93888620D01*
X163001020Y-94378840D02*
X161901200Y-94378840D01*
X163001020Y-95648840D02*
X163001020Y-95158620D01*
X163001020Y-95158620D02*
X161901200Y-95158620D01*
X161901200Y-95648840D02*
X161901200Y-95158620D01*
X163001020Y-95648840D02*
X161901200Y-95648840D01*
D11*
X163100080Y-91102240D02*
X166399540Y-91102240D01*
X166399540Y-91102240D02*
X166899920Y-91102240D01*
X166899920Y-91102240D02*
X166899920Y-95897760D01*
X166899920Y-95897760D02*
X166399540Y-95897760D01*
X166399540Y-95897760D02*
X163100080Y-95897760D01*
X163100080Y-95897760D02*
X163100080Y-91102240D01*
X166145540Y-91102240D02*
X166145540Y-95897760D01*
D15*
X154488000Y-88288800D02*
X154488000Y-87272800D01*
X154488000Y-87272800D02*
X156012000Y-87272800D01*
X156012000Y-87272800D02*
X156012000Y-88288800D01*
X156012000Y-89711200D02*
X156012000Y-90727200D01*
X156012000Y-90727200D02*
X154488000Y-90727200D01*
X154488000Y-90727200D02*
X154488000Y-89711200D01*
X149488000Y-88288800D02*
X149488000Y-87272800D01*
X149488000Y-87272800D02*
X151012000Y-87272800D01*
X151012000Y-87272800D02*
X151012000Y-88288800D01*
X151012000Y-89711200D02*
X151012000Y-90727200D01*
X151012000Y-90727200D02*
X149488000Y-90727200D01*
X149488000Y-90727200D02*
X149488000Y-89711200D01*
D17*
X148900000Y-95400000D02*
X148900000Y-92600000D01*
X148900000Y-92600000D02*
X147100000Y-92600000D01*
X147100000Y-92600000D02*
X147100000Y-95400000D01*
X147100000Y-95400000D02*
X148900000Y-95400000D01*
X152650000Y-85900000D02*
X152650000Y-83100000D01*
X152650000Y-83100000D02*
X150850000Y-83100000D01*
X150850000Y-83100000D02*
X150850000Y-85900000D01*
X150850000Y-85900000D02*
X152650000Y-85900000D01*
X152850000Y-83100000D02*
X152850000Y-85900000D01*
X152850000Y-85900000D02*
X154650000Y-85900000D01*
X154650000Y-85900000D02*
X154650000Y-83100000D01*
X154650000Y-83100000D02*
X152850000Y-83100000D01*
X147900000Y-85900000D02*
X147900000Y-83100000D01*
X147900000Y-83100000D02*
X146100000Y-83100000D01*
X146100000Y-83100000D02*
X146100000Y-85900000D01*
X146100000Y-85900000D02*
X147900000Y-85900000D01*
X151100000Y-92600000D02*
X151100000Y-95400000D01*
X151100000Y-95400000D02*
X152900000Y-95400000D01*
X152900000Y-95400000D02*
X152900000Y-92600000D01*
X152900000Y-92600000D02*
X151100000Y-92600000D01*
X149100000Y-92600000D02*
X149100000Y-95400000D01*
X149100000Y-95400000D02*
X150900000Y-95400000D01*
X150900000Y-95400000D02*
X150900000Y-92600000D01*
X150900000Y-92600000D02*
X149100000Y-92600000D01*
X157600000Y-92600000D02*
X157600000Y-95400000D01*
X157600000Y-95400000D02*
X159400000Y-95400000D01*
X159400000Y-95400000D02*
X159400000Y-92600000D01*
X159400000Y-92600000D02*
X157600000Y-92600000D01*
X148850000Y-83100000D02*
X148850000Y-85900000D01*
X148850000Y-85900000D02*
X150650000Y-85900000D01*
X150650000Y-85900000D02*
X150650000Y-83100000D01*
X150650000Y-83100000D02*
X148850000Y-83100000D01*
X154600000Y-92600000D02*
X154600000Y-95400000D01*
X154600000Y-95400000D02*
X156400000Y-95400000D01*
X156400000Y-95400000D02*
X156400000Y-92600000D01*
X156400000Y-92600000D02*
X154600000Y-92600000D01*
X145400000Y-95400000D02*
X145400000Y-92600000D01*
X145400000Y-92600000D02*
X143600000Y-92600000D01*
X143600000Y-92600000D02*
X143600000Y-95400000D01*
X143600000Y-95400000D02*
X145400000Y-95400000D01*
X160600000Y-87100000D02*
X160600000Y-89900000D01*
X160600000Y-89900000D02*
X162400000Y-89900000D01*
X162400000Y-89900000D02*
X162400000Y-87100000D01*
X162400000Y-87100000D02*
X160600000Y-87100000D01*
X168900000Y-89900000D02*
X168900000Y-87100000D01*
X168900000Y-87100000D02*
X167100000Y-87100000D01*
X167100000Y-87100000D02*
X167100000Y-89900000D01*
X167100000Y-89900000D02*
X168900000Y-89900000D01*
X165100000Y-83100000D02*
X165100000Y-85900000D01*
X165100000Y-85900000D02*
X166900000Y-85900000D01*
X166900000Y-85900000D02*
X166900000Y-83100000D01*
X166900000Y-83100000D02*
X165100000Y-83100000D01*
X168900000Y-85900000D02*
X168900000Y-83100000D01*
X168900000Y-83100000D02*
X167100000Y-83100000D01*
X167100000Y-83100000D02*
X167100000Y-85900000D01*
X167100000Y-85900000D02*
X168900000Y-85900000D01*
X162600000Y-87100000D02*
X162600000Y-89900000D01*
X162600000Y-89900000D02*
X164400000Y-89900000D01*
X164400000Y-89900000D02*
X164400000Y-87100000D01*
X164400000Y-87100000D02*
X162600000Y-87100000D01*
X164600000Y-87100000D02*
X164600000Y-89900000D01*
X164600000Y-89900000D02*
X166400000Y-89900000D01*
X166400000Y-89900000D02*
X166400000Y-87100000D01*
X166400000Y-87100000D02*
X164600000Y-87100000D01*
D14*
X142166171Y-89714457D02*
X142659657Y-89714457D01*
X142717714Y-89685429D01*
X142746743Y-89656400D01*
X142775771Y-89598343D01*
X142775771Y-89482229D01*
X142746743Y-89424171D01*
X142717714Y-89395143D01*
X142659657Y-89366114D01*
X142166171Y-89366114D01*
X142224229Y-89104857D02*
X142195200Y-89075828D01*
X142166171Y-89017771D01*
X142166171Y-88872628D01*
X142195200Y-88814571D01*
X142224229Y-88785542D01*
X142282286Y-88756514D01*
X142340343Y-88756514D01*
X142427429Y-88785542D01*
X142775771Y-89133885D01*
X142775771Y-88756514D01*
X161285543Y-82166171D02*
X161285543Y-82659657D01*
X161314571Y-82717714D01*
X161343600Y-82746743D01*
X161401657Y-82775771D01*
X161517771Y-82775771D01*
X161575829Y-82746743D01*
X161604857Y-82717714D01*
X161633886Y-82659657D01*
X161633886Y-82166171D01*
X162185429Y-82369371D02*
X162185429Y-82775771D01*
X162040286Y-82137143D02*
X161895143Y-82572571D01*
X162272515Y-82572571D01*
X152191943Y-91083829D02*
X152133886Y-91054800D01*
X152075829Y-90996743D01*
X151988743Y-90909657D01*
X151930686Y-90880629D01*
X151872629Y-90880629D01*
X151901657Y-91025771D02*
X151843600Y-90996743D01*
X151785543Y-90938686D01*
X151756514Y-90822571D01*
X151756514Y-90619371D01*
X151785543Y-90503257D01*
X151843600Y-90445200D01*
X151901657Y-90416171D01*
X152017771Y-90416171D01*
X152075829Y-90445200D01*
X152133886Y-90503257D01*
X152162914Y-90619371D01*
X152162914Y-90822571D01*
X152133886Y-90938686D01*
X152075829Y-90996743D01*
X152017771Y-91025771D01*
X151901657Y-91025771D01*
X152743486Y-91025771D02*
X152395143Y-91025771D01*
X152569315Y-91025771D02*
X152569315Y-90416171D01*
X152511258Y-90503257D01*
X152453200Y-90561314D01*
X152395143Y-90590343D01*
X158191943Y-91083829D02*
X158133886Y-91054800D01*
X158075829Y-90996743D01*
X157988743Y-90909657D01*
X157930686Y-90880629D01*
X157872629Y-90880629D01*
X157901657Y-91025771D02*
X157843600Y-90996743D01*
X157785543Y-90938686D01*
X157756514Y-90822571D01*
X157756514Y-90619371D01*
X157785543Y-90503257D01*
X157843600Y-90445200D01*
X157901657Y-90416171D01*
X158017771Y-90416171D01*
X158075829Y-90445200D01*
X158133886Y-90503257D01*
X158162914Y-90619371D01*
X158162914Y-90822571D01*
X158133886Y-90938686D01*
X158075829Y-90996743D01*
X158017771Y-91025771D01*
X157901657Y-91025771D01*
X158395143Y-90474229D02*
X158424172Y-90445200D01*
X158482229Y-90416171D01*
X158627372Y-90416171D01*
X158685429Y-90445200D01*
X158714458Y-90474229D01*
X158743486Y-90532286D01*
X158743486Y-90590343D01*
X158714458Y-90677429D01*
X158366115Y-91025771D01*
X158743486Y-91025771D01*
X164285543Y-96166171D02*
X164285543Y-96659657D01*
X164314571Y-96717714D01*
X164343600Y-96746743D01*
X164401657Y-96775771D01*
X164517771Y-96775771D01*
X164575829Y-96746743D01*
X164604857Y-96717714D01*
X164633886Y-96659657D01*
X164633886Y-96166171D01*
X164866115Y-96166171D02*
X165243486Y-96166171D01*
X165040286Y-96398400D01*
X165127372Y-96398400D01*
X165185429Y-96427429D01*
X165214458Y-96456457D01*
X165243486Y-96514514D01*
X165243486Y-96659657D01*
X165214458Y-96717714D01*
X165185429Y-96746743D01*
X165127372Y-96775771D01*
X164953200Y-96775771D01*
X164895143Y-96746743D01*
X164866115Y-96717714D01*
X155148401Y-86967714D02*
X155119372Y-86996743D01*
X155032286Y-87025771D01*
X154974229Y-87025771D01*
X154887144Y-86996743D01*
X154829086Y-86938686D01*
X154800058Y-86880629D01*
X154771029Y-86764514D01*
X154771029Y-86677429D01*
X154800058Y-86561314D01*
X154829086Y-86503257D01*
X154887144Y-86445200D01*
X154974229Y-86416171D01*
X155032286Y-86416171D01*
X155119372Y-86445200D01*
X155148401Y-86474229D01*
X155351601Y-86416171D02*
X155758001Y-86416171D01*
X155496744Y-87025771D01*
X149480743Y-86416171D02*
X149829086Y-86416171D01*
X149654915Y-87025771D02*
X149654915Y-86416171D01*
X150380629Y-86967714D02*
X150351600Y-86996743D01*
X150264514Y-87025771D01*
X150206457Y-87025771D01*
X150119372Y-86996743D01*
X150061314Y-86938686D01*
X150032286Y-86880629D01*
X150003257Y-86764514D01*
X150003257Y-86677429D01*
X150032286Y-86561314D01*
X150061314Y-86503257D01*
X150119372Y-86445200D01*
X150206457Y-86416171D01*
X150264514Y-86416171D01*
X150351600Y-86445200D01*
X150380629Y-86474229D01*
X150961200Y-87025771D02*
X150612857Y-87025771D01*
X150787029Y-87025771D02*
X150787029Y-86416171D01*
X150728972Y-86503257D01*
X150670914Y-86561314D01*
X150612857Y-86590343D01*
X148148401Y-92275771D02*
X147945201Y-91985486D01*
X147800058Y-92275771D02*
X147800058Y-91666171D01*
X148032286Y-91666171D01*
X148090344Y-91695200D01*
X148119372Y-91724229D01*
X148148401Y-91782286D01*
X148148401Y-91869371D01*
X148119372Y-91927429D01*
X148090344Y-91956457D01*
X148032286Y-91985486D01*
X147800058Y-91985486D01*
X148670915Y-91869371D02*
X148670915Y-92275771D01*
X148525772Y-91637143D02*
X148380629Y-92072571D01*
X148758001Y-92072571D01*
X151648401Y-82717714D02*
X151619372Y-82746743D01*
X151532286Y-82775771D01*
X151474229Y-82775771D01*
X151387144Y-82746743D01*
X151329086Y-82688686D01*
X151300058Y-82630629D01*
X151271029Y-82514514D01*
X151271029Y-82427429D01*
X151300058Y-82311314D01*
X151329086Y-82253257D01*
X151387144Y-82195200D01*
X151474229Y-82166171D01*
X151532286Y-82166171D01*
X151619372Y-82195200D01*
X151648401Y-82224229D01*
X152199944Y-82166171D02*
X151909658Y-82166171D01*
X151880629Y-82456457D01*
X151909658Y-82427429D01*
X151967715Y-82398400D01*
X152112858Y-82398400D01*
X152170915Y-82427429D01*
X152199944Y-82456457D01*
X152228972Y-82514514D01*
X152228972Y-82659657D01*
X152199944Y-82717714D01*
X152170915Y-82746743D01*
X152112858Y-82775771D01*
X151967715Y-82775771D01*
X151909658Y-82746743D01*
X151880629Y-82717714D01*
X153358115Y-82775771D02*
X153154915Y-82485486D01*
X153009772Y-82775771D02*
X153009772Y-82166171D01*
X153242000Y-82166171D01*
X153300058Y-82195200D01*
X153329086Y-82224229D01*
X153358115Y-82282286D01*
X153358115Y-82369371D01*
X153329086Y-82427429D01*
X153300058Y-82456457D01*
X153242000Y-82485486D01*
X153009772Y-82485486D01*
X153938686Y-82775771D02*
X153590343Y-82775771D01*
X153764515Y-82775771D02*
X153764515Y-82166171D01*
X153706458Y-82253257D01*
X153648400Y-82311314D01*
X153590343Y-82340343D01*
X154461200Y-82369371D02*
X154461200Y-82775771D01*
X154316057Y-82137143D02*
X154170914Y-82572571D01*
X154548286Y-82572571D01*
X146608115Y-82775771D02*
X146404915Y-82485486D01*
X146259772Y-82775771D02*
X146259772Y-82166171D01*
X146492000Y-82166171D01*
X146550058Y-82195200D01*
X146579086Y-82224229D01*
X146608115Y-82282286D01*
X146608115Y-82369371D01*
X146579086Y-82427429D01*
X146550058Y-82456457D01*
X146492000Y-82485486D01*
X146259772Y-82485486D01*
X147188686Y-82775771D02*
X146840343Y-82775771D01*
X147014515Y-82775771D02*
X147014515Y-82166171D01*
X146956458Y-82253257D01*
X146898400Y-82311314D01*
X146840343Y-82340343D01*
X147391886Y-82166171D02*
X147769257Y-82166171D01*
X147566057Y-82398400D01*
X147653143Y-82398400D01*
X147711200Y-82427429D01*
X147740229Y-82456457D01*
X147769257Y-82514514D01*
X147769257Y-82659657D01*
X147740229Y-82717714D01*
X147711200Y-82746743D01*
X147653143Y-82775771D01*
X147478971Y-82775771D01*
X147420914Y-82746743D01*
X147391886Y-82717714D01*
X151608115Y-92275771D02*
X151404915Y-91985486D01*
X151259772Y-92275771D02*
X151259772Y-91666171D01*
X151492000Y-91666171D01*
X151550058Y-91695200D01*
X151579086Y-91724229D01*
X151608115Y-91782286D01*
X151608115Y-91869371D01*
X151579086Y-91927429D01*
X151550058Y-91956457D01*
X151492000Y-91985486D01*
X151259772Y-91985486D01*
X152188686Y-92275771D02*
X151840343Y-92275771D01*
X152014515Y-92275771D02*
X152014515Y-91666171D01*
X151956458Y-91753257D01*
X151898400Y-91811314D01*
X151840343Y-91840343D01*
X152566057Y-91666171D02*
X152624114Y-91666171D01*
X152682171Y-91695200D01*
X152711200Y-91724229D01*
X152740229Y-91782286D01*
X152769257Y-91898400D01*
X152769257Y-92043543D01*
X152740229Y-92159657D01*
X152711200Y-92217714D01*
X152682171Y-92246743D01*
X152624114Y-92275771D01*
X152566057Y-92275771D01*
X152508000Y-92246743D01*
X152478971Y-92217714D01*
X152449943Y-92159657D01*
X152420914Y-92043543D01*
X152420914Y-91898400D01*
X152449943Y-91782286D01*
X152478971Y-91724229D01*
X152508000Y-91695200D01*
X152566057Y-91666171D01*
X149898401Y-92217714D02*
X149869372Y-92246743D01*
X149782286Y-92275771D01*
X149724229Y-92275771D01*
X149637144Y-92246743D01*
X149579086Y-92188686D01*
X149550058Y-92130629D01*
X149521029Y-92014514D01*
X149521029Y-91927429D01*
X149550058Y-91811314D01*
X149579086Y-91753257D01*
X149637144Y-91695200D01*
X149724229Y-91666171D01*
X149782286Y-91666171D01*
X149869372Y-91695200D01*
X149898401Y-91724229D01*
X150101601Y-91666171D02*
X150478972Y-91666171D01*
X150275772Y-91898400D01*
X150362858Y-91898400D01*
X150420915Y-91927429D01*
X150449944Y-91956457D01*
X150478972Y-92014514D01*
X150478972Y-92159657D01*
X150449944Y-92217714D01*
X150420915Y-92246743D01*
X150362858Y-92275771D01*
X150188686Y-92275771D01*
X150130629Y-92246743D01*
X150101601Y-92217714D01*
X158108115Y-92275771D02*
X157904915Y-91985486D01*
X157759772Y-92275771D02*
X157759772Y-91666171D01*
X157992000Y-91666171D01*
X158050058Y-91695200D01*
X158079086Y-91724229D01*
X158108115Y-91782286D01*
X158108115Y-91869371D01*
X158079086Y-91927429D01*
X158050058Y-91956457D01*
X157992000Y-91985486D01*
X157759772Y-91985486D01*
X158340343Y-91724229D02*
X158369372Y-91695200D01*
X158427429Y-91666171D01*
X158572572Y-91666171D01*
X158630629Y-91695200D01*
X158659658Y-91724229D01*
X158688686Y-91782286D01*
X158688686Y-91840343D01*
X158659658Y-91927429D01*
X158311315Y-92275771D01*
X158688686Y-92275771D01*
X159066057Y-91666171D02*
X159124114Y-91666171D01*
X159182171Y-91695200D01*
X159211200Y-91724229D01*
X159240229Y-91782286D01*
X159269257Y-91898400D01*
X159269257Y-92043543D01*
X159240229Y-92159657D01*
X159211200Y-92217714D01*
X159182171Y-92246743D01*
X159124114Y-92275771D01*
X159066057Y-92275771D01*
X159008000Y-92246743D01*
X158978971Y-92217714D01*
X158949943Y-92159657D01*
X158920914Y-92043543D01*
X158920914Y-91898400D01*
X158949943Y-91782286D01*
X158978971Y-91724229D01*
X159008000Y-91695200D01*
X159066057Y-91666171D01*
X149358115Y-82775771D02*
X149154915Y-82485486D01*
X149009772Y-82775771D02*
X149009772Y-82166171D01*
X149242000Y-82166171D01*
X149300058Y-82195200D01*
X149329086Y-82224229D01*
X149358115Y-82282286D01*
X149358115Y-82369371D01*
X149329086Y-82427429D01*
X149300058Y-82456457D01*
X149242000Y-82485486D01*
X149009772Y-82485486D01*
X149938686Y-82775771D02*
X149590343Y-82775771D01*
X149764515Y-82775771D02*
X149764515Y-82166171D01*
X149706458Y-82253257D01*
X149648400Y-82311314D01*
X149590343Y-82340343D01*
X150519257Y-82775771D02*
X150170914Y-82775771D01*
X150345086Y-82775771D02*
X150345086Y-82166171D01*
X150287029Y-82253257D01*
X150228971Y-82311314D01*
X150170914Y-82340343D01*
X155398401Y-96217714D02*
X155369372Y-96246743D01*
X155282286Y-96275771D01*
X155224229Y-96275771D01*
X155137144Y-96246743D01*
X155079086Y-96188686D01*
X155050058Y-96130629D01*
X155021029Y-96014514D01*
X155021029Y-95927429D01*
X155050058Y-95811314D01*
X155079086Y-95753257D01*
X155137144Y-95695200D01*
X155224229Y-95666171D01*
X155282286Y-95666171D01*
X155369372Y-95695200D01*
X155398401Y-95724229D01*
X155920915Y-95869371D02*
X155920915Y-96275771D01*
X155775772Y-95637143D02*
X155630629Y-96072571D01*
X156008001Y-96072571D01*
X144398401Y-92217714D02*
X144369372Y-92246743D01*
X144282286Y-92275771D01*
X144224229Y-92275771D01*
X144137144Y-92246743D01*
X144079086Y-92188686D01*
X144050058Y-92130629D01*
X144021029Y-92014514D01*
X144021029Y-91927429D01*
X144050058Y-91811314D01*
X144079086Y-91753257D01*
X144137144Y-91695200D01*
X144224229Y-91666171D01*
X144282286Y-91666171D01*
X144369372Y-91695200D01*
X144398401Y-91724229D01*
X144630629Y-91724229D02*
X144659658Y-91695200D01*
X144717715Y-91666171D01*
X144862858Y-91666171D01*
X144920915Y-91695200D01*
X144949944Y-91724229D01*
X144978972Y-91782286D01*
X144978972Y-91840343D01*
X144949944Y-91927429D01*
X144601601Y-92275771D01*
X144978972Y-92275771D01*
X161398401Y-86717714D02*
X161369372Y-86746743D01*
X161282286Y-86775771D01*
X161224229Y-86775771D01*
X161137144Y-86746743D01*
X161079086Y-86688686D01*
X161050058Y-86630629D01*
X161021029Y-86514514D01*
X161021029Y-86427429D01*
X161050058Y-86311314D01*
X161079086Y-86253257D01*
X161137144Y-86195200D01*
X161224229Y-86166171D01*
X161282286Y-86166171D01*
X161369372Y-86195200D01*
X161398401Y-86224229D01*
X161746744Y-86427429D02*
X161688686Y-86398400D01*
X161659658Y-86369371D01*
X161630629Y-86311314D01*
X161630629Y-86282286D01*
X161659658Y-86224229D01*
X161688686Y-86195200D01*
X161746744Y-86166171D01*
X161862858Y-86166171D01*
X161920915Y-86195200D01*
X161949944Y-86224229D01*
X161978972Y-86282286D01*
X161978972Y-86311314D01*
X161949944Y-86369371D01*
X161920915Y-86398400D01*
X161862858Y-86427429D01*
X161746744Y-86427429D01*
X161688686Y-86456457D01*
X161659658Y-86485486D01*
X161630629Y-86543543D01*
X161630629Y-86659657D01*
X161659658Y-86717714D01*
X161688686Y-86746743D01*
X161746744Y-86775771D01*
X161862858Y-86775771D01*
X161920915Y-86746743D01*
X161949944Y-86717714D01*
X161978972Y-86659657D01*
X161978972Y-86543543D01*
X161949944Y-86485486D01*
X161920915Y-86456457D01*
X161862858Y-86427429D01*
X167898401Y-86717714D02*
X167869372Y-86746743D01*
X167782286Y-86775771D01*
X167724229Y-86775771D01*
X167637144Y-86746743D01*
X167579086Y-86688686D01*
X167550058Y-86630629D01*
X167521029Y-86514514D01*
X167521029Y-86427429D01*
X167550058Y-86311314D01*
X167579086Y-86253257D01*
X167637144Y-86195200D01*
X167724229Y-86166171D01*
X167782286Y-86166171D01*
X167869372Y-86195200D01*
X167898401Y-86224229D01*
X168420915Y-86166171D02*
X168304801Y-86166171D01*
X168246744Y-86195200D01*
X168217715Y-86224229D01*
X168159658Y-86311314D01*
X168130629Y-86427429D01*
X168130629Y-86659657D01*
X168159658Y-86717714D01*
X168188686Y-86746743D01*
X168246744Y-86775771D01*
X168362858Y-86775771D01*
X168420915Y-86746743D01*
X168449944Y-86717714D01*
X168478972Y-86659657D01*
X168478972Y-86514514D01*
X168449944Y-86456457D01*
X168420915Y-86427429D01*
X168362858Y-86398400D01*
X168246744Y-86398400D01*
X168188686Y-86427429D01*
X168159658Y-86456457D01*
X168130629Y-86514514D01*
X165608115Y-82775771D02*
X165404915Y-82485486D01*
X165259772Y-82775771D02*
X165259772Y-82166171D01*
X165492000Y-82166171D01*
X165550058Y-82195200D01*
X165579086Y-82224229D01*
X165608115Y-82282286D01*
X165608115Y-82369371D01*
X165579086Y-82427429D01*
X165550058Y-82456457D01*
X165492000Y-82485486D01*
X165259772Y-82485486D01*
X166188686Y-82775771D02*
X165840343Y-82775771D01*
X166014515Y-82775771D02*
X166014515Y-82166171D01*
X165956458Y-82253257D01*
X165898400Y-82311314D01*
X165840343Y-82340343D01*
X166711200Y-82166171D02*
X166595086Y-82166171D01*
X166537029Y-82195200D01*
X166508000Y-82224229D01*
X166449943Y-82311314D01*
X166420914Y-82427429D01*
X166420914Y-82659657D01*
X166449943Y-82717714D01*
X166478971Y-82746743D01*
X166537029Y-82775771D01*
X166653143Y-82775771D01*
X166711200Y-82746743D01*
X166740229Y-82717714D01*
X166769257Y-82659657D01*
X166769257Y-82514514D01*
X166740229Y-82456457D01*
X166711200Y-82427429D01*
X166653143Y-82398400D01*
X166537029Y-82398400D01*
X166478971Y-82427429D01*
X166449943Y-82456457D01*
X166420914Y-82514514D01*
X167608115Y-82775771D02*
X167404915Y-82485486D01*
X167259772Y-82775771D02*
X167259772Y-82166171D01*
X167492000Y-82166171D01*
X167550058Y-82195200D01*
X167579086Y-82224229D01*
X167608115Y-82282286D01*
X167608115Y-82369371D01*
X167579086Y-82427429D01*
X167550058Y-82456457D01*
X167492000Y-82485486D01*
X167259772Y-82485486D01*
X168188686Y-82775771D02*
X167840343Y-82775771D01*
X168014515Y-82775771D02*
X168014515Y-82166171D01*
X167956458Y-82253257D01*
X167898400Y-82311314D01*
X167840343Y-82340343D01*
X168740229Y-82166171D02*
X168449943Y-82166171D01*
X168420914Y-82456457D01*
X168449943Y-82427429D01*
X168508000Y-82398400D01*
X168653143Y-82398400D01*
X168711200Y-82427429D01*
X168740229Y-82456457D01*
X168769257Y-82514514D01*
X168769257Y-82659657D01*
X168740229Y-82717714D01*
X168711200Y-82746743D01*
X168653143Y-82775771D01*
X168508000Y-82775771D01*
X168449943Y-82746743D01*
X168420914Y-82717714D01*
X163108115Y-86775771D02*
X162904915Y-86485486D01*
X162759772Y-86775771D02*
X162759772Y-86166171D01*
X162992000Y-86166171D01*
X163050058Y-86195200D01*
X163079086Y-86224229D01*
X163108115Y-86282286D01*
X163108115Y-86369371D01*
X163079086Y-86427429D01*
X163050058Y-86456457D01*
X162992000Y-86485486D01*
X162759772Y-86485486D01*
X163340343Y-86224229D02*
X163369372Y-86195200D01*
X163427429Y-86166171D01*
X163572572Y-86166171D01*
X163630629Y-86195200D01*
X163659658Y-86224229D01*
X163688686Y-86282286D01*
X163688686Y-86340343D01*
X163659658Y-86427429D01*
X163311315Y-86775771D01*
X163688686Y-86775771D01*
X163891886Y-86166171D02*
X164269257Y-86166171D01*
X164066057Y-86398400D01*
X164153143Y-86398400D01*
X164211200Y-86427429D01*
X164240229Y-86456457D01*
X164269257Y-86514514D01*
X164269257Y-86659657D01*
X164240229Y-86717714D01*
X164211200Y-86746743D01*
X164153143Y-86775771D01*
X163978971Y-86775771D01*
X163920914Y-86746743D01*
X163891886Y-86717714D01*
X165108115Y-86775771D02*
X164904915Y-86485486D01*
X164759772Y-86775771D02*
X164759772Y-86166171D01*
X164992000Y-86166171D01*
X165050058Y-86195200D01*
X165079086Y-86224229D01*
X165108115Y-86282286D01*
X165108115Y-86369371D01*
X165079086Y-86427429D01*
X165050058Y-86456457D01*
X164992000Y-86485486D01*
X164759772Y-86485486D01*
X165340343Y-86224229D02*
X165369372Y-86195200D01*
X165427429Y-86166171D01*
X165572572Y-86166171D01*
X165630629Y-86195200D01*
X165659658Y-86224229D01*
X165688686Y-86282286D01*
X165688686Y-86340343D01*
X165659658Y-86427429D01*
X165311315Y-86775771D01*
X165688686Y-86775771D01*
X166269257Y-86775771D02*
X165920914Y-86775771D01*
X166095086Y-86775771D02*
X166095086Y-86166171D01*
X166037029Y-86253257D01*
X165978971Y-86311314D01*
X165920914Y-86340343D01*
%LPC*%
D18*
X143544600Y-90944000D03*
X144179600Y-90944000D03*
X144840000Y-90944000D03*
X145475000Y-90944000D03*
X145475000Y-85356000D03*
X144827300Y-85356000D03*
X144179600Y-85356000D03*
X143531900Y-85356000D03*
D19*
X163694000Y-85455400D03*
X163694000Y-84820400D03*
X163694000Y-84160000D03*
X163694000Y-83525000D03*
X158106000Y-83525000D03*
X158106000Y-84172700D03*
X158106000Y-84820400D03*
X158106000Y-85468100D03*
D20*
X152102300Y-89797560D03*
X152750000Y-89797560D03*
X153397700Y-89797560D03*
X153397700Y-88202440D03*
X152750000Y-88202440D03*
X152102300Y-88202440D03*
D21*
X159520000Y-89000000D03*
X156980000Y-89952500D03*
X156980000Y-88047500D03*
D22*
X167598420Y-95405000D03*
X167598420Y-94135000D03*
X167598420Y-92865000D03*
X167598420Y-91595000D03*
X162401580Y-91595000D03*
X162401580Y-92865000D03*
X162401580Y-94135000D03*
X162401580Y-95405000D03*
D23*
X155250000Y-87920500D03*
X155250000Y-90079500D03*
X150250000Y-87920500D03*
X150250000Y-90079500D03*
D24*
X148000000Y-94850900D03*
X148000000Y-93149100D03*
X151750000Y-85350900D03*
X151750000Y-83649100D03*
X153750000Y-83649100D03*
X153750000Y-85350900D03*
X147000000Y-85350900D03*
X147000000Y-83649100D03*
X152000000Y-93149100D03*
X152000000Y-94850900D03*
X150000000Y-93149100D03*
X150000000Y-94850900D03*
X158500000Y-93149100D03*
X158500000Y-94850900D03*
X149750000Y-83649100D03*
X149750000Y-85350900D03*
X155500000Y-93149100D03*
X155500000Y-94850900D03*
X144500000Y-94850900D03*
X144500000Y-93149100D03*
X161500000Y-87649100D03*
X161500000Y-89350900D03*
X168000000Y-89350900D03*
X168000000Y-87649100D03*
X166000000Y-83649100D03*
X166000000Y-85350900D03*
X168000000Y-85350900D03*
X168000000Y-83649100D03*
X163500000Y-87649100D03*
X163500000Y-89350900D03*
X165500000Y-87649100D03*
X165500000Y-89350900D03*
D25*
X142530000Y-99500000D03*
X145070000Y-99500000D03*
X147610000Y-99500000D03*
X150150000Y-99500000D03*
X152690000Y-99500000D03*
X155230000Y-99500000D03*
X157770000Y-99500000D03*
X160310000Y-99500000D03*
X162850000Y-99500000D03*
X165390000Y-99500000D03*
X167930000Y-99500000D03*
X170470000Y-99500000D03*
M02*
