%FSLAX46Y46*%
G04 Gerber Fmt 4.6, Leading zero omitted, Abs format (unit mm)*
G04 Created by KiCad (PCBNEW (2014-09-02 BZR 5112)-product) date 2014-09-07 2:51:26 PM*
%MOMM*%
G01*
G04 APERTURE LIST*
%ADD10C,0.150000*%
%ADD11R,0.299720X1.300480*%
%ADD12R,1.300480X0.299720*%
%ADD13R,0.398780X0.797560*%
%ADD14R,1.000760X0.701040*%
%ADD15R,2.199640X0.599440*%
%ADD16R,1.397000X1.143000*%
%ADD17R,1.143000X0.812800*%
%ADD18R,1.350000X3.500000*%
G04 APERTURE END LIST*
D10*
D11*
X143544600Y-90944000D03*
X144179600Y-90944000D03*
X144840000Y-90944000D03*
X145475000Y-90944000D03*
X145475000Y-85356000D03*
X144827300Y-85356000D03*
X144179600Y-85356000D03*
X143531900Y-85356000D03*
D12*
X163694000Y-85455400D03*
X163694000Y-84820400D03*
X163694000Y-84160000D03*
X163694000Y-83525000D03*
X158106000Y-83525000D03*
X158106000Y-84172700D03*
X158106000Y-84820400D03*
X158106000Y-85468100D03*
D13*
X152102300Y-89797560D03*
X152750000Y-89797560D03*
X153397700Y-89797560D03*
X153397700Y-88202440D03*
X152750000Y-88202440D03*
X152102300Y-88202440D03*
D14*
X159520000Y-89000000D03*
X156980000Y-89952500D03*
X156980000Y-88047500D03*
D15*
X167598420Y-95405000D03*
X167598420Y-94135000D03*
X167598420Y-92865000D03*
X167598420Y-91595000D03*
X162401580Y-91595000D03*
X162401580Y-92865000D03*
X162401580Y-94135000D03*
X162401580Y-95405000D03*
D16*
X155250000Y-87920500D03*
X155250000Y-90079500D03*
X150250000Y-87920500D03*
X150250000Y-90079500D03*
D17*
X148000000Y-94850900D03*
X148000000Y-93149100D03*
X151750000Y-85350900D03*
X151750000Y-83649100D03*
X153750000Y-83649100D03*
X153750000Y-85350900D03*
X147000000Y-85350900D03*
X147000000Y-83649100D03*
X152000000Y-93149100D03*
X152000000Y-94850900D03*
X150000000Y-93149100D03*
X150000000Y-94850900D03*
X158500000Y-93149100D03*
X158500000Y-94850900D03*
X149750000Y-83649100D03*
X149750000Y-85350900D03*
X155500000Y-93149100D03*
X155500000Y-94850900D03*
X144500000Y-94850900D03*
X144500000Y-93149100D03*
X161500000Y-87649100D03*
X161500000Y-89350900D03*
X168000000Y-89350900D03*
X168000000Y-87649100D03*
X166000000Y-83649100D03*
X166000000Y-85350900D03*
X168000000Y-85350900D03*
X168000000Y-83649100D03*
X163500000Y-87649100D03*
X163500000Y-89350900D03*
X165500000Y-87649100D03*
X165500000Y-89350900D03*
D18*
X142530000Y-99500000D03*
X145070000Y-99500000D03*
X147610000Y-99500000D03*
X150150000Y-99500000D03*
X152690000Y-99500000D03*
X155230000Y-99500000D03*
X157770000Y-99500000D03*
X160310000Y-99500000D03*
X162850000Y-99500000D03*
X165390000Y-99500000D03*
X167930000Y-99500000D03*
X170470000Y-99500000D03*
M02*
