M48
INCH,TZ
T1C0.020
%
G90
G05
T1
X056114Y-038583
X057055Y-036260
X057114Y-038583
X057283Y-034222
X058110Y-035020
X058114Y-038583
X059114Y-038583
X059833Y-034262
X060114Y-038583
X061114Y-038583
X061220Y-036220
X062114Y-038583
X062608Y-037938
X062913Y-036154
X062921Y-033865
X062923Y-035364
X063114Y-038583
X063875Y-035483
X064114Y-038583
X064278Y-032984
X064652Y-035719
X064678Y-034469
X064713Y-032840
X065114Y-038583
X065757Y-033962
X065768Y-035481
X066114Y-038583
X066594Y-036378
X067114Y-038583
T0
M30
