%FSLAX46Y46*%
G04 Gerber Fmt 4.6, Leading zero omitted, Abs format (unit mm)*
G04 Created by KiCad (PCBNEW (2014-09-02 BZR 5112)-product) date 2014-10-14 1:14:18 PM*
%MOMM*%
G01*
G04 APERTURE LIST*
%ADD10C,0.150000*%
%ADD11R,1.000760X0.701040*%
%ADD12R,1.143000X0.812800*%
%ADD13R,1.000000X1.250000*%
%ADD14R,1.200000X1.250000*%
%ADD15R,1.350000X2.500000*%
%ADD16R,0.299720X1.300480*%
%ADD17C,0.889000*%
%ADD18C,0.355600*%
%ADD19C,0.254000*%
G04 APERTURE END LIST*
D10*
D11*
X154230000Y-89500000D03*
X156770000Y-90452500D03*
X156770000Y-88547500D03*
D12*
X152000000Y-93149100D03*
X152000000Y-94850900D03*
X150000000Y-90149100D03*
X150000000Y-91850900D03*
X156500000Y-93149100D03*
X156500000Y-94850900D03*
X154500000Y-93149100D03*
X154500000Y-94850900D03*
X144500000Y-94850900D03*
X144500000Y-93149100D03*
X167500000Y-93649100D03*
X167500000Y-95350900D03*
X152000000Y-90149100D03*
X152000000Y-91850900D03*
X165500000Y-87399100D03*
X165500000Y-89100900D03*
X158500000Y-85850900D03*
X158500000Y-84149100D03*
X155500000Y-84149100D03*
X155500000Y-85850900D03*
X152000000Y-85850900D03*
X152000000Y-84149100D03*
X162000000Y-84149100D03*
X162000000Y-85850900D03*
X165500000Y-84149100D03*
X165500000Y-85850900D03*
X165500000Y-93649100D03*
X165500000Y-95350900D03*
X165500000Y-90649100D03*
X165500000Y-92350900D03*
D13*
X144350000Y-86850000D03*
X146650000Y-86850000D03*
D14*
X145500000Y-83150000D03*
D15*
X142530000Y-98000000D03*
X145070000Y-98000000D03*
X147610000Y-98000000D03*
X150150000Y-98000000D03*
X152690000Y-98000000D03*
X155230000Y-98000000D03*
X157770000Y-98000000D03*
X160310000Y-98000000D03*
X162850000Y-98000000D03*
X165390000Y-98000000D03*
X167930000Y-98000000D03*
X170470000Y-98000000D03*
D16*
X158569600Y-88206000D03*
X159204600Y-88206000D03*
X159865000Y-88206000D03*
X160500000Y-88206000D03*
X161160400Y-88206000D03*
X161808100Y-88206000D03*
X162455800Y-88206000D03*
X162455800Y-93794000D03*
X161808100Y-93794000D03*
X161160400Y-93794000D03*
X160500000Y-93794000D03*
X159852300Y-93794000D03*
X159204600Y-93794000D03*
X158556900Y-93794000D03*
D17*
X159819000Y-86017500D03*
X163266000Y-83778800D03*
X144920120Y-92099687D03*
X155500000Y-92000000D03*
X151975000Y-87025000D03*
X145500000Y-86925000D03*
X159800000Y-91831600D03*
X159025000Y-96362600D03*
X164281000Y-87550000D03*
X167024000Y-86263400D03*
X164371000Y-83413400D03*
X159825000Y-89825000D03*
X147600000Y-88950000D03*
X169150000Y-92400000D03*
X167051000Y-90121100D03*
X164215000Y-90725900D03*
X162242000Y-90127500D03*
D18*
X144500000Y-94850900D02*
X143572900Y-94850900D01*
X143572900Y-94850900D02*
X143250000Y-94528000D01*
X143250000Y-94528000D02*
X143250000Y-87094400D01*
X143250000Y-87094400D02*
X143494400Y-86850000D01*
X143494400Y-86850000D02*
X144350000Y-86850000D01*
X144500000Y-94850900D02*
X144500000Y-95612900D01*
X144500000Y-95612900D02*
X145070000Y-96182900D01*
X145070000Y-96182900D02*
X145070000Y-98000000D01*
D19*
X160500000Y-86698600D02*
X159819000Y-86017500D01*
X160500000Y-88206000D02*
X160500000Y-86698600D01*
D18*
X150000000Y-90149100D02*
X149072900Y-90149100D01*
X149072900Y-90149100D02*
X147610000Y-91612000D01*
X147610000Y-91612000D02*
X147610000Y-96394400D01*
X147610000Y-96394400D02*
X147610000Y-98000000D01*
D19*
X150000000Y-90149100D02*
X152000000Y-90149100D01*
X152910000Y-85315500D02*
X152910000Y-88794200D01*
X152708000Y-85113900D02*
X152910000Y-85315500D01*
X151466000Y-85113900D02*
X152708000Y-85113900D01*
X151098000Y-84745700D02*
X151466000Y-85113900D01*
X151098000Y-83605800D02*
X151098000Y-84745700D01*
X151793000Y-82911100D02*
X151098000Y-83605800D01*
X161499000Y-82911100D02*
X151793000Y-82911100D01*
X162000000Y-83412200D02*
X161499000Y-82911100D01*
X162000000Y-84149100D02*
X162000000Y-83412200D01*
X152618000Y-88794200D02*
X152910000Y-88794200D01*
X152000000Y-89412200D02*
X152618000Y-88794200D01*
X152000000Y-90149100D02*
X152000000Y-89412200D01*
X162902000Y-84142900D02*
X163266000Y-83778800D01*
X162902000Y-84149100D02*
X162902000Y-84142900D01*
X162000000Y-84149100D02*
X162902000Y-84149100D01*
X154845000Y-88794200D02*
X152910000Y-88794200D01*
X155206000Y-89155100D02*
X154845000Y-88794200D01*
X155206000Y-90208500D02*
X155206000Y-89155100D01*
X156215000Y-91217800D02*
X155206000Y-90208500D01*
X159111000Y-91217800D02*
X156215000Y-91217800D01*
X159272000Y-91056900D02*
X159111000Y-91217800D01*
X160328000Y-91056900D02*
X159272000Y-91056900D01*
X160575000Y-91303100D02*
X160328000Y-91056900D01*
X160575000Y-92815100D02*
X160575000Y-91303100D01*
X160500000Y-92889800D02*
X160575000Y-92815100D01*
X160500000Y-93794000D02*
X160500000Y-92889800D01*
X149131000Y-85850900D02*
X152000000Y-85850900D01*
X146430000Y-83150000D02*
X149131000Y-85850900D01*
X145500000Y-83150000D02*
X146430000Y-83150000D01*
X155668000Y-91831600D02*
X155500000Y-92000000D01*
X159800000Y-91831600D02*
X155668000Y-91831600D01*
X171000000Y-82000000D02*
X171000000Y-97000000D01*
X142000000Y-82000000D02*
X171000000Y-82000000D01*
X142000000Y-97000000D02*
X142000000Y-82000000D01*
X159825000Y-88246000D02*
X159865000Y-88206000D01*
X159825000Y-89825000D02*
X159825000Y-88246000D01*
X159852000Y-95535300D02*
X159025000Y-96362600D01*
X159852000Y-91883900D02*
X159852000Y-95535300D01*
X159800000Y-91831600D02*
X159852000Y-91883900D01*
X167024000Y-87447000D02*
X167024000Y-86263400D01*
X166336000Y-88135700D02*
X167024000Y-87447000D01*
X164664000Y-88135700D02*
X166336000Y-88135700D01*
X164281000Y-87752200D02*
X164664000Y-88135700D01*
X164281000Y-87550000D02*
X164281000Y-87752200D01*
X166523000Y-90649100D02*
X165500000Y-90649100D01*
X167051000Y-90121100D02*
X166523000Y-90649100D01*
X162456000Y-97605800D02*
X162456000Y-95370000D01*
X162850000Y-98000000D02*
X162456000Y-97605800D01*
X162456000Y-95370000D02*
X162456000Y-94091700D01*
X162455800Y-95369800D02*
X162455800Y-93794000D01*
X162456000Y-95370000D02*
X162455800Y-95369800D01*
X165500000Y-96309500D02*
X165500000Y-95350900D01*
X165390000Y-96419500D02*
X165500000Y-96309500D01*
X165390000Y-98000000D02*
X165390000Y-96419500D01*
X164215000Y-90097300D02*
X164215000Y-90725900D01*
X164474000Y-89837900D02*
X164215000Y-90097300D01*
X166220000Y-89837900D02*
X164474000Y-89837900D01*
X167799000Y-88259400D02*
X166220000Y-89837900D01*
X167799000Y-85622600D02*
X167799000Y-88259400D01*
X166326000Y-84149100D02*
X167799000Y-85622600D01*
X165500000Y-84149100D02*
X166326000Y-84149100D01*
X164598000Y-89100900D02*
X165500000Y-89100900D01*
X164558000Y-89141400D02*
X164598000Y-89100900D01*
X162456000Y-89141400D02*
X164558000Y-89141400D01*
X162456000Y-89913400D02*
X162381000Y-89988200D01*
X162456000Y-89141400D02*
X162456000Y-89913400D01*
X162381000Y-89988200D02*
X162242000Y-90127500D01*
X157524000Y-90452500D02*
X156770000Y-90452500D01*
X157672000Y-90599700D02*
X157524000Y-90452500D01*
X161770000Y-90599700D02*
X157672000Y-90599700D01*
X162242000Y-90127500D02*
X161770000Y-90599700D01*
X161808000Y-94997900D02*
X161808000Y-94084500D01*
X160310000Y-96496000D02*
X161808000Y-94997900D01*
X160310000Y-98000000D02*
X160310000Y-96496000D01*
X163894000Y-91501000D02*
X162381000Y-89988200D01*
X166807000Y-91501000D02*
X163894000Y-91501000D01*
X168415000Y-93109200D02*
X166807000Y-91501000D01*
X168415000Y-94214600D02*
X168415000Y-93109200D01*
X168244000Y-94386100D02*
X168415000Y-94214600D01*
X164779000Y-94386100D02*
X168244000Y-94386100D01*
X163206000Y-92813200D02*
X164779000Y-94386100D01*
X162166000Y-92813200D02*
X163206000Y-92813200D01*
X161808000Y-93171100D02*
X162166000Y-92813200D01*
X161808000Y-94084500D02*
X161808000Y-93171100D01*
X161808100Y-94084400D02*
X161808100Y-93794000D01*
X161808000Y-94084500D02*
X161808100Y-94084400D01*
X162456000Y-89141400D02*
X162456000Y-88907500D01*
X162456000Y-88907500D02*
X162456000Y-88673700D01*
X162455800Y-88907300D02*
X162455800Y-88206000D01*
X162456000Y-88907500D02*
X162455800Y-88907300D01*
X157770000Y-95218900D02*
X157770000Y-98000000D01*
X157402000Y-94850900D02*
X157770000Y-95218900D01*
X156500000Y-94850900D02*
X157402000Y-94850900D01*
X154500000Y-94850900D02*
X156500000Y-94850900D01*
X158557000Y-93794000D02*
X158557000Y-94284300D01*
X158214000Y-94774700D02*
X157770000Y-95218900D01*
X158557000Y-94774700D02*
X158214000Y-94774700D01*
X158557000Y-94284300D02*
X158557000Y-94774700D01*
X158556900Y-94284200D02*
X158556900Y-93794000D01*
X158557000Y-94284300D02*
X158556900Y-94284200D01*
X152000000Y-94850900D02*
X151174500Y-94850900D01*
X151174500Y-94850900D02*
X150000000Y-93676400D01*
X150000000Y-93676400D02*
X150000000Y-92511300D01*
X150000000Y-92511300D02*
X150000000Y-91850900D01*
X153400000Y-94300000D02*
X152849100Y-94850900D01*
X152849100Y-94850900D02*
X152000000Y-94850900D01*
X153400000Y-93423600D02*
X153400000Y-94300000D01*
X154500000Y-93149100D02*
X153674500Y-93149100D01*
X153674500Y-93149100D02*
X153400000Y-93423600D01*
X152000000Y-94850900D02*
X152000000Y-94482800D01*
X156500000Y-93149100D02*
X154500000Y-93149100D01*
X159205000Y-93794000D02*
X159205000Y-93397600D01*
X157326000Y-93149100D02*
X156500000Y-93149100D01*
X157661000Y-92813300D02*
X157326000Y-93149100D01*
X159017000Y-92813300D02*
X157661000Y-92813300D01*
X159205000Y-93001200D02*
X159017000Y-92813300D01*
X159205000Y-93397600D02*
X159205000Y-93001200D01*
X159204600Y-93398000D02*
X159204600Y-93794000D01*
X159205000Y-93397600D02*
X159204600Y-93398000D01*
X152000000Y-91850900D02*
X152000000Y-93149100D01*
X153670000Y-90181000D02*
X152000000Y-91850900D01*
X154230000Y-90181000D02*
X153670000Y-90181000D01*
X154230000Y-89500000D02*
X154230000Y-90181000D01*
X152902000Y-84149100D02*
X152000000Y-84149100D01*
X153362000Y-84609100D02*
X152902000Y-84149100D01*
X154598000Y-84609100D02*
X153362000Y-84609100D01*
X155224000Y-84609100D02*
X154598000Y-84609100D01*
X155500000Y-84333100D02*
X155224000Y-84609100D01*
X161645000Y-85482400D02*
X162000000Y-85482400D01*
X159553000Y-83390400D02*
X161645000Y-85482400D01*
X156443000Y-83390400D02*
X159553000Y-83390400D01*
X155500000Y-84333100D02*
X156443000Y-83390400D01*
X155500000Y-84149100D02*
X155500000Y-84333100D01*
X162000000Y-85850900D02*
X162000000Y-85482400D01*
X164598000Y-85850900D02*
X165500000Y-85850900D01*
X164230000Y-85482400D02*
X164598000Y-85850900D01*
X162000000Y-85482400D02*
X164230000Y-85482400D01*
X159205000Y-88206000D02*
X159205000Y-88696300D01*
X154598000Y-87708700D02*
X154598000Y-84609100D01*
X156131000Y-89241400D02*
X154598000Y-87708700D01*
X159150000Y-89241400D02*
X156131000Y-89241400D01*
X159205000Y-89186700D02*
X159150000Y-89241400D01*
X159205000Y-88696300D02*
X159205000Y-89186700D01*
X159204600Y-88695900D02*
X159204600Y-88206000D01*
X159205000Y-88696300D02*
X159204600Y-88695900D01*
X167500000Y-93649100D02*
X165500000Y-93649100D01*
X165500000Y-93649100D02*
X165500000Y-93280600D01*
X165500000Y-92350900D02*
X165500000Y-93280600D01*
X165500000Y-93280600D02*
X165500000Y-93649100D01*
X161160000Y-92889800D02*
X161160000Y-93115800D01*
X161699000Y-92350900D02*
X161160000Y-92889800D01*
X165500000Y-92350900D02*
X161699000Y-92350900D01*
X161160000Y-93115800D02*
X161160000Y-93341900D01*
X161160400Y-93116200D02*
X161160400Y-93794000D01*
X161160000Y-93115800D02*
X161160400Y-93116200D01*
X160997000Y-86414300D02*
X161808000Y-87225300D01*
X160997000Y-85744200D02*
X160997000Y-86414300D01*
X159402000Y-84149100D02*
X160997000Y-85744200D01*
X158500000Y-84149100D02*
X159402000Y-84149100D01*
X165335000Y-87399100D02*
X165500000Y-87399100D01*
X164674000Y-86738700D02*
X165335000Y-87399100D01*
X162295000Y-86738700D02*
X164674000Y-86738700D01*
X161808000Y-87225300D02*
X162295000Y-86738700D01*
X161808000Y-88206000D02*
X161808000Y-87715600D01*
X161808000Y-87715600D02*
X161808000Y-87225300D01*
X161808100Y-87715700D02*
X161808100Y-88206000D01*
X161808000Y-87715600D02*
X161808100Y-87715700D01*
X156770000Y-87857800D02*
X156770000Y-88547500D01*
X155500000Y-86587800D02*
X156770000Y-87857800D01*
X155500000Y-85850900D02*
X155500000Y-86587800D01*
X158570000Y-88206000D02*
X158569600Y-88206000D01*
X158570000Y-86657400D02*
X158570000Y-88206000D01*
X158500000Y-86587800D02*
X158570000Y-86657400D01*
X158500000Y-85850900D02*
X158500000Y-86587800D01*
X157601000Y-88547500D02*
X156770000Y-88547500D01*
X157942000Y-88206000D02*
X157601000Y-88547500D01*
X158569600Y-88206000D02*
X157942000Y-88206000D01*
G36*
X161350800Y-94808530D02*
X159986700Y-96172722D01*
X159935058Y-96250014D01*
X159887602Y-96321037D01*
X159887600Y-96321044D01*
X159887596Y-96321051D01*
X159869548Y-96411801D01*
X159867956Y-96419800D01*
X159569319Y-96419800D01*
X159447957Y-96470070D01*
X159355070Y-96562957D01*
X159304800Y-96684319D01*
X159304800Y-96815681D01*
X159304800Y-99119800D01*
X158775200Y-99119800D01*
X158775200Y-96684319D01*
X158724930Y-96562957D01*
X158632043Y-96470070D01*
X158510681Y-96419800D01*
X158379319Y-96419800D01*
X158227200Y-96419800D01*
X158227200Y-95408218D01*
X158403439Y-95231900D01*
X158557000Y-95231900D01*
X158731963Y-95197098D01*
X158880289Y-95097989D01*
X158979398Y-94949663D01*
X159014200Y-94774700D01*
X159014200Y-94774440D01*
X159120421Y-94774440D01*
X159151894Y-94774440D01*
X159164113Y-94803939D01*
X159342742Y-94982567D01*
X159576131Y-95079240D01*
X159618620Y-95079240D01*
X159777370Y-94920490D01*
X159777370Y-93921000D01*
X159705300Y-93921000D01*
X159705300Y-93667000D01*
X159777370Y-93667000D01*
X159777370Y-92667510D01*
X159618620Y-92508760D01*
X159576131Y-92508760D01*
X159422654Y-92572332D01*
X159340289Y-92490011D01*
X159340203Y-92489925D01*
X159265106Y-92439775D01*
X159191963Y-92390902D01*
X159191903Y-92390890D01*
X159191851Y-92390855D01*
X159103552Y-92373316D01*
X159017000Y-92356100D01*
X159016878Y-92356100D01*
X157661000Y-92356100D01*
X157660728Y-92356154D01*
X157660455Y-92356100D01*
X157573212Y-92373561D01*
X157486037Y-92390902D01*
X157485805Y-92391056D01*
X157485534Y-92391111D01*
X157411619Y-92440626D01*
X157337711Y-92490011D01*
X157337557Y-92490241D01*
X157337326Y-92490396D01*
X157311778Y-92516005D01*
X157258543Y-92462770D01*
X157137181Y-92412500D01*
X157005819Y-92412500D01*
X155862819Y-92412500D01*
X155741457Y-92462770D01*
X155648570Y-92555657D01*
X155598300Y-92677019D01*
X155598300Y-92691900D01*
X155401700Y-92691900D01*
X155401700Y-92677019D01*
X155351430Y-92555657D01*
X155258543Y-92462770D01*
X155137181Y-92412500D01*
X155005819Y-92412500D01*
X153862819Y-92412500D01*
X153741457Y-92462770D01*
X153648570Y-92555657D01*
X153598300Y-92677019D01*
X153598300Y-92707056D01*
X153499537Y-92726702D01*
X153351211Y-92825811D01*
X153076711Y-93100311D01*
X152977602Y-93248637D01*
X152942800Y-93423600D01*
X152942800Y-94110622D01*
X152823697Y-94229724D01*
X152758543Y-94164570D01*
X152637181Y-94114300D01*
X152505819Y-94114300D01*
X152255626Y-94114300D01*
X152174963Y-94060402D01*
X152000000Y-94025600D01*
X151825037Y-94060402D01*
X151744373Y-94114300D01*
X151362819Y-94114300D01*
X151241457Y-94164570D01*
X151188102Y-94217924D01*
X150457200Y-93487022D01*
X150457200Y-92587500D01*
X150637181Y-92587500D01*
X150758543Y-92537230D01*
X150851430Y-92444343D01*
X150901700Y-92322981D01*
X150901700Y-92191619D01*
X150901700Y-91378819D01*
X150851430Y-91257457D01*
X150758543Y-91164570D01*
X150637181Y-91114300D01*
X150505819Y-91114300D01*
X149362819Y-91114300D01*
X149241457Y-91164570D01*
X149148570Y-91257457D01*
X149098300Y-91378819D01*
X149098300Y-91510181D01*
X149098300Y-92322981D01*
X149148570Y-92444343D01*
X149241457Y-92537230D01*
X149362819Y-92587500D01*
X149494181Y-92587500D01*
X149542800Y-92587500D01*
X149542800Y-93676400D01*
X149577602Y-93851363D01*
X149676711Y-93999689D01*
X150851211Y-95174189D01*
X150999537Y-95273298D01*
X151098300Y-95292943D01*
X151098300Y-95322981D01*
X151148570Y-95444343D01*
X151241457Y-95537230D01*
X151362819Y-95587500D01*
X151494181Y-95587500D01*
X152637181Y-95587500D01*
X152758543Y-95537230D01*
X152851430Y-95444343D01*
X152901700Y-95322981D01*
X152901700Y-95297637D01*
X153024063Y-95273298D01*
X153172389Y-95174189D01*
X153598300Y-94748278D01*
X153598300Y-95322981D01*
X153648570Y-95444343D01*
X153741457Y-95537230D01*
X153862819Y-95587500D01*
X153994181Y-95587500D01*
X155137181Y-95587500D01*
X155258543Y-95537230D01*
X155351430Y-95444343D01*
X155401700Y-95322981D01*
X155401700Y-95308100D01*
X155598300Y-95308100D01*
X155598300Y-95322981D01*
X155648570Y-95444343D01*
X155741457Y-95537230D01*
X155862819Y-95587500D01*
X155994181Y-95587500D01*
X157137181Y-95587500D01*
X157258543Y-95537230D01*
X157312800Y-95482973D01*
X157312800Y-96419800D01*
X157029319Y-96419800D01*
X156907957Y-96470070D01*
X156815070Y-96562957D01*
X156764800Y-96684319D01*
X156764800Y-96815681D01*
X156764800Y-99119800D01*
X156540000Y-99119800D01*
X156540000Y-98285750D01*
X156540000Y-97714250D01*
X156540000Y-96876309D01*
X156540000Y-96623690D01*
X156443327Y-96390301D01*
X156264698Y-96211673D01*
X156031309Y-96115000D01*
X155515750Y-96115000D01*
X155357000Y-96273750D01*
X155357000Y-97873000D01*
X156381250Y-97873000D01*
X156540000Y-97714250D01*
X156540000Y-98285750D01*
X156381250Y-98127000D01*
X155357000Y-98127000D01*
X155357000Y-98147000D01*
X155103000Y-98147000D01*
X155103000Y-98127000D01*
X155103000Y-97873000D01*
X155103000Y-96273750D01*
X154944250Y-96115000D01*
X154428691Y-96115000D01*
X154195302Y-96211673D01*
X154016673Y-96390301D01*
X153920000Y-96623690D01*
X153920000Y-96876309D01*
X153920000Y-97714250D01*
X154078750Y-97873000D01*
X155103000Y-97873000D01*
X155103000Y-98127000D01*
X154078750Y-98127000D01*
X153920000Y-98285750D01*
X153920000Y-99119800D01*
X153695200Y-99119800D01*
X153695200Y-96684319D01*
X153644930Y-96562957D01*
X153552043Y-96470070D01*
X153430681Y-96419800D01*
X153299319Y-96419800D01*
X151949319Y-96419800D01*
X151827957Y-96470070D01*
X151735070Y-96562957D01*
X151684800Y-96684319D01*
X151684800Y-96815681D01*
X151684800Y-99119800D01*
X151155200Y-99119800D01*
X151155200Y-96684319D01*
X151104930Y-96562957D01*
X151012043Y-96470070D01*
X150890681Y-96419800D01*
X150759319Y-96419800D01*
X149409319Y-96419800D01*
X149287957Y-96470070D01*
X149195070Y-96562957D01*
X149144800Y-96684319D01*
X149144800Y-96815681D01*
X149144800Y-99119800D01*
X148615200Y-99119800D01*
X148615200Y-96684319D01*
X148564930Y-96562957D01*
X148472043Y-96470070D01*
X148350681Y-96419800D01*
X148219319Y-96419800D01*
X148118000Y-96419800D01*
X148118000Y-96394400D01*
X148118000Y-91822420D01*
X149173223Y-90767196D01*
X149241457Y-90835430D01*
X149362819Y-90885700D01*
X149494181Y-90885700D01*
X150637181Y-90885700D01*
X150758543Y-90835430D01*
X150851430Y-90742543D01*
X150901700Y-90621181D01*
X150901700Y-90606300D01*
X151098300Y-90606300D01*
X151098300Y-90621181D01*
X151148570Y-90742543D01*
X151241457Y-90835430D01*
X151362819Y-90885700D01*
X151494181Y-90885700D01*
X152318659Y-90885700D01*
X152090045Y-91114300D01*
X151362819Y-91114300D01*
X151241457Y-91164570D01*
X151148570Y-91257457D01*
X151098300Y-91378819D01*
X151098300Y-91510181D01*
X151098300Y-92322981D01*
X151148570Y-92444343D01*
X151204227Y-92500000D01*
X151148570Y-92555657D01*
X151098300Y-92677019D01*
X151098300Y-92808381D01*
X151098300Y-93621181D01*
X151148570Y-93742543D01*
X151241457Y-93835430D01*
X151362819Y-93885700D01*
X151494181Y-93885700D01*
X152637181Y-93885700D01*
X152758543Y-93835430D01*
X152851430Y-93742543D01*
X152901700Y-93621181D01*
X152901700Y-93489819D01*
X152901700Y-92677019D01*
X152851430Y-92555657D01*
X152795773Y-92500000D01*
X152851430Y-92444343D01*
X152901700Y-92322981D01*
X152901700Y-92191619D01*
X152901700Y-91595813D01*
X153859370Y-90638200D01*
X154230000Y-90638200D01*
X154404963Y-90603398D01*
X154553289Y-90504289D01*
X154652398Y-90355963D01*
X154687200Y-90181000D01*
X154687200Y-90180720D01*
X154748800Y-90180720D01*
X154748800Y-90208432D01*
X154748800Y-90208500D01*
X154766224Y-90296101D01*
X154783576Y-90383400D01*
X154783595Y-90383428D01*
X154783602Y-90383463D01*
X154833380Y-90457960D01*
X154882663Y-90531741D01*
X154882711Y-90531789D01*
X155891663Y-91541041D01*
X155891691Y-91541060D01*
X155891711Y-91541089D01*
X155967001Y-91591396D01*
X156039975Y-91640172D01*
X156040007Y-91640178D01*
X156040037Y-91640198D01*
X156127909Y-91657676D01*
X156214932Y-91675000D01*
X156214966Y-91674993D01*
X156215000Y-91675000D01*
X159110858Y-91675000D01*
X159111000Y-91675000D01*
X159198816Y-91657532D01*
X159285832Y-91640252D01*
X159285891Y-91640212D01*
X159285963Y-91640198D01*
X159359298Y-91591196D01*
X159434189Y-91541190D01*
X159434289Y-91541089D01*
X159461295Y-91514100D01*
X160117800Y-91514100D01*
X160117800Y-92508760D01*
X160085980Y-92508760D01*
X159927230Y-92667510D01*
X159927230Y-93667000D01*
X159999300Y-93667000D01*
X159999300Y-93921000D01*
X159927230Y-93921000D01*
X159927230Y-94920490D01*
X160085980Y-95079240D01*
X160128469Y-95079240D01*
X160361858Y-94982567D01*
X160540487Y-94803939D01*
X160552705Y-94774440D01*
X160715541Y-94774440D01*
X160830200Y-94726946D01*
X160944859Y-94774440D01*
X161076221Y-94774440D01*
X161350800Y-94774440D01*
X161350800Y-94808530D01*
X161350800Y-94808530D01*
G37*
X161350800Y-94808530D02*
X159986700Y-96172722D01*
X159935058Y-96250014D01*
X159887602Y-96321037D01*
X159887600Y-96321044D01*
X159887596Y-96321051D01*
X159869548Y-96411801D01*
X159867956Y-96419800D01*
X159569319Y-96419800D01*
X159447957Y-96470070D01*
X159355070Y-96562957D01*
X159304800Y-96684319D01*
X159304800Y-96815681D01*
X159304800Y-99119800D01*
X158775200Y-99119800D01*
X158775200Y-96684319D01*
X158724930Y-96562957D01*
X158632043Y-96470070D01*
X158510681Y-96419800D01*
X158379319Y-96419800D01*
X158227200Y-96419800D01*
X158227200Y-95408218D01*
X158403439Y-95231900D01*
X158557000Y-95231900D01*
X158731963Y-95197098D01*
X158880289Y-95097989D01*
X158979398Y-94949663D01*
X159014200Y-94774700D01*
X159014200Y-94774440D01*
X159120421Y-94774440D01*
X159151894Y-94774440D01*
X159164113Y-94803939D01*
X159342742Y-94982567D01*
X159576131Y-95079240D01*
X159618620Y-95079240D01*
X159777370Y-94920490D01*
X159777370Y-93921000D01*
X159705300Y-93921000D01*
X159705300Y-93667000D01*
X159777370Y-93667000D01*
X159777370Y-92667510D01*
X159618620Y-92508760D01*
X159576131Y-92508760D01*
X159422654Y-92572332D01*
X159340289Y-92490011D01*
X159340203Y-92489925D01*
X159265106Y-92439775D01*
X159191963Y-92390902D01*
X159191903Y-92390890D01*
X159191851Y-92390855D01*
X159103552Y-92373316D01*
X159017000Y-92356100D01*
X159016878Y-92356100D01*
X157661000Y-92356100D01*
X157660728Y-92356154D01*
X157660455Y-92356100D01*
X157573212Y-92373561D01*
X157486037Y-92390902D01*
X157485805Y-92391056D01*
X157485534Y-92391111D01*
X157411619Y-92440626D01*
X157337711Y-92490011D01*
X157337557Y-92490241D01*
X157337326Y-92490396D01*
X157311778Y-92516005D01*
X157258543Y-92462770D01*
X157137181Y-92412500D01*
X157005819Y-92412500D01*
X155862819Y-92412500D01*
X155741457Y-92462770D01*
X155648570Y-92555657D01*
X155598300Y-92677019D01*
X155598300Y-92691900D01*
X155401700Y-92691900D01*
X155401700Y-92677019D01*
X155351430Y-92555657D01*
X155258543Y-92462770D01*
X155137181Y-92412500D01*
X155005819Y-92412500D01*
X153862819Y-92412500D01*
X153741457Y-92462770D01*
X153648570Y-92555657D01*
X153598300Y-92677019D01*
X153598300Y-92707056D01*
X153499537Y-92726702D01*
X153351211Y-92825811D01*
X153076711Y-93100311D01*
X152977602Y-93248637D01*
X152942800Y-93423600D01*
X152942800Y-94110622D01*
X152823697Y-94229724D01*
X152758543Y-94164570D01*
X152637181Y-94114300D01*
X152505819Y-94114300D01*
X152255626Y-94114300D01*
X152174963Y-94060402D01*
X152000000Y-94025600D01*
X151825037Y-94060402D01*
X151744373Y-94114300D01*
X151362819Y-94114300D01*
X151241457Y-94164570D01*
X151188102Y-94217924D01*
X150457200Y-93487022D01*
X150457200Y-92587500D01*
X150637181Y-92587500D01*
X150758543Y-92537230D01*
X150851430Y-92444343D01*
X150901700Y-92322981D01*
X150901700Y-92191619D01*
X150901700Y-91378819D01*
X150851430Y-91257457D01*
X150758543Y-91164570D01*
X150637181Y-91114300D01*
X150505819Y-91114300D01*
X149362819Y-91114300D01*
X149241457Y-91164570D01*
X149148570Y-91257457D01*
X149098300Y-91378819D01*
X149098300Y-91510181D01*
X149098300Y-92322981D01*
X149148570Y-92444343D01*
X149241457Y-92537230D01*
X149362819Y-92587500D01*
X149494181Y-92587500D01*
X149542800Y-92587500D01*
X149542800Y-93676400D01*
X149577602Y-93851363D01*
X149676711Y-93999689D01*
X150851211Y-95174189D01*
X150999537Y-95273298D01*
X151098300Y-95292943D01*
X151098300Y-95322981D01*
X151148570Y-95444343D01*
X151241457Y-95537230D01*
X151362819Y-95587500D01*
X151494181Y-95587500D01*
X152637181Y-95587500D01*
X152758543Y-95537230D01*
X152851430Y-95444343D01*
X152901700Y-95322981D01*
X152901700Y-95297637D01*
X153024063Y-95273298D01*
X153172389Y-95174189D01*
X153598300Y-94748278D01*
X153598300Y-95322981D01*
X153648570Y-95444343D01*
X153741457Y-95537230D01*
X153862819Y-95587500D01*
X153994181Y-95587500D01*
X155137181Y-95587500D01*
X155258543Y-95537230D01*
X155351430Y-95444343D01*
X155401700Y-95322981D01*
X155401700Y-95308100D01*
X155598300Y-95308100D01*
X155598300Y-95322981D01*
X155648570Y-95444343D01*
X155741457Y-95537230D01*
X155862819Y-95587500D01*
X155994181Y-95587500D01*
X157137181Y-95587500D01*
X157258543Y-95537230D01*
X157312800Y-95482973D01*
X157312800Y-96419800D01*
X157029319Y-96419800D01*
X156907957Y-96470070D01*
X156815070Y-96562957D01*
X156764800Y-96684319D01*
X156764800Y-96815681D01*
X156764800Y-99119800D01*
X156540000Y-99119800D01*
X156540000Y-98285750D01*
X156540000Y-97714250D01*
X156540000Y-96876309D01*
X156540000Y-96623690D01*
X156443327Y-96390301D01*
X156264698Y-96211673D01*
X156031309Y-96115000D01*
X155515750Y-96115000D01*
X155357000Y-96273750D01*
X155357000Y-97873000D01*
X156381250Y-97873000D01*
X156540000Y-97714250D01*
X156540000Y-98285750D01*
X156381250Y-98127000D01*
X155357000Y-98127000D01*
X155357000Y-98147000D01*
X155103000Y-98147000D01*
X155103000Y-98127000D01*
X155103000Y-97873000D01*
X155103000Y-96273750D01*
X154944250Y-96115000D01*
X154428691Y-96115000D01*
X154195302Y-96211673D01*
X154016673Y-96390301D01*
X153920000Y-96623690D01*
X153920000Y-96876309D01*
X153920000Y-97714250D01*
X154078750Y-97873000D01*
X155103000Y-97873000D01*
X155103000Y-98127000D01*
X154078750Y-98127000D01*
X153920000Y-98285750D01*
X153920000Y-99119800D01*
X153695200Y-99119800D01*
X153695200Y-96684319D01*
X153644930Y-96562957D01*
X153552043Y-96470070D01*
X153430681Y-96419800D01*
X153299319Y-96419800D01*
X151949319Y-96419800D01*
X151827957Y-96470070D01*
X151735070Y-96562957D01*
X151684800Y-96684319D01*
X151684800Y-96815681D01*
X151684800Y-99119800D01*
X151155200Y-99119800D01*
X151155200Y-96684319D01*
X151104930Y-96562957D01*
X151012043Y-96470070D01*
X150890681Y-96419800D01*
X150759319Y-96419800D01*
X149409319Y-96419800D01*
X149287957Y-96470070D01*
X149195070Y-96562957D01*
X149144800Y-96684319D01*
X149144800Y-96815681D01*
X149144800Y-99119800D01*
X148615200Y-99119800D01*
X148615200Y-96684319D01*
X148564930Y-96562957D01*
X148472043Y-96470070D01*
X148350681Y-96419800D01*
X148219319Y-96419800D01*
X148118000Y-96419800D01*
X148118000Y-96394400D01*
X148118000Y-91822420D01*
X149173223Y-90767196D01*
X149241457Y-90835430D01*
X149362819Y-90885700D01*
X149494181Y-90885700D01*
X150637181Y-90885700D01*
X150758543Y-90835430D01*
X150851430Y-90742543D01*
X150901700Y-90621181D01*
X150901700Y-90606300D01*
X151098300Y-90606300D01*
X151098300Y-90621181D01*
X151148570Y-90742543D01*
X151241457Y-90835430D01*
X151362819Y-90885700D01*
X151494181Y-90885700D01*
X152318659Y-90885700D01*
X152090045Y-91114300D01*
X151362819Y-91114300D01*
X151241457Y-91164570D01*
X151148570Y-91257457D01*
X151098300Y-91378819D01*
X151098300Y-91510181D01*
X151098300Y-92322981D01*
X151148570Y-92444343D01*
X151204227Y-92500000D01*
X151148570Y-92555657D01*
X151098300Y-92677019D01*
X151098300Y-92808381D01*
X151098300Y-93621181D01*
X151148570Y-93742543D01*
X151241457Y-93835430D01*
X151362819Y-93885700D01*
X151494181Y-93885700D01*
X152637181Y-93885700D01*
X152758543Y-93835430D01*
X152851430Y-93742543D01*
X152901700Y-93621181D01*
X152901700Y-93489819D01*
X152901700Y-92677019D01*
X152851430Y-92555657D01*
X152795773Y-92500000D01*
X152851430Y-92444343D01*
X152901700Y-92322981D01*
X152901700Y-92191619D01*
X152901700Y-91595813D01*
X153859370Y-90638200D01*
X154230000Y-90638200D01*
X154404963Y-90603398D01*
X154553289Y-90504289D01*
X154652398Y-90355963D01*
X154687200Y-90181000D01*
X154687200Y-90180720D01*
X154748800Y-90180720D01*
X154748800Y-90208432D01*
X154748800Y-90208500D01*
X154766224Y-90296101D01*
X154783576Y-90383400D01*
X154783595Y-90383428D01*
X154783602Y-90383463D01*
X154833380Y-90457960D01*
X154882663Y-90531741D01*
X154882711Y-90531789D01*
X155891663Y-91541041D01*
X155891691Y-91541060D01*
X155891711Y-91541089D01*
X155967001Y-91591396D01*
X156039975Y-91640172D01*
X156040007Y-91640178D01*
X156040037Y-91640198D01*
X156127909Y-91657676D01*
X156214932Y-91675000D01*
X156214966Y-91674993D01*
X156215000Y-91675000D01*
X159110858Y-91675000D01*
X159111000Y-91675000D01*
X159198816Y-91657532D01*
X159285832Y-91640252D01*
X159285891Y-91640212D01*
X159285963Y-91640198D01*
X159359298Y-91591196D01*
X159434189Y-91541190D01*
X159434289Y-91541089D01*
X159461295Y-91514100D01*
X160117800Y-91514100D01*
X160117800Y-92508760D01*
X160085980Y-92508760D01*
X159927230Y-92667510D01*
X159927230Y-93667000D01*
X159999300Y-93667000D01*
X159999300Y-93921000D01*
X159927230Y-93921000D01*
X159927230Y-94920490D01*
X160085980Y-95079240D01*
X160128469Y-95079240D01*
X160361858Y-94982567D01*
X160540487Y-94803939D01*
X160552705Y-94774440D01*
X160715541Y-94774440D01*
X160830200Y-94726946D01*
X160944859Y-94774440D01*
X161076221Y-94774440D01*
X161350800Y-94774440D01*
X161350800Y-94808530D01*
G36*
X161998800Y-89389762D02*
X161803741Y-89470359D01*
X161585624Y-89688095D01*
X161467435Y-89972727D01*
X161467286Y-90142500D01*
X157860652Y-90142500D01*
X157846412Y-90128336D01*
X157772507Y-90079243D01*
X157698963Y-90030102D01*
X157698345Y-90029979D01*
X157697818Y-90029629D01*
X157610857Y-90012576D01*
X157588948Y-90008219D01*
X157550310Y-89914937D01*
X157457423Y-89822050D01*
X157336061Y-89771780D01*
X157204699Y-89771780D01*
X156203939Y-89771780D01*
X156082577Y-89822050D01*
X155989690Y-89914937D01*
X155939420Y-90036299D01*
X155939420Y-90167661D01*
X155939420Y-90295463D01*
X155663200Y-90019161D01*
X155663200Y-89420207D01*
X155807742Y-89564721D01*
X155884957Y-89616303D01*
X155956037Y-89663798D01*
X155956059Y-89663802D01*
X155956078Y-89663815D01*
X156038412Y-89680183D01*
X156131000Y-89698600D01*
X159150000Y-89698600D01*
X159236907Y-89681313D01*
X159323807Y-89664275D01*
X159324337Y-89663922D01*
X159324963Y-89663798D01*
X159398581Y-89614607D01*
X159472404Y-89565572D01*
X159527404Y-89510872D01*
X159527759Y-89510342D01*
X159528289Y-89509989D01*
X159551225Y-89475663D01*
X159588831Y-89491240D01*
X159631320Y-89491240D01*
X159790070Y-89332490D01*
X159790070Y-88333000D01*
X159718000Y-88333000D01*
X159718000Y-88079000D01*
X159790070Y-88079000D01*
X159790070Y-87079510D01*
X159631320Y-86920760D01*
X159588831Y-86920760D01*
X159355442Y-87017433D01*
X159176813Y-87196061D01*
X159164594Y-87225560D01*
X159027200Y-87225560D01*
X159027200Y-86657400D01*
X159027069Y-86656744D01*
X159027198Y-86656090D01*
X159013350Y-86587500D01*
X159137181Y-86587500D01*
X159247679Y-86541729D01*
X159379595Y-86673876D01*
X159664227Y-86792065D01*
X159947167Y-86792311D01*
X160042800Y-86887958D01*
X160042800Y-86976640D01*
X159939930Y-87079510D01*
X159939930Y-88079000D01*
X160012000Y-88079000D01*
X160012000Y-88333000D01*
X159939930Y-88333000D01*
X159939930Y-89332490D01*
X160098680Y-89491240D01*
X160141169Y-89491240D01*
X160374558Y-89394567D01*
X160512700Y-89256425D01*
X160650842Y-89394567D01*
X160884231Y-89491240D01*
X160926720Y-89491240D01*
X161085470Y-89332490D01*
X161085470Y-88333000D01*
X161013400Y-88333000D01*
X161013400Y-88079000D01*
X161085470Y-88079000D01*
X161085470Y-88059000D01*
X161235330Y-88059000D01*
X161235330Y-88079000D01*
X161307400Y-88079000D01*
X161307400Y-88333000D01*
X161235330Y-88333000D01*
X161235330Y-89332490D01*
X161394080Y-89491240D01*
X161436569Y-89491240D01*
X161669958Y-89394567D01*
X161848587Y-89215939D01*
X161860805Y-89186440D01*
X161998800Y-89186440D01*
X161998800Y-89389762D01*
X161998800Y-89389762D01*
G37*
X161998800Y-89389762D02*
X161803741Y-89470359D01*
X161585624Y-89688095D01*
X161467435Y-89972727D01*
X161467286Y-90142500D01*
X157860652Y-90142500D01*
X157846412Y-90128336D01*
X157772507Y-90079243D01*
X157698963Y-90030102D01*
X157698345Y-90029979D01*
X157697818Y-90029629D01*
X157610857Y-90012576D01*
X157588948Y-90008219D01*
X157550310Y-89914937D01*
X157457423Y-89822050D01*
X157336061Y-89771780D01*
X157204699Y-89771780D01*
X156203939Y-89771780D01*
X156082577Y-89822050D01*
X155989690Y-89914937D01*
X155939420Y-90036299D01*
X155939420Y-90167661D01*
X155939420Y-90295463D01*
X155663200Y-90019161D01*
X155663200Y-89420207D01*
X155807742Y-89564721D01*
X155884957Y-89616303D01*
X155956037Y-89663798D01*
X155956059Y-89663802D01*
X155956078Y-89663815D01*
X156038412Y-89680183D01*
X156131000Y-89698600D01*
X159150000Y-89698600D01*
X159236907Y-89681313D01*
X159323807Y-89664275D01*
X159324337Y-89663922D01*
X159324963Y-89663798D01*
X159398581Y-89614607D01*
X159472404Y-89565572D01*
X159527404Y-89510872D01*
X159527759Y-89510342D01*
X159528289Y-89509989D01*
X159551225Y-89475663D01*
X159588831Y-89491240D01*
X159631320Y-89491240D01*
X159790070Y-89332490D01*
X159790070Y-88333000D01*
X159718000Y-88333000D01*
X159718000Y-88079000D01*
X159790070Y-88079000D01*
X159790070Y-87079510D01*
X159631320Y-86920760D01*
X159588831Y-86920760D01*
X159355442Y-87017433D01*
X159176813Y-87196061D01*
X159164594Y-87225560D01*
X159027200Y-87225560D01*
X159027200Y-86657400D01*
X159027069Y-86656744D01*
X159027198Y-86656090D01*
X159013350Y-86587500D01*
X159137181Y-86587500D01*
X159247679Y-86541729D01*
X159379595Y-86673876D01*
X159664227Y-86792065D01*
X159947167Y-86792311D01*
X160042800Y-86887958D01*
X160042800Y-86976640D01*
X159939930Y-87079510D01*
X159939930Y-88079000D01*
X160012000Y-88079000D01*
X160012000Y-88333000D01*
X159939930Y-88333000D01*
X159939930Y-89332490D01*
X160098680Y-89491240D01*
X160141169Y-89491240D01*
X160374558Y-89394567D01*
X160512700Y-89256425D01*
X160650842Y-89394567D01*
X160884231Y-89491240D01*
X160926720Y-89491240D01*
X161085470Y-89332490D01*
X161085470Y-88333000D01*
X161013400Y-88333000D01*
X161013400Y-88079000D01*
X161085470Y-88079000D01*
X161085470Y-88059000D01*
X161235330Y-88059000D01*
X161235330Y-88079000D01*
X161307400Y-88079000D01*
X161307400Y-88333000D01*
X161235330Y-88333000D01*
X161235330Y-89332490D01*
X161394080Y-89491240D01*
X161436569Y-89491240D01*
X161669958Y-89394567D01*
X161848587Y-89215939D01*
X161860805Y-89186440D01*
X161998800Y-89186440D01*
X161998800Y-89389762D01*
G36*
X171119800Y-96115000D02*
X170755750Y-96115000D01*
X170597000Y-96273750D01*
X170597000Y-97873000D01*
X170617000Y-97873000D01*
X170617000Y-98127000D01*
X170597000Y-98127000D01*
X170597000Y-98147000D01*
X170343000Y-98147000D01*
X170343000Y-98127000D01*
X170343000Y-97873000D01*
X170343000Y-96273750D01*
X170184250Y-96115000D01*
X169668691Y-96115000D01*
X169435302Y-96211673D01*
X169256673Y-96390301D01*
X169160000Y-96623690D01*
X169160000Y-96876309D01*
X169160000Y-97714250D01*
X169318750Y-97873000D01*
X170343000Y-97873000D01*
X170343000Y-98127000D01*
X169318750Y-98127000D01*
X169160000Y-98285750D01*
X169160000Y-99119800D01*
X168935200Y-99119800D01*
X168935200Y-96684319D01*
X168884930Y-96562957D01*
X168792043Y-96470070D01*
X168706500Y-96434636D01*
X168706500Y-95883609D01*
X168706500Y-95636650D01*
X168547750Y-95477900D01*
X167627000Y-95477900D01*
X167627000Y-96233550D01*
X167785750Y-96392300D01*
X167945191Y-96392300D01*
X168197810Y-96392300D01*
X168431199Y-96295627D01*
X168609827Y-96116998D01*
X168706500Y-95883609D01*
X168706500Y-96434636D01*
X168670681Y-96419800D01*
X168539319Y-96419800D01*
X167189319Y-96419800D01*
X167067957Y-96470070D01*
X166975070Y-96562957D01*
X166924800Y-96684319D01*
X166924800Y-96815681D01*
X166924800Y-99119800D01*
X166395200Y-99119800D01*
X166395200Y-96684319D01*
X166344930Y-96562957D01*
X166252043Y-96470070D01*
X166130681Y-96419800D01*
X165999319Y-96419800D01*
X165935260Y-96419800D01*
X165957199Y-96309500D01*
X165957200Y-96309500D01*
X165957200Y-96087500D01*
X166137181Y-96087500D01*
X166258543Y-96037230D01*
X166328255Y-95967517D01*
X166390173Y-96116998D01*
X166568801Y-96295627D01*
X166802190Y-96392300D01*
X167054809Y-96392300D01*
X167214250Y-96392300D01*
X167373000Y-96233550D01*
X167373000Y-95477900D01*
X167353000Y-95477900D01*
X167353000Y-95223900D01*
X167373000Y-95223900D01*
X167373000Y-95203900D01*
X167627000Y-95203900D01*
X167627000Y-95223900D01*
X168547750Y-95223900D01*
X168706500Y-95065150D01*
X168706500Y-94818191D01*
X168633802Y-94642682D01*
X168738289Y-94537889D01*
X168738761Y-94537417D01*
X168788104Y-94463335D01*
X168837398Y-94389563D01*
X168837464Y-94389229D01*
X168837653Y-94388946D01*
X168854834Y-94301900D01*
X168872200Y-94214600D01*
X168872200Y-93109229D01*
X168872200Y-93109200D01*
X168854894Y-93022197D01*
X168837409Y-92934263D01*
X168837400Y-92934250D01*
X168837398Y-92934237D01*
X168788862Y-92861599D01*
X168738309Y-92785931D01*
X168738289Y-92785911D01*
X167130309Y-91177731D01*
X167130297Y-91177722D01*
X167130289Y-91177711D01*
X167054646Y-91127167D01*
X166981989Y-91078613D01*
X166981975Y-91078610D01*
X166981963Y-91078602D01*
X166892521Y-91060811D01*
X166807028Y-91043800D01*
X166807013Y-91043802D01*
X166807000Y-91043800D01*
X166739415Y-91043800D01*
X166846289Y-90972389D01*
X166922989Y-90895688D01*
X167204421Y-90895934D01*
X167489259Y-90778241D01*
X167707376Y-90560505D01*
X167825565Y-90275873D01*
X167825834Y-89967679D01*
X167708141Y-89682841D01*
X167490405Y-89464724D01*
X167313468Y-89391253D01*
X168122238Y-88582740D01*
X168122258Y-88582709D01*
X168122289Y-88582689D01*
X168170596Y-88510392D01*
X168221371Y-88434430D01*
X168221378Y-88434392D01*
X168221398Y-88434363D01*
X168238382Y-88348977D01*
X168256200Y-88259472D01*
X168256192Y-88259435D01*
X168256200Y-88259400D01*
X168256200Y-85622677D01*
X168256200Y-85622600D01*
X168239017Y-85536215D01*
X168221428Y-85447709D01*
X168221405Y-85447675D01*
X168221398Y-85447637D01*
X168172077Y-85373824D01*
X168122344Y-85299366D01*
X168122289Y-85299311D01*
X166649344Y-83825866D01*
X166649311Y-83825843D01*
X166649289Y-83825811D01*
X166574902Y-83776107D01*
X166501035Y-83726732D01*
X166500996Y-83726724D01*
X166500963Y-83726702D01*
X166413098Y-83709224D01*
X166401700Y-83706955D01*
X166401700Y-83677019D01*
X166351430Y-83555657D01*
X166258543Y-83462770D01*
X166137181Y-83412500D01*
X166005819Y-83412500D01*
X164862819Y-83412500D01*
X164741457Y-83462770D01*
X164648570Y-83555657D01*
X164598300Y-83677019D01*
X164598300Y-83808381D01*
X164598300Y-84621181D01*
X164648570Y-84742543D01*
X164741457Y-84835430D01*
X164862819Y-84885700D01*
X164994181Y-84885700D01*
X166137181Y-84885700D01*
X166258543Y-84835430D01*
X166312094Y-84781878D01*
X167341800Y-85811932D01*
X167341800Y-88069978D01*
X166401700Y-89009781D01*
X166401700Y-88628819D01*
X166351430Y-88507457D01*
X166258543Y-88414570D01*
X166137181Y-88364300D01*
X166005819Y-88364300D01*
X164862819Y-88364300D01*
X164741457Y-88414570D01*
X164648570Y-88507457D01*
X164598300Y-88628819D01*
X164598300Y-88643700D01*
X164598000Y-88643700D01*
X164596580Y-88643982D01*
X164595160Y-88643709D01*
X164509176Y-88661367D01*
X164423037Y-88678502D01*
X164421833Y-88679306D01*
X164420417Y-88679597D01*
X164413619Y-88684200D01*
X162935860Y-88684200D01*
X162935860Y-87490079D01*
X162885590Y-87368717D01*
X162792703Y-87275830D01*
X162671341Y-87225560D01*
X162539979Y-87225560D01*
X162454583Y-87225560D01*
X162484268Y-87195900D01*
X164484743Y-87195900D01*
X164598300Y-87309353D01*
X164598300Y-87871181D01*
X164648570Y-87992543D01*
X164741457Y-88085430D01*
X164862819Y-88135700D01*
X164994181Y-88135700D01*
X166137181Y-88135700D01*
X166258543Y-88085430D01*
X166351430Y-87992543D01*
X166401700Y-87871181D01*
X166401700Y-87739819D01*
X166401700Y-86927019D01*
X166351430Y-86805657D01*
X166258543Y-86712770D01*
X166137181Y-86662500D01*
X166005819Y-86662500D01*
X165244602Y-86662500D01*
X165169534Y-86587500D01*
X166137181Y-86587500D01*
X166258543Y-86537230D01*
X166351430Y-86444343D01*
X166401700Y-86322981D01*
X166401700Y-86191619D01*
X166401700Y-85378819D01*
X166351430Y-85257457D01*
X166258543Y-85164570D01*
X166137181Y-85114300D01*
X166005819Y-85114300D01*
X164862819Y-85114300D01*
X164741457Y-85164570D01*
X164650037Y-85255989D01*
X164553509Y-85159330D01*
X164553375Y-85159240D01*
X164553289Y-85159111D01*
X164479773Y-85109989D01*
X164405250Y-85060121D01*
X164405094Y-85060089D01*
X164404963Y-85060002D01*
X164317602Y-85042625D01*
X164230310Y-85025200D01*
X164230154Y-85025230D01*
X164230000Y-85025200D01*
X162000000Y-85025200D01*
X161834378Y-85025200D01*
X161694878Y-84885700D01*
X162637181Y-84885700D01*
X162758543Y-84835430D01*
X162851430Y-84742543D01*
X162901700Y-84621181D01*
X162901700Y-84606300D01*
X162902000Y-84606300D01*
X163076963Y-84571498D01*
X163106831Y-84551540D01*
X163111227Y-84553365D01*
X163419421Y-84553634D01*
X163704259Y-84435941D01*
X163922376Y-84218205D01*
X164040565Y-83933573D01*
X164040834Y-83625379D01*
X163923141Y-83340541D01*
X163705405Y-83122424D01*
X163420773Y-83004235D01*
X163112579Y-83003966D01*
X162827741Y-83121659D01*
X162609624Y-83339395D01*
X162579268Y-83412500D01*
X162505819Y-83412500D01*
X162457200Y-83412500D01*
X162457200Y-83412246D01*
X162457200Y-83412200D01*
X162440266Y-83327070D01*
X162422416Y-83237279D01*
X162422402Y-83237258D01*
X162422398Y-83237237D01*
X162376421Y-83168428D01*
X162323322Y-83088943D01*
X161822321Y-82587843D01*
X161822301Y-82587830D01*
X161822289Y-82587811D01*
X161749687Y-82539299D01*
X161674005Y-82488719D01*
X161673981Y-82488714D01*
X161673963Y-82488702D01*
X161589003Y-82471802D01*
X161499046Y-82453900D01*
X161499022Y-82453904D01*
X161499000Y-82453900D01*
X151793000Y-82453900D01*
X151704326Y-82471538D01*
X151618128Y-82488664D01*
X151618085Y-82488692D01*
X151618037Y-82488702D01*
X151545686Y-82537045D01*
X151469780Y-82587741D01*
X150774781Y-83282441D01*
X150774752Y-83282482D01*
X150774711Y-83282511D01*
X150724755Y-83357274D01*
X150675640Y-83430746D01*
X150675630Y-83430794D01*
X150675602Y-83430837D01*
X150658128Y-83518680D01*
X150640800Y-83605701D01*
X150640809Y-83605750D01*
X150640800Y-83605800D01*
X150640800Y-84745576D01*
X150640800Y-84745700D01*
X150658016Y-84832253D01*
X150675554Y-84920548D01*
X150675589Y-84920601D01*
X150675602Y-84920663D01*
X150724782Y-84994266D01*
X150774623Y-85068901D01*
X150774711Y-85068989D01*
X151098300Y-85392753D01*
X151098300Y-85393700D01*
X149320373Y-85393700D01*
X146753289Y-82826711D01*
X146753283Y-82826705D01*
X146685183Y-82781203D01*
X146604963Y-82727602D01*
X146604958Y-82727601D01*
X146604955Y-82727599D01*
X146522797Y-82711258D01*
X146430200Y-82692839D01*
X146430200Y-82459319D01*
X146379930Y-82337957D01*
X146287043Y-82245070D01*
X146165681Y-82194800D01*
X146034319Y-82194800D01*
X144834319Y-82194800D01*
X144712957Y-82245070D01*
X144620070Y-82337957D01*
X144569800Y-82459319D01*
X144569800Y-82590681D01*
X144569800Y-83840681D01*
X144620070Y-83962043D01*
X144712957Y-84054930D01*
X144834319Y-84105200D01*
X144965681Y-84105200D01*
X146165681Y-84105200D01*
X146287043Y-84054930D01*
X146379930Y-83962043D01*
X146430200Y-83840681D01*
X146430200Y-83796766D01*
X148807711Y-86174189D01*
X148807717Y-86174195D01*
X148875816Y-86219696D01*
X148956037Y-86273298D01*
X148956041Y-86273298D01*
X148956045Y-86273301D01*
X149038202Y-86289641D01*
X149131000Y-86308100D01*
X149131008Y-86308100D01*
X151098300Y-86308100D01*
X151098300Y-86322981D01*
X151148570Y-86444343D01*
X151241457Y-86537230D01*
X151362819Y-86587500D01*
X151494181Y-86587500D01*
X152452800Y-86587500D01*
X152452800Y-88369860D01*
X152443037Y-88371802D01*
X152294711Y-88470911D01*
X151676711Y-89088911D01*
X151577602Y-89237237D01*
X151542800Y-89412200D01*
X151542800Y-89412500D01*
X151362819Y-89412500D01*
X151241457Y-89462770D01*
X151148570Y-89555657D01*
X151098300Y-89677019D01*
X151098300Y-89691900D01*
X150901700Y-89691900D01*
X150901700Y-89677019D01*
X150851430Y-89555657D01*
X150758543Y-89462770D01*
X150637181Y-89412500D01*
X150505819Y-89412500D01*
X149362819Y-89412500D01*
X149241457Y-89462770D01*
X149148570Y-89555657D01*
X149113178Y-89641100D01*
X149072900Y-89641100D01*
X148878497Y-89679769D01*
X148713690Y-89789890D01*
X147785000Y-90718580D01*
X147785000Y-87601310D01*
X147785000Y-87348691D01*
X147785000Y-87135750D01*
X147785000Y-86564250D01*
X147785000Y-86351309D01*
X147785000Y-86098690D01*
X147688327Y-85865301D01*
X147509698Y-85686673D01*
X147276309Y-85590000D01*
X146935750Y-85590000D01*
X146777000Y-85748750D01*
X146777000Y-86723000D01*
X147626250Y-86723000D01*
X147785000Y-86564250D01*
X147785000Y-87135750D01*
X147626250Y-86977000D01*
X146777000Y-86977000D01*
X146777000Y-87951250D01*
X146935750Y-88110000D01*
X147276309Y-88110000D01*
X147509698Y-88013327D01*
X147688327Y-87834699D01*
X147785000Y-87601310D01*
X147785000Y-90718580D01*
X147250790Y-91252790D01*
X147140669Y-91417597D01*
X147102000Y-91612000D01*
X147102000Y-96394400D01*
X147102000Y-96419800D01*
X146869319Y-96419800D01*
X146747957Y-96470070D01*
X146655070Y-96562957D01*
X146604800Y-96684319D01*
X146604800Y-96815681D01*
X146604800Y-99119800D01*
X146523000Y-99119800D01*
X146523000Y-87951250D01*
X146523000Y-86977000D01*
X146523000Y-86723000D01*
X146523000Y-85748750D01*
X146364250Y-85590000D01*
X146023691Y-85590000D01*
X145790302Y-85686673D01*
X145611673Y-85865301D01*
X145515000Y-86098690D01*
X145515000Y-86351309D01*
X145515000Y-86564250D01*
X145673750Y-86723000D01*
X146523000Y-86723000D01*
X146523000Y-86977000D01*
X145673750Y-86977000D01*
X145515000Y-87135750D01*
X145515000Y-87348691D01*
X145515000Y-87601310D01*
X145611673Y-87834699D01*
X145790302Y-88013327D01*
X146023691Y-88110000D01*
X146364250Y-88110000D01*
X146523000Y-87951250D01*
X146523000Y-99119800D01*
X146075200Y-99119800D01*
X146075200Y-96684319D01*
X146024930Y-96562957D01*
X145932043Y-96470070D01*
X145810681Y-96419800D01*
X145679319Y-96419800D01*
X145578000Y-96419800D01*
X145578000Y-96182900D01*
X145539331Y-95988497D01*
X145429210Y-95823690D01*
X145176665Y-95571145D01*
X145258543Y-95537230D01*
X145351430Y-95444343D01*
X145401700Y-95322981D01*
X145401700Y-95191619D01*
X145401700Y-94378819D01*
X145351430Y-94257457D01*
X145259089Y-94165116D01*
X145431199Y-94093827D01*
X145609827Y-93915198D01*
X145706500Y-93681809D01*
X145706500Y-93434850D01*
X145706500Y-92863350D01*
X145706500Y-92616391D01*
X145609827Y-92383002D01*
X145431199Y-92204373D01*
X145197810Y-92107700D01*
X144945191Y-92107700D01*
X144785750Y-92107700D01*
X144627000Y-92266450D01*
X144627000Y-93022100D01*
X145547750Y-93022100D01*
X145706500Y-92863350D01*
X145706500Y-93434850D01*
X145547750Y-93276100D01*
X144627000Y-93276100D01*
X144627000Y-93296100D01*
X144373000Y-93296100D01*
X144373000Y-93276100D01*
X144353000Y-93276100D01*
X144353000Y-93022100D01*
X144373000Y-93022100D01*
X144373000Y-92266450D01*
X144214250Y-92107700D01*
X144054809Y-92107700D01*
X143802190Y-92107700D01*
X143758000Y-92126004D01*
X143758000Y-87794298D01*
X143784319Y-87805200D01*
X143915681Y-87805200D01*
X144915681Y-87805200D01*
X145037043Y-87754930D01*
X145129930Y-87662043D01*
X145180200Y-87540681D01*
X145180200Y-87409319D01*
X145180200Y-86159319D01*
X145129930Y-86037957D01*
X145037043Y-85945070D01*
X144915681Y-85894800D01*
X144784319Y-85894800D01*
X143784319Y-85894800D01*
X143662957Y-85945070D01*
X143570070Y-86037957D01*
X143519800Y-86159319D01*
X143519800Y-86290681D01*
X143519800Y-86342000D01*
X143494400Y-86342000D01*
X143299997Y-86380669D01*
X143135190Y-86490790D01*
X142890790Y-86735190D01*
X142780669Y-86899997D01*
X142742000Y-87094400D01*
X142742000Y-94528000D01*
X142780669Y-94722403D01*
X142890790Y-94887210D01*
X143213690Y-95210111D01*
X143378497Y-95320231D01*
X143572900Y-95358900D01*
X143613178Y-95358900D01*
X143648570Y-95444343D01*
X143741457Y-95537230D01*
X143862819Y-95587500D01*
X143992000Y-95587500D01*
X143992000Y-95612900D01*
X144030669Y-95807303D01*
X144140790Y-95972110D01*
X144562000Y-96393320D01*
X144562000Y-96419800D01*
X144329319Y-96419800D01*
X144207957Y-96470070D01*
X144115070Y-96562957D01*
X144064800Y-96684319D01*
X144064800Y-96815681D01*
X144064800Y-99119800D01*
X143840000Y-99119800D01*
X143840000Y-98285750D01*
X143840000Y-97714250D01*
X143840000Y-96876309D01*
X143840000Y-96623690D01*
X143743327Y-96390301D01*
X143564698Y-96211673D01*
X143331309Y-96115000D01*
X142815750Y-96115000D01*
X142657000Y-96273750D01*
X142657000Y-97873000D01*
X143681250Y-97873000D01*
X143840000Y-97714250D01*
X143840000Y-98285750D01*
X143681250Y-98127000D01*
X142657000Y-98127000D01*
X142657000Y-98147000D01*
X142403000Y-98147000D01*
X142403000Y-98127000D01*
X142383000Y-98127000D01*
X142383000Y-97873000D01*
X142403000Y-97873000D01*
X142403000Y-96273750D01*
X142244250Y-96115000D01*
X141880200Y-96115000D01*
X141880200Y-81880200D01*
X171119800Y-81880200D01*
X171119800Y-96115000D01*
X171119800Y-96115000D01*
G37*
X171119800Y-96115000D02*
X170755750Y-96115000D01*
X170597000Y-96273750D01*
X170597000Y-97873000D01*
X170617000Y-97873000D01*
X170617000Y-98127000D01*
X170597000Y-98127000D01*
X170597000Y-98147000D01*
X170343000Y-98147000D01*
X170343000Y-98127000D01*
X170343000Y-97873000D01*
X170343000Y-96273750D01*
X170184250Y-96115000D01*
X169668691Y-96115000D01*
X169435302Y-96211673D01*
X169256673Y-96390301D01*
X169160000Y-96623690D01*
X169160000Y-96876309D01*
X169160000Y-97714250D01*
X169318750Y-97873000D01*
X170343000Y-97873000D01*
X170343000Y-98127000D01*
X169318750Y-98127000D01*
X169160000Y-98285750D01*
X169160000Y-99119800D01*
X168935200Y-99119800D01*
X168935200Y-96684319D01*
X168884930Y-96562957D01*
X168792043Y-96470070D01*
X168706500Y-96434636D01*
X168706500Y-95883609D01*
X168706500Y-95636650D01*
X168547750Y-95477900D01*
X167627000Y-95477900D01*
X167627000Y-96233550D01*
X167785750Y-96392300D01*
X167945191Y-96392300D01*
X168197810Y-96392300D01*
X168431199Y-96295627D01*
X168609827Y-96116998D01*
X168706500Y-95883609D01*
X168706500Y-96434636D01*
X168670681Y-96419800D01*
X168539319Y-96419800D01*
X167189319Y-96419800D01*
X167067957Y-96470070D01*
X166975070Y-96562957D01*
X166924800Y-96684319D01*
X166924800Y-96815681D01*
X166924800Y-99119800D01*
X166395200Y-99119800D01*
X166395200Y-96684319D01*
X166344930Y-96562957D01*
X166252043Y-96470070D01*
X166130681Y-96419800D01*
X165999319Y-96419800D01*
X165935260Y-96419800D01*
X165957199Y-96309500D01*
X165957200Y-96309500D01*
X165957200Y-96087500D01*
X166137181Y-96087500D01*
X166258543Y-96037230D01*
X166328255Y-95967517D01*
X166390173Y-96116998D01*
X166568801Y-96295627D01*
X166802190Y-96392300D01*
X167054809Y-96392300D01*
X167214250Y-96392300D01*
X167373000Y-96233550D01*
X167373000Y-95477900D01*
X167353000Y-95477900D01*
X167353000Y-95223900D01*
X167373000Y-95223900D01*
X167373000Y-95203900D01*
X167627000Y-95203900D01*
X167627000Y-95223900D01*
X168547750Y-95223900D01*
X168706500Y-95065150D01*
X168706500Y-94818191D01*
X168633802Y-94642682D01*
X168738289Y-94537889D01*
X168738761Y-94537417D01*
X168788104Y-94463335D01*
X168837398Y-94389563D01*
X168837464Y-94389229D01*
X168837653Y-94388946D01*
X168854834Y-94301900D01*
X168872200Y-94214600D01*
X168872200Y-93109229D01*
X168872200Y-93109200D01*
X168854894Y-93022197D01*
X168837409Y-92934263D01*
X168837400Y-92934250D01*
X168837398Y-92934237D01*
X168788862Y-92861599D01*
X168738309Y-92785931D01*
X168738289Y-92785911D01*
X167130309Y-91177731D01*
X167130297Y-91177722D01*
X167130289Y-91177711D01*
X167054646Y-91127167D01*
X166981989Y-91078613D01*
X166981975Y-91078610D01*
X166981963Y-91078602D01*
X166892521Y-91060811D01*
X166807028Y-91043800D01*
X166807013Y-91043802D01*
X166807000Y-91043800D01*
X166739415Y-91043800D01*
X166846289Y-90972389D01*
X166922989Y-90895688D01*
X167204421Y-90895934D01*
X167489259Y-90778241D01*
X167707376Y-90560505D01*
X167825565Y-90275873D01*
X167825834Y-89967679D01*
X167708141Y-89682841D01*
X167490405Y-89464724D01*
X167313468Y-89391253D01*
X168122238Y-88582740D01*
X168122258Y-88582709D01*
X168122289Y-88582689D01*
X168170596Y-88510392D01*
X168221371Y-88434430D01*
X168221378Y-88434392D01*
X168221398Y-88434363D01*
X168238382Y-88348977D01*
X168256200Y-88259472D01*
X168256192Y-88259435D01*
X168256200Y-88259400D01*
X168256200Y-85622677D01*
X168256200Y-85622600D01*
X168239017Y-85536215D01*
X168221428Y-85447709D01*
X168221405Y-85447675D01*
X168221398Y-85447637D01*
X168172077Y-85373824D01*
X168122344Y-85299366D01*
X168122289Y-85299311D01*
X166649344Y-83825866D01*
X166649311Y-83825843D01*
X166649289Y-83825811D01*
X166574902Y-83776107D01*
X166501035Y-83726732D01*
X166500996Y-83726724D01*
X166500963Y-83726702D01*
X166413098Y-83709224D01*
X166401700Y-83706955D01*
X166401700Y-83677019D01*
X166351430Y-83555657D01*
X166258543Y-83462770D01*
X166137181Y-83412500D01*
X166005819Y-83412500D01*
X164862819Y-83412500D01*
X164741457Y-83462770D01*
X164648570Y-83555657D01*
X164598300Y-83677019D01*
X164598300Y-83808381D01*
X164598300Y-84621181D01*
X164648570Y-84742543D01*
X164741457Y-84835430D01*
X164862819Y-84885700D01*
X164994181Y-84885700D01*
X166137181Y-84885700D01*
X166258543Y-84835430D01*
X166312094Y-84781878D01*
X167341800Y-85811932D01*
X167341800Y-88069978D01*
X166401700Y-89009781D01*
X166401700Y-88628819D01*
X166351430Y-88507457D01*
X166258543Y-88414570D01*
X166137181Y-88364300D01*
X166005819Y-88364300D01*
X164862819Y-88364300D01*
X164741457Y-88414570D01*
X164648570Y-88507457D01*
X164598300Y-88628819D01*
X164598300Y-88643700D01*
X164598000Y-88643700D01*
X164596580Y-88643982D01*
X164595160Y-88643709D01*
X164509176Y-88661367D01*
X164423037Y-88678502D01*
X164421833Y-88679306D01*
X164420417Y-88679597D01*
X164413619Y-88684200D01*
X162935860Y-88684200D01*
X162935860Y-87490079D01*
X162885590Y-87368717D01*
X162792703Y-87275830D01*
X162671341Y-87225560D01*
X162539979Y-87225560D01*
X162454583Y-87225560D01*
X162484268Y-87195900D01*
X164484743Y-87195900D01*
X164598300Y-87309353D01*
X164598300Y-87871181D01*
X164648570Y-87992543D01*
X164741457Y-88085430D01*
X164862819Y-88135700D01*
X164994181Y-88135700D01*
X166137181Y-88135700D01*
X166258543Y-88085430D01*
X166351430Y-87992543D01*
X166401700Y-87871181D01*
X166401700Y-87739819D01*
X166401700Y-86927019D01*
X166351430Y-86805657D01*
X166258543Y-86712770D01*
X166137181Y-86662500D01*
X166005819Y-86662500D01*
X165244602Y-86662500D01*
X165169534Y-86587500D01*
X166137181Y-86587500D01*
X166258543Y-86537230D01*
X166351430Y-86444343D01*
X166401700Y-86322981D01*
X166401700Y-86191619D01*
X166401700Y-85378819D01*
X166351430Y-85257457D01*
X166258543Y-85164570D01*
X166137181Y-85114300D01*
X166005819Y-85114300D01*
X164862819Y-85114300D01*
X164741457Y-85164570D01*
X164650037Y-85255989D01*
X164553509Y-85159330D01*
X164553375Y-85159240D01*
X164553289Y-85159111D01*
X164479773Y-85109989D01*
X164405250Y-85060121D01*
X164405094Y-85060089D01*
X164404963Y-85060002D01*
X164317602Y-85042625D01*
X164230310Y-85025200D01*
X164230154Y-85025230D01*
X164230000Y-85025200D01*
X162000000Y-85025200D01*
X161834378Y-85025200D01*
X161694878Y-84885700D01*
X162637181Y-84885700D01*
X162758543Y-84835430D01*
X162851430Y-84742543D01*
X162901700Y-84621181D01*
X162901700Y-84606300D01*
X162902000Y-84606300D01*
X163076963Y-84571498D01*
X163106831Y-84551540D01*
X163111227Y-84553365D01*
X163419421Y-84553634D01*
X163704259Y-84435941D01*
X163922376Y-84218205D01*
X164040565Y-83933573D01*
X164040834Y-83625379D01*
X163923141Y-83340541D01*
X163705405Y-83122424D01*
X163420773Y-83004235D01*
X163112579Y-83003966D01*
X162827741Y-83121659D01*
X162609624Y-83339395D01*
X162579268Y-83412500D01*
X162505819Y-83412500D01*
X162457200Y-83412500D01*
X162457200Y-83412246D01*
X162457200Y-83412200D01*
X162440266Y-83327070D01*
X162422416Y-83237279D01*
X162422402Y-83237258D01*
X162422398Y-83237237D01*
X162376421Y-83168428D01*
X162323322Y-83088943D01*
X161822321Y-82587843D01*
X161822301Y-82587830D01*
X161822289Y-82587811D01*
X161749687Y-82539299D01*
X161674005Y-82488719D01*
X161673981Y-82488714D01*
X161673963Y-82488702D01*
X161589003Y-82471802D01*
X161499046Y-82453900D01*
X161499022Y-82453904D01*
X161499000Y-82453900D01*
X151793000Y-82453900D01*
X151704326Y-82471538D01*
X151618128Y-82488664D01*
X151618085Y-82488692D01*
X151618037Y-82488702D01*
X151545686Y-82537045D01*
X151469780Y-82587741D01*
X150774781Y-83282441D01*
X150774752Y-83282482D01*
X150774711Y-83282511D01*
X150724755Y-83357274D01*
X150675640Y-83430746D01*
X150675630Y-83430794D01*
X150675602Y-83430837D01*
X150658128Y-83518680D01*
X150640800Y-83605701D01*
X150640809Y-83605750D01*
X150640800Y-83605800D01*
X150640800Y-84745576D01*
X150640800Y-84745700D01*
X150658016Y-84832253D01*
X150675554Y-84920548D01*
X150675589Y-84920601D01*
X150675602Y-84920663D01*
X150724782Y-84994266D01*
X150774623Y-85068901D01*
X150774711Y-85068989D01*
X151098300Y-85392753D01*
X151098300Y-85393700D01*
X149320373Y-85393700D01*
X146753289Y-82826711D01*
X146753283Y-82826705D01*
X146685183Y-82781203D01*
X146604963Y-82727602D01*
X146604958Y-82727601D01*
X146604955Y-82727599D01*
X146522797Y-82711258D01*
X146430200Y-82692839D01*
X146430200Y-82459319D01*
X146379930Y-82337957D01*
X146287043Y-82245070D01*
X146165681Y-82194800D01*
X146034319Y-82194800D01*
X144834319Y-82194800D01*
X144712957Y-82245070D01*
X144620070Y-82337957D01*
X144569800Y-82459319D01*
X144569800Y-82590681D01*
X144569800Y-83840681D01*
X144620070Y-83962043D01*
X144712957Y-84054930D01*
X144834319Y-84105200D01*
X144965681Y-84105200D01*
X146165681Y-84105200D01*
X146287043Y-84054930D01*
X146379930Y-83962043D01*
X146430200Y-83840681D01*
X146430200Y-83796766D01*
X148807711Y-86174189D01*
X148807717Y-86174195D01*
X148875816Y-86219696D01*
X148956037Y-86273298D01*
X148956041Y-86273298D01*
X148956045Y-86273301D01*
X149038202Y-86289641D01*
X149131000Y-86308100D01*
X149131008Y-86308100D01*
X151098300Y-86308100D01*
X151098300Y-86322981D01*
X151148570Y-86444343D01*
X151241457Y-86537230D01*
X151362819Y-86587500D01*
X151494181Y-86587500D01*
X152452800Y-86587500D01*
X152452800Y-88369860D01*
X152443037Y-88371802D01*
X152294711Y-88470911D01*
X151676711Y-89088911D01*
X151577602Y-89237237D01*
X151542800Y-89412200D01*
X151542800Y-89412500D01*
X151362819Y-89412500D01*
X151241457Y-89462770D01*
X151148570Y-89555657D01*
X151098300Y-89677019D01*
X151098300Y-89691900D01*
X150901700Y-89691900D01*
X150901700Y-89677019D01*
X150851430Y-89555657D01*
X150758543Y-89462770D01*
X150637181Y-89412500D01*
X150505819Y-89412500D01*
X149362819Y-89412500D01*
X149241457Y-89462770D01*
X149148570Y-89555657D01*
X149113178Y-89641100D01*
X149072900Y-89641100D01*
X148878497Y-89679769D01*
X148713690Y-89789890D01*
X147785000Y-90718580D01*
X147785000Y-87601310D01*
X147785000Y-87348691D01*
X147785000Y-87135750D01*
X147785000Y-86564250D01*
X147785000Y-86351309D01*
X147785000Y-86098690D01*
X147688327Y-85865301D01*
X147509698Y-85686673D01*
X147276309Y-85590000D01*
X146935750Y-85590000D01*
X146777000Y-85748750D01*
X146777000Y-86723000D01*
X147626250Y-86723000D01*
X147785000Y-86564250D01*
X147785000Y-87135750D01*
X147626250Y-86977000D01*
X146777000Y-86977000D01*
X146777000Y-87951250D01*
X146935750Y-88110000D01*
X147276309Y-88110000D01*
X147509698Y-88013327D01*
X147688327Y-87834699D01*
X147785000Y-87601310D01*
X147785000Y-90718580D01*
X147250790Y-91252790D01*
X147140669Y-91417597D01*
X147102000Y-91612000D01*
X147102000Y-96394400D01*
X147102000Y-96419800D01*
X146869319Y-96419800D01*
X146747957Y-96470070D01*
X146655070Y-96562957D01*
X146604800Y-96684319D01*
X146604800Y-96815681D01*
X146604800Y-99119800D01*
X146523000Y-99119800D01*
X146523000Y-87951250D01*
X146523000Y-86977000D01*
X146523000Y-86723000D01*
X146523000Y-85748750D01*
X146364250Y-85590000D01*
X146023691Y-85590000D01*
X145790302Y-85686673D01*
X145611673Y-85865301D01*
X145515000Y-86098690D01*
X145515000Y-86351309D01*
X145515000Y-86564250D01*
X145673750Y-86723000D01*
X146523000Y-86723000D01*
X146523000Y-86977000D01*
X145673750Y-86977000D01*
X145515000Y-87135750D01*
X145515000Y-87348691D01*
X145515000Y-87601310D01*
X145611673Y-87834699D01*
X145790302Y-88013327D01*
X146023691Y-88110000D01*
X146364250Y-88110000D01*
X146523000Y-87951250D01*
X146523000Y-99119800D01*
X146075200Y-99119800D01*
X146075200Y-96684319D01*
X146024930Y-96562957D01*
X145932043Y-96470070D01*
X145810681Y-96419800D01*
X145679319Y-96419800D01*
X145578000Y-96419800D01*
X145578000Y-96182900D01*
X145539331Y-95988497D01*
X145429210Y-95823690D01*
X145176665Y-95571145D01*
X145258543Y-95537230D01*
X145351430Y-95444343D01*
X145401700Y-95322981D01*
X145401700Y-95191619D01*
X145401700Y-94378819D01*
X145351430Y-94257457D01*
X145259089Y-94165116D01*
X145431199Y-94093827D01*
X145609827Y-93915198D01*
X145706500Y-93681809D01*
X145706500Y-93434850D01*
X145706500Y-92863350D01*
X145706500Y-92616391D01*
X145609827Y-92383002D01*
X145431199Y-92204373D01*
X145197810Y-92107700D01*
X144945191Y-92107700D01*
X144785750Y-92107700D01*
X144627000Y-92266450D01*
X144627000Y-93022100D01*
X145547750Y-93022100D01*
X145706500Y-92863350D01*
X145706500Y-93434850D01*
X145547750Y-93276100D01*
X144627000Y-93276100D01*
X144627000Y-93296100D01*
X144373000Y-93296100D01*
X144373000Y-93276100D01*
X144353000Y-93276100D01*
X144353000Y-93022100D01*
X144373000Y-93022100D01*
X144373000Y-92266450D01*
X144214250Y-92107700D01*
X144054809Y-92107700D01*
X143802190Y-92107700D01*
X143758000Y-92126004D01*
X143758000Y-87794298D01*
X143784319Y-87805200D01*
X143915681Y-87805200D01*
X144915681Y-87805200D01*
X145037043Y-87754930D01*
X145129930Y-87662043D01*
X145180200Y-87540681D01*
X145180200Y-87409319D01*
X145180200Y-86159319D01*
X145129930Y-86037957D01*
X145037043Y-85945070D01*
X144915681Y-85894800D01*
X144784319Y-85894800D01*
X143784319Y-85894800D01*
X143662957Y-85945070D01*
X143570070Y-86037957D01*
X143519800Y-86159319D01*
X143519800Y-86290681D01*
X143519800Y-86342000D01*
X143494400Y-86342000D01*
X143299997Y-86380669D01*
X143135190Y-86490790D01*
X142890790Y-86735190D01*
X142780669Y-86899997D01*
X142742000Y-87094400D01*
X142742000Y-94528000D01*
X142780669Y-94722403D01*
X142890790Y-94887210D01*
X143213690Y-95210111D01*
X143378497Y-95320231D01*
X143572900Y-95358900D01*
X143613178Y-95358900D01*
X143648570Y-95444343D01*
X143741457Y-95537230D01*
X143862819Y-95587500D01*
X143992000Y-95587500D01*
X143992000Y-95612900D01*
X144030669Y-95807303D01*
X144140790Y-95972110D01*
X144562000Y-96393320D01*
X144562000Y-96419800D01*
X144329319Y-96419800D01*
X144207957Y-96470070D01*
X144115070Y-96562957D01*
X144064800Y-96684319D01*
X144064800Y-96815681D01*
X144064800Y-99119800D01*
X143840000Y-99119800D01*
X143840000Y-98285750D01*
X143840000Y-97714250D01*
X143840000Y-96876309D01*
X143840000Y-96623690D01*
X143743327Y-96390301D01*
X143564698Y-96211673D01*
X143331309Y-96115000D01*
X142815750Y-96115000D01*
X142657000Y-96273750D01*
X142657000Y-97873000D01*
X143681250Y-97873000D01*
X143840000Y-97714250D01*
X143840000Y-98285750D01*
X143681250Y-98127000D01*
X142657000Y-98127000D01*
X142657000Y-98147000D01*
X142403000Y-98147000D01*
X142403000Y-98127000D01*
X142383000Y-98127000D01*
X142383000Y-97873000D01*
X142403000Y-97873000D01*
X142403000Y-96273750D01*
X142244250Y-96115000D01*
X141880200Y-96115000D01*
X141880200Y-81880200D01*
X171119800Y-81880200D01*
X171119800Y-96115000D01*
M02*
