M48
INCH,TZ
T1C0.015
T2C0.020
%
G90
G05
T1
X039684Y-035214
X039688Y-033605
X039688Y-033605
X040354Y-035366
X040610Y-031516
X041638Y-035236
X041669Y-032661
X042319Y-032636
X042453Y-035513
X042610Y-034055
X044331Y-033228
X044336Y-032675
X045408Y-035458
X045917Y-033794
X046311Y-031599
X046377Y-032832
X046831Y-031614
X047933Y-030689
X048698Y-032712
X048942Y-034115
X049111Y-031942
T2
X039988Y-036417
X040988Y-036417
X041988Y-036417
X042988Y-036417
X043988Y-036417
X044988Y-036417
X045988Y-036417
X046988Y-036417
X047988Y-036417
X048988Y-036417
T0
M30
