%FSLAX46Y46*%
G04 Gerber Fmt 4.6, Leading zero omitted, Abs format (unit mm)*
G04 Created by KiCad (PCBNEW (2014-09-02 BZR 5112)-product) date 2014-09-07 2:51:26 PM*
%MOMM*%
G01*
G04 APERTURE LIST*
%ADD10C,0.150000*%
%ADD11R,1.000760X0.701040*%
%ADD12R,1.998980X1.998980*%
%ADD13R,1.300480X1.998980*%
%ADD14R,1.143000X0.812800*%
%ADD15R,1.000000X1.250000*%
%ADD16R,1.200000X1.250000*%
%ADD17R,1.350000X3.500000*%
%ADD18R,0.299720X1.300480*%
G04 APERTURE END LIST*
D10*
D11*
X154230000Y-89500000D03*
X156770000Y-90452500D03*
X156770000Y-88547500D03*
D12*
X145000000Y-82751020D03*
D13*
X146150620Y-86748980D03*
X143849380Y-86748980D03*
D14*
X152000000Y-93149100D03*
X152000000Y-94850900D03*
X150000000Y-93149100D03*
X150000000Y-94850900D03*
X156500000Y-93149100D03*
X156500000Y-94850900D03*
X154500000Y-93149100D03*
X154500000Y-94850900D03*
X144500000Y-94850900D03*
X144500000Y-93149100D03*
X167500000Y-94149100D03*
X167500000Y-95850900D03*
X152000000Y-90149100D03*
X152000000Y-91850900D03*
X165500000Y-87649100D03*
X165500000Y-89350900D03*
X158500000Y-85850900D03*
X158500000Y-84149100D03*
X156000000Y-84149100D03*
X156000000Y-85850900D03*
X153000000Y-84149100D03*
X153000000Y-85850900D03*
X161000000Y-84149100D03*
X161000000Y-85850900D03*
X165500000Y-84149100D03*
X165500000Y-85850900D03*
X165500000Y-94149100D03*
X165500000Y-95850900D03*
X165500000Y-91149100D03*
X165500000Y-92850900D03*
D15*
X148850000Y-86850000D03*
X151150000Y-86850000D03*
D16*
X150000000Y-83150000D03*
D17*
X142530000Y-99500000D03*
X145070000Y-99500000D03*
X147610000Y-99500000D03*
X150150000Y-99500000D03*
X152690000Y-99500000D03*
X155230000Y-99500000D03*
X157770000Y-99500000D03*
X160310000Y-99500000D03*
X162850000Y-99500000D03*
X165390000Y-99500000D03*
X167930000Y-99500000D03*
X170470000Y-99500000D03*
D18*
X158569600Y-88206000D03*
X159204600Y-88206000D03*
X159865000Y-88206000D03*
X160500000Y-88206000D03*
X161160400Y-88206000D03*
X161808100Y-88206000D03*
X162455800Y-88206000D03*
X162455800Y-93794000D03*
X161808100Y-93794000D03*
X161160400Y-93794000D03*
X160500000Y-93794000D03*
X159852300Y-93794000D03*
X159204600Y-93794000D03*
X158556900Y-93794000D03*
M02*
