%FSLAX46Y46*%
G04 Gerber Fmt 4.6, Leading zero omitted, Abs format (unit mm)*
G04 Created by KiCad (PCBNEW (2014-09-02 BZR 5112)-product) date 2014-09-07 2:51:26 PM*
%MOMM*%
G01*
G04 APERTURE LIST*
%ADD10C,0.150000*%
%ADD11R,0.299720X1.300480*%
%ADD12R,1.300480X0.299720*%
%ADD13R,0.398780X0.797560*%
%ADD14R,1.000760X0.701040*%
%ADD15R,2.199640X0.599440*%
%ADD16R,1.397000X1.143000*%
%ADD17R,1.143000X0.812800*%
%ADD18R,1.350000X3.500000*%
%ADD19C,0.889000*%
%ADD20C,0.254000*%
G04 APERTURE END LIST*
D10*
D11*
X143544600Y-90944000D03*
X144179600Y-90944000D03*
X144840000Y-90944000D03*
X145475000Y-90944000D03*
X145475000Y-85356000D03*
X144827300Y-85356000D03*
X144179600Y-85356000D03*
X143531900Y-85356000D03*
D12*
X163694000Y-85455400D03*
X163694000Y-84820400D03*
X163694000Y-84160000D03*
X163694000Y-83525000D03*
X158106000Y-83525000D03*
X158106000Y-84172700D03*
X158106000Y-84820400D03*
X158106000Y-85468100D03*
D13*
X152102300Y-89797560D03*
X152750000Y-89797560D03*
X153397700Y-89797560D03*
X153397700Y-88202440D03*
X152750000Y-88202440D03*
X152102300Y-88202440D03*
D14*
X159520000Y-89000000D03*
X156980000Y-89952500D03*
X156980000Y-88047500D03*
D15*
X167598420Y-95405000D03*
X167598420Y-94135000D03*
X167598420Y-92865000D03*
X167598420Y-91595000D03*
X162401580Y-91595000D03*
X162401580Y-92865000D03*
X162401580Y-94135000D03*
X162401580Y-95405000D03*
D16*
X155250000Y-87920500D03*
X155250000Y-90079500D03*
X150250000Y-87920500D03*
X150250000Y-90079500D03*
D17*
X148000000Y-94850900D03*
X148000000Y-93149100D03*
X151750000Y-85350900D03*
X151750000Y-83649100D03*
X153750000Y-83649100D03*
X153750000Y-85350900D03*
X147000000Y-85350900D03*
X147000000Y-83649100D03*
X152000000Y-93149100D03*
X152000000Y-94850900D03*
X150000000Y-93149100D03*
X150000000Y-94850900D03*
X158500000Y-93149100D03*
X158500000Y-94850900D03*
X149750000Y-83649100D03*
X149750000Y-85350900D03*
X155500000Y-93149100D03*
X155500000Y-94850900D03*
X144500000Y-94850900D03*
X144500000Y-93149100D03*
X161500000Y-87649100D03*
X161500000Y-89350900D03*
X168000000Y-89350900D03*
X168000000Y-87649100D03*
X166000000Y-83649100D03*
X166000000Y-85350900D03*
X168000000Y-85350900D03*
X168000000Y-83649100D03*
X163500000Y-87649100D03*
X163500000Y-89350900D03*
X165500000Y-87649100D03*
X165500000Y-89350900D03*
D18*
X142530000Y-99500000D03*
X145070000Y-99500000D03*
X147610000Y-99500000D03*
X150150000Y-99500000D03*
X152690000Y-99500000D03*
X155230000Y-99500000D03*
X157770000Y-99500000D03*
X160310000Y-99500000D03*
X162850000Y-99500000D03*
X165390000Y-99500000D03*
X167930000Y-99500000D03*
X170470000Y-99500000D03*
D19*
X157102000Y-86837400D03*
X143250000Y-83250000D03*
X143264300Y-92797000D03*
X162271500Y-84489600D03*
X145198500Y-96218900D03*
X146350000Y-90950000D03*
X163888500Y-90693600D03*
X157709700Y-96031900D03*
X160142300Y-95562800D03*
X145554108Y-84398213D03*
X146300000Y-89050000D03*
X169700000Y-94000000D03*
X167550000Y-96600000D03*
X152800000Y-86905002D03*
X164280798Y-87800000D03*
X159850000Y-90150000D03*
X159808218Y-92156630D03*
X154969202Y-83250000D03*
X153550000Y-91400000D03*
X157050000Y-91450722D03*
X149050000Y-97150000D03*
X159395612Y-83181913D03*
X143551100Y-88410700D03*
X166678700Y-86589300D03*
X166456400Y-96908600D03*
X148375000Y-83430600D03*
X155464781Y-92228053D03*
X147186900Y-91816200D03*
D20*
X166496900Y-89396900D02*
X166496900Y-90669800D01*
X163031700Y-94135000D02*
X162401600Y-94135000D01*
X168000000Y-83556900D02*
X168902100Y-84459000D01*
X168711400Y-88386100D02*
X167507700Y-88386100D01*
X166496900Y-90669800D02*
X163031700Y-94135000D01*
X168902100Y-84459000D02*
X168902100Y-88195400D01*
X167507700Y-88386100D02*
X166496900Y-89396900D01*
X168902100Y-88195400D02*
X168711400Y-88386100D01*
X157102000Y-86837400D02*
X157125300Y-86814100D01*
X157125300Y-86814100D02*
X157125300Y-85468100D01*
X155989300Y-84332000D02*
X157125300Y-85468100D01*
X158106000Y-85468100D02*
X157125300Y-85468100D01*
X168000000Y-83649100D02*
X168000000Y-83556900D01*
X144500000Y-94850900D02*
X144500000Y-95587800D01*
X144500000Y-95587800D02*
X144384200Y-95703600D01*
X144384200Y-95703600D02*
X144384200Y-96733700D01*
X144384200Y-96733700D02*
X145070000Y-97419500D01*
X145070000Y-99500000D02*
X145070000Y-97419500D01*
X143532000Y-84903900D02*
X143531900Y-84904000D01*
X143531900Y-84904000D02*
X143531900Y-85356000D01*
X143532000Y-84903900D02*
X143532000Y-85356000D01*
X143963000Y-84020700D02*
X143532000Y-84451800D01*
X143532000Y-84451800D02*
X143532000Y-84903900D01*
X143963000Y-84020700D02*
X143963000Y-83963000D01*
X143963000Y-83963000D02*
X143250000Y-83250000D01*
X144340910Y-83642790D02*
X143963000Y-84020700D01*
X144995000Y-82988700D02*
X144340910Y-83642790D01*
X146174500Y-82988700D02*
X144995000Y-82988700D01*
X147000000Y-83649100D02*
X146834900Y-83649100D01*
X146834900Y-83649100D02*
X146174500Y-82988700D01*
X147000000Y-83649100D02*
X147000000Y-84386000D01*
X147000000Y-84386000D02*
X155935300Y-84386000D01*
X155935300Y-84386000D02*
X155989300Y-84332000D01*
X155989300Y-84332000D02*
X157914090Y-82407210D01*
X157914090Y-82407210D02*
X166850310Y-82407210D01*
X166850310Y-82407210D02*
X168000000Y-83556900D01*
X163831601Y-96018399D02*
X163815079Y-96034921D01*
X163815079Y-96034921D02*
X160614421Y-96034921D01*
X160614421Y-96034921D02*
X160586799Y-96007299D01*
X160586799Y-96007299D02*
X160142300Y-95562800D01*
X163831601Y-94561719D02*
X163831601Y-96018399D01*
X167598420Y-91595000D02*
X166798320Y-91595000D01*
X166798320Y-91595000D02*
X163831601Y-94561719D01*
X144500000Y-93149100D02*
X143598000Y-93149100D01*
X143264300Y-92797000D02*
X143598000Y-93130700D01*
X143598000Y-93130700D02*
X143598000Y-93149100D01*
X163694000Y-83525000D02*
X162713300Y-83525000D01*
X162713300Y-83525000D02*
X162713300Y-84047800D01*
X162713300Y-84047800D02*
X162271500Y-84489600D01*
X163694000Y-85455400D02*
X162713300Y-85455400D01*
X162271500Y-84489600D02*
X162271500Y-85013600D01*
X162271500Y-85013600D02*
X162713300Y-85455400D01*
X147610000Y-99500000D02*
X147610000Y-97419500D01*
X145198500Y-96218900D02*
X146399100Y-97419500D01*
X146399100Y-97419500D02*
X147610000Y-97419500D01*
X145475000Y-90944000D02*
X146344000Y-90944000D01*
X146344000Y-90944000D02*
X146350000Y-90950000D01*
X163735640Y-88401400D02*
X160753000Y-88401400D01*
X162192200Y-85455400D02*
X162713300Y-85455400D01*
X160580700Y-87066900D02*
X162192200Y-85455400D01*
X160580700Y-88229100D02*
X160580700Y-87066900D01*
X163888500Y-90693600D02*
X164427800Y-90154300D01*
X160753000Y-88401400D02*
X160580700Y-88229100D01*
X164427800Y-90154300D02*
X164427800Y-88795754D01*
X163908941Y-88574701D02*
X163735640Y-88401400D01*
X164206747Y-88574701D02*
X163908941Y-88574701D01*
X164427800Y-88795754D02*
X164206747Y-88574701D01*
X160142300Y-95562800D02*
X159673200Y-96031900D01*
X167598400Y-91595000D02*
X166977900Y-91595000D01*
X159673200Y-96031900D02*
X157709700Y-96031900D01*
X145475000Y-85356000D02*
X145475000Y-84477321D01*
X145475000Y-84477321D02*
X145554108Y-84398213D01*
X145528545Y-84398215D02*
X145547202Y-84398215D01*
X145475000Y-84451760D02*
X145528545Y-84398215D01*
X145475000Y-85356000D02*
X145475000Y-84451760D01*
X152750000Y-88202400D02*
X152750000Y-87015000D01*
X152750000Y-87015000D02*
X152783000Y-86982100D01*
X144840000Y-90944000D02*
X144840000Y-91848200D01*
X144840000Y-91848200D02*
X144916000Y-91924400D01*
X144916000Y-91924400D02*
X145374000Y-91924400D01*
X145374000Y-91924400D02*
X146250000Y-92800000D01*
X145829760Y-89050000D02*
X146300000Y-89050000D01*
X144840000Y-90039760D02*
X145829760Y-89050000D01*
X144840000Y-90944000D02*
X144840000Y-90039760D01*
X169565000Y-94135000D02*
X169700000Y-94000000D01*
X169700000Y-95297322D02*
X168397322Y-96600000D01*
X169700000Y-94000000D02*
X169700000Y-95297322D01*
X168397322Y-96600000D02*
X167550000Y-96600000D01*
X152750000Y-86955002D02*
X152800000Y-86905002D01*
X152750000Y-88202440D02*
X152750000Y-86955002D01*
X164129898Y-87649100D02*
X164280798Y-87800000D01*
X163500000Y-87649100D02*
X164129898Y-87649100D01*
X154229339Y-91450722D02*
X157050000Y-91450722D01*
X154178617Y-91400000D02*
X154229339Y-91450722D01*
X153550000Y-91400000D02*
X154178617Y-91400000D01*
X165834900Y-83649100D02*
X165174500Y-82988700D01*
X165174500Y-82988700D02*
X160217442Y-82988700D01*
X166000000Y-83649100D02*
X165834900Y-83649100D01*
X160217442Y-82988700D02*
X160024229Y-83181913D01*
X160024229Y-83181913D02*
X159395612Y-83181913D01*
X142530000Y-98425000D02*
X142530000Y-99500000D01*
X141900000Y-97795000D02*
X142530000Y-98425000D01*
X142050000Y-81950000D02*
X141900000Y-82100000D01*
X170950000Y-81950000D02*
X142050000Y-81950000D01*
X171100000Y-82100000D02*
X170950000Y-81950000D01*
X171100000Y-97795000D02*
X171100000Y-82100000D01*
X170470000Y-98425000D02*
X171100000Y-97795000D01*
X141900000Y-82100000D02*
X141900000Y-97795000D01*
X170470000Y-99500000D02*
X170470000Y-98425000D01*
X166934400Y-92865000D02*
X167598400Y-92865000D01*
X155230000Y-99500000D02*
X155230000Y-95857800D01*
X155230000Y-95857800D02*
X155500000Y-95587800D01*
X155500000Y-94850900D02*
X155500000Y-95587800D01*
X143551100Y-88410700D02*
X143064100Y-88897700D01*
X143064100Y-88897700D02*
X143064100Y-91800800D01*
X143064100Y-91800800D02*
X143210400Y-91947100D01*
X143210400Y-91947100D02*
X144278800Y-91947100D01*
X144278800Y-91947100D02*
X144180000Y-91848200D01*
X144180000Y-91848200D02*
X144180000Y-91396100D01*
X150000000Y-94850900D02*
X149835000Y-94850900D01*
X149835000Y-94850900D02*
X149098000Y-95587500D01*
X149098000Y-95587500D02*
X146941000Y-95587500D01*
X146941000Y-95587500D02*
X145402000Y-94048300D01*
X145402000Y-94048300D02*
X145402000Y-92598300D01*
X145402000Y-92598300D02*
X145216000Y-92412500D01*
X145216000Y-92412500D02*
X144744000Y-92412500D01*
X144744000Y-92412500D02*
X144278800Y-91947100D01*
X144180000Y-91396100D02*
X144179600Y-91395700D01*
X144179600Y-91395700D02*
X144179600Y-90944000D01*
X144180000Y-91396100D02*
X144180000Y-90944000D01*
X150000000Y-94850900D02*
X150000000Y-99350000D01*
X150000000Y-99350000D02*
X150150000Y-99500000D01*
X165500000Y-89350900D02*
X165500000Y-88614000D01*
X165500000Y-88614000D02*
X166052700Y-88614000D01*
X166052700Y-88614000D02*
X166678700Y-87988000D01*
X166678700Y-87988000D02*
X166678700Y-86589300D01*
X163046500Y-92865000D02*
X165500000Y-90411500D01*
X162402000Y-92865000D02*
X163046500Y-92865000D01*
X158665000Y-94850900D02*
X160651000Y-92865000D01*
X158500000Y-94850900D02*
X158665000Y-94850900D01*
X162401600Y-92865000D02*
X162402000Y-92865000D01*
X165500000Y-90411500D02*
X165500000Y-89350900D01*
X160651000Y-92865000D02*
X162401600Y-92865000D01*
X165945500Y-97419500D02*
X160310000Y-97419500D01*
X166456400Y-96908600D02*
X165945500Y-97419500D01*
X160310000Y-99500000D02*
X160310000Y-97419500D01*
X167930000Y-98425000D02*
X170474701Y-95880299D01*
X170474701Y-92486001D02*
X168000000Y-90011300D01*
X167930000Y-99500000D02*
X167930000Y-98425000D01*
X170474701Y-95880299D02*
X170474701Y-92486001D01*
X168000000Y-90011300D02*
X168000000Y-89350900D01*
X143545000Y-90491900D02*
X143544600Y-90492300D01*
X143544600Y-90492300D02*
X143544600Y-90944000D01*
X143545000Y-90491900D02*
X143545000Y-90944000D01*
X152000000Y-93149100D02*
X150000000Y-93149100D01*
X150000000Y-93149100D02*
X148000000Y-93149100D01*
X148000000Y-93149100D02*
X148000000Y-89603442D01*
X148000000Y-89603442D02*
X146671857Y-88275299D01*
X146671857Y-88275299D02*
X145078143Y-88275299D01*
X145078143Y-88275299D02*
X143545000Y-89808442D01*
X143545000Y-89808442D02*
X143545000Y-90491900D01*
X149750000Y-83649100D02*
X148848000Y-83649100D01*
X148375000Y-83430600D02*
X148629500Y-83430600D01*
X148629500Y-83430600D02*
X148848000Y-83649100D01*
X155500000Y-92263272D02*
X155464781Y-92228053D01*
X155500000Y-93149100D02*
X155500000Y-92263272D01*
X144827000Y-85808100D02*
X144827300Y-85807800D01*
X144827300Y-85807800D02*
X144827300Y-85356000D01*
X144827000Y-85808100D02*
X144827000Y-85356000D01*
X147000000Y-85350900D02*
X146924000Y-85350900D01*
X146924000Y-85350900D02*
X145939000Y-86336400D01*
X145939000Y-86336400D02*
X144904000Y-86336400D01*
X144904000Y-86336400D02*
X144827000Y-86260200D01*
X144827000Y-86260200D02*
X144827000Y-85808100D01*
X152102000Y-87777300D02*
X152102300Y-87777600D01*
X152102300Y-87777600D02*
X152102300Y-88202400D01*
X152102000Y-87777300D02*
X152102000Y-87352300D01*
X152102000Y-87352300D02*
X151750000Y-87000000D01*
X151750000Y-87000000D02*
X151750000Y-85350900D01*
X152102000Y-88202400D02*
X152102000Y-87777300D01*
X151750000Y-85350900D02*
X149750000Y-85350900D01*
X149750000Y-85350900D02*
X147000000Y-85350900D01*
X144180000Y-85808100D02*
X144179600Y-85807700D01*
X144179600Y-85807700D02*
X144179600Y-85356000D01*
X144180000Y-85808100D02*
X144180000Y-85356000D01*
X151750000Y-83649100D02*
X151585000Y-83649100D01*
X151585000Y-83649100D02*
X150411000Y-82475300D01*
X150411000Y-82475300D02*
X142878000Y-82475300D01*
X142878000Y-82475300D02*
X142475000Y-82878100D01*
X142475000Y-82878100D02*
X142475000Y-85693900D01*
X142475000Y-85693900D02*
X143118000Y-86336400D01*
X143118000Y-86336400D02*
X144103000Y-86336400D01*
X144103000Y-86336400D02*
X144180000Y-86260200D01*
X144180000Y-86260200D02*
X144180000Y-85808100D01*
X151750000Y-83649100D02*
X153750000Y-83649100D01*
X166000000Y-85350900D02*
X166000000Y-84614000D01*
X166000000Y-84614000D02*
X165263100Y-84614000D01*
X165263100Y-84614000D02*
X164809100Y-84160000D01*
X164809100Y-84160000D02*
X163694000Y-84160000D01*
X168000000Y-85350900D02*
X166000000Y-85350900D01*
X168000000Y-85350900D02*
X168000000Y-87649100D01*
X153446400Y-90013300D02*
X153446400Y-89797600D01*
X156161374Y-90992790D02*
X154425890Y-90992790D01*
X156478143Y-90676021D02*
X156161374Y-90992790D01*
X157421857Y-90676021D02*
X156478143Y-90676021D01*
X157824701Y-91772579D02*
X157824701Y-91078865D01*
X157389009Y-96807209D02*
X156934700Y-96352900D01*
X164126111Y-96807209D02*
X157389009Y-96807209D01*
X166798320Y-94135000D02*
X164126111Y-96807209D01*
X167598420Y-94135000D02*
X166798320Y-94135000D01*
X157824701Y-91078865D02*
X157421857Y-90676021D01*
X156934700Y-96352900D02*
X156934700Y-92662580D01*
X156934700Y-92662580D02*
X157824701Y-91772579D01*
X154425890Y-90992790D02*
X153446400Y-90013300D01*
X153398000Y-89797600D02*
X153397700Y-89797600D01*
X153446400Y-89797600D02*
X153398000Y-89797600D01*
X155250000Y-87920500D02*
X154298000Y-87920500D01*
X154298000Y-87920500D02*
X154000000Y-88218000D01*
X154000000Y-88218000D02*
X154000000Y-89648600D01*
X154000000Y-89648600D02*
X153851000Y-89797600D01*
X153851000Y-89797600D02*
X153446400Y-89797600D01*
X156603000Y-87920500D02*
X156730000Y-88047500D01*
X156730000Y-88047500D02*
X155377000Y-88047500D01*
X155377000Y-88047500D02*
X155250000Y-87920500D01*
X156980000Y-88047500D02*
X156730000Y-88047500D01*
X156980000Y-89952500D02*
X155377000Y-89952500D01*
X155377000Y-89952500D02*
X155250000Y-90079500D01*
X156980000Y-89952500D02*
X157734000Y-89952500D01*
X157734000Y-89952500D02*
X158500000Y-90718100D01*
X158500000Y-90718100D02*
X158500000Y-93149100D01*
X161500000Y-87649100D02*
X161500000Y-86912200D01*
X164674700Y-86086900D02*
X164674700Y-84820400D01*
X165500000Y-86912200D02*
X164674700Y-86086900D01*
X161500000Y-86912200D02*
X163849400Y-86912200D01*
X163849400Y-86912200D02*
X164674700Y-86086900D01*
X163694000Y-84820400D02*
X164674700Y-84820400D01*
X165500000Y-87649100D02*
X165500000Y-86912200D01*
X158106000Y-84820400D02*
X159010000Y-84820400D01*
X159010000Y-84820400D02*
X159520000Y-85330200D01*
X159520000Y-85330200D02*
X159520000Y-89000000D01*
X163500000Y-89350900D02*
X161500000Y-89350900D01*
X159520000Y-89000000D02*
X161149000Y-89000000D01*
X161149000Y-89000000D02*
X161500000Y-89350900D01*
X152102000Y-89471200D02*
X152102300Y-89471500D01*
X152102300Y-89471500D02*
X152102300Y-89797600D01*
X152102000Y-89471200D02*
X152102000Y-89797600D01*
X153398000Y-88177000D02*
X153398000Y-88855200D01*
X153398000Y-88855200D02*
X153184000Y-89068600D01*
X153184000Y-89068600D02*
X152179000Y-89068600D01*
X152179000Y-89068600D02*
X152102000Y-89144800D01*
X152102000Y-89144800D02*
X152102000Y-89471200D01*
X153398000Y-88177000D02*
X153397700Y-88177300D01*
X153397700Y-88177300D02*
X153397700Y-88202400D01*
X153750000Y-85350900D02*
X153750000Y-87146600D01*
X153750000Y-87146600D02*
X153398000Y-87498900D01*
X153398000Y-87498900D02*
X153398000Y-88177000D01*
X152750000Y-90450300D02*
X152750000Y-90500000D01*
X152750000Y-89797600D02*
X152750000Y-90450300D01*
X152750000Y-90450300D02*
X152750000Y-89797600D01*
X152750000Y-90500000D02*
X152750000Y-90450300D01*
X150250000Y-90079500D02*
X151202000Y-90079500D01*
X151202000Y-90079500D02*
X151650000Y-90526500D01*
X151650000Y-90526500D02*
X152723000Y-90526500D01*
X152723000Y-90526500D02*
X152750000Y-90500000D01*
X152750000Y-90500000D02*
X152750000Y-92412500D01*
X152750000Y-92412500D02*
X152902000Y-92564200D01*
X152902000Y-92564200D02*
X152902000Y-94114300D01*
X152902000Y-94114300D02*
X152165000Y-94850900D01*
X152165000Y-94850900D02*
X152000000Y-94850900D01*
X148000000Y-94850900D02*
X148000000Y-94114000D01*
X148000000Y-94114000D02*
X147447300Y-94114000D01*
X147447300Y-94114000D02*
X147025100Y-93691800D01*
X147025100Y-93691800D02*
X147025100Y-91978000D01*
X147025100Y-91978000D02*
X147186900Y-91816200D01*
G36*
X146613240Y-84614300D02*
X146362819Y-84614300D01*
X146259860Y-84656947D01*
X146259860Y-84579450D01*
X146163187Y-84346061D01*
X145984558Y-84167433D01*
X145751169Y-84070760D01*
X145708680Y-84070760D01*
X145549930Y-84229510D01*
X145549930Y-85229000D01*
X145622000Y-85229000D01*
X145622000Y-85483000D01*
X145549930Y-85483000D01*
X145549930Y-85503000D01*
X145400070Y-85503000D01*
X145400070Y-85483000D01*
X145328000Y-85483000D01*
X145328000Y-85229000D01*
X145400070Y-85229000D01*
X145400070Y-84229510D01*
X145241320Y-84070760D01*
X145198831Y-84070760D01*
X144965442Y-84167433D01*
X144786813Y-84346061D01*
X144774594Y-84375560D01*
X144611759Y-84375560D01*
X144503450Y-84420423D01*
X144395141Y-84375560D01*
X144263779Y-84375560D01*
X144254726Y-84375560D01*
X144286289Y-84343989D01*
X144286327Y-84343952D01*
X144286329Y-84343948D01*
X144664199Y-83966080D01*
X144664199Y-83966079D01*
X144664201Y-83966076D01*
X145184378Y-83445900D01*
X145985122Y-83445900D01*
X146098300Y-83559078D01*
X146098300Y-84121181D01*
X146148570Y-84242543D01*
X146241457Y-84335430D01*
X146362819Y-84385700D01*
X146494181Y-84385700D01*
X146542800Y-84385700D01*
X146542800Y-84386000D01*
X146577602Y-84560963D01*
X146613240Y-84614300D01*
X146613240Y-84614300D01*
G37*
X146613240Y-84614300D02*
X146362819Y-84614300D01*
X146259860Y-84656947D01*
X146259860Y-84579450D01*
X146163187Y-84346061D01*
X145984558Y-84167433D01*
X145751169Y-84070760D01*
X145708680Y-84070760D01*
X145549930Y-84229510D01*
X145549930Y-85229000D01*
X145622000Y-85229000D01*
X145622000Y-85483000D01*
X145549930Y-85483000D01*
X145549930Y-85503000D01*
X145400070Y-85503000D01*
X145400070Y-85483000D01*
X145328000Y-85483000D01*
X145328000Y-85229000D01*
X145400070Y-85229000D01*
X145400070Y-84229510D01*
X145241320Y-84070760D01*
X145198831Y-84070760D01*
X144965442Y-84167433D01*
X144786813Y-84346061D01*
X144774594Y-84375560D01*
X144611759Y-84375560D01*
X144503450Y-84420423D01*
X144395141Y-84375560D01*
X144263779Y-84375560D01*
X144254726Y-84375560D01*
X144286289Y-84343989D01*
X144286327Y-84343952D01*
X144286329Y-84343948D01*
X144664199Y-83966080D01*
X144664199Y-83966079D01*
X144664201Y-83966076D01*
X145184378Y-83445900D01*
X145985122Y-83445900D01*
X146098300Y-83559078D01*
X146098300Y-84121181D01*
X146148570Y-84242543D01*
X146241457Y-84335430D01*
X146362819Y-84385700D01*
X146494181Y-84385700D01*
X146542800Y-84385700D01*
X146542800Y-84386000D01*
X146577602Y-84560963D01*
X146613240Y-84614300D01*
G36*
X147098300Y-95098200D02*
X145859200Y-93858939D01*
X145859200Y-92598300D01*
X145859175Y-92598174D01*
X145859199Y-92598054D01*
X145841916Y-92511409D01*
X145824398Y-92423337D01*
X145824328Y-92423233D01*
X145824304Y-92423110D01*
X145774734Y-92349010D01*
X145725289Y-92275011D01*
X145725184Y-92274941D01*
X145725115Y-92274837D01*
X145539289Y-92089211D01*
X145539115Y-92089037D01*
X145464887Y-92039497D01*
X145451544Y-92030581D01*
X145528187Y-91953939D01*
X145540405Y-91924440D01*
X145690541Y-91924440D01*
X145811903Y-91874170D01*
X145904790Y-91781283D01*
X145955060Y-91659921D01*
X145955060Y-91624839D01*
X146195227Y-91724565D01*
X146412279Y-91724754D01*
X146412066Y-91969621D01*
X146529759Y-92254459D01*
X146567900Y-92292666D01*
X146567900Y-93691800D01*
X146602702Y-93866763D01*
X146701811Y-94015089D01*
X147098300Y-94411578D01*
X147098300Y-94510181D01*
X147098300Y-95098200D01*
X147098300Y-95098200D01*
G37*
X147098300Y-95098200D02*
X145859200Y-93858939D01*
X145859200Y-92598300D01*
X145859175Y-92598174D01*
X145859199Y-92598054D01*
X145841916Y-92511409D01*
X145824398Y-92423337D01*
X145824328Y-92423233D01*
X145824304Y-92423110D01*
X145774734Y-92349010D01*
X145725289Y-92275011D01*
X145725184Y-92274941D01*
X145725115Y-92274837D01*
X145539289Y-92089211D01*
X145539115Y-92089037D01*
X145464887Y-92039497D01*
X145451544Y-92030581D01*
X145528187Y-91953939D01*
X145540405Y-91924440D01*
X145690541Y-91924440D01*
X145811903Y-91874170D01*
X145904790Y-91781283D01*
X145955060Y-91659921D01*
X145955060Y-91624839D01*
X146195227Y-91724565D01*
X146412279Y-91724754D01*
X146412066Y-91969621D01*
X146529759Y-92254459D01*
X146567900Y-92292666D01*
X146567900Y-93691800D01*
X146602702Y-93866763D01*
X146701811Y-94015089D01*
X147098300Y-94411578D01*
X147098300Y-94510181D01*
X147098300Y-95098200D01*
G36*
X147542800Y-91125149D02*
X147341673Y-91041635D01*
X147124620Y-91041445D01*
X147124834Y-90796579D01*
X147007141Y-90511741D01*
X146789405Y-90293624D01*
X146504773Y-90175435D01*
X146196579Y-90175166D01*
X145955060Y-90274959D01*
X145955060Y-90228079D01*
X145904790Y-90106717D01*
X145811903Y-90013830D01*
X145690541Y-89963560D01*
X145559179Y-89963560D01*
X145540405Y-89963560D01*
X145528187Y-89934061D01*
X145349558Y-89755433D01*
X145116169Y-89658760D01*
X145073680Y-89658760D01*
X144914930Y-89817510D01*
X144914930Y-90817000D01*
X144987000Y-90817000D01*
X144987000Y-91071000D01*
X144914930Y-91071000D01*
X144914930Y-91091000D01*
X144765070Y-91091000D01*
X144765070Y-91071000D01*
X144693000Y-91071000D01*
X144693000Y-90817000D01*
X144765070Y-90817000D01*
X144765070Y-89817510D01*
X144606320Y-89658760D01*
X144563831Y-89658760D01*
X144330442Y-89755433D01*
X144151813Y-89934061D01*
X144139594Y-89963560D01*
X144036460Y-89963560D01*
X145267521Y-88732499D01*
X146482479Y-88732499D01*
X147542800Y-89792820D01*
X147542800Y-91125149D01*
X147542800Y-91125149D01*
G37*
X147542800Y-91125149D02*
X147341673Y-91041635D01*
X147124620Y-91041445D01*
X147124834Y-90796579D01*
X147007141Y-90511741D01*
X146789405Y-90293624D01*
X146504773Y-90175435D01*
X146196579Y-90175166D01*
X145955060Y-90274959D01*
X145955060Y-90228079D01*
X145904790Y-90106717D01*
X145811903Y-90013830D01*
X145690541Y-89963560D01*
X145559179Y-89963560D01*
X145540405Y-89963560D01*
X145528187Y-89934061D01*
X145349558Y-89755433D01*
X145116169Y-89658760D01*
X145073680Y-89658760D01*
X144914930Y-89817510D01*
X144914930Y-90817000D01*
X144987000Y-90817000D01*
X144987000Y-91071000D01*
X144914930Y-91071000D01*
X144914930Y-91091000D01*
X144765070Y-91091000D01*
X144765070Y-91071000D01*
X144693000Y-91071000D01*
X144693000Y-90817000D01*
X144765070Y-90817000D01*
X144765070Y-89817510D01*
X144606320Y-89658760D01*
X144563831Y-89658760D01*
X144330442Y-89755433D01*
X144151813Y-89934061D01*
X144139594Y-89963560D01*
X144036460Y-89963560D01*
X145267521Y-88732499D01*
X146482479Y-88732499D01*
X147542800Y-89792820D01*
X147542800Y-91125149D01*
G36*
X149542800Y-97419800D02*
X149409319Y-97419800D01*
X149287957Y-97470070D01*
X149195070Y-97562957D01*
X149144800Y-97684319D01*
X149144800Y-97815681D01*
X149144800Y-101119800D01*
X148615200Y-101119800D01*
X148615200Y-97684319D01*
X148564930Y-97562957D01*
X148472043Y-97470070D01*
X148350681Y-97419800D01*
X148219319Y-97419800D01*
X148067200Y-97419800D01*
X148067200Y-97419500D01*
X148032398Y-97244537D01*
X147933289Y-97096211D01*
X147784963Y-96997102D01*
X147610000Y-96962300D01*
X146588478Y-96962300D01*
X145973088Y-96346910D01*
X145973334Y-96065479D01*
X145855641Y-95780641D01*
X145637905Y-95562524D01*
X145353273Y-95444335D01*
X145351433Y-95444333D01*
X145401700Y-95322981D01*
X145401700Y-95191619D01*
X145401700Y-94694619D01*
X146617690Y-95910768D01*
X146617702Y-95910776D01*
X146617711Y-95910789D01*
X146691464Y-95960069D01*
X146766010Y-96009887D01*
X146766025Y-96009889D01*
X146766037Y-96009898D01*
X146850941Y-96026786D01*
X146940970Y-96044700D01*
X146940985Y-96044697D01*
X146941000Y-96044700D01*
X149097876Y-96044700D01*
X149098000Y-96044700D01*
X149186329Y-96027130D01*
X149272848Y-96009945D01*
X149272899Y-96009910D01*
X149272963Y-96009898D01*
X149347830Y-95959872D01*
X149421201Y-95910877D01*
X149421289Y-95910789D01*
X149542800Y-95789344D01*
X149542800Y-97419800D01*
X149542800Y-97419800D01*
G37*
X149542800Y-97419800D02*
X149409319Y-97419800D01*
X149287957Y-97470070D01*
X149195070Y-97562957D01*
X149144800Y-97684319D01*
X149144800Y-97815681D01*
X149144800Y-101119800D01*
X148615200Y-101119800D01*
X148615200Y-97684319D01*
X148564930Y-97562957D01*
X148472043Y-97470070D01*
X148350681Y-97419800D01*
X148219319Y-97419800D01*
X148067200Y-97419800D01*
X148067200Y-97419500D01*
X148032398Y-97244537D01*
X147933289Y-97096211D01*
X147784963Y-96997102D01*
X147610000Y-96962300D01*
X146588478Y-96962300D01*
X145973088Y-96346910D01*
X145973334Y-96065479D01*
X145855641Y-95780641D01*
X145637905Y-95562524D01*
X145353273Y-95444335D01*
X145351433Y-95444333D01*
X145401700Y-95322981D01*
X145401700Y-95191619D01*
X145401700Y-94694619D01*
X146617690Y-95910768D01*
X146617702Y-95910776D01*
X146617711Y-95910789D01*
X146691464Y-95960069D01*
X146766010Y-96009887D01*
X146766025Y-96009889D01*
X146766037Y-96009898D01*
X146850941Y-96026786D01*
X146940970Y-96044700D01*
X146940985Y-96044697D01*
X146941000Y-96044700D01*
X149097876Y-96044700D01*
X149098000Y-96044700D01*
X149186329Y-96027130D01*
X149272848Y-96009945D01*
X149272899Y-96009910D01*
X149272963Y-96009898D01*
X149347830Y-95959872D01*
X149421201Y-95910877D01*
X149421289Y-95910789D01*
X149542800Y-95789344D01*
X149542800Y-97419800D01*
G36*
X153292800Y-86957336D02*
X153079912Y-87170405D01*
X153075699Y-87168660D01*
X153008445Y-87168660D01*
X152849695Y-87327410D01*
X152849695Y-88075440D01*
X152868110Y-88075440D01*
X152868110Y-88329440D01*
X152849695Y-88329440D01*
X152849695Y-88349440D01*
X152650305Y-88349440D01*
X152650305Y-88329440D01*
X152631890Y-88329440D01*
X152631890Y-88075440D01*
X152650305Y-88075440D01*
X152650305Y-87327410D01*
X152530429Y-87207534D01*
X152524472Y-87177517D01*
X152524417Y-87177435D01*
X152524398Y-87177337D01*
X152475048Y-87103481D01*
X152425427Y-87029148D01*
X152207200Y-86810735D01*
X152207200Y-86087500D01*
X152387181Y-86087500D01*
X152508543Y-86037230D01*
X152601430Y-85944343D01*
X152651700Y-85822981D01*
X152651700Y-85691619D01*
X152651700Y-84878819D01*
X152636946Y-84843200D01*
X152863053Y-84843200D01*
X152848300Y-84878819D01*
X152848300Y-85010181D01*
X152848300Y-85822981D01*
X152898570Y-85944343D01*
X152991457Y-86037230D01*
X153112819Y-86087500D01*
X153244181Y-86087500D01*
X153292800Y-86087500D01*
X153292800Y-86957336D01*
X153292800Y-86957336D01*
G37*
X153292800Y-86957336D02*
X153079912Y-87170405D01*
X153075699Y-87168660D01*
X153008445Y-87168660D01*
X152849695Y-87327410D01*
X152849695Y-88075440D01*
X152868110Y-88075440D01*
X152868110Y-88329440D01*
X152849695Y-88329440D01*
X152849695Y-88349440D01*
X152650305Y-88349440D01*
X152650305Y-88329440D01*
X152631890Y-88329440D01*
X152631890Y-88075440D01*
X152650305Y-88075440D01*
X152650305Y-87327410D01*
X152530429Y-87207534D01*
X152524472Y-87177517D01*
X152524417Y-87177435D01*
X152524398Y-87177337D01*
X152475048Y-87103481D01*
X152425427Y-87029148D01*
X152207200Y-86810735D01*
X152207200Y-86087500D01*
X152387181Y-86087500D01*
X152508543Y-86037230D01*
X152601430Y-85944343D01*
X152651700Y-85822981D01*
X152651700Y-85691619D01*
X152651700Y-84878819D01*
X152636946Y-84843200D01*
X152863053Y-84843200D01*
X152848300Y-84878819D01*
X152848300Y-85010181D01*
X152848300Y-85822981D01*
X152898570Y-85944343D01*
X152991457Y-86037230D01*
X153112819Y-86087500D01*
X153244181Y-86087500D01*
X153292800Y-86087500D01*
X153292800Y-86957336D01*
G36*
X159883649Y-97264409D02*
X159852800Y-97419500D01*
X159852800Y-97419800D01*
X159569319Y-97419800D01*
X159447957Y-97470070D01*
X159355070Y-97562957D01*
X159304800Y-97684319D01*
X159304800Y-97815681D01*
X159304800Y-101119800D01*
X158775200Y-101119800D01*
X158775200Y-97684319D01*
X158724930Y-97562957D01*
X158632043Y-97470070D01*
X158510681Y-97419800D01*
X158379319Y-97419800D01*
X157029319Y-97419800D01*
X156907957Y-97470070D01*
X156815070Y-97562957D01*
X156764800Y-97684319D01*
X156764800Y-97815681D01*
X156764800Y-101119800D01*
X156235200Y-101119800D01*
X156235200Y-97684319D01*
X156184930Y-97562957D01*
X156092043Y-97470070D01*
X155970681Y-97419800D01*
X155839319Y-97419800D01*
X155687200Y-97419800D01*
X155687200Y-96047178D01*
X155823289Y-95911089D01*
X155922398Y-95762763D01*
X155957200Y-95587800D01*
X155957200Y-95587500D01*
X156137181Y-95587500D01*
X156258543Y-95537230D01*
X156351430Y-95444343D01*
X156401700Y-95322981D01*
X156401700Y-95191619D01*
X156401700Y-94378819D01*
X156401700Y-93621181D01*
X156401700Y-93489819D01*
X156401700Y-92677019D01*
X156351430Y-92555657D01*
X156258543Y-92462770D01*
X156213839Y-92444253D01*
X156239346Y-92382826D01*
X156239615Y-92074632D01*
X156121922Y-91789794D01*
X155904186Y-91571677D01*
X155619554Y-91453488D01*
X155311360Y-91453219D01*
X155026522Y-91570912D01*
X154808405Y-91788648D01*
X154690216Y-92073280D01*
X154689947Y-92381474D01*
X154728777Y-92475449D01*
X154648570Y-92555657D01*
X154598300Y-92677019D01*
X154598300Y-92808381D01*
X154598300Y-93621181D01*
X154648570Y-93742543D01*
X154741457Y-93835430D01*
X154862819Y-93885700D01*
X154994181Y-93885700D01*
X156137181Y-93885700D01*
X156258543Y-93835430D01*
X156351430Y-93742543D01*
X156401700Y-93621181D01*
X156401700Y-94378819D01*
X156351430Y-94257457D01*
X156258543Y-94164570D01*
X156137181Y-94114300D01*
X156005819Y-94114300D01*
X154862819Y-94114300D01*
X154741457Y-94164570D01*
X154648570Y-94257457D01*
X154598300Y-94378819D01*
X154598300Y-94510181D01*
X154598300Y-95322981D01*
X154648570Y-95444343D01*
X154741457Y-95537230D01*
X154862819Y-95587500D01*
X154871304Y-95587500D01*
X154807602Y-95682837D01*
X154772800Y-95857800D01*
X154772800Y-97419800D01*
X154489319Y-97419800D01*
X154367957Y-97470070D01*
X154275070Y-97562957D01*
X154224800Y-97684319D01*
X154224800Y-97815681D01*
X154224800Y-101119800D01*
X154000000Y-101119800D01*
X154000000Y-99785750D01*
X154000000Y-99214250D01*
X154000000Y-97876309D01*
X154000000Y-97623690D01*
X153903327Y-97390301D01*
X153724698Y-97211673D01*
X153491309Y-97115000D01*
X152975750Y-97115000D01*
X152817000Y-97273750D01*
X152817000Y-99373000D01*
X153841250Y-99373000D01*
X154000000Y-99214250D01*
X154000000Y-99785750D01*
X153841250Y-99627000D01*
X152817000Y-99627000D01*
X152817000Y-99647000D01*
X152563000Y-99647000D01*
X152563000Y-99627000D01*
X152563000Y-99373000D01*
X152563000Y-97273750D01*
X152404250Y-97115000D01*
X151888691Y-97115000D01*
X151655302Y-97211673D01*
X151476673Y-97390301D01*
X151380000Y-97623690D01*
X151380000Y-97876309D01*
X151380000Y-99214250D01*
X151538750Y-99373000D01*
X152563000Y-99373000D01*
X152563000Y-99627000D01*
X151538750Y-99627000D01*
X151380000Y-99785750D01*
X151380000Y-101119800D01*
X151155200Y-101119800D01*
X151155200Y-97684319D01*
X151104930Y-97562957D01*
X151012043Y-97470070D01*
X150890681Y-97419800D01*
X150759319Y-97419800D01*
X150457200Y-97419800D01*
X150457200Y-95587500D01*
X150637181Y-95587500D01*
X150758543Y-95537230D01*
X150851430Y-95444343D01*
X150901700Y-95322981D01*
X150901700Y-95191619D01*
X150901700Y-94378819D01*
X150851430Y-94257457D01*
X150758543Y-94164570D01*
X150637181Y-94114300D01*
X150505819Y-94114300D01*
X149362819Y-94114300D01*
X149241457Y-94164570D01*
X149148570Y-94257457D01*
X149098300Y-94378819D01*
X149098300Y-94510181D01*
X149098300Y-94940797D01*
X148908694Y-95130300D01*
X148901700Y-95130300D01*
X148901700Y-94378819D01*
X148851430Y-94257457D01*
X148758543Y-94164570D01*
X148637181Y-94114300D01*
X148505819Y-94114300D01*
X148457200Y-94114300D01*
X148457200Y-94114000D01*
X148422398Y-93939037D01*
X148386759Y-93885700D01*
X148637181Y-93885700D01*
X148758543Y-93835430D01*
X148851430Y-93742543D01*
X148901700Y-93621181D01*
X148901700Y-93606300D01*
X149098300Y-93606300D01*
X149098300Y-93621181D01*
X149148570Y-93742543D01*
X149241457Y-93835430D01*
X149362819Y-93885700D01*
X149494181Y-93885700D01*
X150637181Y-93885700D01*
X150758543Y-93835430D01*
X150851430Y-93742543D01*
X150901700Y-93621181D01*
X150901700Y-93606300D01*
X151098300Y-93606300D01*
X151098300Y-93621181D01*
X151148570Y-93742543D01*
X151241457Y-93835430D01*
X151362819Y-93885700D01*
X151494181Y-93885700D01*
X152444800Y-93885700D01*
X152444800Y-93924849D01*
X152255246Y-94114300D01*
X151362819Y-94114300D01*
X151241457Y-94164570D01*
X151148570Y-94257457D01*
X151098300Y-94378819D01*
X151098300Y-94510181D01*
X151098300Y-95322981D01*
X151148570Y-95444343D01*
X151241457Y-95537230D01*
X151362819Y-95587500D01*
X151494181Y-95587500D01*
X152637181Y-95587500D01*
X152758543Y-95537230D01*
X152851430Y-95444343D01*
X152901700Y-95322981D01*
X152901700Y-95191619D01*
X152901700Y-94761002D01*
X153225202Y-94437677D01*
X153225238Y-94437623D01*
X153225289Y-94437589D01*
X153273935Y-94364784D01*
X153324351Y-94289377D01*
X153324363Y-94289314D01*
X153324398Y-94289263D01*
X153341654Y-94202508D01*
X153359200Y-94114424D01*
X153359187Y-94114361D01*
X153359200Y-94114300D01*
X153359200Y-92564200D01*
X153359154Y-92563972D01*
X153359199Y-92563748D01*
X153341824Y-92476844D01*
X153324398Y-92389237D01*
X153324270Y-92389045D01*
X153324225Y-92388820D01*
X153274725Y-92314897D01*
X153225289Y-92240911D01*
X153225097Y-92240783D01*
X153224969Y-92240591D01*
X153207200Y-92222857D01*
X153207200Y-90526540D01*
X153263991Y-90526540D01*
X153313062Y-90526540D01*
X154102601Y-91316079D01*
X154250927Y-91415188D01*
X154425890Y-91449990D01*
X156161374Y-91449990D01*
X156336337Y-91415188D01*
X156484663Y-91316079D01*
X156667521Y-91133221D01*
X157232478Y-91133221D01*
X157367501Y-91268243D01*
X157367501Y-91583200D01*
X156611411Y-92339291D01*
X156512302Y-92487617D01*
X156477500Y-92662580D01*
X156477500Y-96352900D01*
X156512302Y-96527863D01*
X156611411Y-96676189D01*
X157065720Y-97130498D01*
X157214046Y-97229607D01*
X157389009Y-97264409D01*
X159883649Y-97264409D01*
X159883649Y-97264409D01*
G37*
X159883649Y-97264409D02*
X159852800Y-97419500D01*
X159852800Y-97419800D01*
X159569319Y-97419800D01*
X159447957Y-97470070D01*
X159355070Y-97562957D01*
X159304800Y-97684319D01*
X159304800Y-97815681D01*
X159304800Y-101119800D01*
X158775200Y-101119800D01*
X158775200Y-97684319D01*
X158724930Y-97562957D01*
X158632043Y-97470070D01*
X158510681Y-97419800D01*
X158379319Y-97419800D01*
X157029319Y-97419800D01*
X156907957Y-97470070D01*
X156815070Y-97562957D01*
X156764800Y-97684319D01*
X156764800Y-97815681D01*
X156764800Y-101119800D01*
X156235200Y-101119800D01*
X156235200Y-97684319D01*
X156184930Y-97562957D01*
X156092043Y-97470070D01*
X155970681Y-97419800D01*
X155839319Y-97419800D01*
X155687200Y-97419800D01*
X155687200Y-96047178D01*
X155823289Y-95911089D01*
X155922398Y-95762763D01*
X155957200Y-95587800D01*
X155957200Y-95587500D01*
X156137181Y-95587500D01*
X156258543Y-95537230D01*
X156351430Y-95444343D01*
X156401700Y-95322981D01*
X156401700Y-95191619D01*
X156401700Y-94378819D01*
X156401700Y-93621181D01*
X156401700Y-93489819D01*
X156401700Y-92677019D01*
X156351430Y-92555657D01*
X156258543Y-92462770D01*
X156213839Y-92444253D01*
X156239346Y-92382826D01*
X156239615Y-92074632D01*
X156121922Y-91789794D01*
X155904186Y-91571677D01*
X155619554Y-91453488D01*
X155311360Y-91453219D01*
X155026522Y-91570912D01*
X154808405Y-91788648D01*
X154690216Y-92073280D01*
X154689947Y-92381474D01*
X154728777Y-92475449D01*
X154648570Y-92555657D01*
X154598300Y-92677019D01*
X154598300Y-92808381D01*
X154598300Y-93621181D01*
X154648570Y-93742543D01*
X154741457Y-93835430D01*
X154862819Y-93885700D01*
X154994181Y-93885700D01*
X156137181Y-93885700D01*
X156258543Y-93835430D01*
X156351430Y-93742543D01*
X156401700Y-93621181D01*
X156401700Y-94378819D01*
X156351430Y-94257457D01*
X156258543Y-94164570D01*
X156137181Y-94114300D01*
X156005819Y-94114300D01*
X154862819Y-94114300D01*
X154741457Y-94164570D01*
X154648570Y-94257457D01*
X154598300Y-94378819D01*
X154598300Y-94510181D01*
X154598300Y-95322981D01*
X154648570Y-95444343D01*
X154741457Y-95537230D01*
X154862819Y-95587500D01*
X154871304Y-95587500D01*
X154807602Y-95682837D01*
X154772800Y-95857800D01*
X154772800Y-97419800D01*
X154489319Y-97419800D01*
X154367957Y-97470070D01*
X154275070Y-97562957D01*
X154224800Y-97684319D01*
X154224800Y-97815681D01*
X154224800Y-101119800D01*
X154000000Y-101119800D01*
X154000000Y-99785750D01*
X154000000Y-99214250D01*
X154000000Y-97876309D01*
X154000000Y-97623690D01*
X153903327Y-97390301D01*
X153724698Y-97211673D01*
X153491309Y-97115000D01*
X152975750Y-97115000D01*
X152817000Y-97273750D01*
X152817000Y-99373000D01*
X153841250Y-99373000D01*
X154000000Y-99214250D01*
X154000000Y-99785750D01*
X153841250Y-99627000D01*
X152817000Y-99627000D01*
X152817000Y-99647000D01*
X152563000Y-99647000D01*
X152563000Y-99627000D01*
X152563000Y-99373000D01*
X152563000Y-97273750D01*
X152404250Y-97115000D01*
X151888691Y-97115000D01*
X151655302Y-97211673D01*
X151476673Y-97390301D01*
X151380000Y-97623690D01*
X151380000Y-97876309D01*
X151380000Y-99214250D01*
X151538750Y-99373000D01*
X152563000Y-99373000D01*
X152563000Y-99627000D01*
X151538750Y-99627000D01*
X151380000Y-99785750D01*
X151380000Y-101119800D01*
X151155200Y-101119800D01*
X151155200Y-97684319D01*
X151104930Y-97562957D01*
X151012043Y-97470070D01*
X150890681Y-97419800D01*
X150759319Y-97419800D01*
X150457200Y-97419800D01*
X150457200Y-95587500D01*
X150637181Y-95587500D01*
X150758543Y-95537230D01*
X150851430Y-95444343D01*
X150901700Y-95322981D01*
X150901700Y-95191619D01*
X150901700Y-94378819D01*
X150851430Y-94257457D01*
X150758543Y-94164570D01*
X150637181Y-94114300D01*
X150505819Y-94114300D01*
X149362819Y-94114300D01*
X149241457Y-94164570D01*
X149148570Y-94257457D01*
X149098300Y-94378819D01*
X149098300Y-94510181D01*
X149098300Y-94940797D01*
X148908694Y-95130300D01*
X148901700Y-95130300D01*
X148901700Y-94378819D01*
X148851430Y-94257457D01*
X148758543Y-94164570D01*
X148637181Y-94114300D01*
X148505819Y-94114300D01*
X148457200Y-94114300D01*
X148457200Y-94114000D01*
X148422398Y-93939037D01*
X148386759Y-93885700D01*
X148637181Y-93885700D01*
X148758543Y-93835430D01*
X148851430Y-93742543D01*
X148901700Y-93621181D01*
X148901700Y-93606300D01*
X149098300Y-93606300D01*
X149098300Y-93621181D01*
X149148570Y-93742543D01*
X149241457Y-93835430D01*
X149362819Y-93885700D01*
X149494181Y-93885700D01*
X150637181Y-93885700D01*
X150758543Y-93835430D01*
X150851430Y-93742543D01*
X150901700Y-93621181D01*
X150901700Y-93606300D01*
X151098300Y-93606300D01*
X151098300Y-93621181D01*
X151148570Y-93742543D01*
X151241457Y-93835430D01*
X151362819Y-93885700D01*
X151494181Y-93885700D01*
X152444800Y-93885700D01*
X152444800Y-93924849D01*
X152255246Y-94114300D01*
X151362819Y-94114300D01*
X151241457Y-94164570D01*
X151148570Y-94257457D01*
X151098300Y-94378819D01*
X151098300Y-94510181D01*
X151098300Y-95322981D01*
X151148570Y-95444343D01*
X151241457Y-95537230D01*
X151362819Y-95587500D01*
X151494181Y-95587500D01*
X152637181Y-95587500D01*
X152758543Y-95537230D01*
X152851430Y-95444343D01*
X152901700Y-95322981D01*
X152901700Y-95191619D01*
X152901700Y-94761002D01*
X153225202Y-94437677D01*
X153225238Y-94437623D01*
X153225289Y-94437589D01*
X153273935Y-94364784D01*
X153324351Y-94289377D01*
X153324363Y-94289314D01*
X153324398Y-94289263D01*
X153341654Y-94202508D01*
X153359200Y-94114424D01*
X153359187Y-94114361D01*
X153359200Y-94114300D01*
X153359200Y-92564200D01*
X153359154Y-92563972D01*
X153359199Y-92563748D01*
X153341824Y-92476844D01*
X153324398Y-92389237D01*
X153324270Y-92389045D01*
X153324225Y-92388820D01*
X153274725Y-92314897D01*
X153225289Y-92240911D01*
X153225097Y-92240783D01*
X153224969Y-92240591D01*
X153207200Y-92222857D01*
X153207200Y-90526540D01*
X153263991Y-90526540D01*
X153313062Y-90526540D01*
X154102601Y-91316079D01*
X154250927Y-91415188D01*
X154425890Y-91449990D01*
X156161374Y-91449990D01*
X156336337Y-91415188D01*
X156484663Y-91316079D01*
X156667521Y-91133221D01*
X157232478Y-91133221D01*
X157367501Y-91268243D01*
X157367501Y-91583200D01*
X156611411Y-92339291D01*
X156512302Y-92487617D01*
X156477500Y-92662580D01*
X156477500Y-96352900D01*
X156512302Y-96527863D01*
X156611411Y-96676189D01*
X157065720Y-97130498D01*
X157214046Y-97229607D01*
X157389009Y-97264409D01*
X159883649Y-97264409D01*
G36*
X163399110Y-90087500D02*
X163232124Y-90254195D01*
X163113935Y-90538827D01*
X163113666Y-90847021D01*
X163162447Y-90965080D01*
X161236079Y-90965080D01*
X161114717Y-91015350D01*
X161021830Y-91108237D01*
X160971560Y-91229599D01*
X160971560Y-91360961D01*
X160971560Y-91960401D01*
X161021830Y-92081763D01*
X161114717Y-92174650D01*
X161236079Y-92224920D01*
X161367441Y-92224920D01*
X163040002Y-92224920D01*
X163029842Y-92235080D01*
X161236079Y-92235080D01*
X161114717Y-92285350D01*
X161021830Y-92378237D01*
X161009584Y-92407800D01*
X160651000Y-92407800D01*
X160543721Y-92429138D01*
X160476047Y-92442598D01*
X160476042Y-92442600D01*
X160476037Y-92442602D01*
X160401503Y-92492404D01*
X160327719Y-92541703D01*
X159401700Y-93467675D01*
X159401700Y-92677019D01*
X159351430Y-92555657D01*
X159258543Y-92462770D01*
X159137181Y-92412500D01*
X159005819Y-92412500D01*
X158957200Y-92412500D01*
X158957200Y-90718100D01*
X158957188Y-90718040D01*
X158957200Y-90717981D01*
X158939939Y-90631326D01*
X158922398Y-90543137D01*
X158922363Y-90543085D01*
X158922352Y-90543027D01*
X158873111Y-90469375D01*
X158823289Y-90394811D01*
X158823238Y-90394777D01*
X158823205Y-90394727D01*
X158057205Y-89629126D01*
X157981223Y-89578385D01*
X157908963Y-89530102D01*
X157908904Y-89530090D01*
X157908853Y-89530056D01*
X157820544Y-89512514D01*
X157798948Y-89508219D01*
X157760310Y-89414937D01*
X157667423Y-89322050D01*
X157546061Y-89271780D01*
X157414699Y-89271780D01*
X156413939Y-89271780D01*
X156292577Y-89322050D01*
X156247538Y-89367088D01*
X156228430Y-89320957D01*
X156135543Y-89228070D01*
X156014181Y-89177800D01*
X155882819Y-89177800D01*
X154485819Y-89177800D01*
X154457200Y-89189654D01*
X154457200Y-88810345D01*
X154485819Y-88822200D01*
X154617181Y-88822200D01*
X156014181Y-88822200D01*
X156135543Y-88771930D01*
X156228430Y-88679043D01*
X156247538Y-88632911D01*
X156292577Y-88677950D01*
X156413939Y-88728220D01*
X156545301Y-88728220D01*
X157546061Y-88728220D01*
X157667423Y-88677950D01*
X157760310Y-88585063D01*
X157810580Y-88463701D01*
X157810580Y-88332339D01*
X157810580Y-87631299D01*
X157760310Y-87509937D01*
X157667423Y-87417050D01*
X157632412Y-87402548D01*
X157758376Y-87276805D01*
X157876565Y-86992173D01*
X157876834Y-86683979D01*
X157759141Y-86399141D01*
X157582500Y-86222190D01*
X157582500Y-85948160D01*
X158821921Y-85948160D01*
X158943283Y-85897890D01*
X159036170Y-85805003D01*
X159062800Y-85740712D01*
X159062800Y-88319280D01*
X158953939Y-88319280D01*
X158832577Y-88369550D01*
X158739690Y-88462437D01*
X158689420Y-88583799D01*
X158689420Y-88715161D01*
X158689420Y-89416201D01*
X158739690Y-89537563D01*
X158832577Y-89630450D01*
X158953939Y-89680720D01*
X159085301Y-89680720D01*
X160086061Y-89680720D01*
X160207423Y-89630450D01*
X160300310Y-89537563D01*
X160333597Y-89457200D01*
X160598300Y-89457200D01*
X160598300Y-89822981D01*
X160648570Y-89944343D01*
X160741457Y-90037230D01*
X160862819Y-90087500D01*
X160994181Y-90087500D01*
X162137181Y-90087500D01*
X162258543Y-90037230D01*
X162351430Y-89944343D01*
X162401700Y-89822981D01*
X162401700Y-89808100D01*
X162598300Y-89808100D01*
X162598300Y-89822981D01*
X162648570Y-89944343D01*
X162741457Y-90037230D01*
X162862819Y-90087500D01*
X162994181Y-90087500D01*
X163399110Y-90087500D01*
X163399110Y-90087500D01*
G37*
X163399110Y-90087500D02*
X163232124Y-90254195D01*
X163113935Y-90538827D01*
X163113666Y-90847021D01*
X163162447Y-90965080D01*
X161236079Y-90965080D01*
X161114717Y-91015350D01*
X161021830Y-91108237D01*
X160971560Y-91229599D01*
X160971560Y-91360961D01*
X160971560Y-91960401D01*
X161021830Y-92081763D01*
X161114717Y-92174650D01*
X161236079Y-92224920D01*
X161367441Y-92224920D01*
X163040002Y-92224920D01*
X163029842Y-92235080D01*
X161236079Y-92235080D01*
X161114717Y-92285350D01*
X161021830Y-92378237D01*
X161009584Y-92407800D01*
X160651000Y-92407800D01*
X160543721Y-92429138D01*
X160476047Y-92442598D01*
X160476042Y-92442600D01*
X160476037Y-92442602D01*
X160401503Y-92492404D01*
X160327719Y-92541703D01*
X159401700Y-93467675D01*
X159401700Y-92677019D01*
X159351430Y-92555657D01*
X159258543Y-92462770D01*
X159137181Y-92412500D01*
X159005819Y-92412500D01*
X158957200Y-92412500D01*
X158957200Y-90718100D01*
X158957188Y-90718040D01*
X158957200Y-90717981D01*
X158939939Y-90631326D01*
X158922398Y-90543137D01*
X158922363Y-90543085D01*
X158922352Y-90543027D01*
X158873111Y-90469375D01*
X158823289Y-90394811D01*
X158823238Y-90394777D01*
X158823205Y-90394727D01*
X158057205Y-89629126D01*
X157981223Y-89578385D01*
X157908963Y-89530102D01*
X157908904Y-89530090D01*
X157908853Y-89530056D01*
X157820544Y-89512514D01*
X157798948Y-89508219D01*
X157760310Y-89414937D01*
X157667423Y-89322050D01*
X157546061Y-89271780D01*
X157414699Y-89271780D01*
X156413939Y-89271780D01*
X156292577Y-89322050D01*
X156247538Y-89367088D01*
X156228430Y-89320957D01*
X156135543Y-89228070D01*
X156014181Y-89177800D01*
X155882819Y-89177800D01*
X154485819Y-89177800D01*
X154457200Y-89189654D01*
X154457200Y-88810345D01*
X154485819Y-88822200D01*
X154617181Y-88822200D01*
X156014181Y-88822200D01*
X156135543Y-88771930D01*
X156228430Y-88679043D01*
X156247538Y-88632911D01*
X156292577Y-88677950D01*
X156413939Y-88728220D01*
X156545301Y-88728220D01*
X157546061Y-88728220D01*
X157667423Y-88677950D01*
X157760310Y-88585063D01*
X157810580Y-88463701D01*
X157810580Y-88332339D01*
X157810580Y-87631299D01*
X157760310Y-87509937D01*
X157667423Y-87417050D01*
X157632412Y-87402548D01*
X157758376Y-87276805D01*
X157876565Y-86992173D01*
X157876834Y-86683979D01*
X157759141Y-86399141D01*
X157582500Y-86222190D01*
X157582500Y-85948160D01*
X158821921Y-85948160D01*
X158943283Y-85897890D01*
X159036170Y-85805003D01*
X159062800Y-85740712D01*
X159062800Y-88319280D01*
X158953939Y-88319280D01*
X158832577Y-88369550D01*
X158739690Y-88462437D01*
X158689420Y-88583799D01*
X158689420Y-88715161D01*
X158689420Y-89416201D01*
X158739690Y-89537563D01*
X158832577Y-89630450D01*
X158953939Y-89680720D01*
X159085301Y-89680720D01*
X160086061Y-89680720D01*
X160207423Y-89630450D01*
X160300310Y-89537563D01*
X160333597Y-89457200D01*
X160598300Y-89457200D01*
X160598300Y-89822981D01*
X160648570Y-89944343D01*
X160741457Y-90037230D01*
X160862819Y-90087500D01*
X160994181Y-90087500D01*
X162137181Y-90087500D01*
X162258543Y-90037230D01*
X162351430Y-89944343D01*
X162401700Y-89822981D01*
X162401700Y-89808100D01*
X162598300Y-89808100D01*
X162598300Y-89822981D01*
X162648570Y-89944343D01*
X162741457Y-90037230D01*
X162862819Y-90087500D01*
X162994181Y-90087500D01*
X163399110Y-90087500D01*
G36*
X163647000Y-87776100D02*
X163627000Y-87776100D01*
X163627000Y-87796100D01*
X163373000Y-87796100D01*
X163373000Y-87776100D01*
X163353000Y-87776100D01*
X163353000Y-87522100D01*
X163373000Y-87522100D01*
X163373000Y-87502100D01*
X163627000Y-87502100D01*
X163627000Y-87522100D01*
X163647000Y-87522100D01*
X163647000Y-87776100D01*
X163647000Y-87776100D01*
G37*
X163647000Y-87776100D02*
X163627000Y-87776100D01*
X163627000Y-87796100D01*
X163373000Y-87796100D01*
X163373000Y-87776100D01*
X163353000Y-87776100D01*
X163353000Y-87522100D01*
X163373000Y-87522100D01*
X163373000Y-87502100D01*
X163627000Y-87502100D01*
X163627000Y-87522100D01*
X163647000Y-87522100D01*
X163647000Y-87776100D01*
G36*
X166147000Y-83776100D02*
X166127000Y-83776100D01*
X166127000Y-83796100D01*
X165873000Y-83796100D01*
X165873000Y-83776100D01*
X165041678Y-83776100D01*
X164984063Y-83737602D01*
X164809100Y-83702800D01*
X164674440Y-83702800D01*
X164674440Y-83609179D01*
X164674440Y-83309459D01*
X164624170Y-83188097D01*
X164531283Y-83095210D01*
X164409921Y-83044940D01*
X164278559Y-83044940D01*
X162978079Y-83044940D01*
X162922890Y-83067800D01*
X162713300Y-83067800D01*
X162538337Y-83102602D01*
X162390011Y-83201711D01*
X162290902Y-83350037D01*
X162256100Y-83525000D01*
X162256100Y-83714886D01*
X162118079Y-83714766D01*
X161833241Y-83832459D01*
X161615124Y-84050195D01*
X161496935Y-84334827D01*
X161496666Y-84643021D01*
X161614359Y-84927859D01*
X161832095Y-85145976D01*
X161841399Y-85149839D01*
X161843022Y-85157999D01*
X160257411Y-86743611D01*
X160158302Y-86891937D01*
X160123500Y-87066900D01*
X160123500Y-88229100D01*
X160146410Y-88344277D01*
X160086061Y-88319280D01*
X159977200Y-88319280D01*
X159977200Y-85330200D01*
X159977191Y-85330155D01*
X159977200Y-85330111D01*
X159959775Y-85242599D01*
X159942398Y-85155237D01*
X159942372Y-85155199D01*
X159942364Y-85155155D01*
X159892929Y-85081203D01*
X159843289Y-85006911D01*
X159843251Y-85006885D01*
X159843226Y-85006848D01*
X159333226Y-84497047D01*
X159258291Y-84446998D01*
X159184963Y-84398002D01*
X159184917Y-84397992D01*
X159184880Y-84397968D01*
X159098412Y-84380786D01*
X159086440Y-84378404D01*
X159086440Y-84256879D01*
X159086440Y-83957159D01*
X159041576Y-83848850D01*
X159086440Y-83740541D01*
X159086440Y-83609179D01*
X159086440Y-83309459D01*
X159036170Y-83188097D01*
X158943283Y-83095210D01*
X158821921Y-83044940D01*
X158690559Y-83044940D01*
X157922938Y-83044940D01*
X158103468Y-82864410D01*
X164908764Y-82864410D01*
X164890173Y-82883002D01*
X164793500Y-83116391D01*
X164793500Y-83363350D01*
X164952250Y-83522100D01*
X165873000Y-83522100D01*
X165873000Y-83502100D01*
X166127000Y-83502100D01*
X166127000Y-83522100D01*
X166147000Y-83522100D01*
X166147000Y-83776100D01*
X166147000Y-83776100D01*
G37*
X166147000Y-83776100D02*
X166127000Y-83776100D01*
X166127000Y-83796100D01*
X165873000Y-83796100D01*
X165873000Y-83776100D01*
X165041678Y-83776100D01*
X164984063Y-83737602D01*
X164809100Y-83702800D01*
X164674440Y-83702800D01*
X164674440Y-83609179D01*
X164674440Y-83309459D01*
X164624170Y-83188097D01*
X164531283Y-83095210D01*
X164409921Y-83044940D01*
X164278559Y-83044940D01*
X162978079Y-83044940D01*
X162922890Y-83067800D01*
X162713300Y-83067800D01*
X162538337Y-83102602D01*
X162390011Y-83201711D01*
X162290902Y-83350037D01*
X162256100Y-83525000D01*
X162256100Y-83714886D01*
X162118079Y-83714766D01*
X161833241Y-83832459D01*
X161615124Y-84050195D01*
X161496935Y-84334827D01*
X161496666Y-84643021D01*
X161614359Y-84927859D01*
X161832095Y-85145976D01*
X161841399Y-85149839D01*
X161843022Y-85157999D01*
X160257411Y-86743611D01*
X160158302Y-86891937D01*
X160123500Y-87066900D01*
X160123500Y-88229100D01*
X160146410Y-88344277D01*
X160086061Y-88319280D01*
X159977200Y-88319280D01*
X159977200Y-85330200D01*
X159977191Y-85330155D01*
X159977200Y-85330111D01*
X159959775Y-85242599D01*
X159942398Y-85155237D01*
X159942372Y-85155199D01*
X159942364Y-85155155D01*
X159892929Y-85081203D01*
X159843289Y-85006911D01*
X159843251Y-85006885D01*
X159843226Y-85006848D01*
X159333226Y-84497047D01*
X159258291Y-84446998D01*
X159184963Y-84398002D01*
X159184917Y-84397992D01*
X159184880Y-84397968D01*
X159098412Y-84380786D01*
X159086440Y-84378404D01*
X159086440Y-84256879D01*
X159086440Y-83957159D01*
X159041576Y-83848850D01*
X159086440Y-83740541D01*
X159086440Y-83609179D01*
X159086440Y-83309459D01*
X159036170Y-83188097D01*
X158943283Y-83095210D01*
X158821921Y-83044940D01*
X158690559Y-83044940D01*
X157922938Y-83044940D01*
X158103468Y-82864410D01*
X164908764Y-82864410D01*
X164890173Y-82883002D01*
X164793500Y-83116391D01*
X164793500Y-83363350D01*
X164952250Y-83522100D01*
X165873000Y-83522100D01*
X165873000Y-83502100D01*
X166127000Y-83502100D01*
X166127000Y-83522100D01*
X166147000Y-83522100D01*
X166147000Y-83776100D01*
G36*
X170017501Y-95690921D02*
X168288621Y-97419800D01*
X167189319Y-97419800D01*
X167067957Y-97470070D01*
X166975070Y-97562957D01*
X166924800Y-97684319D01*
X166924800Y-97815681D01*
X166924800Y-101119800D01*
X166395200Y-101119800D01*
X166395200Y-97684319D01*
X166394755Y-97683246D01*
X166609821Y-97683434D01*
X166894659Y-97565741D01*
X167112776Y-97348005D01*
X167230965Y-97063373D01*
X167231234Y-96755179D01*
X167113541Y-96470341D01*
X166895805Y-96252224D01*
X166611173Y-96134035D01*
X166302979Y-96133766D01*
X166018141Y-96251459D01*
X165800024Y-96469195D01*
X165681835Y-96753827D01*
X165681653Y-96962300D01*
X164617598Y-96962300D01*
X166168400Y-95411498D01*
X166168400Y-95770401D01*
X166218670Y-95891763D01*
X166311557Y-95984650D01*
X166432919Y-96034920D01*
X166564281Y-96034920D01*
X168763921Y-96034920D01*
X168885283Y-95984650D01*
X168978170Y-95891763D01*
X169028440Y-95770401D01*
X169028440Y-95639039D01*
X169028440Y-95039599D01*
X168978170Y-94918237D01*
X168885283Y-94825350D01*
X168763921Y-94775080D01*
X168632559Y-94775080D01*
X166804818Y-94775080D01*
X166814978Y-94764920D01*
X168763921Y-94764920D01*
X168885283Y-94714650D01*
X168978170Y-94621763D01*
X169028440Y-94500401D01*
X169028440Y-94369039D01*
X169028440Y-93769599D01*
X169009230Y-93723222D01*
X169057939Y-93703047D01*
X169236567Y-93524418D01*
X169333240Y-93291029D01*
X169333240Y-93150750D01*
X169174490Y-92992000D01*
X167725420Y-92992000D01*
X167725420Y-93012000D01*
X167471420Y-93012000D01*
X167471420Y-92992000D01*
X167451420Y-92992000D01*
X167451420Y-92738000D01*
X167471420Y-92738000D01*
X167471420Y-92718000D01*
X167725420Y-92718000D01*
X167725420Y-92738000D01*
X169174490Y-92738000D01*
X169333240Y-92579250D01*
X169333240Y-92438971D01*
X169236567Y-92205582D01*
X169057939Y-92026953D01*
X169009230Y-92006777D01*
X169028440Y-91960401D01*
X169028440Y-91829039D01*
X169028440Y-91686318D01*
X170017501Y-92675379D01*
X170017501Y-95690921D01*
X170017501Y-95690921D01*
G37*
X170017501Y-95690921D02*
X168288621Y-97419800D01*
X167189319Y-97419800D01*
X167067957Y-97470070D01*
X166975070Y-97562957D01*
X166924800Y-97684319D01*
X166924800Y-97815681D01*
X166924800Y-101119800D01*
X166395200Y-101119800D01*
X166395200Y-97684319D01*
X166394755Y-97683246D01*
X166609821Y-97683434D01*
X166894659Y-97565741D01*
X167112776Y-97348005D01*
X167230965Y-97063373D01*
X167231234Y-96755179D01*
X167113541Y-96470341D01*
X166895805Y-96252224D01*
X166611173Y-96134035D01*
X166302979Y-96133766D01*
X166018141Y-96251459D01*
X165800024Y-96469195D01*
X165681835Y-96753827D01*
X165681653Y-96962300D01*
X164617598Y-96962300D01*
X166168400Y-95411498D01*
X166168400Y-95770401D01*
X166218670Y-95891763D01*
X166311557Y-95984650D01*
X166432919Y-96034920D01*
X166564281Y-96034920D01*
X168763921Y-96034920D01*
X168885283Y-95984650D01*
X168978170Y-95891763D01*
X169028440Y-95770401D01*
X169028440Y-95639039D01*
X169028440Y-95039599D01*
X168978170Y-94918237D01*
X168885283Y-94825350D01*
X168763921Y-94775080D01*
X168632559Y-94775080D01*
X166804818Y-94775080D01*
X166814978Y-94764920D01*
X168763921Y-94764920D01*
X168885283Y-94714650D01*
X168978170Y-94621763D01*
X169028440Y-94500401D01*
X169028440Y-94369039D01*
X169028440Y-93769599D01*
X169009230Y-93723222D01*
X169057939Y-93703047D01*
X169236567Y-93524418D01*
X169333240Y-93291029D01*
X169333240Y-93150750D01*
X169174490Y-92992000D01*
X167725420Y-92992000D01*
X167725420Y-93012000D01*
X167471420Y-93012000D01*
X167471420Y-92992000D01*
X167451420Y-92992000D01*
X167451420Y-92738000D01*
X167471420Y-92738000D01*
X167471420Y-92718000D01*
X167725420Y-92718000D01*
X167725420Y-92738000D01*
X169174490Y-92738000D01*
X169333240Y-92579250D01*
X169333240Y-92438971D01*
X169236567Y-92205582D01*
X169057939Y-92026953D01*
X169009230Y-92006777D01*
X169028440Y-91960401D01*
X169028440Y-91829039D01*
X169028440Y-91686318D01*
X170017501Y-92675379D01*
X170017501Y-95690921D01*
G36*
X171119800Y-97115000D02*
X170755750Y-97115000D01*
X170597000Y-97273750D01*
X170597000Y-99373000D01*
X170617000Y-99373000D01*
X170617000Y-99627000D01*
X170597000Y-99627000D01*
X170597000Y-99647000D01*
X170343000Y-99647000D01*
X170343000Y-99627000D01*
X169318750Y-99627000D01*
X169160000Y-99785750D01*
X169160000Y-101119800D01*
X168935200Y-101119800D01*
X168935200Y-98066378D01*
X169160000Y-97841578D01*
X169160000Y-97876309D01*
X169160000Y-99214250D01*
X169318750Y-99373000D01*
X170343000Y-99373000D01*
X170343000Y-97273750D01*
X170184250Y-97115000D01*
X169886578Y-97115000D01*
X170797990Y-96203588D01*
X170897099Y-96055262D01*
X170931901Y-95880299D01*
X170931901Y-92486001D01*
X170897099Y-92311038D01*
X170797990Y-92162712D01*
X168697707Y-90062429D01*
X168758543Y-90037230D01*
X168851430Y-89944343D01*
X168901700Y-89822981D01*
X168901700Y-89691619D01*
X168901700Y-88878819D01*
X168873621Y-88811032D01*
X168886363Y-88808498D01*
X169034689Y-88709389D01*
X169225389Y-88518689D01*
X169225390Y-88518689D01*
X169324498Y-88370363D01*
X169359300Y-88195400D01*
X169359300Y-84459000D01*
X169324498Y-84284037D01*
X169225389Y-84135711D01*
X168901700Y-83812022D01*
X168901700Y-83177019D01*
X168851430Y-83055657D01*
X168758543Y-82962770D01*
X168637181Y-82912500D01*
X168505819Y-82912500D01*
X168002177Y-82912500D01*
X167173599Y-82083921D01*
X167025273Y-81984812D01*
X166850310Y-81950010D01*
X157914090Y-81950010D01*
X157739127Y-81984812D01*
X157590801Y-82083921D01*
X155745922Y-83928800D01*
X154651700Y-83928800D01*
X154651700Y-83177019D01*
X154601430Y-83055657D01*
X154508543Y-82962770D01*
X154387181Y-82912500D01*
X154255819Y-82912500D01*
X153112819Y-82912500D01*
X152991457Y-82962770D01*
X152898570Y-83055657D01*
X152848300Y-83177019D01*
X152848300Y-83191900D01*
X152651700Y-83191900D01*
X152651700Y-83177019D01*
X152601430Y-83055657D01*
X152508543Y-82962770D01*
X152387181Y-82912500D01*
X152255819Y-82912500D01*
X151494907Y-82912500D01*
X150734262Y-82151983D01*
X150656566Y-82100078D01*
X150585963Y-82052902D01*
X150585943Y-82052898D01*
X150585927Y-82052887D01*
X150497985Y-82035402D01*
X150411000Y-82018100D01*
X150410961Y-82018100D01*
X142878114Y-82018100D01*
X142878000Y-82018100D01*
X142791465Y-82035312D01*
X142703142Y-82052858D01*
X142703092Y-82052890D01*
X142703037Y-82052902D01*
X142630880Y-82101115D01*
X142554791Y-82151930D01*
X142151791Y-82554731D01*
X142151758Y-82554778D01*
X142151711Y-82554811D01*
X142102784Y-82628033D01*
X142052645Y-82703032D01*
X142052633Y-82703089D01*
X142052602Y-82703137D01*
X142035364Y-82789798D01*
X142017800Y-82877987D01*
X142017811Y-82878043D01*
X142017800Y-82878100D01*
X142017800Y-85693900D01*
X142017817Y-85693988D01*
X142017800Y-85694078D01*
X142035241Y-85781586D01*
X142052602Y-85868863D01*
X142052652Y-85868938D01*
X142052670Y-85869027D01*
X142102118Y-85942969D01*
X142151711Y-86017189D01*
X142151786Y-86017239D01*
X142151837Y-86017315D01*
X142794711Y-86659689D01*
X142794837Y-86659815D01*
X142869220Y-86709475D01*
X142943037Y-86758798D01*
X142943125Y-86758815D01*
X142943201Y-86758866D01*
X143030655Y-86776226D01*
X143118000Y-86793600D01*
X143118178Y-86793600D01*
X144103000Y-86793600D01*
X144189381Y-86776417D01*
X144275755Y-86759706D01*
X144276770Y-86759035D01*
X144277963Y-86758798D01*
X144351100Y-86709929D01*
X144424597Y-86661373D01*
X144501596Y-86585173D01*
X144502277Y-86584165D01*
X144503289Y-86583489D01*
X144503500Y-86583173D01*
X144503711Y-86583489D01*
X144504721Y-86584163D01*
X144505403Y-86585173D01*
X144582403Y-86661373D01*
X144655899Y-86709929D01*
X144729037Y-86758798D01*
X144730229Y-86759035D01*
X144731245Y-86759706D01*
X144817618Y-86776417D01*
X144904000Y-86793600D01*
X145939000Y-86793600D01*
X145939057Y-86793588D01*
X145939116Y-86793600D01*
X146027275Y-86776041D01*
X146113963Y-86758798D01*
X146114011Y-86758765D01*
X146114070Y-86758754D01*
X146188609Y-86708920D01*
X146262289Y-86659689D01*
X146262321Y-86659639D01*
X146262371Y-86659607D01*
X146834187Y-86087500D01*
X147637181Y-86087500D01*
X147758543Y-86037230D01*
X147851430Y-85944343D01*
X147901700Y-85822981D01*
X147901700Y-85808100D01*
X148848300Y-85808100D01*
X148848300Y-85822981D01*
X148898570Y-85944343D01*
X148991457Y-86037230D01*
X149112819Y-86087500D01*
X149244181Y-86087500D01*
X150387181Y-86087500D01*
X150508543Y-86037230D01*
X150601430Y-85944343D01*
X150651700Y-85822981D01*
X150651700Y-85808100D01*
X150848300Y-85808100D01*
X150848300Y-85822981D01*
X150898570Y-85944343D01*
X150991457Y-86037230D01*
X151112819Y-86087500D01*
X151244181Y-86087500D01*
X151292800Y-86087500D01*
X151292800Y-86804294D01*
X151074810Y-86714000D01*
X150822191Y-86714000D01*
X150535750Y-86714000D01*
X150377000Y-86872750D01*
X150377000Y-87793500D01*
X150397000Y-87793500D01*
X150397000Y-88047500D01*
X150377000Y-88047500D01*
X150377000Y-88968250D01*
X150535750Y-89127000D01*
X150822191Y-89127000D01*
X151074810Y-89127000D01*
X151308199Y-89030327D01*
X151486827Y-88851698D01*
X151572710Y-88644358D01*
X151572710Y-88666901D01*
X151622980Y-88788263D01*
X151715867Y-88881150D01*
X151733876Y-88888609D01*
X151729847Y-88894639D01*
X151680521Y-88967634D01*
X151680277Y-88968826D01*
X151679602Y-88969837D01*
X151662419Y-89056221D01*
X151644807Y-89142413D01*
X151645037Y-89143605D01*
X151644800Y-89144800D01*
X151644800Y-89189917D01*
X151622980Y-89211737D01*
X151572710Y-89333099D01*
X151572710Y-89464461D01*
X151572710Y-89803525D01*
X151525289Y-89756211D01*
X151524928Y-89755850D01*
X151450893Y-89706501D01*
X151376963Y-89657102D01*
X151376707Y-89657051D01*
X151376491Y-89656907D01*
X151289646Y-89639733D01*
X151278700Y-89637556D01*
X151278700Y-89442319D01*
X151228430Y-89320957D01*
X151135543Y-89228070D01*
X151014181Y-89177800D01*
X150882819Y-89177800D01*
X150123000Y-89177800D01*
X150123000Y-88968250D01*
X150123000Y-88047500D01*
X150123000Y-87793500D01*
X150123000Y-86872750D01*
X149964250Y-86714000D01*
X149677809Y-86714000D01*
X149425190Y-86714000D01*
X149191801Y-86810673D01*
X149013173Y-86989302D01*
X148916500Y-87222691D01*
X148916500Y-87634750D01*
X149075250Y-87793500D01*
X150123000Y-87793500D01*
X150123000Y-88047500D01*
X149075250Y-88047500D01*
X148916500Y-88206250D01*
X148916500Y-88618309D01*
X149013173Y-88851698D01*
X149191801Y-89030327D01*
X149425190Y-89127000D01*
X149677809Y-89127000D01*
X149964250Y-89127000D01*
X150123000Y-88968250D01*
X150123000Y-89177800D01*
X149485819Y-89177800D01*
X149364457Y-89228070D01*
X149271570Y-89320957D01*
X149221300Y-89442319D01*
X149221300Y-89573681D01*
X149221300Y-90716681D01*
X149271570Y-90838043D01*
X149364457Y-90930930D01*
X149485819Y-90981200D01*
X149617181Y-90981200D01*
X151014181Y-90981200D01*
X151135543Y-90930930D01*
X151228430Y-90838043D01*
X151253727Y-90776969D01*
X151326711Y-90849789D01*
X151327072Y-90850150D01*
X151401106Y-90899498D01*
X151475037Y-90948898D01*
X151475292Y-90948948D01*
X151475509Y-90949093D01*
X151562353Y-90966266D01*
X151650000Y-90983700D01*
X152292800Y-90983700D01*
X152292800Y-92412500D01*
X151362819Y-92412500D01*
X151241457Y-92462770D01*
X151148570Y-92555657D01*
X151098300Y-92677019D01*
X151098300Y-92691900D01*
X150901700Y-92691900D01*
X150901700Y-92677019D01*
X150851430Y-92555657D01*
X150758543Y-92462770D01*
X150637181Y-92412500D01*
X150505819Y-92412500D01*
X149362819Y-92412500D01*
X149241457Y-92462770D01*
X149148570Y-92555657D01*
X149098300Y-92677019D01*
X149098300Y-92691900D01*
X148901700Y-92691900D01*
X148901700Y-92677019D01*
X148851430Y-92555657D01*
X148758543Y-92462770D01*
X148637181Y-92412500D01*
X148505819Y-92412500D01*
X148457200Y-92412500D01*
X148457200Y-89603442D01*
X148422398Y-89428479D01*
X148323289Y-89280153D01*
X146995146Y-87952010D01*
X146846820Y-87852901D01*
X146671857Y-87818099D01*
X145078143Y-87818099D01*
X144903180Y-87852901D01*
X144754854Y-87952010D01*
X144325825Y-88381038D01*
X144325934Y-88257279D01*
X144208241Y-87972441D01*
X143990505Y-87754324D01*
X143705873Y-87636135D01*
X143397679Y-87635866D01*
X143112841Y-87753559D01*
X142894724Y-87971295D01*
X142776535Y-88255927D01*
X142776287Y-88538934D01*
X142740811Y-88574411D01*
X142641702Y-88722737D01*
X142606900Y-88897700D01*
X142606900Y-91800800D01*
X142641702Y-91975763D01*
X142740811Y-92124089D01*
X142791280Y-92174558D01*
X142607924Y-92357595D01*
X142489735Y-92642227D01*
X142489466Y-92950421D01*
X142607159Y-93235259D01*
X142824895Y-93453376D01*
X143109527Y-93571565D01*
X143417721Y-93571834D01*
X143421316Y-93570348D01*
X143423037Y-93571498D01*
X143598000Y-93606300D01*
X143598300Y-93606300D01*
X143598300Y-93621181D01*
X143648570Y-93742543D01*
X143741457Y-93835430D01*
X143862819Y-93885700D01*
X143994181Y-93885700D01*
X144944800Y-93885700D01*
X144944800Y-94048270D01*
X144944800Y-94048300D01*
X144957928Y-94114300D01*
X143862819Y-94114300D01*
X143741457Y-94164570D01*
X143648570Y-94257457D01*
X143598300Y-94378819D01*
X143598300Y-94510181D01*
X143598300Y-95322981D01*
X143648570Y-95444343D01*
X143741457Y-95537230D01*
X143862819Y-95587500D01*
X143950093Y-95587500D01*
X143927000Y-95703600D01*
X143927000Y-96733700D01*
X143961802Y-96908663D01*
X144060911Y-97056989D01*
X144423722Y-97419800D01*
X144329319Y-97419800D01*
X144207957Y-97470070D01*
X144115070Y-97562957D01*
X144064800Y-97684319D01*
X144064800Y-97815681D01*
X144064800Y-101119800D01*
X143840000Y-101119800D01*
X143840000Y-99785750D01*
X143840000Y-99214250D01*
X143840000Y-97876309D01*
X143840000Y-97623690D01*
X143743327Y-97390301D01*
X143564698Y-97211673D01*
X143331309Y-97115000D01*
X142815750Y-97115000D01*
X142657000Y-97273750D01*
X142657000Y-99373000D01*
X143681250Y-99373000D01*
X143840000Y-99214250D01*
X143840000Y-99785750D01*
X143681250Y-99627000D01*
X142657000Y-99627000D01*
X142657000Y-99647000D01*
X142403000Y-99647000D01*
X142403000Y-99627000D01*
X142383000Y-99627000D01*
X142383000Y-99373000D01*
X142403000Y-99373000D01*
X142403000Y-97273750D01*
X142244250Y-97115000D01*
X141880200Y-97115000D01*
X141880200Y-81880200D01*
X171119800Y-81880200D01*
X171119800Y-97115000D01*
X171119800Y-97115000D01*
G37*
X171119800Y-97115000D02*
X170755750Y-97115000D01*
X170597000Y-97273750D01*
X170597000Y-99373000D01*
X170617000Y-99373000D01*
X170617000Y-99627000D01*
X170597000Y-99627000D01*
X170597000Y-99647000D01*
X170343000Y-99647000D01*
X170343000Y-99627000D01*
X169318750Y-99627000D01*
X169160000Y-99785750D01*
X169160000Y-101119800D01*
X168935200Y-101119800D01*
X168935200Y-98066378D01*
X169160000Y-97841578D01*
X169160000Y-97876309D01*
X169160000Y-99214250D01*
X169318750Y-99373000D01*
X170343000Y-99373000D01*
X170343000Y-97273750D01*
X170184250Y-97115000D01*
X169886578Y-97115000D01*
X170797990Y-96203588D01*
X170897099Y-96055262D01*
X170931901Y-95880299D01*
X170931901Y-92486001D01*
X170897099Y-92311038D01*
X170797990Y-92162712D01*
X168697707Y-90062429D01*
X168758543Y-90037230D01*
X168851430Y-89944343D01*
X168901700Y-89822981D01*
X168901700Y-89691619D01*
X168901700Y-88878819D01*
X168873621Y-88811032D01*
X168886363Y-88808498D01*
X169034689Y-88709389D01*
X169225389Y-88518689D01*
X169225390Y-88518689D01*
X169324498Y-88370363D01*
X169359300Y-88195400D01*
X169359300Y-84459000D01*
X169324498Y-84284037D01*
X169225389Y-84135711D01*
X168901700Y-83812022D01*
X168901700Y-83177019D01*
X168851430Y-83055657D01*
X168758543Y-82962770D01*
X168637181Y-82912500D01*
X168505819Y-82912500D01*
X168002177Y-82912500D01*
X167173599Y-82083921D01*
X167025273Y-81984812D01*
X166850310Y-81950010D01*
X157914090Y-81950010D01*
X157739127Y-81984812D01*
X157590801Y-82083921D01*
X155745922Y-83928800D01*
X154651700Y-83928800D01*
X154651700Y-83177019D01*
X154601430Y-83055657D01*
X154508543Y-82962770D01*
X154387181Y-82912500D01*
X154255819Y-82912500D01*
X153112819Y-82912500D01*
X152991457Y-82962770D01*
X152898570Y-83055657D01*
X152848300Y-83177019D01*
X152848300Y-83191900D01*
X152651700Y-83191900D01*
X152651700Y-83177019D01*
X152601430Y-83055657D01*
X152508543Y-82962770D01*
X152387181Y-82912500D01*
X152255819Y-82912500D01*
X151494907Y-82912500D01*
X150734262Y-82151983D01*
X150656566Y-82100078D01*
X150585963Y-82052902D01*
X150585943Y-82052898D01*
X150585927Y-82052887D01*
X150497985Y-82035402D01*
X150411000Y-82018100D01*
X150410961Y-82018100D01*
X142878114Y-82018100D01*
X142878000Y-82018100D01*
X142791465Y-82035312D01*
X142703142Y-82052858D01*
X142703092Y-82052890D01*
X142703037Y-82052902D01*
X142630880Y-82101115D01*
X142554791Y-82151930D01*
X142151791Y-82554731D01*
X142151758Y-82554778D01*
X142151711Y-82554811D01*
X142102784Y-82628033D01*
X142052645Y-82703032D01*
X142052633Y-82703089D01*
X142052602Y-82703137D01*
X142035364Y-82789798D01*
X142017800Y-82877987D01*
X142017811Y-82878043D01*
X142017800Y-82878100D01*
X142017800Y-85693900D01*
X142017817Y-85693988D01*
X142017800Y-85694078D01*
X142035241Y-85781586D01*
X142052602Y-85868863D01*
X142052652Y-85868938D01*
X142052670Y-85869027D01*
X142102118Y-85942969D01*
X142151711Y-86017189D01*
X142151786Y-86017239D01*
X142151837Y-86017315D01*
X142794711Y-86659689D01*
X142794837Y-86659815D01*
X142869220Y-86709475D01*
X142943037Y-86758798D01*
X142943125Y-86758815D01*
X142943201Y-86758866D01*
X143030655Y-86776226D01*
X143118000Y-86793600D01*
X143118178Y-86793600D01*
X144103000Y-86793600D01*
X144189381Y-86776417D01*
X144275755Y-86759706D01*
X144276770Y-86759035D01*
X144277963Y-86758798D01*
X144351100Y-86709929D01*
X144424597Y-86661373D01*
X144501596Y-86585173D01*
X144502277Y-86584165D01*
X144503289Y-86583489D01*
X144503500Y-86583173D01*
X144503711Y-86583489D01*
X144504721Y-86584163D01*
X144505403Y-86585173D01*
X144582403Y-86661373D01*
X144655899Y-86709929D01*
X144729037Y-86758798D01*
X144730229Y-86759035D01*
X144731245Y-86759706D01*
X144817618Y-86776417D01*
X144904000Y-86793600D01*
X145939000Y-86793600D01*
X145939057Y-86793588D01*
X145939116Y-86793600D01*
X146027275Y-86776041D01*
X146113963Y-86758798D01*
X146114011Y-86758765D01*
X146114070Y-86758754D01*
X146188609Y-86708920D01*
X146262289Y-86659689D01*
X146262321Y-86659639D01*
X146262371Y-86659607D01*
X146834187Y-86087500D01*
X147637181Y-86087500D01*
X147758543Y-86037230D01*
X147851430Y-85944343D01*
X147901700Y-85822981D01*
X147901700Y-85808100D01*
X148848300Y-85808100D01*
X148848300Y-85822981D01*
X148898570Y-85944343D01*
X148991457Y-86037230D01*
X149112819Y-86087500D01*
X149244181Y-86087500D01*
X150387181Y-86087500D01*
X150508543Y-86037230D01*
X150601430Y-85944343D01*
X150651700Y-85822981D01*
X150651700Y-85808100D01*
X150848300Y-85808100D01*
X150848300Y-85822981D01*
X150898570Y-85944343D01*
X150991457Y-86037230D01*
X151112819Y-86087500D01*
X151244181Y-86087500D01*
X151292800Y-86087500D01*
X151292800Y-86804294D01*
X151074810Y-86714000D01*
X150822191Y-86714000D01*
X150535750Y-86714000D01*
X150377000Y-86872750D01*
X150377000Y-87793500D01*
X150397000Y-87793500D01*
X150397000Y-88047500D01*
X150377000Y-88047500D01*
X150377000Y-88968250D01*
X150535750Y-89127000D01*
X150822191Y-89127000D01*
X151074810Y-89127000D01*
X151308199Y-89030327D01*
X151486827Y-88851698D01*
X151572710Y-88644358D01*
X151572710Y-88666901D01*
X151622980Y-88788263D01*
X151715867Y-88881150D01*
X151733876Y-88888609D01*
X151729847Y-88894639D01*
X151680521Y-88967634D01*
X151680277Y-88968826D01*
X151679602Y-88969837D01*
X151662419Y-89056221D01*
X151644807Y-89142413D01*
X151645037Y-89143605D01*
X151644800Y-89144800D01*
X151644800Y-89189917D01*
X151622980Y-89211737D01*
X151572710Y-89333099D01*
X151572710Y-89464461D01*
X151572710Y-89803525D01*
X151525289Y-89756211D01*
X151524928Y-89755850D01*
X151450893Y-89706501D01*
X151376963Y-89657102D01*
X151376707Y-89657051D01*
X151376491Y-89656907D01*
X151289646Y-89639733D01*
X151278700Y-89637556D01*
X151278700Y-89442319D01*
X151228430Y-89320957D01*
X151135543Y-89228070D01*
X151014181Y-89177800D01*
X150882819Y-89177800D01*
X150123000Y-89177800D01*
X150123000Y-88968250D01*
X150123000Y-88047500D01*
X150123000Y-87793500D01*
X150123000Y-86872750D01*
X149964250Y-86714000D01*
X149677809Y-86714000D01*
X149425190Y-86714000D01*
X149191801Y-86810673D01*
X149013173Y-86989302D01*
X148916500Y-87222691D01*
X148916500Y-87634750D01*
X149075250Y-87793500D01*
X150123000Y-87793500D01*
X150123000Y-88047500D01*
X149075250Y-88047500D01*
X148916500Y-88206250D01*
X148916500Y-88618309D01*
X149013173Y-88851698D01*
X149191801Y-89030327D01*
X149425190Y-89127000D01*
X149677809Y-89127000D01*
X149964250Y-89127000D01*
X150123000Y-88968250D01*
X150123000Y-89177800D01*
X149485819Y-89177800D01*
X149364457Y-89228070D01*
X149271570Y-89320957D01*
X149221300Y-89442319D01*
X149221300Y-89573681D01*
X149221300Y-90716681D01*
X149271570Y-90838043D01*
X149364457Y-90930930D01*
X149485819Y-90981200D01*
X149617181Y-90981200D01*
X151014181Y-90981200D01*
X151135543Y-90930930D01*
X151228430Y-90838043D01*
X151253727Y-90776969D01*
X151326711Y-90849789D01*
X151327072Y-90850150D01*
X151401106Y-90899498D01*
X151475037Y-90948898D01*
X151475292Y-90948948D01*
X151475509Y-90949093D01*
X151562353Y-90966266D01*
X151650000Y-90983700D01*
X152292800Y-90983700D01*
X152292800Y-92412500D01*
X151362819Y-92412500D01*
X151241457Y-92462770D01*
X151148570Y-92555657D01*
X151098300Y-92677019D01*
X151098300Y-92691900D01*
X150901700Y-92691900D01*
X150901700Y-92677019D01*
X150851430Y-92555657D01*
X150758543Y-92462770D01*
X150637181Y-92412500D01*
X150505819Y-92412500D01*
X149362819Y-92412500D01*
X149241457Y-92462770D01*
X149148570Y-92555657D01*
X149098300Y-92677019D01*
X149098300Y-92691900D01*
X148901700Y-92691900D01*
X148901700Y-92677019D01*
X148851430Y-92555657D01*
X148758543Y-92462770D01*
X148637181Y-92412500D01*
X148505819Y-92412500D01*
X148457200Y-92412500D01*
X148457200Y-89603442D01*
X148422398Y-89428479D01*
X148323289Y-89280153D01*
X146995146Y-87952010D01*
X146846820Y-87852901D01*
X146671857Y-87818099D01*
X145078143Y-87818099D01*
X144903180Y-87852901D01*
X144754854Y-87952010D01*
X144325825Y-88381038D01*
X144325934Y-88257279D01*
X144208241Y-87972441D01*
X143990505Y-87754324D01*
X143705873Y-87636135D01*
X143397679Y-87635866D01*
X143112841Y-87753559D01*
X142894724Y-87971295D01*
X142776535Y-88255927D01*
X142776287Y-88538934D01*
X142740811Y-88574411D01*
X142641702Y-88722737D01*
X142606900Y-88897700D01*
X142606900Y-91800800D01*
X142641702Y-91975763D01*
X142740811Y-92124089D01*
X142791280Y-92174558D01*
X142607924Y-92357595D01*
X142489735Y-92642227D01*
X142489466Y-92950421D01*
X142607159Y-93235259D01*
X142824895Y-93453376D01*
X143109527Y-93571565D01*
X143417721Y-93571834D01*
X143421316Y-93570348D01*
X143423037Y-93571498D01*
X143598000Y-93606300D01*
X143598300Y-93606300D01*
X143598300Y-93621181D01*
X143648570Y-93742543D01*
X143741457Y-93835430D01*
X143862819Y-93885700D01*
X143994181Y-93885700D01*
X144944800Y-93885700D01*
X144944800Y-94048270D01*
X144944800Y-94048300D01*
X144957928Y-94114300D01*
X143862819Y-94114300D01*
X143741457Y-94164570D01*
X143648570Y-94257457D01*
X143598300Y-94378819D01*
X143598300Y-94510181D01*
X143598300Y-95322981D01*
X143648570Y-95444343D01*
X143741457Y-95537230D01*
X143862819Y-95587500D01*
X143950093Y-95587500D01*
X143927000Y-95703600D01*
X143927000Y-96733700D01*
X143961802Y-96908663D01*
X144060911Y-97056989D01*
X144423722Y-97419800D01*
X144329319Y-97419800D01*
X144207957Y-97470070D01*
X144115070Y-97562957D01*
X144064800Y-97684319D01*
X144064800Y-97815681D01*
X144064800Y-101119800D01*
X143840000Y-101119800D01*
X143840000Y-99785750D01*
X143840000Y-99214250D01*
X143840000Y-97876309D01*
X143840000Y-97623690D01*
X143743327Y-97390301D01*
X143564698Y-97211673D01*
X143331309Y-97115000D01*
X142815750Y-97115000D01*
X142657000Y-97273750D01*
X142657000Y-99373000D01*
X143681250Y-99373000D01*
X143840000Y-99214250D01*
X143840000Y-99785750D01*
X143681250Y-99627000D01*
X142657000Y-99627000D01*
X142657000Y-99647000D01*
X142403000Y-99647000D01*
X142403000Y-99627000D01*
X142383000Y-99627000D01*
X142383000Y-99373000D01*
X142403000Y-99373000D01*
X142403000Y-97273750D01*
X142244250Y-97115000D01*
X141880200Y-97115000D01*
X141880200Y-81880200D01*
X171119800Y-81880200D01*
X171119800Y-97115000D01*
M02*
