M48
INCH,TZ
T1C0.015
T2C0.020
%
G90
G05
T1
X038861Y-037441
X039755Y-035133
X040332Y-035444
X041010Y-035099
X041831Y-037144
X042453Y-038160
X043366Y-037835
X043369Y-033695
X043642Y-037194
X044843Y-035224
X045405Y-034755
X045735Y-035257
X046117Y-034746
X046245Y-033533
X047146Y-035368
X048831Y-037621
X048845Y-036122
X049980Y-035079
X050612Y-035124
X051102Y-033701
T2
X041957Y-038976
X042957Y-038976
X043957Y-038976
X044957Y-038976
X045957Y-038976
X046957Y-038976
X047957Y-038976
X048957Y-038976
X049957Y-038976
X050957Y-038976
T0
M30
