%FSLAX46Y46*%
G04 Gerber Fmt 4.6, Leading zero omitted, Abs format (unit mm)*
G04 Created by KiCad (PCBNEW (2014-09-02 BZR 5112)-product) date 2014-11-08 5:57:07 PM*
%MOMM*%
G01*
G04 APERTURE LIST*
%ADD10C,0.150000*%
%ADD11R,0.299720X1.300480*%
%ADD12R,0.599440X2.199640*%
%ADD13R,1.143000X0.812800*%
%ADD14R,0.812800X1.143000*%
%ADD15R,1.350000X3.500000*%
%ADD16C,0.889000*%
%ADD17C,0.254000*%
G04 APERTURE END LIST*
D10*
D11*
X115569600Y-92544000D03*
X116204600Y-92544000D03*
X116865000Y-92544000D03*
X117500000Y-92544000D03*
X118160400Y-92544000D03*
X118808100Y-92544000D03*
X119455800Y-92544000D03*
X119455800Y-86956000D03*
X118808100Y-86956000D03*
X118160400Y-86956000D03*
X117500000Y-86956000D03*
X116852300Y-86956000D03*
X116204600Y-86956000D03*
X115556900Y-86956000D03*
D12*
X101555000Y-92598420D03*
X102825000Y-92598420D03*
X104095000Y-92598420D03*
X105365000Y-92598420D03*
X106635000Y-92598420D03*
X107905000Y-92598420D03*
X109175000Y-92598420D03*
X110445000Y-92598420D03*
X110445000Y-87401580D03*
X109175000Y-87401580D03*
X107905000Y-87401580D03*
X106635000Y-87401580D03*
X105365000Y-87401580D03*
X104095000Y-87401580D03*
X102825000Y-87401580D03*
X101555000Y-87401580D03*
X127305000Y-92348420D03*
X128575000Y-92348420D03*
X129845000Y-92348420D03*
X131115000Y-92348420D03*
X132385000Y-92348420D03*
X133655000Y-92348420D03*
X134925000Y-92348420D03*
X136195000Y-92348420D03*
X136195000Y-87151580D03*
X134925000Y-87151580D03*
X133655000Y-87151580D03*
X132385000Y-87151580D03*
X131115000Y-87151580D03*
X129845000Y-87151580D03*
X128575000Y-87151580D03*
X127305000Y-87151580D03*
D13*
X99750000Y-96850900D03*
X99750000Y-95149100D03*
D14*
X120899100Y-93000000D03*
X122600900Y-93000000D03*
D13*
X99750000Y-100100900D03*
X99750000Y-98399100D03*
X102000000Y-98399100D03*
X102000000Y-100100900D03*
X104250000Y-96850900D03*
X104250000Y-95149100D03*
D14*
X125850900Y-93000000D03*
X124149100Y-93000000D03*
D13*
X102000000Y-96850900D03*
X102000000Y-95149100D03*
X104250000Y-98399100D03*
X104250000Y-100100900D03*
D14*
X108350900Y-95250000D03*
X106649100Y-95250000D03*
X113850900Y-93250000D03*
X112149100Y-93250000D03*
D13*
X99750000Y-92600900D03*
X99750000Y-90899100D03*
D14*
X112149100Y-91250000D03*
X113850900Y-91250000D03*
X113850900Y-88250000D03*
X112149100Y-88250000D03*
X106600900Y-85000000D03*
X104899100Y-85000000D03*
X113850900Y-86250000D03*
X112149100Y-86250000D03*
D13*
X99750000Y-87149100D03*
X99750000Y-88850900D03*
D14*
X122600900Y-86000000D03*
X120899100Y-86000000D03*
X125850900Y-88250000D03*
X124149100Y-88250000D03*
X132399100Y-84750000D03*
X134100900Y-84750000D03*
X120899100Y-88250000D03*
X122600900Y-88250000D03*
X125850900Y-86000000D03*
X124149100Y-86000000D03*
X122600900Y-90500000D03*
X120899100Y-90500000D03*
X125850900Y-90500000D03*
X124149100Y-90500000D03*
X132399100Y-95000000D03*
X134100900Y-95000000D03*
D15*
X106570000Y-99000000D03*
X109110000Y-99000000D03*
X111650000Y-99000000D03*
X114190000Y-99000000D03*
X116730000Y-99000000D03*
X119270000Y-99000000D03*
X121810000Y-99000000D03*
X124350000Y-99000000D03*
X126890000Y-99000000D03*
X129430000Y-99000000D03*
D16*
X124030000Y-95557300D03*
X128553500Y-89215700D03*
X110156500Y-85586500D03*
X110851400Y-94471500D03*
X117461800Y-85173100D03*
X106250000Y-94345942D03*
X115328574Y-88277281D03*
X113900000Y-89469202D03*
X117137779Y-88253952D03*
X98706800Y-95100000D03*
X119750000Y-89835900D03*
X110150000Y-96100000D03*
X126950000Y-89100000D03*
X129800000Y-85600000D03*
X100977000Y-89238500D03*
X124066400Y-91750000D03*
X107829470Y-96926421D03*
X116167031Y-89552591D03*
X104165436Y-89150664D03*
X102442610Y-90027492D03*
D17*
X114847345Y-90243903D02*
X116167001Y-91563559D01*
X113113900Y-85642538D02*
X113113900Y-89829660D01*
X113528143Y-90243903D02*
X114847345Y-90243903D01*
X113113900Y-89829660D02*
X113528143Y-90243903D01*
X112819661Y-85348299D02*
X113113900Y-85642538D01*
X110785117Y-85586500D02*
X111023318Y-85348299D01*
X110156500Y-85586500D02*
X110785117Y-85586500D01*
X116167001Y-91563559D02*
X117423799Y-91563559D01*
X117423799Y-91563559D02*
X117500000Y-91639760D01*
X117500000Y-91639760D02*
X117500000Y-92544000D01*
X111023318Y-85348299D02*
X112819661Y-85348299D01*
X117500000Y-94701600D02*
X117500000Y-93524700D01*
X114190000Y-96919500D02*
X116407900Y-94701600D01*
X116407900Y-94701600D02*
X117500000Y-94701600D01*
X117500000Y-94701600D02*
X118355700Y-95557300D01*
X118355700Y-95557300D02*
X124030000Y-95557300D01*
X133655000Y-88581900D02*
X133021200Y-89215700D01*
X133021200Y-89215700D02*
X128553500Y-89215700D01*
X114190000Y-99000000D02*
X114190000Y-96919500D01*
X117500000Y-92544000D02*
X117500000Y-93524700D01*
X133655000Y-87151600D02*
X133655000Y-88581900D01*
X107905000Y-85971300D02*
X108028400Y-85847900D01*
X108028400Y-85847900D02*
X110156500Y-85847900D01*
X110156500Y-85847900D02*
X110156500Y-85586500D01*
X107905000Y-87401600D02*
X107905000Y-85971300D01*
X107905000Y-92598400D02*
X107905000Y-94028700D01*
X110851400Y-94471500D02*
X110408600Y-94028700D01*
X110408600Y-94028700D02*
X107905000Y-94028700D01*
X133655000Y-93778700D02*
X133136100Y-94297600D01*
X133136100Y-94297600D02*
X133136100Y-95711300D01*
X133136100Y-95711300D02*
X132515100Y-96332300D01*
X132515100Y-96332300D02*
X117317200Y-96332300D01*
X117317200Y-96332300D02*
X116730000Y-96919500D01*
X117461800Y-85173100D02*
X117500000Y-85211300D01*
X117500000Y-85211300D02*
X117500000Y-86956000D01*
X133655000Y-92348400D02*
X133655000Y-93778700D01*
X116730000Y-99000000D02*
X116730000Y-96919500D01*
X106649100Y-95250000D02*
X106649100Y-94745042D01*
X106649100Y-94745042D02*
X106250000Y-94345942D01*
X107457613Y-96151720D02*
X107179667Y-96429666D01*
X107614299Y-96085661D02*
X107614299Y-96135701D01*
X107614299Y-96135701D02*
X107598280Y-96151720D01*
X107598280Y-96151720D02*
X107457613Y-96151720D01*
X103217311Y-89655635D02*
X103200000Y-89638324D01*
X103200000Y-89638324D02*
X103200000Y-89020482D01*
X103200000Y-89020482D02*
X104095000Y-88125482D01*
X103217311Y-90366911D02*
X103217311Y-89655635D01*
X104095000Y-91244600D02*
X103217311Y-90366911D01*
X104095000Y-92598420D02*
X104095000Y-91244600D01*
X104899100Y-85825500D02*
X104095000Y-86629600D01*
X104899100Y-85000000D02*
X104899100Y-85825500D01*
X113850900Y-88250000D02*
X115301293Y-88250000D01*
X115301293Y-88250000D02*
X115328574Y-88277281D01*
X113850900Y-88250000D02*
X113850900Y-89420102D01*
X113850900Y-88750000D02*
X113919057Y-88681843D01*
X113850900Y-89420102D02*
X113900000Y-89469202D01*
X98706800Y-95100000D02*
X98400000Y-95100000D01*
X98400000Y-95100000D02*
X98400000Y-83400000D01*
X98400000Y-83400000D02*
X137600000Y-83400000D01*
X137600000Y-83400000D02*
X137600000Y-100600000D01*
X137600000Y-100600000D02*
X130500000Y-100600000D01*
X130500000Y-100600000D02*
X130500000Y-97050600D01*
X130500000Y-97050600D02*
X130369000Y-96919800D01*
X130369000Y-96919800D02*
X128491000Y-96919800D01*
X128491000Y-96919800D02*
X128425000Y-96985800D01*
X128425000Y-96985800D02*
X128425000Y-98394200D01*
X128425000Y-98394200D02*
X127819000Y-99000000D01*
X127819000Y-99000000D02*
X126890000Y-99000000D01*
X99750000Y-95149100D02*
X98755900Y-95149100D01*
X98755900Y-95149100D02*
X98706800Y-95100000D01*
X104095000Y-86629600D02*
X104095000Y-87401580D01*
X104095000Y-88125482D02*
X104095000Y-87401580D01*
X107680339Y-96151701D02*
X110098299Y-96151701D01*
X107614299Y-96085661D02*
X107680339Y-96151701D01*
X107614299Y-95554799D02*
X107614299Y-96085661D01*
X107309500Y-95250000D02*
X107614299Y-95554799D01*
X106649100Y-95250000D02*
X107309500Y-95250000D01*
X110098299Y-96151701D02*
X110150000Y-96100000D01*
X129845000Y-87151580D02*
X129845000Y-85645000D01*
X129845000Y-85645000D02*
X129800000Y-85600000D01*
X124149100Y-86000000D02*
X124886000Y-86000000D01*
X124149100Y-91750300D02*
X124066700Y-91750300D01*
X124066700Y-91750300D02*
X124066400Y-91750000D01*
X124149100Y-93000000D02*
X124149100Y-91750300D01*
X124886000Y-86000000D02*
X124886000Y-91232100D01*
X124886000Y-91232100D02*
X124367800Y-91750300D01*
X124367800Y-91750300D02*
X124149100Y-91750300D01*
X99750000Y-90899100D02*
X99750000Y-90162200D01*
X100977000Y-89238500D02*
X100053300Y-90162200D01*
X100053300Y-90162200D02*
X99750000Y-90162200D01*
X100977000Y-89238500D02*
X100652000Y-88913500D01*
X100652000Y-88913500D02*
X100652000Y-88850900D01*
X99750000Y-88850900D02*
X100652000Y-88850900D01*
X110644500Y-96919500D02*
X107836391Y-96919500D01*
X111650000Y-99000000D02*
X111650000Y-97925000D01*
X111650000Y-97925000D02*
X110644500Y-96919500D01*
X107836391Y-96919500D02*
X107829470Y-96926421D01*
X104250000Y-97587800D02*
X104250000Y-97662200D01*
X106570000Y-98388800D02*
X105769000Y-97587800D01*
X105769000Y-97587800D02*
X104250000Y-97587800D01*
X104250000Y-96850900D02*
X104250000Y-97587800D01*
X106570000Y-99000000D02*
X106570000Y-98388800D01*
X104250000Y-98399100D02*
X104250000Y-97662200D01*
X116795648Y-89552591D02*
X116167031Y-89552591D01*
X116797391Y-89552591D02*
X116795648Y-89552591D01*
X118808100Y-91563300D02*
X116797391Y-89552591D01*
X119455800Y-92316400D02*
X119455800Y-91887100D01*
X119455800Y-91887100D02*
X119132000Y-91563300D01*
X119132000Y-91563300D02*
X118808100Y-91563300D01*
X119455800Y-92316400D02*
X119478600Y-92316400D01*
X119478600Y-92316400D02*
X120162200Y-93000000D01*
X118808100Y-92544000D02*
X118808100Y-91563300D01*
X119455800Y-92544000D02*
X119455800Y-92316400D01*
X120899100Y-93000000D02*
X120162200Y-93000000D01*
X116865000Y-93524700D02*
X115139700Y-95250000D01*
X115139700Y-95250000D02*
X108350900Y-95250000D01*
X116865000Y-92544000D02*
X116865000Y-93524700D01*
X106635000Y-93534100D02*
X106635000Y-92598400D01*
X108350900Y-95250000D02*
X106635000Y-93534100D01*
X106600900Y-85000000D02*
X107337800Y-85000000D01*
X116852300Y-86956000D02*
X116852300Y-85975300D01*
X116852300Y-85975300D02*
X115629600Y-84752600D01*
X115629600Y-84752600D02*
X107585200Y-84752600D01*
X107585200Y-84752600D02*
X107337800Y-85000000D01*
X106600900Y-85000000D02*
X106600900Y-85902000D01*
X106600900Y-85902000D02*
X106635000Y-85936100D01*
X106635000Y-85936100D02*
X106635000Y-87401600D01*
X132399100Y-84783100D02*
X132399100Y-84750000D01*
X132399100Y-84783100D02*
X132399100Y-85652000D01*
X132399100Y-85652000D02*
X132385000Y-85666100D01*
X132385000Y-85666100D02*
X132385000Y-87151600D01*
X118160400Y-86051760D02*
X118160400Y-86956000D01*
X132399100Y-84750000D02*
X131738700Y-84750000D01*
X120287660Y-83924500D02*
X118160400Y-86051760D01*
X131738700Y-84750000D02*
X130913200Y-83924500D01*
X130913200Y-83924500D02*
X120287660Y-83924500D01*
X132399100Y-95000000D02*
X131662200Y-95000000D01*
X131662200Y-95000000D02*
X131444500Y-94782300D01*
X131444500Y-94782300D02*
X119418000Y-94782300D01*
X119418000Y-94782300D02*
X118160400Y-93524700D01*
X118160400Y-92544000D02*
X118160400Y-93524700D01*
X132399100Y-94984400D02*
X132399100Y-95000000D01*
X132399100Y-94984400D02*
X132399100Y-94098000D01*
X132385000Y-93778700D02*
X132385000Y-94083900D01*
X132385000Y-94083900D02*
X132399100Y-94098000D01*
X132385000Y-92348400D02*
X132385000Y-93778700D01*
X104609935Y-89595163D02*
X104165436Y-89150664D01*
X105365000Y-90350228D02*
X104609935Y-89595163D01*
X105365000Y-91168100D02*
X105365000Y-90350228D01*
X110884100Y-91168100D02*
X111074921Y-91358921D01*
X111074921Y-91358921D02*
X111074921Y-92010721D01*
X111074921Y-92010721D02*
X112149100Y-93084900D01*
X112149100Y-93084900D02*
X112149100Y-93250000D01*
X110884100Y-91168100D02*
X105365000Y-91168100D01*
X102000000Y-95149100D02*
X102902000Y-95149100D01*
X104250000Y-94780600D02*
X103270500Y-94780600D01*
X103270500Y-94780600D02*
X102902000Y-95149100D01*
X104250000Y-94780600D02*
X104250000Y-94412200D01*
X104250000Y-95149100D02*
X104250000Y-94780600D01*
X104250000Y-94412200D02*
X104981500Y-94412200D01*
X104981500Y-94412200D02*
X105365000Y-94028700D01*
X105365000Y-92598400D02*
X105365000Y-94028700D01*
X105365000Y-92598400D02*
X105365000Y-91168100D01*
X115250000Y-92511300D02*
X115536900Y-92511300D01*
X115536900Y-92511300D02*
X115569600Y-92544000D01*
X113850900Y-93250000D02*
X114511300Y-93250000D01*
X114511300Y-93250000D02*
X115250000Y-92511300D01*
X113850900Y-91250000D02*
X113850900Y-93250000D01*
X116204600Y-92544000D02*
X115569600Y-92544000D01*
X115569600Y-92544000D02*
X115569600Y-92053600D01*
X99750000Y-92600900D02*
X101552500Y-92600900D01*
X101552500Y-92600900D02*
X101555000Y-92598400D01*
X112149100Y-91250000D02*
X112149100Y-91084900D01*
X112149100Y-91084900D02*
X111018100Y-89953900D01*
X111018100Y-89953900D02*
X106208700Y-89953900D01*
X112149100Y-88250000D02*
X112149100Y-86250000D01*
X112149100Y-91250000D02*
X112149100Y-90424500D01*
X112149100Y-90424500D02*
X112149100Y-88250000D01*
X105365000Y-89110200D02*
X105365000Y-87401600D01*
X106208700Y-89953900D02*
X105365000Y-89110200D01*
X113850900Y-86250000D02*
X114850900Y-86250000D01*
X114850900Y-86250000D02*
X115556900Y-86956000D01*
X116204600Y-88467331D02*
X116765922Y-89028653D01*
X120266900Y-91448800D02*
X121398000Y-91448800D01*
X121636000Y-86902000D02*
X120899100Y-86165100D01*
X121398000Y-91448800D02*
X121636000Y-91210800D01*
X117846753Y-89028653D02*
X120266900Y-91448800D01*
X121636000Y-91210800D02*
X121636000Y-86902000D01*
X116765922Y-89028653D02*
X117846753Y-89028653D01*
X116204600Y-86956000D02*
X116204600Y-88467331D01*
X120899100Y-86165100D02*
X120899100Y-86000000D01*
X115556900Y-86956000D02*
X115556900Y-87456380D01*
X115557000Y-86956000D02*
X115556900Y-86956000D01*
X115557000Y-86956000D02*
X116204600Y-86956000D01*
X116204600Y-86956000D02*
X116205000Y-86956000D01*
X99750000Y-87149100D02*
X99750000Y-86412200D01*
X101555000Y-87401600D02*
X101555000Y-85971300D01*
X99750000Y-86412200D02*
X100190900Y-85971300D01*
X100190900Y-85971300D02*
X101555000Y-85971300D01*
X122600900Y-86260200D02*
X122600900Y-86000000D01*
X122600900Y-88250000D02*
X122600900Y-86260200D01*
X122600900Y-88250000D02*
X123412200Y-88250000D01*
X124149100Y-88250000D02*
X123412200Y-88250000D01*
X122600900Y-86260200D02*
X122600900Y-86102900D01*
X122600900Y-86102900D02*
X123878501Y-84825299D01*
X123878501Y-84825299D02*
X130218999Y-84825299D01*
X131115000Y-85721300D02*
X131115000Y-87151600D01*
X130218999Y-84825299D02*
X131115000Y-85721300D01*
X120899100Y-90500000D02*
X120899100Y-88250000D01*
X120899100Y-88250000D02*
X120056500Y-88250000D01*
X120056500Y-88250000D02*
X119455800Y-87649300D01*
X119455800Y-87649300D02*
X119168400Y-87936700D01*
X119168400Y-87936700D02*
X118808100Y-87936700D01*
X119455800Y-87446300D02*
X119455800Y-87649300D01*
X118808100Y-86956000D02*
X118808100Y-87936700D01*
X119455800Y-86956000D02*
X119455800Y-87446300D01*
X127305000Y-87151600D02*
X127305000Y-85721300D01*
X125850900Y-86000000D02*
X126587800Y-86000000D01*
X126587800Y-86000000D02*
X126866500Y-85721300D01*
X126866500Y-85721300D02*
X127305000Y-85721300D01*
X131115000Y-93778700D02*
X130641900Y-94251800D01*
X130641900Y-94251800D02*
X123944800Y-94251800D01*
X123944800Y-94251800D02*
X123337800Y-93644800D01*
X123337800Y-93644800D02*
X123337800Y-93000000D01*
X122600900Y-90500000D02*
X122600900Y-92098000D01*
X122600900Y-93000000D02*
X122600900Y-92098000D01*
X122600900Y-90500000D02*
X124149100Y-90500000D01*
X122600900Y-93000000D02*
X123337800Y-93000000D01*
X131115000Y-92348400D02*
X131115000Y-93778700D01*
X125850900Y-93000000D02*
X126587800Y-93000000D01*
X127305000Y-92348400D02*
X127305000Y-93778700D01*
X126587800Y-93000000D02*
X126587800Y-93568100D01*
X126587800Y-93568100D02*
X126798400Y-93778700D01*
X126798400Y-93778700D02*
X127305000Y-93778700D01*
X102000000Y-100100900D02*
X99750000Y-100100900D01*
X104250000Y-100100900D02*
X102000000Y-100100900D01*
X99750000Y-98399100D02*
X99750000Y-96850900D01*
X102185300Y-90913419D02*
X102442610Y-90656109D01*
X99915100Y-96850900D02*
X100652100Y-96113900D01*
X101268000Y-94412100D02*
X101612100Y-94412100D01*
X100652100Y-96113900D02*
X100652100Y-95028000D01*
X99750000Y-96850900D02*
X99915100Y-96850900D01*
X100652100Y-95028000D02*
X101268000Y-94412100D01*
X101612100Y-94412100D02*
X102185300Y-93838900D01*
X102185300Y-93838900D02*
X102185300Y-90913419D01*
X102442610Y-90656109D02*
X102442610Y-90027492D01*
G36*
X104242000Y-87528580D02*
X104222000Y-87528580D01*
X104222000Y-87548580D01*
X103968000Y-87548580D01*
X103968000Y-87528580D01*
X103948000Y-87528580D01*
X103948000Y-87274580D01*
X103968000Y-87274580D01*
X103968000Y-87254580D01*
X104222000Y-87254580D01*
X104222000Y-87274580D01*
X104242000Y-87274580D01*
X104242000Y-87528580D01*
X104242000Y-87528580D01*
G37*
X104242000Y-87528580D02*
X104222000Y-87528580D01*
X104222000Y-87548580D01*
X103968000Y-87548580D01*
X103968000Y-87528580D01*
X103948000Y-87528580D01*
X103948000Y-87274580D01*
X103968000Y-87274580D01*
X103968000Y-87254580D01*
X104222000Y-87254580D01*
X104222000Y-87274580D01*
X104242000Y-87274580D01*
X104242000Y-87528580D01*
G36*
X114755722Y-95707200D02*
X113866711Y-96596211D01*
X113767602Y-96744537D01*
X113732800Y-96919500D01*
X113732800Y-96919800D01*
X113449319Y-96919800D01*
X113327957Y-96970070D01*
X113235070Y-97062957D01*
X113184800Y-97184319D01*
X113184800Y-97315681D01*
X113184800Y-100619800D01*
X112655200Y-100619800D01*
X112655200Y-97184319D01*
X112604930Y-97062957D01*
X112512043Y-96970070D01*
X112390681Y-96919800D01*
X112259319Y-96919800D01*
X111291378Y-96919800D01*
X110967789Y-96596211D01*
X110819463Y-96497102D01*
X110644500Y-96462300D01*
X108460794Y-96462300D01*
X108268875Y-96270045D01*
X107984243Y-96151856D01*
X107676049Y-96151587D01*
X107586394Y-96188631D01*
X107593827Y-96181199D01*
X107665116Y-96009089D01*
X107757457Y-96101430D01*
X107878819Y-96151700D01*
X108010181Y-96151700D01*
X108822981Y-96151700D01*
X108944343Y-96101430D01*
X109037230Y-96008543D01*
X109087500Y-95887181D01*
X109087500Y-95755819D01*
X109087500Y-95707200D01*
X114755722Y-95707200D01*
X114755722Y-95707200D01*
G37*
X114755722Y-95707200D02*
X113866711Y-96596211D01*
X113767602Y-96744537D01*
X113732800Y-96919500D01*
X113732800Y-96919800D01*
X113449319Y-96919800D01*
X113327957Y-96970070D01*
X113235070Y-97062957D01*
X113184800Y-97184319D01*
X113184800Y-97315681D01*
X113184800Y-100619800D01*
X112655200Y-100619800D01*
X112655200Y-97184319D01*
X112604930Y-97062957D01*
X112512043Y-96970070D01*
X112390681Y-96919800D01*
X112259319Y-96919800D01*
X111291378Y-96919800D01*
X110967789Y-96596211D01*
X110819463Y-96497102D01*
X110644500Y-96462300D01*
X108460794Y-96462300D01*
X108268875Y-96270045D01*
X107984243Y-96151856D01*
X107676049Y-96151587D01*
X107586394Y-96188631D01*
X107593827Y-96181199D01*
X107665116Y-96009089D01*
X107757457Y-96101430D01*
X107878819Y-96151700D01*
X108010181Y-96151700D01*
X108822981Y-96151700D01*
X108944343Y-96101430D01*
X109037230Y-96008543D01*
X109087500Y-95887181D01*
X109087500Y-95755819D01*
X109087500Y-95707200D01*
X114755722Y-95707200D01*
G36*
X118161782Y-91563560D02*
X117944859Y-91563560D01*
X117942257Y-91564637D01*
X117922398Y-91464797D01*
X117823289Y-91316471D01*
X117823289Y-91316470D01*
X117747088Y-91240270D01*
X117598762Y-91141161D01*
X117423799Y-91106359D01*
X116356379Y-91106359D01*
X115170634Y-89920614D01*
X115022308Y-89821505D01*
X114892300Y-89795645D01*
X114892300Y-88947810D01*
X114892300Y-88695191D01*
X114892300Y-88535750D01*
X114733550Y-88377000D01*
X113977900Y-88377000D01*
X113977900Y-89297750D01*
X114136650Y-89456500D01*
X114383609Y-89456500D01*
X114616998Y-89359827D01*
X114795627Y-89181199D01*
X114892300Y-88947810D01*
X114892300Y-89795645D01*
X114847345Y-89786703D01*
X113717521Y-89786703D01*
X113571100Y-89640282D01*
X113571100Y-89450550D01*
X113723900Y-89297750D01*
X113723900Y-88377000D01*
X113703900Y-88377000D01*
X113703900Y-88123000D01*
X113723900Y-88123000D01*
X113723900Y-88103000D01*
X113977900Y-88103000D01*
X113977900Y-88123000D01*
X114733550Y-88123000D01*
X114892300Y-87964250D01*
X114892300Y-87804809D01*
X114892300Y-87552190D01*
X114795627Y-87318801D01*
X114616998Y-87140173D01*
X114467517Y-87078255D01*
X114537230Y-87008543D01*
X114587500Y-86887181D01*
X114587500Y-86755819D01*
X114587500Y-86707200D01*
X114661522Y-86707200D01*
X115076840Y-87122518D01*
X115076840Y-87671921D01*
X115127110Y-87793283D01*
X115219997Y-87886170D01*
X115341359Y-87936440D01*
X115472721Y-87936440D01*
X115747400Y-87936440D01*
X115747400Y-88467331D01*
X115782202Y-88642294D01*
X115881311Y-88790620D01*
X115910890Y-88820199D01*
X115728772Y-88895450D01*
X115510655Y-89113186D01*
X115392466Y-89397818D01*
X115392197Y-89706012D01*
X115509890Y-89990850D01*
X115727626Y-90208967D01*
X116012258Y-90327156D01*
X116320452Y-90327425D01*
X116605290Y-90209732D01*
X116706710Y-90108488D01*
X118161782Y-91563560D01*
X118161782Y-91563560D01*
G37*
X118161782Y-91563560D02*
X117944859Y-91563560D01*
X117942257Y-91564637D01*
X117922398Y-91464797D01*
X117823289Y-91316471D01*
X117823289Y-91316470D01*
X117747088Y-91240270D01*
X117598762Y-91141161D01*
X117423799Y-91106359D01*
X116356379Y-91106359D01*
X115170634Y-89920614D01*
X115022308Y-89821505D01*
X114892300Y-89795645D01*
X114892300Y-88947810D01*
X114892300Y-88695191D01*
X114892300Y-88535750D01*
X114733550Y-88377000D01*
X113977900Y-88377000D01*
X113977900Y-89297750D01*
X114136650Y-89456500D01*
X114383609Y-89456500D01*
X114616998Y-89359827D01*
X114795627Y-89181199D01*
X114892300Y-88947810D01*
X114892300Y-89795645D01*
X114847345Y-89786703D01*
X113717521Y-89786703D01*
X113571100Y-89640282D01*
X113571100Y-89450550D01*
X113723900Y-89297750D01*
X113723900Y-88377000D01*
X113703900Y-88377000D01*
X113703900Y-88123000D01*
X113723900Y-88123000D01*
X113723900Y-88103000D01*
X113977900Y-88103000D01*
X113977900Y-88123000D01*
X114733550Y-88123000D01*
X114892300Y-87964250D01*
X114892300Y-87804809D01*
X114892300Y-87552190D01*
X114795627Y-87318801D01*
X114616998Y-87140173D01*
X114467517Y-87078255D01*
X114537230Y-87008543D01*
X114587500Y-86887181D01*
X114587500Y-86755819D01*
X114587500Y-86707200D01*
X114661522Y-86707200D01*
X115076840Y-87122518D01*
X115076840Y-87671921D01*
X115127110Y-87793283D01*
X115219997Y-87886170D01*
X115341359Y-87936440D01*
X115472721Y-87936440D01*
X115747400Y-87936440D01*
X115747400Y-88467331D01*
X115782202Y-88642294D01*
X115881311Y-88790620D01*
X115910890Y-88820199D01*
X115728772Y-88895450D01*
X115510655Y-89113186D01*
X115392466Y-89397818D01*
X115392197Y-89706012D01*
X115509890Y-89990850D01*
X115727626Y-90208967D01*
X116012258Y-90327156D01*
X116320452Y-90327425D01*
X116605290Y-90209732D01*
X116706710Y-90108488D01*
X118161782Y-91563560D01*
G36*
X120441900Y-89598300D02*
X120427019Y-89598300D01*
X120305657Y-89648570D01*
X120212770Y-89741457D01*
X120162500Y-89862819D01*
X120162500Y-89994181D01*
X120162500Y-90697822D01*
X118170042Y-88705364D01*
X118021716Y-88606255D01*
X117846753Y-88571453D01*
X116955300Y-88571453D01*
X116661800Y-88277953D01*
X116661800Y-87936440D01*
X116768121Y-87936440D01*
X117067841Y-87936440D01*
X117176150Y-87891576D01*
X117284459Y-87936440D01*
X117415821Y-87936440D01*
X117715541Y-87936440D01*
X117830200Y-87888946D01*
X117944859Y-87936440D01*
X118076221Y-87936440D01*
X118350900Y-87936440D01*
X118350900Y-87936700D01*
X118385702Y-88111663D01*
X118484811Y-88259989D01*
X118633137Y-88359098D01*
X118808100Y-88393900D01*
X119168400Y-88393900D01*
X119343363Y-88359098D01*
X119448661Y-88288739D01*
X119733211Y-88573289D01*
X119881537Y-88672398D01*
X120056500Y-88707200D01*
X120162500Y-88707200D01*
X120162500Y-88887181D01*
X120212770Y-89008543D01*
X120305657Y-89101430D01*
X120427019Y-89151700D01*
X120441900Y-89151700D01*
X120441900Y-89598300D01*
X120441900Y-89598300D01*
G37*
X120441900Y-89598300D02*
X120427019Y-89598300D01*
X120305657Y-89648570D01*
X120212770Y-89741457D01*
X120162500Y-89862819D01*
X120162500Y-89994181D01*
X120162500Y-90697822D01*
X118170042Y-88705364D01*
X118021716Y-88606255D01*
X117846753Y-88571453D01*
X116955300Y-88571453D01*
X116661800Y-88277953D01*
X116661800Y-87936440D01*
X116768121Y-87936440D01*
X117067841Y-87936440D01*
X117176150Y-87891576D01*
X117284459Y-87936440D01*
X117415821Y-87936440D01*
X117715541Y-87936440D01*
X117830200Y-87888946D01*
X117944859Y-87936440D01*
X118076221Y-87936440D01*
X118350900Y-87936440D01*
X118350900Y-87936700D01*
X118385702Y-88111663D01*
X118484811Y-88259989D01*
X118633137Y-88359098D01*
X118808100Y-88393900D01*
X119168400Y-88393900D01*
X119343363Y-88359098D01*
X119448661Y-88288739D01*
X119733211Y-88573289D01*
X119881537Y-88672398D01*
X120056500Y-88707200D01*
X120162500Y-88707200D01*
X120162500Y-88887181D01*
X120212770Y-89008543D01*
X120305657Y-89101430D01*
X120427019Y-89151700D01*
X120441900Y-89151700D01*
X120441900Y-89598300D01*
G36*
X137619800Y-100619800D02*
X136824920Y-100619800D01*
X136824920Y-93513921D01*
X136824920Y-93382559D01*
X136824920Y-91182919D01*
X136824920Y-88317081D01*
X136824920Y-88185719D01*
X136824920Y-85986079D01*
X136774650Y-85864717D01*
X136681763Y-85771830D01*
X136560401Y-85721560D01*
X136429039Y-85721560D01*
X135829599Y-85721560D01*
X135708237Y-85771830D01*
X135615350Y-85864717D01*
X135565080Y-85986079D01*
X135565080Y-86117441D01*
X135565080Y-88317081D01*
X135615350Y-88438443D01*
X135708237Y-88531330D01*
X135829599Y-88581600D01*
X135960961Y-88581600D01*
X136560401Y-88581600D01*
X136681763Y-88531330D01*
X136774650Y-88438443D01*
X136824920Y-88317081D01*
X136824920Y-91182919D01*
X136774650Y-91061557D01*
X136681763Y-90968670D01*
X136560401Y-90918400D01*
X136429039Y-90918400D01*
X135829599Y-90918400D01*
X135708237Y-90968670D01*
X135615350Y-91061557D01*
X135565080Y-91182919D01*
X135565080Y-91314281D01*
X135565080Y-93513921D01*
X135615350Y-93635283D01*
X135708237Y-93728170D01*
X135829599Y-93778440D01*
X135960961Y-93778440D01*
X136560401Y-93778440D01*
X136681763Y-93728170D01*
X136774650Y-93635283D01*
X136824920Y-93513921D01*
X136824920Y-100619800D01*
X135554920Y-100619800D01*
X135554920Y-93513921D01*
X135554920Y-93382559D01*
X135554920Y-91182919D01*
X135504650Y-91061557D01*
X135411763Y-90968670D01*
X135290401Y-90918400D01*
X135159039Y-90918400D01*
X134559599Y-90918400D01*
X134438237Y-90968670D01*
X134345350Y-91061557D01*
X134295080Y-91182919D01*
X134295080Y-91314281D01*
X134295080Y-93513921D01*
X134345350Y-93635283D01*
X134438237Y-93728170D01*
X134559599Y-93778440D01*
X134690961Y-93778440D01*
X135290401Y-93778440D01*
X135411763Y-93728170D01*
X135504650Y-93635283D01*
X135554920Y-93513921D01*
X135554920Y-100619800D01*
X135142300Y-100619800D01*
X135142300Y-95697810D01*
X135142300Y-95445191D01*
X135142300Y-95285750D01*
X134983550Y-95127000D01*
X134227900Y-95127000D01*
X134227900Y-96047750D01*
X134386650Y-96206500D01*
X134633609Y-96206500D01*
X134866998Y-96109827D01*
X135045627Y-95931199D01*
X135142300Y-95697810D01*
X135142300Y-100619800D01*
X130435200Y-100619800D01*
X130435200Y-97184319D01*
X130384930Y-97062957D01*
X130292043Y-96970070D01*
X130170681Y-96919800D01*
X130039319Y-96919800D01*
X128689319Y-96919800D01*
X128567957Y-96970070D01*
X128475070Y-97062957D01*
X128424800Y-97184319D01*
X128424800Y-97315681D01*
X128424800Y-100619800D01*
X128200000Y-100619800D01*
X128200000Y-99285750D01*
X128041250Y-99127000D01*
X127017000Y-99127000D01*
X127017000Y-99147000D01*
X126763000Y-99147000D01*
X126763000Y-99127000D01*
X125738750Y-99127000D01*
X125620000Y-99245750D01*
X125501250Y-99127000D01*
X124477000Y-99127000D01*
X124477000Y-99147000D01*
X124223000Y-99147000D01*
X124223000Y-99127000D01*
X123198750Y-99127000D01*
X123040000Y-99285750D01*
X123040000Y-100619800D01*
X122815200Y-100619800D01*
X122815200Y-97184319D01*
X122764930Y-97062957D01*
X122672043Y-96970070D01*
X122550681Y-96919800D01*
X122419319Y-96919800D01*
X121069319Y-96919800D01*
X120947957Y-96970070D01*
X120855070Y-97062957D01*
X120804800Y-97184319D01*
X120804800Y-97315681D01*
X120804800Y-100619800D01*
X120275200Y-100619800D01*
X120275200Y-97184319D01*
X120224930Y-97062957D01*
X120132043Y-96970070D01*
X120010681Y-96919800D01*
X119879319Y-96919800D01*
X118529319Y-96919800D01*
X118407957Y-96970070D01*
X118315070Y-97062957D01*
X118264800Y-97184319D01*
X118264800Y-97315681D01*
X118264800Y-100619800D01*
X117735200Y-100619800D01*
X117735200Y-97184319D01*
X117684930Y-97062957D01*
X117592043Y-96970070D01*
X117470681Y-96919800D01*
X117376278Y-96919800D01*
X117506578Y-96789500D01*
X123237474Y-96789500D01*
X123136673Y-96890301D01*
X123040000Y-97123690D01*
X123040000Y-97376309D01*
X123040000Y-98714250D01*
X123198750Y-98873000D01*
X124223000Y-98873000D01*
X124223000Y-98853000D01*
X124477000Y-98853000D01*
X124477000Y-98873000D01*
X125501250Y-98873000D01*
X125620000Y-98754250D01*
X125738750Y-98873000D01*
X126763000Y-98873000D01*
X126763000Y-98853000D01*
X127017000Y-98853000D01*
X127017000Y-98873000D01*
X128041250Y-98873000D01*
X128200000Y-98714250D01*
X128200000Y-97376309D01*
X128200000Y-97123690D01*
X128103327Y-96890301D01*
X128002525Y-96789500D01*
X132515100Y-96789500D01*
X132690063Y-96754698D01*
X132838389Y-96655589D01*
X133369697Y-96124280D01*
X133568191Y-96206500D01*
X133815150Y-96206500D01*
X133973900Y-96047750D01*
X133973900Y-95127000D01*
X133953900Y-95127000D01*
X133953900Y-94873000D01*
X133973900Y-94873000D01*
X133973900Y-94853000D01*
X134227900Y-94853000D01*
X134227900Y-94873000D01*
X134983550Y-94873000D01*
X135142300Y-94714250D01*
X135142300Y-94554809D01*
X135142300Y-94302190D01*
X135045627Y-94068801D01*
X134866998Y-93890173D01*
X134633609Y-93793500D01*
X134386650Y-93793500D01*
X134227902Y-93952248D01*
X134227902Y-93793500D01*
X134109255Y-93793500D01*
X134112199Y-93778700D01*
X134112200Y-93778700D01*
X134112200Y-93740415D01*
X134141763Y-93728170D01*
X134234650Y-93635283D01*
X134284920Y-93513921D01*
X134284920Y-93382559D01*
X134284920Y-91182919D01*
X134234650Y-91061557D01*
X134141763Y-90968670D01*
X134020401Y-90918400D01*
X133889039Y-90918400D01*
X133289599Y-90918400D01*
X133168237Y-90968670D01*
X133075350Y-91061557D01*
X133025080Y-91182919D01*
X133025080Y-91314281D01*
X133025080Y-93513921D01*
X133075350Y-93635283D01*
X133113594Y-93673527D01*
X132842200Y-93944921D01*
X132842200Y-93778700D01*
X132842200Y-93740415D01*
X132871763Y-93728170D01*
X132964650Y-93635283D01*
X133014920Y-93513921D01*
X133014920Y-93382559D01*
X133014920Y-91182919D01*
X132964650Y-91061557D01*
X132871763Y-90968670D01*
X132750401Y-90918400D01*
X132619039Y-90918400D01*
X132019599Y-90918400D01*
X131898237Y-90968670D01*
X131805350Y-91061557D01*
X131755080Y-91182919D01*
X131755080Y-91314281D01*
X131755080Y-93513921D01*
X131805350Y-93635283D01*
X131898237Y-93728170D01*
X131927800Y-93740415D01*
X131927800Y-93778700D01*
X131927800Y-94083900D01*
X131930664Y-94098300D01*
X131927019Y-94098300D01*
X131805657Y-94148570D01*
X131712770Y-94241457D01*
X131662500Y-94362819D01*
X131662500Y-94388658D01*
X131619463Y-94359902D01*
X131444500Y-94325100D01*
X131215178Y-94325100D01*
X131438289Y-94101990D01*
X131438289Y-94101989D01*
X131537398Y-93953663D01*
X131572199Y-93778700D01*
X131572200Y-93778700D01*
X131572200Y-93740415D01*
X131601763Y-93728170D01*
X131694650Y-93635283D01*
X131744920Y-93513921D01*
X131744920Y-93382559D01*
X131744920Y-91182919D01*
X131694650Y-91061557D01*
X131601763Y-90968670D01*
X131480401Y-90918400D01*
X131349039Y-90918400D01*
X130749599Y-90918400D01*
X130703222Y-90937609D01*
X130683047Y-90888901D01*
X130504418Y-90710273D01*
X130271029Y-90613600D01*
X130130750Y-90613600D01*
X129972000Y-90772350D01*
X129972000Y-92221420D01*
X129992000Y-92221420D01*
X129992000Y-92475420D01*
X129972000Y-92475420D01*
X129972000Y-92495420D01*
X129718000Y-92495420D01*
X129718000Y-92475420D01*
X129698000Y-92475420D01*
X129698000Y-92221420D01*
X129718000Y-92221420D01*
X129718000Y-90772350D01*
X129559250Y-90613600D01*
X129418971Y-90613600D01*
X129185582Y-90710273D01*
X129006953Y-90888901D01*
X128986777Y-90937609D01*
X128940401Y-90918400D01*
X128809039Y-90918400D01*
X128209599Y-90918400D01*
X128088237Y-90968670D01*
X127995350Y-91061557D01*
X127945080Y-91182919D01*
X127945080Y-91314281D01*
X127945080Y-93513921D01*
X127995350Y-93635283D01*
X128088237Y-93728170D01*
X128209599Y-93778440D01*
X128340961Y-93778440D01*
X128940401Y-93778440D01*
X128986777Y-93759230D01*
X129001427Y-93794600D01*
X127759037Y-93794600D01*
X127762200Y-93778700D01*
X127762200Y-93740415D01*
X127791763Y-93728170D01*
X127884650Y-93635283D01*
X127934920Y-93513921D01*
X127934920Y-93382559D01*
X127934920Y-91182919D01*
X127884650Y-91061557D01*
X127791763Y-90968670D01*
X127670401Y-90918400D01*
X127539039Y-90918400D01*
X126939599Y-90918400D01*
X126892300Y-90937991D01*
X126892300Y-90785750D01*
X126733550Y-90627000D01*
X125977900Y-90627000D01*
X125977900Y-91547750D01*
X126136650Y-91706500D01*
X126383609Y-91706500D01*
X126616998Y-91609827D01*
X126675080Y-91551745D01*
X126675080Y-92560160D01*
X126587800Y-92542800D01*
X126587500Y-92542800D01*
X126587500Y-92362819D01*
X126537230Y-92241457D01*
X126444343Y-92148570D01*
X126322981Y-92098300D01*
X126191619Y-92098300D01*
X125378819Y-92098300D01*
X125257457Y-92148570D01*
X125164570Y-92241457D01*
X125114300Y-92362819D01*
X125114300Y-92494181D01*
X125114300Y-93637181D01*
X125164570Y-93758543D01*
X125200627Y-93794600D01*
X124799373Y-93794600D01*
X124835430Y-93758543D01*
X124885700Y-93637181D01*
X124885700Y-93505819D01*
X124885700Y-92362819D01*
X124835430Y-92241457D01*
X124742543Y-92148570D01*
X124740144Y-92147576D01*
X124827515Y-91937162D01*
X125134334Y-91630344D01*
X125318191Y-91706500D01*
X125565150Y-91706500D01*
X125723900Y-91547750D01*
X125723900Y-90627000D01*
X125703900Y-90627000D01*
X125703900Y-90373000D01*
X125723900Y-90373000D01*
X125723900Y-89452250D01*
X125646650Y-89375000D01*
X125723900Y-89297750D01*
X125723900Y-88377000D01*
X125703900Y-88377000D01*
X125703900Y-88123000D01*
X125723900Y-88123000D01*
X125723900Y-87202250D01*
X125565150Y-87043500D01*
X125343200Y-87043500D01*
X125343200Y-86886946D01*
X125378819Y-86901700D01*
X125510181Y-86901700D01*
X126322981Y-86901700D01*
X126444343Y-86851430D01*
X126537230Y-86758543D01*
X126587500Y-86637181D01*
X126587500Y-86505819D01*
X126587500Y-86457200D01*
X126587800Y-86457200D01*
X126675080Y-86439839D01*
X126675080Y-87198254D01*
X126616998Y-87140173D01*
X126383609Y-87043500D01*
X126136650Y-87043500D01*
X125977900Y-87202250D01*
X125977900Y-88123000D01*
X125997900Y-88123000D01*
X125997900Y-88377000D01*
X125977900Y-88377000D01*
X125977900Y-89297750D01*
X126055150Y-89375000D01*
X125977900Y-89452250D01*
X125977900Y-90373000D01*
X126733550Y-90373000D01*
X126892300Y-90214250D01*
X126892300Y-90054809D01*
X126892300Y-89802190D01*
X126795627Y-89568801D01*
X126616998Y-89390173D01*
X126580367Y-89375000D01*
X126616998Y-89359827D01*
X126795627Y-89181199D01*
X126892300Y-88947810D01*
X126892300Y-88695191D01*
X126892300Y-88562008D01*
X126939599Y-88581600D01*
X127070961Y-88581600D01*
X127670401Y-88581600D01*
X127791763Y-88531330D01*
X127884650Y-88438443D01*
X127934920Y-88317081D01*
X127934920Y-88185719D01*
X127934920Y-85986079D01*
X127884650Y-85864717D01*
X127791763Y-85771830D01*
X127762200Y-85759584D01*
X127762200Y-85721300D01*
X127727398Y-85546337D01*
X127628289Y-85398011D01*
X127479963Y-85298902D01*
X127397498Y-85282499D01*
X130029620Y-85282499D01*
X130163882Y-85416760D01*
X130130750Y-85416760D01*
X129972000Y-85575510D01*
X129972000Y-87024580D01*
X129992000Y-87024580D01*
X129992000Y-87278580D01*
X129972000Y-87278580D01*
X129972000Y-87298580D01*
X129718000Y-87298580D01*
X129718000Y-87278580D01*
X129698000Y-87278580D01*
X129698000Y-87024580D01*
X129718000Y-87024580D01*
X129718000Y-85575510D01*
X129559250Y-85416760D01*
X129418971Y-85416760D01*
X129185582Y-85513433D01*
X129006953Y-85692061D01*
X128986777Y-85740769D01*
X128940401Y-85721560D01*
X128809039Y-85721560D01*
X128209599Y-85721560D01*
X128088237Y-85771830D01*
X127995350Y-85864717D01*
X127945080Y-85986079D01*
X127945080Y-86117441D01*
X127945080Y-88317081D01*
X127995350Y-88438443D01*
X128088237Y-88531330D01*
X128134631Y-88550547D01*
X128115241Y-88558559D01*
X127897124Y-88776295D01*
X127778935Y-89060927D01*
X127778666Y-89369121D01*
X127896359Y-89653959D01*
X128114095Y-89872076D01*
X128398727Y-89990265D01*
X128706921Y-89990534D01*
X128991759Y-89872841D01*
X129192049Y-89672900D01*
X133021200Y-89672900D01*
X133196163Y-89638098D01*
X133344489Y-89538989D01*
X133978289Y-88905189D01*
X133978290Y-88905189D01*
X134077398Y-88756863D01*
X134112200Y-88581900D01*
X134112200Y-88543575D01*
X134141763Y-88531330D01*
X134234650Y-88438443D01*
X134284920Y-88317081D01*
X134284920Y-88185719D01*
X134284920Y-85986079D01*
X134234650Y-85864717D01*
X134227902Y-85857969D01*
X134227902Y-85797752D01*
X134330563Y-85900413D01*
X134295080Y-85986079D01*
X134295080Y-86117441D01*
X134295080Y-88317081D01*
X134345350Y-88438443D01*
X134438237Y-88531330D01*
X134559599Y-88581600D01*
X134690961Y-88581600D01*
X135290401Y-88581600D01*
X135411763Y-88531330D01*
X135504650Y-88438443D01*
X135554920Y-88317081D01*
X135554920Y-88185719D01*
X135554920Y-85986079D01*
X135504650Y-85864717D01*
X135411763Y-85771830D01*
X135290401Y-85721560D01*
X135159039Y-85721560D01*
X135005265Y-85721560D01*
X135045627Y-85681199D01*
X135142300Y-85447810D01*
X135142300Y-85195191D01*
X135142300Y-85035750D01*
X135142300Y-84464250D01*
X135142300Y-84304809D01*
X135142300Y-84052190D01*
X135045627Y-83818801D01*
X134866998Y-83640173D01*
X134633609Y-83543500D01*
X134386650Y-83543500D01*
X134227900Y-83702250D01*
X134227900Y-84623000D01*
X134983550Y-84623000D01*
X135142300Y-84464250D01*
X135142300Y-85035750D01*
X134983550Y-84877000D01*
X134227900Y-84877000D01*
X134227900Y-84897000D01*
X133973900Y-84897000D01*
X133973900Y-84877000D01*
X133953900Y-84877000D01*
X133953900Y-84623000D01*
X133973900Y-84623000D01*
X133973900Y-83702250D01*
X133815150Y-83543500D01*
X133568191Y-83543500D01*
X133334802Y-83640173D01*
X133156173Y-83818801D01*
X133084883Y-83990910D01*
X132992543Y-83898570D01*
X132871181Y-83848300D01*
X132739819Y-83848300D01*
X131927019Y-83848300D01*
X131805657Y-83898570D01*
X131712770Y-83991457D01*
X131687570Y-84052292D01*
X131236489Y-83601211D01*
X131088163Y-83502102D01*
X130913200Y-83467300D01*
X120287660Y-83467300D01*
X120112697Y-83502102D01*
X119964371Y-83601211D01*
X118235410Y-85330171D01*
X118236365Y-85327873D01*
X118236634Y-85019679D01*
X118118941Y-84734841D01*
X117901205Y-84516724D01*
X117616573Y-84398535D01*
X117308379Y-84398266D01*
X117023541Y-84515959D01*
X116805424Y-84733695D01*
X116687235Y-85018327D01*
X116687108Y-85163530D01*
X115952889Y-84429311D01*
X115804563Y-84330202D01*
X115629600Y-84295400D01*
X107585200Y-84295400D01*
X107410237Y-84330202D01*
X107337500Y-84378803D01*
X107337500Y-84362819D01*
X107287230Y-84241457D01*
X107194343Y-84148570D01*
X107072981Y-84098300D01*
X106941619Y-84098300D01*
X106128819Y-84098300D01*
X106007457Y-84148570D01*
X105915116Y-84240910D01*
X105843827Y-84068801D01*
X105665198Y-83890173D01*
X105431809Y-83793500D01*
X105184850Y-83793500D01*
X105026100Y-83952250D01*
X105026100Y-84873000D01*
X105046100Y-84873000D01*
X105046100Y-85127000D01*
X105026100Y-85127000D01*
X105026100Y-85147000D01*
X104772100Y-85147000D01*
X104772100Y-85127000D01*
X104772100Y-84873000D01*
X104772100Y-83952250D01*
X104613350Y-83793500D01*
X104366391Y-83793500D01*
X104133002Y-83890173D01*
X103954373Y-84068801D01*
X103857700Y-84302190D01*
X103857700Y-84554809D01*
X103857700Y-84714250D01*
X104016450Y-84873000D01*
X104772100Y-84873000D01*
X104772100Y-85127000D01*
X104016450Y-85127000D01*
X103857700Y-85285750D01*
X103857700Y-85445191D01*
X103857700Y-85697810D01*
X103870003Y-85727513D01*
X103809250Y-85666760D01*
X103668971Y-85666760D01*
X103435582Y-85763433D01*
X103256953Y-85942061D01*
X103236777Y-85990769D01*
X103190401Y-85971560D01*
X103059039Y-85971560D01*
X102459599Y-85971560D01*
X102338237Y-86021830D01*
X102245350Y-86114717D01*
X102195080Y-86236079D01*
X102195080Y-86367441D01*
X102195080Y-88567081D01*
X102245350Y-88688443D01*
X102338237Y-88781330D01*
X102459599Y-88831600D01*
X102590961Y-88831600D01*
X103190401Y-88831600D01*
X103236777Y-88812390D01*
X103256953Y-88861099D01*
X103391127Y-88995272D01*
X103390871Y-88995891D01*
X103390602Y-89304085D01*
X103508295Y-89588923D01*
X103726031Y-89807040D01*
X104010663Y-89925229D01*
X104293670Y-89925476D01*
X104907800Y-90539606D01*
X104907800Y-91113654D01*
X104754418Y-90960273D01*
X104521029Y-90863600D01*
X104380750Y-90863600D01*
X104222000Y-91022350D01*
X104222000Y-92471420D01*
X104242000Y-92471420D01*
X104242000Y-92725420D01*
X104222000Y-92725420D01*
X104222000Y-92745420D01*
X103968000Y-92745420D01*
X103968000Y-92725420D01*
X103948000Y-92725420D01*
X103948000Y-92471420D01*
X103968000Y-92471420D01*
X103968000Y-91022350D01*
X103809250Y-90863600D01*
X103668971Y-90863600D01*
X103435582Y-90960273D01*
X103256953Y-91138901D01*
X103236777Y-91187609D01*
X103190401Y-91168400D01*
X103059039Y-91168400D01*
X102642500Y-91168400D01*
X102642500Y-91102797D01*
X102765899Y-90979398D01*
X102865008Y-90831072D01*
X102897423Y-90668107D01*
X103098986Y-90466897D01*
X103217175Y-90182265D01*
X103217444Y-89874071D01*
X103099751Y-89589233D01*
X102882015Y-89371116D01*
X102597383Y-89252927D01*
X102289189Y-89252658D01*
X102184920Y-89295741D01*
X102184920Y-88567081D01*
X102184920Y-88435719D01*
X102184920Y-86236079D01*
X102134650Y-86114717D01*
X102041763Y-86021830D01*
X102012200Y-86009584D01*
X102012200Y-85971300D01*
X101977398Y-85796337D01*
X101878289Y-85648011D01*
X101729963Y-85548902D01*
X101555000Y-85514100D01*
X100190900Y-85514100D01*
X100015937Y-85548902D01*
X99867611Y-85648011D01*
X99426711Y-86088911D01*
X99327602Y-86237237D01*
X99292800Y-86412200D01*
X99292800Y-86412500D01*
X99112819Y-86412500D01*
X98991457Y-86462770D01*
X98898570Y-86555657D01*
X98848300Y-86677019D01*
X98848300Y-86808381D01*
X98848300Y-87621181D01*
X98898570Y-87742543D01*
X98991457Y-87835430D01*
X99112819Y-87885700D01*
X99244181Y-87885700D01*
X100387181Y-87885700D01*
X100508543Y-87835430D01*
X100601430Y-87742543D01*
X100651700Y-87621181D01*
X100651700Y-87489819D01*
X100651700Y-86677019D01*
X100601430Y-86555657D01*
X100508543Y-86462770D01*
X100425808Y-86428500D01*
X100925080Y-86428500D01*
X100925080Y-88463754D01*
X100879662Y-88463714D01*
X100826963Y-88428502D01*
X100652000Y-88393700D01*
X100651700Y-88393700D01*
X100651700Y-88378819D01*
X100601430Y-88257457D01*
X100508543Y-88164570D01*
X100387181Y-88114300D01*
X100255819Y-88114300D01*
X99112819Y-88114300D01*
X98991457Y-88164570D01*
X98898570Y-88257457D01*
X98848300Y-88378819D01*
X98848300Y-88510181D01*
X98848300Y-89322981D01*
X98898570Y-89444343D01*
X98991457Y-89537230D01*
X99112819Y-89587500D01*
X99244181Y-89587500D01*
X99981422Y-89587500D01*
X99863922Y-89705000D01*
X99750000Y-89705000D01*
X99575037Y-89739802D01*
X99426711Y-89838911D01*
X99327602Y-89987237D01*
X99292800Y-90162200D01*
X99292800Y-90162500D01*
X99112819Y-90162500D01*
X98991457Y-90212770D01*
X98898570Y-90305657D01*
X98848300Y-90427019D01*
X98848300Y-90558381D01*
X98848300Y-91371181D01*
X98898570Y-91492543D01*
X98991457Y-91585430D01*
X99112819Y-91635700D01*
X99244181Y-91635700D01*
X100387181Y-91635700D01*
X100508543Y-91585430D01*
X100601430Y-91492543D01*
X100651700Y-91371181D01*
X100651700Y-91239819D01*
X100651700Y-90427019D01*
X100601430Y-90305657D01*
X100578925Y-90283152D01*
X100848989Y-90013088D01*
X101130421Y-90013334D01*
X101415259Y-89895641D01*
X101633376Y-89677905D01*
X101751565Y-89393273D01*
X101751834Y-89085079D01*
X101647098Y-88831600D01*
X101920401Y-88831600D01*
X102041763Y-88781330D01*
X102134650Y-88688443D01*
X102184920Y-88567081D01*
X102184920Y-89295741D01*
X102004351Y-89370351D01*
X101786234Y-89588087D01*
X101668045Y-89872719D01*
X101667776Y-90180913D01*
X101785469Y-90465751D01*
X101885841Y-90566299D01*
X101862011Y-90590130D01*
X101762902Y-90738456D01*
X101728100Y-90913419D01*
X101728100Y-91168400D01*
X101189599Y-91168400D01*
X101068237Y-91218670D01*
X100975350Y-91311557D01*
X100925080Y-91432919D01*
X100925080Y-91564281D01*
X100925080Y-92143700D01*
X100651700Y-92143700D01*
X100651700Y-92128819D01*
X100601430Y-92007457D01*
X100508543Y-91914570D01*
X100387181Y-91864300D01*
X100255819Y-91864300D01*
X99112819Y-91864300D01*
X98991457Y-91914570D01*
X98898570Y-92007457D01*
X98848300Y-92128819D01*
X98848300Y-92260181D01*
X98848300Y-93072981D01*
X98898570Y-93194343D01*
X98991457Y-93287230D01*
X99112819Y-93337500D01*
X99244181Y-93337500D01*
X100387181Y-93337500D01*
X100508543Y-93287230D01*
X100601430Y-93194343D01*
X100651700Y-93072981D01*
X100651700Y-93058100D01*
X100925080Y-93058100D01*
X100925080Y-93763921D01*
X100975350Y-93885283D01*
X101068237Y-93978170D01*
X101095091Y-93989293D01*
X101093037Y-93989702D01*
X100944711Y-94088811D01*
X100755173Y-94278348D01*
X100681199Y-94204373D01*
X100447810Y-94107700D01*
X100195191Y-94107700D01*
X100035750Y-94107700D01*
X99877000Y-94266450D01*
X99877000Y-95022100D01*
X99897000Y-95022100D01*
X99897000Y-95276100D01*
X99877000Y-95276100D01*
X99877000Y-95296100D01*
X99623000Y-95296100D01*
X99623000Y-95276100D01*
X99623000Y-95022100D01*
X99623000Y-94266450D01*
X99464250Y-94107700D01*
X99304809Y-94107700D01*
X99052190Y-94107700D01*
X98818801Y-94204373D01*
X98640173Y-94383002D01*
X98543500Y-94616391D01*
X98543500Y-94863350D01*
X98702250Y-95022100D01*
X99623000Y-95022100D01*
X99623000Y-95276100D01*
X98702250Y-95276100D01*
X98543500Y-95434850D01*
X98543500Y-95681809D01*
X98640173Y-95915198D01*
X98818801Y-96093827D01*
X98990910Y-96165116D01*
X98898570Y-96257457D01*
X98848300Y-96378819D01*
X98848300Y-96510181D01*
X98848300Y-97322981D01*
X98898570Y-97444343D01*
X98991457Y-97537230D01*
X99112819Y-97587500D01*
X99244181Y-97587500D01*
X99292800Y-97587500D01*
X99292800Y-97662500D01*
X99112819Y-97662500D01*
X98991457Y-97712770D01*
X98898570Y-97805657D01*
X98848300Y-97927019D01*
X98848300Y-98058381D01*
X98848300Y-98871181D01*
X98898570Y-98992543D01*
X98991457Y-99085430D01*
X99112819Y-99135700D01*
X99244181Y-99135700D01*
X100387181Y-99135700D01*
X100508543Y-99085430D01*
X100601430Y-98992543D01*
X100651700Y-98871181D01*
X100651700Y-98739819D01*
X100651700Y-97927019D01*
X100601430Y-97805657D01*
X100508543Y-97712770D01*
X100387181Y-97662500D01*
X100255819Y-97662500D01*
X100207200Y-97662500D01*
X100207200Y-97587500D01*
X100387181Y-97587500D01*
X100508543Y-97537230D01*
X100601430Y-97444343D01*
X100651700Y-97322981D01*
X100651700Y-97191619D01*
X100651700Y-96760878D01*
X100820464Y-96592114D01*
X100952250Y-96723900D01*
X101873000Y-96723900D01*
X101873000Y-96703900D01*
X102127000Y-96703900D01*
X102127000Y-96723900D01*
X103047750Y-96723900D01*
X103206500Y-96565150D01*
X103206500Y-96318191D01*
X103109827Y-96084802D01*
X102931199Y-95906173D01*
X102759089Y-95834883D01*
X102851430Y-95742543D01*
X102901700Y-95621181D01*
X102901700Y-95606300D01*
X102902000Y-95606300D01*
X103076963Y-95571498D01*
X103225289Y-95472389D01*
X103348300Y-95349378D01*
X103348300Y-95621181D01*
X103398570Y-95742543D01*
X103491457Y-95835430D01*
X103612819Y-95885700D01*
X103744181Y-95885700D01*
X104887181Y-95885700D01*
X105008543Y-95835430D01*
X105101430Y-95742543D01*
X105151700Y-95621181D01*
X105151700Y-95489819D01*
X105151700Y-94835545D01*
X105156463Y-94834598D01*
X105304789Y-94735489D01*
X105688289Y-94351989D01*
X105694437Y-94342786D01*
X105607700Y-94552190D01*
X105607700Y-94804809D01*
X105607700Y-94964250D01*
X105766450Y-95123000D01*
X106522100Y-95123000D01*
X106522100Y-95103000D01*
X106776100Y-95103000D01*
X106776100Y-95123000D01*
X106796100Y-95123000D01*
X106796100Y-95377000D01*
X106776100Y-95377000D01*
X106776100Y-96297750D01*
X106934850Y-96456500D01*
X107181809Y-96456500D01*
X107219163Y-96441027D01*
X107173094Y-96487016D01*
X107054905Y-96771648D01*
X107054775Y-96919800D01*
X106522100Y-96919800D01*
X106522100Y-96297750D01*
X106522100Y-95377000D01*
X105766450Y-95377000D01*
X105607700Y-95535750D01*
X105607700Y-95695191D01*
X105607700Y-95947810D01*
X105704373Y-96181199D01*
X105883002Y-96359827D01*
X106116391Y-96456500D01*
X106363350Y-96456500D01*
X106522100Y-96297750D01*
X106522100Y-96919800D01*
X105829319Y-96919800D01*
X105707957Y-96970070D01*
X105615070Y-97062957D01*
X105587051Y-97130600D01*
X105151700Y-97130600D01*
X105151700Y-96378819D01*
X105101430Y-96257457D01*
X105008543Y-96164570D01*
X104887181Y-96114300D01*
X104755819Y-96114300D01*
X103612819Y-96114300D01*
X103491457Y-96164570D01*
X103398570Y-96257457D01*
X103348300Y-96378819D01*
X103348300Y-96510181D01*
X103348300Y-97322981D01*
X103398570Y-97444343D01*
X103491457Y-97537230D01*
X103612819Y-97587500D01*
X103744181Y-97587500D01*
X103792800Y-97587500D01*
X103792800Y-97587800D01*
X103792800Y-97662200D01*
X103792800Y-97662500D01*
X103612819Y-97662500D01*
X103491457Y-97712770D01*
X103398570Y-97805657D01*
X103348300Y-97927019D01*
X103348300Y-98058381D01*
X103348300Y-98871181D01*
X103398570Y-98992543D01*
X103491457Y-99085430D01*
X103612819Y-99135700D01*
X103744181Y-99135700D01*
X104887181Y-99135700D01*
X105008543Y-99085430D01*
X105101430Y-98992543D01*
X105151700Y-98871181D01*
X105151700Y-98739819D01*
X105151700Y-98045000D01*
X105564800Y-98045000D01*
X105564800Y-100619800D01*
X105132306Y-100619800D01*
X105151700Y-100572981D01*
X105151700Y-100441619D01*
X105151700Y-99628819D01*
X105101430Y-99507457D01*
X105008543Y-99414570D01*
X104887181Y-99364300D01*
X104755819Y-99364300D01*
X103612819Y-99364300D01*
X103491457Y-99414570D01*
X103398570Y-99507457D01*
X103348300Y-99628819D01*
X103348300Y-99643700D01*
X102901700Y-99643700D01*
X102901700Y-99628819D01*
X102851430Y-99507457D01*
X102759089Y-99415116D01*
X102931199Y-99343827D01*
X103109827Y-99165198D01*
X103206500Y-98931809D01*
X103206500Y-98684850D01*
X103206500Y-98113350D01*
X103206500Y-97866391D01*
X103109827Y-97633002D01*
X103101825Y-97625000D01*
X103109827Y-97616998D01*
X103206500Y-97383609D01*
X103206500Y-97136650D01*
X103047750Y-96977900D01*
X102127000Y-96977900D01*
X102127000Y-97516450D01*
X102127000Y-97733550D01*
X102127000Y-98272100D01*
X103047750Y-98272100D01*
X103206500Y-98113350D01*
X103206500Y-98684850D01*
X103047750Y-98526100D01*
X102127000Y-98526100D01*
X102127000Y-98546100D01*
X101873000Y-98546100D01*
X101873000Y-98526100D01*
X101873000Y-98272100D01*
X101873000Y-97733550D01*
X101873000Y-97516450D01*
X101873000Y-96977900D01*
X100952250Y-96977900D01*
X100793500Y-97136650D01*
X100793500Y-97383609D01*
X100890173Y-97616998D01*
X100898174Y-97625000D01*
X100890173Y-97633002D01*
X100793500Y-97866391D01*
X100793500Y-98113350D01*
X100952250Y-98272100D01*
X101873000Y-98272100D01*
X101873000Y-98526100D01*
X100952250Y-98526100D01*
X100793500Y-98684850D01*
X100793500Y-98931809D01*
X100890173Y-99165198D01*
X101068801Y-99343827D01*
X101240910Y-99415116D01*
X101148570Y-99507457D01*
X101098300Y-99628819D01*
X101098300Y-99643700D01*
X100651700Y-99643700D01*
X100651700Y-99628819D01*
X100601430Y-99507457D01*
X100508543Y-99414570D01*
X100387181Y-99364300D01*
X100255819Y-99364300D01*
X99112819Y-99364300D01*
X98991457Y-99414570D01*
X98898570Y-99507457D01*
X98848300Y-99628819D01*
X98848300Y-99760181D01*
X98848300Y-100572981D01*
X98867693Y-100619800D01*
X98380200Y-100619800D01*
X98380200Y-83380200D01*
X137619800Y-83380200D01*
X137619800Y-100619800D01*
X137619800Y-100619800D01*
G37*
X137619800Y-100619800D02*
X136824920Y-100619800D01*
X136824920Y-93513921D01*
X136824920Y-93382559D01*
X136824920Y-91182919D01*
X136824920Y-88317081D01*
X136824920Y-88185719D01*
X136824920Y-85986079D01*
X136774650Y-85864717D01*
X136681763Y-85771830D01*
X136560401Y-85721560D01*
X136429039Y-85721560D01*
X135829599Y-85721560D01*
X135708237Y-85771830D01*
X135615350Y-85864717D01*
X135565080Y-85986079D01*
X135565080Y-86117441D01*
X135565080Y-88317081D01*
X135615350Y-88438443D01*
X135708237Y-88531330D01*
X135829599Y-88581600D01*
X135960961Y-88581600D01*
X136560401Y-88581600D01*
X136681763Y-88531330D01*
X136774650Y-88438443D01*
X136824920Y-88317081D01*
X136824920Y-91182919D01*
X136774650Y-91061557D01*
X136681763Y-90968670D01*
X136560401Y-90918400D01*
X136429039Y-90918400D01*
X135829599Y-90918400D01*
X135708237Y-90968670D01*
X135615350Y-91061557D01*
X135565080Y-91182919D01*
X135565080Y-91314281D01*
X135565080Y-93513921D01*
X135615350Y-93635283D01*
X135708237Y-93728170D01*
X135829599Y-93778440D01*
X135960961Y-93778440D01*
X136560401Y-93778440D01*
X136681763Y-93728170D01*
X136774650Y-93635283D01*
X136824920Y-93513921D01*
X136824920Y-100619800D01*
X135554920Y-100619800D01*
X135554920Y-93513921D01*
X135554920Y-93382559D01*
X135554920Y-91182919D01*
X135504650Y-91061557D01*
X135411763Y-90968670D01*
X135290401Y-90918400D01*
X135159039Y-90918400D01*
X134559599Y-90918400D01*
X134438237Y-90968670D01*
X134345350Y-91061557D01*
X134295080Y-91182919D01*
X134295080Y-91314281D01*
X134295080Y-93513921D01*
X134345350Y-93635283D01*
X134438237Y-93728170D01*
X134559599Y-93778440D01*
X134690961Y-93778440D01*
X135290401Y-93778440D01*
X135411763Y-93728170D01*
X135504650Y-93635283D01*
X135554920Y-93513921D01*
X135554920Y-100619800D01*
X135142300Y-100619800D01*
X135142300Y-95697810D01*
X135142300Y-95445191D01*
X135142300Y-95285750D01*
X134983550Y-95127000D01*
X134227900Y-95127000D01*
X134227900Y-96047750D01*
X134386650Y-96206500D01*
X134633609Y-96206500D01*
X134866998Y-96109827D01*
X135045627Y-95931199D01*
X135142300Y-95697810D01*
X135142300Y-100619800D01*
X130435200Y-100619800D01*
X130435200Y-97184319D01*
X130384930Y-97062957D01*
X130292043Y-96970070D01*
X130170681Y-96919800D01*
X130039319Y-96919800D01*
X128689319Y-96919800D01*
X128567957Y-96970070D01*
X128475070Y-97062957D01*
X128424800Y-97184319D01*
X128424800Y-97315681D01*
X128424800Y-100619800D01*
X128200000Y-100619800D01*
X128200000Y-99285750D01*
X128041250Y-99127000D01*
X127017000Y-99127000D01*
X127017000Y-99147000D01*
X126763000Y-99147000D01*
X126763000Y-99127000D01*
X125738750Y-99127000D01*
X125620000Y-99245750D01*
X125501250Y-99127000D01*
X124477000Y-99127000D01*
X124477000Y-99147000D01*
X124223000Y-99147000D01*
X124223000Y-99127000D01*
X123198750Y-99127000D01*
X123040000Y-99285750D01*
X123040000Y-100619800D01*
X122815200Y-100619800D01*
X122815200Y-97184319D01*
X122764930Y-97062957D01*
X122672043Y-96970070D01*
X122550681Y-96919800D01*
X122419319Y-96919800D01*
X121069319Y-96919800D01*
X120947957Y-96970070D01*
X120855070Y-97062957D01*
X120804800Y-97184319D01*
X120804800Y-97315681D01*
X120804800Y-100619800D01*
X120275200Y-100619800D01*
X120275200Y-97184319D01*
X120224930Y-97062957D01*
X120132043Y-96970070D01*
X120010681Y-96919800D01*
X119879319Y-96919800D01*
X118529319Y-96919800D01*
X118407957Y-96970070D01*
X118315070Y-97062957D01*
X118264800Y-97184319D01*
X118264800Y-97315681D01*
X118264800Y-100619800D01*
X117735200Y-100619800D01*
X117735200Y-97184319D01*
X117684930Y-97062957D01*
X117592043Y-96970070D01*
X117470681Y-96919800D01*
X117376278Y-96919800D01*
X117506578Y-96789500D01*
X123237474Y-96789500D01*
X123136673Y-96890301D01*
X123040000Y-97123690D01*
X123040000Y-97376309D01*
X123040000Y-98714250D01*
X123198750Y-98873000D01*
X124223000Y-98873000D01*
X124223000Y-98853000D01*
X124477000Y-98853000D01*
X124477000Y-98873000D01*
X125501250Y-98873000D01*
X125620000Y-98754250D01*
X125738750Y-98873000D01*
X126763000Y-98873000D01*
X126763000Y-98853000D01*
X127017000Y-98853000D01*
X127017000Y-98873000D01*
X128041250Y-98873000D01*
X128200000Y-98714250D01*
X128200000Y-97376309D01*
X128200000Y-97123690D01*
X128103327Y-96890301D01*
X128002525Y-96789500D01*
X132515100Y-96789500D01*
X132690063Y-96754698D01*
X132838389Y-96655589D01*
X133369697Y-96124280D01*
X133568191Y-96206500D01*
X133815150Y-96206500D01*
X133973900Y-96047750D01*
X133973900Y-95127000D01*
X133953900Y-95127000D01*
X133953900Y-94873000D01*
X133973900Y-94873000D01*
X133973900Y-94853000D01*
X134227900Y-94853000D01*
X134227900Y-94873000D01*
X134983550Y-94873000D01*
X135142300Y-94714250D01*
X135142300Y-94554809D01*
X135142300Y-94302190D01*
X135045627Y-94068801D01*
X134866998Y-93890173D01*
X134633609Y-93793500D01*
X134386650Y-93793500D01*
X134227902Y-93952248D01*
X134227902Y-93793500D01*
X134109255Y-93793500D01*
X134112199Y-93778700D01*
X134112200Y-93778700D01*
X134112200Y-93740415D01*
X134141763Y-93728170D01*
X134234650Y-93635283D01*
X134284920Y-93513921D01*
X134284920Y-93382559D01*
X134284920Y-91182919D01*
X134234650Y-91061557D01*
X134141763Y-90968670D01*
X134020401Y-90918400D01*
X133889039Y-90918400D01*
X133289599Y-90918400D01*
X133168237Y-90968670D01*
X133075350Y-91061557D01*
X133025080Y-91182919D01*
X133025080Y-91314281D01*
X133025080Y-93513921D01*
X133075350Y-93635283D01*
X133113594Y-93673527D01*
X132842200Y-93944921D01*
X132842200Y-93778700D01*
X132842200Y-93740415D01*
X132871763Y-93728170D01*
X132964650Y-93635283D01*
X133014920Y-93513921D01*
X133014920Y-93382559D01*
X133014920Y-91182919D01*
X132964650Y-91061557D01*
X132871763Y-90968670D01*
X132750401Y-90918400D01*
X132619039Y-90918400D01*
X132019599Y-90918400D01*
X131898237Y-90968670D01*
X131805350Y-91061557D01*
X131755080Y-91182919D01*
X131755080Y-91314281D01*
X131755080Y-93513921D01*
X131805350Y-93635283D01*
X131898237Y-93728170D01*
X131927800Y-93740415D01*
X131927800Y-93778700D01*
X131927800Y-94083900D01*
X131930664Y-94098300D01*
X131927019Y-94098300D01*
X131805657Y-94148570D01*
X131712770Y-94241457D01*
X131662500Y-94362819D01*
X131662500Y-94388658D01*
X131619463Y-94359902D01*
X131444500Y-94325100D01*
X131215178Y-94325100D01*
X131438289Y-94101990D01*
X131438289Y-94101989D01*
X131537398Y-93953663D01*
X131572199Y-93778700D01*
X131572200Y-93778700D01*
X131572200Y-93740415D01*
X131601763Y-93728170D01*
X131694650Y-93635283D01*
X131744920Y-93513921D01*
X131744920Y-93382559D01*
X131744920Y-91182919D01*
X131694650Y-91061557D01*
X131601763Y-90968670D01*
X131480401Y-90918400D01*
X131349039Y-90918400D01*
X130749599Y-90918400D01*
X130703222Y-90937609D01*
X130683047Y-90888901D01*
X130504418Y-90710273D01*
X130271029Y-90613600D01*
X130130750Y-90613600D01*
X129972000Y-90772350D01*
X129972000Y-92221420D01*
X129992000Y-92221420D01*
X129992000Y-92475420D01*
X129972000Y-92475420D01*
X129972000Y-92495420D01*
X129718000Y-92495420D01*
X129718000Y-92475420D01*
X129698000Y-92475420D01*
X129698000Y-92221420D01*
X129718000Y-92221420D01*
X129718000Y-90772350D01*
X129559250Y-90613600D01*
X129418971Y-90613600D01*
X129185582Y-90710273D01*
X129006953Y-90888901D01*
X128986777Y-90937609D01*
X128940401Y-90918400D01*
X128809039Y-90918400D01*
X128209599Y-90918400D01*
X128088237Y-90968670D01*
X127995350Y-91061557D01*
X127945080Y-91182919D01*
X127945080Y-91314281D01*
X127945080Y-93513921D01*
X127995350Y-93635283D01*
X128088237Y-93728170D01*
X128209599Y-93778440D01*
X128340961Y-93778440D01*
X128940401Y-93778440D01*
X128986777Y-93759230D01*
X129001427Y-93794600D01*
X127759037Y-93794600D01*
X127762200Y-93778700D01*
X127762200Y-93740415D01*
X127791763Y-93728170D01*
X127884650Y-93635283D01*
X127934920Y-93513921D01*
X127934920Y-93382559D01*
X127934920Y-91182919D01*
X127884650Y-91061557D01*
X127791763Y-90968670D01*
X127670401Y-90918400D01*
X127539039Y-90918400D01*
X126939599Y-90918400D01*
X126892300Y-90937991D01*
X126892300Y-90785750D01*
X126733550Y-90627000D01*
X125977900Y-90627000D01*
X125977900Y-91547750D01*
X126136650Y-91706500D01*
X126383609Y-91706500D01*
X126616998Y-91609827D01*
X126675080Y-91551745D01*
X126675080Y-92560160D01*
X126587800Y-92542800D01*
X126587500Y-92542800D01*
X126587500Y-92362819D01*
X126537230Y-92241457D01*
X126444343Y-92148570D01*
X126322981Y-92098300D01*
X126191619Y-92098300D01*
X125378819Y-92098300D01*
X125257457Y-92148570D01*
X125164570Y-92241457D01*
X125114300Y-92362819D01*
X125114300Y-92494181D01*
X125114300Y-93637181D01*
X125164570Y-93758543D01*
X125200627Y-93794600D01*
X124799373Y-93794600D01*
X124835430Y-93758543D01*
X124885700Y-93637181D01*
X124885700Y-93505819D01*
X124885700Y-92362819D01*
X124835430Y-92241457D01*
X124742543Y-92148570D01*
X124740144Y-92147576D01*
X124827515Y-91937162D01*
X125134334Y-91630344D01*
X125318191Y-91706500D01*
X125565150Y-91706500D01*
X125723900Y-91547750D01*
X125723900Y-90627000D01*
X125703900Y-90627000D01*
X125703900Y-90373000D01*
X125723900Y-90373000D01*
X125723900Y-89452250D01*
X125646650Y-89375000D01*
X125723900Y-89297750D01*
X125723900Y-88377000D01*
X125703900Y-88377000D01*
X125703900Y-88123000D01*
X125723900Y-88123000D01*
X125723900Y-87202250D01*
X125565150Y-87043500D01*
X125343200Y-87043500D01*
X125343200Y-86886946D01*
X125378819Y-86901700D01*
X125510181Y-86901700D01*
X126322981Y-86901700D01*
X126444343Y-86851430D01*
X126537230Y-86758543D01*
X126587500Y-86637181D01*
X126587500Y-86505819D01*
X126587500Y-86457200D01*
X126587800Y-86457200D01*
X126675080Y-86439839D01*
X126675080Y-87198254D01*
X126616998Y-87140173D01*
X126383609Y-87043500D01*
X126136650Y-87043500D01*
X125977900Y-87202250D01*
X125977900Y-88123000D01*
X125997900Y-88123000D01*
X125997900Y-88377000D01*
X125977900Y-88377000D01*
X125977900Y-89297750D01*
X126055150Y-89375000D01*
X125977900Y-89452250D01*
X125977900Y-90373000D01*
X126733550Y-90373000D01*
X126892300Y-90214250D01*
X126892300Y-90054809D01*
X126892300Y-89802190D01*
X126795627Y-89568801D01*
X126616998Y-89390173D01*
X126580367Y-89375000D01*
X126616998Y-89359827D01*
X126795627Y-89181199D01*
X126892300Y-88947810D01*
X126892300Y-88695191D01*
X126892300Y-88562008D01*
X126939599Y-88581600D01*
X127070961Y-88581600D01*
X127670401Y-88581600D01*
X127791763Y-88531330D01*
X127884650Y-88438443D01*
X127934920Y-88317081D01*
X127934920Y-88185719D01*
X127934920Y-85986079D01*
X127884650Y-85864717D01*
X127791763Y-85771830D01*
X127762200Y-85759584D01*
X127762200Y-85721300D01*
X127727398Y-85546337D01*
X127628289Y-85398011D01*
X127479963Y-85298902D01*
X127397498Y-85282499D01*
X130029620Y-85282499D01*
X130163882Y-85416760D01*
X130130750Y-85416760D01*
X129972000Y-85575510D01*
X129972000Y-87024580D01*
X129992000Y-87024580D01*
X129992000Y-87278580D01*
X129972000Y-87278580D01*
X129972000Y-87298580D01*
X129718000Y-87298580D01*
X129718000Y-87278580D01*
X129698000Y-87278580D01*
X129698000Y-87024580D01*
X129718000Y-87024580D01*
X129718000Y-85575510D01*
X129559250Y-85416760D01*
X129418971Y-85416760D01*
X129185582Y-85513433D01*
X129006953Y-85692061D01*
X128986777Y-85740769D01*
X128940401Y-85721560D01*
X128809039Y-85721560D01*
X128209599Y-85721560D01*
X128088237Y-85771830D01*
X127995350Y-85864717D01*
X127945080Y-85986079D01*
X127945080Y-86117441D01*
X127945080Y-88317081D01*
X127995350Y-88438443D01*
X128088237Y-88531330D01*
X128134631Y-88550547D01*
X128115241Y-88558559D01*
X127897124Y-88776295D01*
X127778935Y-89060927D01*
X127778666Y-89369121D01*
X127896359Y-89653959D01*
X128114095Y-89872076D01*
X128398727Y-89990265D01*
X128706921Y-89990534D01*
X128991759Y-89872841D01*
X129192049Y-89672900D01*
X133021200Y-89672900D01*
X133196163Y-89638098D01*
X133344489Y-89538989D01*
X133978289Y-88905189D01*
X133978290Y-88905189D01*
X134077398Y-88756863D01*
X134112200Y-88581900D01*
X134112200Y-88543575D01*
X134141763Y-88531330D01*
X134234650Y-88438443D01*
X134284920Y-88317081D01*
X134284920Y-88185719D01*
X134284920Y-85986079D01*
X134234650Y-85864717D01*
X134227902Y-85857969D01*
X134227902Y-85797752D01*
X134330563Y-85900413D01*
X134295080Y-85986079D01*
X134295080Y-86117441D01*
X134295080Y-88317081D01*
X134345350Y-88438443D01*
X134438237Y-88531330D01*
X134559599Y-88581600D01*
X134690961Y-88581600D01*
X135290401Y-88581600D01*
X135411763Y-88531330D01*
X135504650Y-88438443D01*
X135554920Y-88317081D01*
X135554920Y-88185719D01*
X135554920Y-85986079D01*
X135504650Y-85864717D01*
X135411763Y-85771830D01*
X135290401Y-85721560D01*
X135159039Y-85721560D01*
X135005265Y-85721560D01*
X135045627Y-85681199D01*
X135142300Y-85447810D01*
X135142300Y-85195191D01*
X135142300Y-85035750D01*
X135142300Y-84464250D01*
X135142300Y-84304809D01*
X135142300Y-84052190D01*
X135045627Y-83818801D01*
X134866998Y-83640173D01*
X134633609Y-83543500D01*
X134386650Y-83543500D01*
X134227900Y-83702250D01*
X134227900Y-84623000D01*
X134983550Y-84623000D01*
X135142300Y-84464250D01*
X135142300Y-85035750D01*
X134983550Y-84877000D01*
X134227900Y-84877000D01*
X134227900Y-84897000D01*
X133973900Y-84897000D01*
X133973900Y-84877000D01*
X133953900Y-84877000D01*
X133953900Y-84623000D01*
X133973900Y-84623000D01*
X133973900Y-83702250D01*
X133815150Y-83543500D01*
X133568191Y-83543500D01*
X133334802Y-83640173D01*
X133156173Y-83818801D01*
X133084883Y-83990910D01*
X132992543Y-83898570D01*
X132871181Y-83848300D01*
X132739819Y-83848300D01*
X131927019Y-83848300D01*
X131805657Y-83898570D01*
X131712770Y-83991457D01*
X131687570Y-84052292D01*
X131236489Y-83601211D01*
X131088163Y-83502102D01*
X130913200Y-83467300D01*
X120287660Y-83467300D01*
X120112697Y-83502102D01*
X119964371Y-83601211D01*
X118235410Y-85330171D01*
X118236365Y-85327873D01*
X118236634Y-85019679D01*
X118118941Y-84734841D01*
X117901205Y-84516724D01*
X117616573Y-84398535D01*
X117308379Y-84398266D01*
X117023541Y-84515959D01*
X116805424Y-84733695D01*
X116687235Y-85018327D01*
X116687108Y-85163530D01*
X115952889Y-84429311D01*
X115804563Y-84330202D01*
X115629600Y-84295400D01*
X107585200Y-84295400D01*
X107410237Y-84330202D01*
X107337500Y-84378803D01*
X107337500Y-84362819D01*
X107287230Y-84241457D01*
X107194343Y-84148570D01*
X107072981Y-84098300D01*
X106941619Y-84098300D01*
X106128819Y-84098300D01*
X106007457Y-84148570D01*
X105915116Y-84240910D01*
X105843827Y-84068801D01*
X105665198Y-83890173D01*
X105431809Y-83793500D01*
X105184850Y-83793500D01*
X105026100Y-83952250D01*
X105026100Y-84873000D01*
X105046100Y-84873000D01*
X105046100Y-85127000D01*
X105026100Y-85127000D01*
X105026100Y-85147000D01*
X104772100Y-85147000D01*
X104772100Y-85127000D01*
X104772100Y-84873000D01*
X104772100Y-83952250D01*
X104613350Y-83793500D01*
X104366391Y-83793500D01*
X104133002Y-83890173D01*
X103954373Y-84068801D01*
X103857700Y-84302190D01*
X103857700Y-84554809D01*
X103857700Y-84714250D01*
X104016450Y-84873000D01*
X104772100Y-84873000D01*
X104772100Y-85127000D01*
X104016450Y-85127000D01*
X103857700Y-85285750D01*
X103857700Y-85445191D01*
X103857700Y-85697810D01*
X103870003Y-85727513D01*
X103809250Y-85666760D01*
X103668971Y-85666760D01*
X103435582Y-85763433D01*
X103256953Y-85942061D01*
X103236777Y-85990769D01*
X103190401Y-85971560D01*
X103059039Y-85971560D01*
X102459599Y-85971560D01*
X102338237Y-86021830D01*
X102245350Y-86114717D01*
X102195080Y-86236079D01*
X102195080Y-86367441D01*
X102195080Y-88567081D01*
X102245350Y-88688443D01*
X102338237Y-88781330D01*
X102459599Y-88831600D01*
X102590961Y-88831600D01*
X103190401Y-88831600D01*
X103236777Y-88812390D01*
X103256953Y-88861099D01*
X103391127Y-88995272D01*
X103390871Y-88995891D01*
X103390602Y-89304085D01*
X103508295Y-89588923D01*
X103726031Y-89807040D01*
X104010663Y-89925229D01*
X104293670Y-89925476D01*
X104907800Y-90539606D01*
X104907800Y-91113654D01*
X104754418Y-90960273D01*
X104521029Y-90863600D01*
X104380750Y-90863600D01*
X104222000Y-91022350D01*
X104222000Y-92471420D01*
X104242000Y-92471420D01*
X104242000Y-92725420D01*
X104222000Y-92725420D01*
X104222000Y-92745420D01*
X103968000Y-92745420D01*
X103968000Y-92725420D01*
X103948000Y-92725420D01*
X103948000Y-92471420D01*
X103968000Y-92471420D01*
X103968000Y-91022350D01*
X103809250Y-90863600D01*
X103668971Y-90863600D01*
X103435582Y-90960273D01*
X103256953Y-91138901D01*
X103236777Y-91187609D01*
X103190401Y-91168400D01*
X103059039Y-91168400D01*
X102642500Y-91168400D01*
X102642500Y-91102797D01*
X102765899Y-90979398D01*
X102865008Y-90831072D01*
X102897423Y-90668107D01*
X103098986Y-90466897D01*
X103217175Y-90182265D01*
X103217444Y-89874071D01*
X103099751Y-89589233D01*
X102882015Y-89371116D01*
X102597383Y-89252927D01*
X102289189Y-89252658D01*
X102184920Y-89295741D01*
X102184920Y-88567081D01*
X102184920Y-88435719D01*
X102184920Y-86236079D01*
X102134650Y-86114717D01*
X102041763Y-86021830D01*
X102012200Y-86009584D01*
X102012200Y-85971300D01*
X101977398Y-85796337D01*
X101878289Y-85648011D01*
X101729963Y-85548902D01*
X101555000Y-85514100D01*
X100190900Y-85514100D01*
X100015937Y-85548902D01*
X99867611Y-85648011D01*
X99426711Y-86088911D01*
X99327602Y-86237237D01*
X99292800Y-86412200D01*
X99292800Y-86412500D01*
X99112819Y-86412500D01*
X98991457Y-86462770D01*
X98898570Y-86555657D01*
X98848300Y-86677019D01*
X98848300Y-86808381D01*
X98848300Y-87621181D01*
X98898570Y-87742543D01*
X98991457Y-87835430D01*
X99112819Y-87885700D01*
X99244181Y-87885700D01*
X100387181Y-87885700D01*
X100508543Y-87835430D01*
X100601430Y-87742543D01*
X100651700Y-87621181D01*
X100651700Y-87489819D01*
X100651700Y-86677019D01*
X100601430Y-86555657D01*
X100508543Y-86462770D01*
X100425808Y-86428500D01*
X100925080Y-86428500D01*
X100925080Y-88463754D01*
X100879662Y-88463714D01*
X100826963Y-88428502D01*
X100652000Y-88393700D01*
X100651700Y-88393700D01*
X100651700Y-88378819D01*
X100601430Y-88257457D01*
X100508543Y-88164570D01*
X100387181Y-88114300D01*
X100255819Y-88114300D01*
X99112819Y-88114300D01*
X98991457Y-88164570D01*
X98898570Y-88257457D01*
X98848300Y-88378819D01*
X98848300Y-88510181D01*
X98848300Y-89322981D01*
X98898570Y-89444343D01*
X98991457Y-89537230D01*
X99112819Y-89587500D01*
X99244181Y-89587500D01*
X99981422Y-89587500D01*
X99863922Y-89705000D01*
X99750000Y-89705000D01*
X99575037Y-89739802D01*
X99426711Y-89838911D01*
X99327602Y-89987237D01*
X99292800Y-90162200D01*
X99292800Y-90162500D01*
X99112819Y-90162500D01*
X98991457Y-90212770D01*
X98898570Y-90305657D01*
X98848300Y-90427019D01*
X98848300Y-90558381D01*
X98848300Y-91371181D01*
X98898570Y-91492543D01*
X98991457Y-91585430D01*
X99112819Y-91635700D01*
X99244181Y-91635700D01*
X100387181Y-91635700D01*
X100508543Y-91585430D01*
X100601430Y-91492543D01*
X100651700Y-91371181D01*
X100651700Y-91239819D01*
X100651700Y-90427019D01*
X100601430Y-90305657D01*
X100578925Y-90283152D01*
X100848989Y-90013088D01*
X101130421Y-90013334D01*
X101415259Y-89895641D01*
X101633376Y-89677905D01*
X101751565Y-89393273D01*
X101751834Y-89085079D01*
X101647098Y-88831600D01*
X101920401Y-88831600D01*
X102041763Y-88781330D01*
X102134650Y-88688443D01*
X102184920Y-88567081D01*
X102184920Y-89295741D01*
X102004351Y-89370351D01*
X101786234Y-89588087D01*
X101668045Y-89872719D01*
X101667776Y-90180913D01*
X101785469Y-90465751D01*
X101885841Y-90566299D01*
X101862011Y-90590130D01*
X101762902Y-90738456D01*
X101728100Y-90913419D01*
X101728100Y-91168400D01*
X101189599Y-91168400D01*
X101068237Y-91218670D01*
X100975350Y-91311557D01*
X100925080Y-91432919D01*
X100925080Y-91564281D01*
X100925080Y-92143700D01*
X100651700Y-92143700D01*
X100651700Y-92128819D01*
X100601430Y-92007457D01*
X100508543Y-91914570D01*
X100387181Y-91864300D01*
X100255819Y-91864300D01*
X99112819Y-91864300D01*
X98991457Y-91914570D01*
X98898570Y-92007457D01*
X98848300Y-92128819D01*
X98848300Y-92260181D01*
X98848300Y-93072981D01*
X98898570Y-93194343D01*
X98991457Y-93287230D01*
X99112819Y-93337500D01*
X99244181Y-93337500D01*
X100387181Y-93337500D01*
X100508543Y-93287230D01*
X100601430Y-93194343D01*
X100651700Y-93072981D01*
X100651700Y-93058100D01*
X100925080Y-93058100D01*
X100925080Y-93763921D01*
X100975350Y-93885283D01*
X101068237Y-93978170D01*
X101095091Y-93989293D01*
X101093037Y-93989702D01*
X100944711Y-94088811D01*
X100755173Y-94278348D01*
X100681199Y-94204373D01*
X100447810Y-94107700D01*
X100195191Y-94107700D01*
X100035750Y-94107700D01*
X99877000Y-94266450D01*
X99877000Y-95022100D01*
X99897000Y-95022100D01*
X99897000Y-95276100D01*
X99877000Y-95276100D01*
X99877000Y-95296100D01*
X99623000Y-95296100D01*
X99623000Y-95276100D01*
X99623000Y-95022100D01*
X99623000Y-94266450D01*
X99464250Y-94107700D01*
X99304809Y-94107700D01*
X99052190Y-94107700D01*
X98818801Y-94204373D01*
X98640173Y-94383002D01*
X98543500Y-94616391D01*
X98543500Y-94863350D01*
X98702250Y-95022100D01*
X99623000Y-95022100D01*
X99623000Y-95276100D01*
X98702250Y-95276100D01*
X98543500Y-95434850D01*
X98543500Y-95681809D01*
X98640173Y-95915198D01*
X98818801Y-96093827D01*
X98990910Y-96165116D01*
X98898570Y-96257457D01*
X98848300Y-96378819D01*
X98848300Y-96510181D01*
X98848300Y-97322981D01*
X98898570Y-97444343D01*
X98991457Y-97537230D01*
X99112819Y-97587500D01*
X99244181Y-97587500D01*
X99292800Y-97587500D01*
X99292800Y-97662500D01*
X99112819Y-97662500D01*
X98991457Y-97712770D01*
X98898570Y-97805657D01*
X98848300Y-97927019D01*
X98848300Y-98058381D01*
X98848300Y-98871181D01*
X98898570Y-98992543D01*
X98991457Y-99085430D01*
X99112819Y-99135700D01*
X99244181Y-99135700D01*
X100387181Y-99135700D01*
X100508543Y-99085430D01*
X100601430Y-98992543D01*
X100651700Y-98871181D01*
X100651700Y-98739819D01*
X100651700Y-97927019D01*
X100601430Y-97805657D01*
X100508543Y-97712770D01*
X100387181Y-97662500D01*
X100255819Y-97662500D01*
X100207200Y-97662500D01*
X100207200Y-97587500D01*
X100387181Y-97587500D01*
X100508543Y-97537230D01*
X100601430Y-97444343D01*
X100651700Y-97322981D01*
X100651700Y-97191619D01*
X100651700Y-96760878D01*
X100820464Y-96592114D01*
X100952250Y-96723900D01*
X101873000Y-96723900D01*
X101873000Y-96703900D01*
X102127000Y-96703900D01*
X102127000Y-96723900D01*
X103047750Y-96723900D01*
X103206500Y-96565150D01*
X103206500Y-96318191D01*
X103109827Y-96084802D01*
X102931199Y-95906173D01*
X102759089Y-95834883D01*
X102851430Y-95742543D01*
X102901700Y-95621181D01*
X102901700Y-95606300D01*
X102902000Y-95606300D01*
X103076963Y-95571498D01*
X103225289Y-95472389D01*
X103348300Y-95349378D01*
X103348300Y-95621181D01*
X103398570Y-95742543D01*
X103491457Y-95835430D01*
X103612819Y-95885700D01*
X103744181Y-95885700D01*
X104887181Y-95885700D01*
X105008543Y-95835430D01*
X105101430Y-95742543D01*
X105151700Y-95621181D01*
X105151700Y-95489819D01*
X105151700Y-94835545D01*
X105156463Y-94834598D01*
X105304789Y-94735489D01*
X105688289Y-94351989D01*
X105694437Y-94342786D01*
X105607700Y-94552190D01*
X105607700Y-94804809D01*
X105607700Y-94964250D01*
X105766450Y-95123000D01*
X106522100Y-95123000D01*
X106522100Y-95103000D01*
X106776100Y-95103000D01*
X106776100Y-95123000D01*
X106796100Y-95123000D01*
X106796100Y-95377000D01*
X106776100Y-95377000D01*
X106776100Y-96297750D01*
X106934850Y-96456500D01*
X107181809Y-96456500D01*
X107219163Y-96441027D01*
X107173094Y-96487016D01*
X107054905Y-96771648D01*
X107054775Y-96919800D01*
X106522100Y-96919800D01*
X106522100Y-96297750D01*
X106522100Y-95377000D01*
X105766450Y-95377000D01*
X105607700Y-95535750D01*
X105607700Y-95695191D01*
X105607700Y-95947810D01*
X105704373Y-96181199D01*
X105883002Y-96359827D01*
X106116391Y-96456500D01*
X106363350Y-96456500D01*
X106522100Y-96297750D01*
X106522100Y-96919800D01*
X105829319Y-96919800D01*
X105707957Y-96970070D01*
X105615070Y-97062957D01*
X105587051Y-97130600D01*
X105151700Y-97130600D01*
X105151700Y-96378819D01*
X105101430Y-96257457D01*
X105008543Y-96164570D01*
X104887181Y-96114300D01*
X104755819Y-96114300D01*
X103612819Y-96114300D01*
X103491457Y-96164570D01*
X103398570Y-96257457D01*
X103348300Y-96378819D01*
X103348300Y-96510181D01*
X103348300Y-97322981D01*
X103398570Y-97444343D01*
X103491457Y-97537230D01*
X103612819Y-97587500D01*
X103744181Y-97587500D01*
X103792800Y-97587500D01*
X103792800Y-97587800D01*
X103792800Y-97662200D01*
X103792800Y-97662500D01*
X103612819Y-97662500D01*
X103491457Y-97712770D01*
X103398570Y-97805657D01*
X103348300Y-97927019D01*
X103348300Y-98058381D01*
X103348300Y-98871181D01*
X103398570Y-98992543D01*
X103491457Y-99085430D01*
X103612819Y-99135700D01*
X103744181Y-99135700D01*
X104887181Y-99135700D01*
X105008543Y-99085430D01*
X105101430Y-98992543D01*
X105151700Y-98871181D01*
X105151700Y-98739819D01*
X105151700Y-98045000D01*
X105564800Y-98045000D01*
X105564800Y-100619800D01*
X105132306Y-100619800D01*
X105151700Y-100572981D01*
X105151700Y-100441619D01*
X105151700Y-99628819D01*
X105101430Y-99507457D01*
X105008543Y-99414570D01*
X104887181Y-99364300D01*
X104755819Y-99364300D01*
X103612819Y-99364300D01*
X103491457Y-99414570D01*
X103398570Y-99507457D01*
X103348300Y-99628819D01*
X103348300Y-99643700D01*
X102901700Y-99643700D01*
X102901700Y-99628819D01*
X102851430Y-99507457D01*
X102759089Y-99415116D01*
X102931199Y-99343827D01*
X103109827Y-99165198D01*
X103206500Y-98931809D01*
X103206500Y-98684850D01*
X103206500Y-98113350D01*
X103206500Y-97866391D01*
X103109827Y-97633002D01*
X103101825Y-97625000D01*
X103109827Y-97616998D01*
X103206500Y-97383609D01*
X103206500Y-97136650D01*
X103047750Y-96977900D01*
X102127000Y-96977900D01*
X102127000Y-97516450D01*
X102127000Y-97733550D01*
X102127000Y-98272100D01*
X103047750Y-98272100D01*
X103206500Y-98113350D01*
X103206500Y-98684850D01*
X103047750Y-98526100D01*
X102127000Y-98526100D01*
X102127000Y-98546100D01*
X101873000Y-98546100D01*
X101873000Y-98526100D01*
X101873000Y-98272100D01*
X101873000Y-97733550D01*
X101873000Y-97516450D01*
X101873000Y-96977900D01*
X100952250Y-96977900D01*
X100793500Y-97136650D01*
X100793500Y-97383609D01*
X100890173Y-97616998D01*
X100898174Y-97625000D01*
X100890173Y-97633002D01*
X100793500Y-97866391D01*
X100793500Y-98113350D01*
X100952250Y-98272100D01*
X101873000Y-98272100D01*
X101873000Y-98526100D01*
X100952250Y-98526100D01*
X100793500Y-98684850D01*
X100793500Y-98931809D01*
X100890173Y-99165198D01*
X101068801Y-99343827D01*
X101240910Y-99415116D01*
X101148570Y-99507457D01*
X101098300Y-99628819D01*
X101098300Y-99643700D01*
X100651700Y-99643700D01*
X100651700Y-99628819D01*
X100601430Y-99507457D01*
X100508543Y-99414570D01*
X100387181Y-99364300D01*
X100255819Y-99364300D01*
X99112819Y-99364300D01*
X98991457Y-99414570D01*
X98898570Y-99507457D01*
X98848300Y-99628819D01*
X98848300Y-99760181D01*
X98848300Y-100572981D01*
X98867693Y-100619800D01*
X98380200Y-100619800D01*
X98380200Y-83380200D01*
X137619800Y-83380200D01*
X137619800Y-100619800D01*
M02*
